<svg width="24" height="24" viewBox="0 0 24 24" fill="none" xmlns="http://www.w3.org/2000/svg">
<path d="M16.8051 12.1973C16.1916 11.5838 15.2061 11.55 14.5492 12.1248L14.5395 12.1345L9.35614 6.22652L9.59285 6.0188C9.86337 5.78209 9.88752 5.37631 9.65081 5.10579L9.45759 4.88841C9.22088 4.61789 8.8151 4.59373 8.54458 4.83044L7.13401 6.0671C6.86349 6.30381 6.83934 6.70959 7.07605 6.98011L7.26928 7.19749C7.50598 7.46801 7.91176 7.49216 8.18228 7.25546L8.39966 7.06223L13.583 12.9702L13.5734 12.9799C12.9212 13.5547 12.8246 14.5353 13.3511 15.2261L15.7423 18.3516C16.322 19.11 17.4234 19.2211 18.1432 18.5883L19.5151 17.3855C20.2349 16.7575 20.2687 15.6512 19.5924 14.9749L16.8051 12.1973Z" fill="white"/>
<path d="M16.8051 12.1973C16.1916 11.5838 15.2061 11.55 14.5492 12.1248L14.5395 12.1345L9.35614 6.22652L9.59285 6.0188C9.86337 5.78209 9.88752 5.37631 9.65081 5.10579L9.45759 4.88841C9.22088 4.61789 8.8151 4.59373 8.54458 4.83044L7.13401 6.0671C6.86349 6.30381 6.83934 6.70959 7.07605 6.98011L7.26928 7.19749C7.50598 7.46801 7.91176 7.49216 8.18228 7.25546L8.39966 7.06223L13.583 12.9702L13.5734 12.9799C12.9212 13.5547 12.8246 14.5353 13.3511 15.2261L15.7423 18.3516C16.322 19.11 17.4234 19.2211 18.1432 18.5883L19.5151 17.3855C20.2349 16.7575 20.2687 15.6512 19.5924 14.9749L16.8051 12.1973Z" fill="white"/>
<path d="M6.72811 12.1973C7.34162 11.5838 8.32708 11.55 8.98406 12.1248L8.99372 12.1345L14.1771 6.22652L13.9404 6.0188C13.6699 5.78209 13.6457 5.37631 13.8824 5.10579L14.0756 4.88841C14.3123 4.61789 14.7181 4.59373 14.9886 4.83044L16.3992 6.0671C16.6697 6.30381 16.6939 6.70959 16.4572 6.98011L16.2639 7.19749C16.0272 7.46801 15.6215 7.49216 15.3509 7.25546L15.1336 7.06223L9.9502 12.9702L9.95986 12.9799C10.612 13.5547 10.7086 14.5353 10.1821 15.2261L7.79087 18.3516C7.21119 19.11 6.10978 19.2211 5.39 18.5883L4.01808 17.3855C3.29831 16.7575 3.26449 15.6512 3.94079 14.9749L6.72811 12.1973Z" fill="#738496"/>
</svg>
