<svg width="20" height="20" viewBox="0 0 20 20" fill="none" xmlns="http://www.w3.org/2000/svg">
<path d="M11.2154 3.17969H8.8374V5.44146H11.2154V3.17969Z" fill="#2C333A"/>
<path d="M7.41783 3.28906L12.6389 3.28906C12.9327 3.28906 13.1709 3.05089 13.1709 2.75709V1.95737C13.1709 1.66356 12.9327 1.42539 12.6389 1.42539L7.41783 1.42539C7.12402 1.42539 6.88585 1.66356 6.88585 1.95737V2.75709C6.88585 3.05089 7.12402 3.28906 7.41783 3.28906Z" fill="#2C333A"/>
<path d="M10.0286 18.9995C14.0854 18.9995 17.3741 15.7109 17.3741 11.6541C17.3741 7.59728 14.0854 4.30859 10.0286 4.30859C5.97179 4.30859 2.68311 7.59728 2.68311 11.6541C2.68311 15.7109 5.97179 18.9995 10.0286 18.9995Z" fill="#2C333A"/>
<path d="M10.0281 17.8706C13.4603 17.8706 16.2427 15.0882 16.2427 11.656C16.2427 8.22377 13.4603 5.44141 10.0281 5.44141C6.59584 5.44141 3.81348 8.22377 3.81348 11.656C3.81348 15.0882 6.59584 17.8706 10.0281 17.8706Z" fill="#2C333A"/>
<path d="M14.3721 12.0257C14.1784 14.3086 12.2266 16.0948 9.87325 16.0138C7.51988 15.9327 5.76894 14.0867 5.67382 11.8425C5.57517 9.47859 7.36134 7.50571 9.65482 7.31194C9.85211 7.29433 10.0247 7.44582 10.0247 7.64663V11.6558H14.0374C14.2347 11.6558 14.3862 11.8284 14.3721 12.0257Z" fill="#00E1FF"/>
</svg>
