<svg width="32" height="32" viewBox="0 0 32 32" fill="none" xmlns="http://www.w3.org/2000/svg">
<path d="M14.0623 20.3809V26.0777" stroke="#FF8859" stroke-width="1.71528" stroke-linecap="round" stroke-linejoin="round"/>
<path d="M18.5186 20.3809V26.0777" stroke="#FF8859" stroke-width="1.71528" stroke-linecap="round" stroke-linejoin="round"/>
<path d="M18.0881 29.334H14.3828C12.8337 29.334 11.5727 28.1911 11.5727 26.7872V25.2917C11.5727 24.5791 12.211 24.0007 12.9972 24.0007H19.4815C20.2677 24.0007 20.906 24.5791 20.906 25.2917V26.7872C20.906 28.1911 19.645 29.334 18.0959 29.334H18.0881Z" fill="#FF8859"/>
<path d="M25.9141 12.2902C25.9141 16.6758 22.9797 20.374 18.9697 21.5324C18.1167 21.7807 17.2192 21.9143 16.2899 21.9143C15.3606 21.9143 14.4631 21.7807 13.6102 21.5324C9.60012 20.374 6.66577 16.6758 6.66577 12.2902C6.66577 7.90456 9.60012 4.20639 13.6102 3.04793C14.4631 2.79968 15.3606 2.66602 16.2899 2.66602C17.2192 2.66602 18.1167 2.79968 18.9697 3.04793C22.9797 4.20639 25.9141 7.90456 25.9141 12.2902Z" fill="#FFB496"/>
<path d="M20.9492 12.2902C20.9492 16.1093 20.1663 19.4892 18.9697 21.5324C18.1167 21.7807 17.2192 21.9143 16.2899 21.9143C15.3606 21.9143 14.4631 21.7807 13.6102 21.5324C12.4135 19.4892 11.6306 16.1093 11.6306 12.2902C11.6306 8.47106 12.4135 5.09115 13.6102 3.04793C14.4631 2.79968 15.3606 2.66602 16.2899 2.66602C17.2192 2.66602 18.1167 2.79968 18.9697 3.04793C20.1663 5.09115 20.9492 8.47106 20.9492 12.2902Z" fill="#FF8859"/>
</svg>
