<svg width="24" height="24" viewBox="0 0 24 24" fill="none" xmlns="http://www.w3.org/2000/svg">
<path d="M15.0826 5.90645C14.8217 5.74934 14.4835 5.85318 14.3583 6.13012L14.108 6.67335C14.0441 6.80915 13.8417 6.78785 13.8098 6.6414C13.5568 5.51767 13.4716 4.47383 13.7139 3.71492C13.8817 3.19566 13.5089 2.94003 13.0961 3.01192C10.4279 3.4726 8.63584 6.21268 8.71573 8.04739C8.71573 8.09799 8.71573 8.14857 8.72105 8.19916C8.72904 8.32431 8.60122 8.40955 8.49205 8.35363L8.14321 8.17254C7.87426 8.03407 7.54407 8.15923 7.43223 8.44149C6.50556 10.8381 7.50945 13.5995 9.84478 14.8111C10.6383 15.2238 11.4904 15.4075 12.3239 15.3862C12.3425 15.3862 12.3638 15.3862 12.3825 15.3862C12.4064 15.3862 12.4304 15.3862 12.4544 15.3862C12.4677 15.3862 12.4783 15.3862 12.4917 15.3862C12.5263 15.3862 12.5582 15.3862 12.5928 15.3862C12.6328 15.3862 12.6701 15.3862 12.71 15.3809C14.5421 15.2823 16.2596 14.2012 17.0824 12.4198C18.1848 10.0312 17.2875 7.23255 15.0853 5.90645H15.0826Z" fill="#DEE4EA"/>
<path d="M6 16.4727L18.6352 20.6134" stroke="#B6C2CF" stroke-width="1.59771" stroke-linecap="round" stroke-linejoin="round"/>
<path d="M18.6352 16.4727L6 20.6134" stroke="#B6C2CF" stroke-width="1.59771" stroke-linecap="round" stroke-linejoin="round"/>
</svg>
