<svg width="70" height="70" viewBox="0 0 70 70" fill="none" xmlns="http://www.w3.org/2000/svg">
<g clip-path="url(#clip0_791_10636)">
<rect width="70" height="70" fill="#F7F9FC"/>
<g filter="url(#filter0_d_791_10636)">
<rect x="4.11768" y="4.11719" width="18.6667" height="9.60784" rx="2.7451" fill="white" shape-rendering="crispEdges"/>
<g clip-path="url(#clip1_791_10636)">
<path d="M11.1538 10.9802H10.0245C9.89217 10.9802 9.78296 10.88 9.7714 10.749L9.52343 7.94811C9.51058 7.79907 9.6275 7.67188 9.77653 7.67188H11.4018C11.5509 7.67188 11.6678 7.80036 11.6549 7.94811L11.4069 10.749C11.3954 10.88 11.2849 10.9802 11.1538 10.9802Z" fill="#FFAA34"/>
<path d="M8.54079 7.90234C7.73393 7.90234 7.05941 8.40984 6.88725 9.09079C6.84357 9.26552 6.98746 9.43126 7.18532 9.43126H9.89497C10.0928 9.43126 10.238 9.26424 10.193 9.09079C10.0209 8.40984 9.34636 7.90234 8.53951 7.90234H8.54079Z" fill="#FFC470"/>
<path d="M9.86893 10.2051H7.21067C7.04605 10.2051 6.9126 10.3385 6.9126 10.5032V10.6817C6.9126 10.8464 7.04605 10.9798 7.21067 10.9798H9.86893C10.0336 10.9798 10.167 10.8464 10.167 10.6817V10.5032C10.167 10.3385 10.0336 10.2051 9.86893 10.2051Z" fill="#FFC470"/>
<path d="M9.86893 9.43164H7.21067C7.04605 9.43164 6.9126 9.56509 6.9126 9.72971V9.9083C6.9126 10.0729 7.04605 10.2064 7.21067 10.2064H9.86893C10.0336 10.2064 10.167 10.0729 10.167 9.9083V9.72971C10.167 9.56509 10.0336 9.43164 9.86893 9.43164Z" fill="#FFE2B8"/>
<path d="M10.5537 7.90156L10.6732 7.11783C10.695 6.97778 10.8145 6.875 10.9559 6.875H11.6561" stroke="#FFAA34" stroke-width="0.39058" stroke-linecap="round" stroke-linejoin="round"/>
</g>
<path d="M14.8124 7.75126C15.5905 7.75126 16.073 8.00258 16.075 8.43084C16.073 8.85306 15.5905 9.10036 14.8124 9.09835C14.0343 9.10036 13.5457 8.85306 13.5457 8.43084C13.5457 8.00258 14.0343 7.75126 14.8124 7.75126ZM13.1838 9.66935V9.40797H16.4409V9.66935H13.1838ZM13.5819 11.1974V10.0232H16.0429V11.1974H13.5819ZM13.8714 8.43084C13.8694 8.6902 14.2333 8.84702 14.8124 8.84903C15.3854 8.84702 15.7513 8.6902 15.7533 8.43084C15.7513 8.16343 15.3854 8.0046 14.8124 8.0046C14.2333 8.0046 13.8694 8.16343 13.8714 8.43084ZM13.8956 10.94H15.7332V10.2765H13.8956V10.94ZM17.8445 8.18957C17.8405 8.71031 18.2185 9.17475 18.7492 9.35972L18.5884 9.60903C18.1742 9.45623 17.8465 9.14861 17.6857 8.75253C17.5288 9.17676 17.1991 9.51051 16.7789 9.67337L16.614 9.42406C17.1488 9.22501 17.5228 8.73041 17.5228 8.18957V7.84777H17.8445V8.18957ZM17.1247 10.2645V10.0031H19.5293V11.2456H19.2157V10.2645H17.1247ZM19.2157 9.82617V7.67084H19.5293V9.82617H19.2157Z" fill="#2C333A"/>
</g>
<rect width="70" height="70" rx="3.43137" fill="#F7F9FC"/>
<g clip-path="url(#clip2_791_10636)">
<path d="M49.0705 32.8429C48.3818 32.8429 47.7122 32.9195 47.0653 33.0606L46.8406 32.3826C46.2678 30.3787 44.4169 28.9797 42.3305 28.9797H25.2241L25.804 26.4031C26.1746 26.3397 26.5345 26.2058 26.8622 26.0001L28.841 24.7531C29.0849 24.5988 29.385 24.5534 29.6648 24.6263L33.2064 25.5542C33.699 25.6833 34.2024 25.3891 34.3315 24.8965C34.4606 24.4039 34.1653 23.9005 33.6739 23.7714L30.1323 22.8436C29.3611 22.6415 28.5325 22.7694 27.8581 23.1939L25.8793 24.441C25.5864 24.6251 25.2229 24.6538 24.9048 24.5163C24.5999 24.3848 24.374 24.1122 24.2998 23.7882L23.9507 22.2601C23.7355 21.3203 23.0695 20.5527 22.1704 20.2059L19.1896 19.0617C18.7149 18.8787 18.1816 19.1167 17.9987 19.5914C17.8157 20.066 18.0537 20.5993 18.5283 20.7822L21.5079 21.9277C21.8344 22.0532 22.0759 22.3318 22.1536 22.6714L22.5027 24.1995C22.6905 25.0233 23.2369 25.7239 23.9794 26.1137L22.4454 32.9326C22.1034 32.8944 21.7555 32.874 21.4039 32.874C16.2183 32.8728 12 37.0912 12 42.2768C12 47.4624 16.2183 51.6807 21.4039 51.6807C26.5895 51.6807 30.8079 47.4624 30.8079 42.2768C30.8079 38.0836 28.0483 34.5229 24.2496 33.314L24.8104 30.8223H42.3305C43.6015 30.8223 44.729 31.6772 45.0722 32.9003C45.0758 32.9147 45.0805 32.9278 45.0853 32.9422L45.3137 33.6285C41.9945 35.0824 39.6689 38.3968 39.6689 42.2457C39.6689 47.4313 43.8873 51.6496 49.0729 51.6496C54.2585 51.6496 58.4768 47.4313 58.4768 42.2457C58.4768 37.0601 54.2585 32.8417 49.0729 32.8417L49.0705 32.8429ZM28.774 42.2768C28.774 46.3408 25.468 49.6481 21.4027 49.6481C17.3375 49.6481 14.0314 46.342 14.0314 42.2768C14.0314 38.2115 17.3375 34.9055 21.4027 34.9055C21.6024 34.9055 21.7997 34.9162 21.9946 34.9318L20.3326 42.321C20.2214 42.8172 20.5335 43.311 21.0297 43.4222C21.0978 43.4378 21.166 43.4449 21.2329 43.4449C21.655 43.4449 22.0352 43.1544 22.1309 42.7251L23.7989 35.3072C26.69 36.3044 28.7728 39.0509 28.7728 42.2756L28.774 42.2768ZM49.0705 49.617C45.0064 49.617 41.6992 46.3109 41.6992 42.2457C41.6992 39.2936 43.4437 36.7432 45.9558 35.5679L48.2778 42.5589C48.4057 42.9451 48.7656 43.1903 49.1518 43.1903C49.2486 43.1903 49.3455 43.1747 49.4423 43.1436C49.9254 42.9834 50.1872 42.4609 50.027 41.9778L47.7098 35.0023C48.151 34.9198 48.6054 34.8744 49.0693 34.8744C53.1334 34.8744 56.4406 38.1804 56.4406 42.2457C56.4406 46.3109 53.1346 49.617 49.0693 49.617H49.0705Z" fill="#B6C2CF"/>
</g>
</g>
<defs>
<filter id="filter0_d_791_10636" x="-15.8823" y="-9.88281" width="58.6665" height="49.6074" filterUnits="userSpaceOnUse" color-interpolation-filters="sRGB">
<feFlood flood-opacity="0" result="BackgroundImageFix"/>
<feColorMatrix in="SourceAlpha" type="matrix" values="0 0 0 0 0 0 0 0 0 0 0 0 0 0 0 0 0 0 127 0" result="hardAlpha"/>
<feOffset dy="6"/>
<feGaussianBlur stdDeviation="10"/>
<feComposite in2="hardAlpha" operator="out"/>
<feColorMatrix type="matrix" values="0 0 0 0 0 0 0 0 0 0 0 0 0 0 0 0 0 0 0.02 0"/>
<feBlend mode="normal" in2="BackgroundImageFix" result="effect1_dropShadow_791_10636"/>
<feBlend mode="normal" in="SourceGraphic" in2="effect1_dropShadow_791_10636" result="shape"/>
</filter>
<clipPath id="clip0_791_10636">
<rect width="70" height="70" fill="white"/>
</clipPath>
<clipPath id="clip1_791_10636">
<rect width="6.17647" height="6.17647" fill="white" transform="translate(6.17627 5.83203)"/>
</clipPath>
<clipPath id="clip2_791_10636">
<rect width="46.4732" height="32.68" fill="white" transform="translate(12 19)"/>
</clipPath>
</defs>
</svg>
