<svg width="338" height="213" viewBox="0 0 338 213" fill="none" xmlns="http://www.w3.org/2000/svg">
<g clip-path="url(#clip0_1180_11117)">
<path d="M211.173 138.21L220.025 96.7535L126.941 42.127L117.984 83.7682L211.012 138.355L211.173 138.21Z" fill="#E6EBF1"/>
<path d="M117.985 83.7676L85.9999 111.893L179.084 166.519L211.012 138.354L117.985 83.7676Z" fill="#F2F5F9"/>
<path d="M158.927 14L126.942 42.1254L220.026 96.7519L251.954 68.5944L158.927 14Z" fill="#F2F5F9"/>
<path opacity="0.83" d="M168.807 69.4785C168.1 67.2371 169.996 65.0656 172.27 65.4014L172.492 65.4414L206.624 72.877C208.877 71.5425 212.118 70.7051 215.72 70.7051C222.525 70.7051 228.043 73.6944 228.043 77.3809C228.042 81.0671 222.525 84.0556 215.72 84.0557C209.043 84.0557 203.606 81.1789 203.402 77.5889L174.958 71.3926L191.501 123.791C192.216 126.057 190.266 128.272 187.928 127.85L125.009 116.492C122.751 117.873 119.454 118.746 115.781 118.746C108.975 118.746 103.458 115.758 103.458 112.071C103.458 108.385 108.975 105.396 115.781 105.396C122.34 105.397 127.701 108.172 128.081 111.673L185.393 122.018L168.807 69.4785Z" fill="white" fill-opacity="0.8"/>
<g clip-path="url(#clip1_1180_11117)">
<path d="M204.412 69.1964C204.49 69.2743 204.583 69.3677 204.661 69.4456C206.889 71.689 210.862 74.8204 213.354 76.721C214.663 77.7181 216.47 77.7181 217.779 76.721C220.271 74.8204 224.244 71.689 226.472 69.4456C226.55 69.3677 226.643 69.2743 226.721 69.1964C226.768 69.1496 226.799 69.1029 226.846 69.0561C229.837 65.9092 231.551 61.5159 231.068 56.7176C230.336 49.52 224.509 43.6467 217.327 42.8522C207.933 41.824 199.988 49.1617 199.988 58.3378C199.988 62.4974 201.623 66.2675 204.287 69.0717" fill="#C5CED9"/>
<path d="M215.566 61.9183C217.545 61.9183 219.149 60.3141 219.149 58.3351C219.149 56.3562 217.545 54.752 215.566 54.752C213.587 54.752 211.983 56.3562 211.983 58.3351C211.983 60.3141 213.587 61.9183 215.566 61.9183Z" fill="white"/>
</g>
<path d="M104.625 104.454C104.703 104.532 104.796 104.626 104.874 104.703C107.102 106.947 111.075 110.078 113.567 111.979C114.876 112.976 116.683 112.976 117.992 111.979C120.484 110.078 124.457 106.947 126.685 104.703C126.763 104.626 126.856 104.532 126.934 104.454C126.981 104.407 127.012 104.361 127.059 104.314C130.05 101.167 131.764 96.7737 131.281 91.9754C130.548 84.7779 124.722 78.9046 117.54 78.11C108.146 77.0818 100.2 84.4195 100.2 93.5956C100.2 97.7552 101.836 101.525 104.5 104.33" fill="#C5CED9"/>
<path d="M115.779 97.1761C117.758 97.1761 119.363 95.5719 119.363 93.5929C119.363 91.614 117.758 90.0098 115.779 90.0098C113.8 90.0098 112.196 91.614 112.196 93.5929C112.196 95.5719 113.8 97.1761 115.779 97.1761Z" fill="white"/>
</g>
<path d="M84.6447 192.693C88.0109 192.702 90.463 194.363 90.463 196.877C90.463 199.232 88.4064 200.806 85.4709 201.043V204.137H91.8869V205.525H77.4728V204.137H83.8185V201.043C80.9005 200.806 78.8351 199.232 78.8439 196.877C78.8351 194.363 81.2961 192.702 84.6447 192.693ZM80.4611 196.877C80.4611 198.644 82.2189 199.742 84.6447 199.76C87.088 199.742 88.8371 198.644 88.8459 196.877C88.8371 195.172 87.088 194.047 84.6447 194.064C82.2189 194.047 80.4611 195.172 80.4611 196.877ZM105.378 195.33V196.684H94.5679V191.973H96.2027V195.33H105.378ZM92.6519 199.408V198.072H107.066V199.408H92.6519ZM94.4097 201.975V200.674H105.255V204.523H96.1148V205.982H105.8V207.301H94.4448V203.293H103.603V201.975H94.4097ZM122.227 199.971V201.307H107.866V199.971H122.227ZM109.413 195.418C109.404 193.44 111.61 192.263 115.038 192.271C118.448 192.263 120.654 193.44 120.663 195.418C120.654 197.404 118.448 198.608 115.038 198.617C111.61 198.608 109.404 197.404 109.413 195.418ZM109.677 207.16V202.59H111.364V205.807H120.61V207.16H109.677ZM111.136 195.418C111.127 196.587 112.621 197.246 115.038 197.246C117.446 197.246 118.949 196.587 118.94 195.418C118.949 194.293 117.446 193.607 115.038 193.607C112.621 193.607 111.127 194.293 111.136 195.418ZM131.369 192.922C133.513 192.931 135.069 194.741 135.324 197.65H138.576V191.744H140.228V207.529H138.576V199.004H135.341C135.157 202.08 133.566 203.987 131.369 203.979C129.022 203.987 127.361 201.843 127.379 198.441C127.361 195.075 129.022 192.931 131.369 192.922ZM128.961 198.441C128.969 200.946 129.945 202.484 131.369 202.484C132.793 202.484 133.768 200.946 133.777 198.441C133.768 195.972 132.793 194.425 131.369 194.416C129.945 194.425 128.969 195.972 128.961 198.441ZM155.337 191.744V207.529H153.667V191.744H155.337ZM143.296 203.662V193.203H150.837V194.592H144.983V202.238C147.963 202.229 149.879 202.142 152.102 201.746L152.278 203.135C149.923 203.565 147.866 203.653 144.597 203.662H143.296ZM171.905 204.207V205.613H157.491V204.207H163.836V201.447H159.248V196.438H168.494V194.223H159.213V192.852H170.147V197.773H160.901V200.076H170.516V201.447H165.489V204.207H171.905ZM181.116 193.291V194.645H178.814V202.089C179.569 202.062 180.325 202.001 181.169 201.799L181.345 203.188C180.079 203.469 179.024 203.478 177.864 203.486H177.161V193.291H181.116ZM181.96 203.486V193.291H186.267V194.645H183.63V202.098C184.834 202.08 185.792 202.019 186.864 201.764L187.022 203.117C185.634 203.451 184.5 203.478 182.786 203.486H181.96ZM185.528 198.793V197.439H188.376V191.744H190.028V207.494H188.376V198.793H185.528ZM206.631 197.932V199.303H204.188V207.477H202.518V191.744H204.188V197.932H206.631ZM192.516 203.521V193.273H194.168V202.133C196.366 202.124 198.66 201.939 201.164 201.43L201.358 202.836C198.66 203.372 196.181 203.53 193.817 203.521H192.516ZM210.648 191.99V193.361H217.943V191.99H219.613V197.211H215.078V198.582H221.476V199.918H207.115V198.582H213.443V197.211H208.996V191.99H210.648ZM208.838 202.309V201.061H219.666V204.734H210.49V206.053H220.105V207.336H208.855V203.539H218.013V202.309H208.838ZM210.648 195.945H217.943V194.592H210.648V195.945ZM234.827 191.744V198.143H237.112V199.514H234.827V207.494H233.157V191.744H234.827ZM222.171 203.064C224.474 200.665 225.309 197.958 225.476 194.803H222.734V193.432H227.058C227.049 197.369 226.346 200.955 223.489 203.996L222.171 203.064ZM226.671 204.119C229.018 201.377 229.703 198.16 229.826 194.803H227.567V193.432H231.4C231.4 197.413 230.899 201.614 228.007 205.033L226.671 204.119ZM251.922 204.137V205.525H237.508V204.137H240.954V200.023C239.662 199.312 238.871 198.187 238.879 196.771C238.871 194.293 241.305 192.667 244.68 192.658C248.064 192.667 250.499 194.293 250.499 196.771C250.499 198.16 249.743 199.276 248.477 199.988V204.137H251.922ZM240.497 196.771C240.497 198.459 242.21 199.558 244.68 199.566C247.132 199.558 248.873 198.459 248.881 196.771C248.873 195.075 247.132 193.994 244.68 193.994C242.21 193.994 240.497 195.075 240.497 196.771ZM242.606 204.137H246.79V200.639C246.148 200.788 245.436 200.867 244.68 200.867C243.942 200.867 243.239 200.788 242.606 200.639V204.137ZM255.289 202.221C255.315 199.918 255.992 199.215 257.152 198.494C257.89 198.046 258.453 197.396 258.453 196.473C258.453 195.374 257.609 194.68 256.555 194.68C255.605 194.68 254.682 195.26 254.603 196.561H252.705C252.775 194.319 254.463 193.098 256.555 193.098C258.84 193.098 260.369 194.469 260.369 196.473C260.369 197.888 259.692 198.828 258.576 199.514C257.521 200.155 257.108 200.788 257.082 202.221V202.326H255.289V202.221ZM255.008 204.875C254.999 204.189 255.57 203.627 256.256 203.627C256.932 203.627 257.495 204.189 257.504 204.875C257.495 205.561 256.932 206.114 256.256 206.123C255.57 206.114 254.999 205.561 255.008 204.875Z" fill="#B6C2CF"/>
<defs>
<clipPath id="clip0_1180_11117">
<rect width="165.954" height="152.519" fill="white" transform="translate(85.9996 14)"/>
</clipPath>
<clipPath id="clip1_1180_11117">
<rect width="41.0768" height="41.0768" fill="white" transform="translate(194.853 36.5938)"/>
</clipPath>
</defs>
</svg>
