<svg width="24" height="24" viewBox="0 0 24 24" fill="none" xmlns="http://www.w3.org/2000/svg">
<path d="M11.0381 12.9707V20.0581C11.0381 20.3787 11.298 20.6387 11.6187 20.6387H13.2245C13.5451 20.6387 13.8051 20.3787 13.8051 20.0581V12.9707C13.8051 12.65 13.5451 12.3901 13.2245 12.3901H11.6187C11.298 12.3901 11.0381 12.65 11.0381 12.9707Z" fill="#B6C2CF"/>
<path d="M6.04979 8.17969H18.7936V15.4768C18.7936 16.0516 18.3275 16.5176 17.7528 16.5176H7.08863C6.51387 16.5176 6.04785 16.0516 6.04785 15.4768V8.17969H6.04979Z" fill="#DEE4EA"/>
<path d="M19.7314 8.8408L18.9236 5.21554C18.7877 4.51651 18.0304 4 17.1411 4H7.70609C6.81677 4 6.05948 4.51651 5.92356 5.21554L5.11579 8.8408C5.01481 9.09323 4.97598 9.36702 5.01482 9.65051C5.14686 10.6156 6.19541 11.3787 7.41677 11.402C8.81095 11.4272 9.95076 10.5379 9.95076 9.43498C9.95076 10.5224 11.0595 11.402 12.4246 11.402C13.7896 11.402 14.8984 10.5204 14.8984 9.43498C14.8984 10.5379 16.0382 11.4272 17.4324 11.402C18.6537 11.3787 19.7023 10.6175 19.8343 9.65051C19.8731 9.36507 19.8343 9.09323 19.7333 8.8408H19.7314Z" fill="#B6C2CF"/>
<path d="M16.6807 20.6359H8.16415C7.80298 20.6359 7.51172 20.3893 7.51172 20.0863L7.82046 18.7038C7.82046 18.4009 8.11366 18.1543 8.47289 18.1543H16.37C16.7312 18.1543 17.0225 18.4009 17.0225 18.7038L17.3312 20.0863C17.3312 20.3893 17.038 20.6359 16.6788 20.6359H16.6807Z" fill="#DEE4EA"/>
</svg>
