<svg width="24" height="24" viewBox="0 0 24 24" fill="none" xmlns="http://www.w3.org/2000/svg">
<path d="M19.5826 5H4.41735C3.63457 5 3 5.71448 3 6.59583V17.4042C3 18.2855 3.63457 19 4.41735 19H19.5826C20.3654 19 21 18.2855 21 17.4042V6.59583C21 5.71448 20.3654 5 19.5826 5Z" fill="#DEE4EA"/>
<path d="M12.9419 9.75462L13.9575 13.4796L14.9484 9.62962C15.0183 9.34629 15.2609 9.24212 15.52 9.29629C15.7955 9.35046 15.9188 9.57546 15.8407 9.85879L14.5496 14.5338C14.455 14.8838 14.196 15.0088 13.9575 15.0088C13.719 15.0088 13.4558 14.8838 13.3654 14.5171L12.3415 10.6421L11.2725 14.5296C11.1779 14.8796 10.9147 15.0046 10.6721 15.0046C10.4295 15.0046 10.1623 14.8796 10.0718 14.5213L8.81358 9.90462C8.72723 9.59629 8.87526 9.37546 9.15897 9.30046C9.41802 9.23796 9.68118 9.27546 9.76753 9.60879L10.7297 13.4838L11.7535 9.75046C11.8481 9.40046 12.1072 9.27546 12.3539 9.27546C12.6006 9.27546 12.8555 9.40046 12.946 9.75046L12.9419 9.75462Z" fill="#B6C2CF" stroke="#B6C2CF" stroke-width="0.2" stroke-miterlimit="10"/>
<path d="M8.78027 12.7676H10.0755" stroke="#B6C2CF" stroke-linecap="round" stroke-linejoin="round"/>
<path d="M14.5537 12.7676H15.8654" stroke="#B6C2CF" stroke-linecap="round" stroke-linejoin="round"/>
</svg>
