<svg width="172" height="141" viewBox="0 0 172 141" fill="none" xmlns="http://www.w3.org/2000/svg">
<g clip-path="url(#clip0_1146_9635)">
<path d="M84.6694 6.125H86.4936C92.6904 6.125 97.7216 11.1562 97.7216 17.353V137.205C97.7216 139.572 95.8032 141.49 93.436 141.49H77.727C75.3598 141.49 73.4414 139.572 73.4414 137.205V17.353C73.4414 11.1562 78.4726 6.125 84.6694 6.125Z" fill="#E7EFF6"/>
<path d="M77.7705 0H93.3927C98.5832 0 102.804 4.22044 102.804 9.41093V14.6883C102.804 15.4629 102.174 16.0927 101.399 16.0927H69.764C68.9894 16.0927 68.3596 15.4629 68.3596 14.6883V9.41093C68.3596 4.22044 72.5728 0 77.7705 0Z" fill="#DBE2EC"/>
<path d="M153.992 64.2188H97.7217V29.6445H153.992C155.512 29.6445 156.96 30.2237 158.002 31.2516L170.36 43.399C172.379 45.3825 172.379 48.4881 170.36 50.4716L158.002 62.619C156.96 63.6469 155.505 64.2261 153.992 64.2261V64.2188Z" fill="#DBE2EC"/>
<path d="M17.8881 51.2441H73.4415V85.8185H17.8881C16.3679 85.8185 14.92 85.2393 13.8776 84.2114L1.51309 72.0712C-0.506642 70.0877 -0.506642 66.9821 1.51309 64.9986L13.8704 52.8512C14.9128 51.8233 16.3679 51.2441 17.8809 51.2441H17.8881Z" fill="#DBE2EC"/>
<path d="M121.496 111.921C121.526 111.947 121.364 111.984 121.356 112.015C121.318 112.145 121.206 112.193 121.142 112.31C121.047 112.484 121.26 113 120.134 113C120.134 113 120.134 113 120.134 113C120.123 113 120.112 113 120.1 113C119.886 112.998 119.652 112.954 119.409 112.948C119.166 112.941 117.599 112.946 117.511 112.884C117.395 112.793 117.796 112.577 117.779 112.528C117.766 112.495 117.624 112.455 117.599 112.413C117.517 112.277 117.621 112.206 117.234 112.083C117.438 112.034 117.642 111.985 117.846 111.937C117.752 111.873 118.021 111.776 118.006 111.737C117.994 111.705 117.832 111.687 117.825 111.653C117.815 111.616 117.99 111.559 117.963 111.491C117.921 111.38 117.5 111.361 117.447 111.294C117.392 111.225 117.62 111.118 117.472 111.029C117.426 111.018 117.38 111.007 117.333 110.996C117.229 111.004 117.124 111.012 117.019 111.02C116.971 110.976 117.185 110.957 117.189 110.916C117.194 110.868 116.99 110.843 116.991 110.811C116.992 110.785 117.155 110.749 117.145 110.715C117.131 110.665 116.896 110.675 116.852 110.649C116.834 110.638 116.704 110.439 116.703 110.428C116.693 110.343 117.016 110.336 117.044 110.268C117.121 110.079 116.86 109.886 116.762 109.712C116.718 109.634 116.736 109.553 116.788 109.475C117.613 109.598 118.255 109.327 116.964 109.428C117.148 109.342 116.799 109.281 116.858 109.199C116.897 109.146 117.076 109.11 117.071 109.034C117.061 108.9 116.553 108.753 117.472 108.715C117.31 108.557 117.644 108.421 116.832 108.364C116.782 108.324 117.266 108.22 117.332 108.174C117.393 108.131 117.612 107.801 117.624 107.747C117.636 107.693 117.649 107.598 117.578 107.553C117.49 107.496 116.648 107.456 117.632 107.354C117.553 107.236 117.581 107.193 117.695 107.083C117.716 107.063 117.862 107.061 117.862 107.05C117.862 107.026 117.754 106.985 117.741 106.942C117.72 106.872 118.027 106.831 117.557 106.839C117.479 106.793 117.4 106.746 117.321 106.7C117.412 106.684 117.502 106.667 117.593 106.651C117.494 106.626 117.396 106.601 117.297 106.577C117.976 106.606 117.575 106.431 117.185 106.488C117.326 106.398 117.467 106.308 117.607 106.218C118.379 106.231 117.696 106.02 117.276 106.038C117.277 106.028 117.278 106.018 117.278 106.007C117.483 105.917 117.316 105.834 117.453 105.725C117.591 105.615 117.666 105.625 118.022 105.592C118.001 105.566 117.981 105.54 117.961 105.514C116.987 105.378 118.673 105.402 117.926 105.17C118.538 105.096 118.216 104.913 118.031 104.792C118.009 104.778 117.89 104.777 117.854 104.759C117.766 104.713 117.918 104.595 117.535 104.599C117.646 104.559 117.757 104.518 117.868 104.478C117.798 104.444 117.728 104.411 117.659 104.378C117.539 104.378 117.419 104.378 117.3 104.379C117.708 104.312 117.551 104.207 117.648 104.155C117.668 104.145 117.833 104.142 117.878 104.11C117.932 104.073 117.883 104.003 117.934 103.959C117.751 103.941 117.569 103.924 117.386 103.907C117.287 103.827 117.769 103.799 117.807 103.752C117.813 103.743 117.779 103.59 117.768 103.581C117.687 103.513 117.276 103.533 117.364 103.336C117.38 103.301 117.522 103.273 117.527 103.241C117.538 103.186 117.215 103.017 116.917 103.004C117.29 102.937 117.138 102.755 117.245 102.702C117.279 102.686 117.516 102.682 117.567 102.633C117.608 102.593 117.418 102.489 117.45 102.438C117.484 102.384 117.684 102.365 117.698 102.341C117.711 102.318 117.55 102.297 117.551 102.266C117.557 102.169 117.816 102.08 117.821 102.004C117.821 102.002 117.821 102.001 117.821 102C117.818 101.89 117.349 101.793 117.139 101.701C117.17 101.678 117.273 101.655 117.274 101.631C117.289 101.332 117.376 100.994 117.479 100.693C117.526 100.554 118.173 100.207 117.093 100.3C116.903 100.251 117.339 99.8988 117.346 99.8318C117.352 99.7647 117.158 99.7116 117.155 99.659C117.147 99.5 117.287 99.3881 117.118 99.1946C117.074 99.1446 116.844 99.0911 116.847 99.0615C116.851 99.0259 117.073 98.9875 117.087 98.9413C117.119 98.8313 117.046 98.6261 117.084 98.5205C117.092 98.5012 117.286 98.4945 117.347 98.4669C117.586 98.3595 117.565 98.2392 116.942 98.2605C117.296 98.1228 116.973 97.9955 116.954 97.8679C116.913 97.5982 117.059 97.107 116.797 96.872C116.632 96.7239 116.353 96.7277 116.594 96.5096C116.647 96.4611 116.719 96.4129 116.783 96.3542C116.933 96.2166 117.449 96.0903 116.827 95.9854C116.989 95.8325 116.874 95.7107 117.406 95.5973C117.278 95.5839 117.151 95.5706 117.023 95.5572C117.02 95.5384 117.017 95.5197 117.014 95.501C117.135 95.4951 117.257 95.4893 117.379 95.4834C117.411 95.3492 116.912 95.1788 116.915 95.0651C116.921 94.8746 117.115 94.3838 117.279 94.2031C117.366 94.1072 117.106 94.102 117.641 94.0471C117.604 94.0256 117.567 94.0042 117.529 93.9827C117.412 93.9693 117.295 93.9558 117.178 93.9424C117.173 93.8193 117.355 93.6734 117.353 93.5561C117.349 93.3425 117.027 93.0216 117.239 92.8071C117.292 92.7533 117.534 92.6861 117.531 92.6334C117.527 92.5567 117.126 92.5381 117.119 92.4408C117.107 92.2731 117.573 91.9608 117.537 91.8023C117.527 91.7552 117.377 91.7332 117.361 91.7007C117.293 91.5644 117.305 91.4525 117.075 91.3218C117.459 91.1815 117.955 91.1936 118.456 91.1501C118.833 91.1172 119.709 91.0161 120.04 91.0017C120.272 90.9917 120.571 91.0293 120.827 91.0152C121.031 91.1833 120.806 91.2539 120.446 91.3905C120.461 91.6426 120.475 91.8947 120.49 92.1469C120.35 92.1698 120.21 92.1928 120.071 92.2157C120.07 92.2157 120.07 92.2157 120.07 92.2157C119.908 92.3125 120.268 92.3536 120.35 92.4058C121.132 92.9057 120.52 93.8897 120.432 94.4401C120.413 94.5587 120.601 94.9445 120.374 95.0259C120.315 95.0469 120.1 95.0528 120.09 95.0752C120.218 95.2755 120.347 95.4758 120.475 95.676C120.14 96.0879 120.416 96.5136 120.468 96.9286C120.608 98.0513 120.777 99.1628 120.726 100.267C120.715 100.481 120.877 100.751 120.773 100.96C120.73 101.048 120.384 101.084 120.642 101.198C120.548 101.2 120.455 101.201 120.362 101.202C120.474 101.302 120.686 101.366 120.708 101.478C120.726 101.572 120.74 101.822 120.704 101.906C120.686 101.949 120.512 101.933 120.513 101.973C120.513 101.981 120.517 101.99 120.523 102C120.568 102.076 120.757 102.201 120.757 102.285C120.757 102.371 120.556 102.517 120.585 102.583C120.688 102.822 120.985 103.082 120.906 103.337C120.883 103.407 120.657 103.498 120.664 103.52C120.677 103.563 120.896 103.576 120.924 103.605C121.067 103.751 120.806 103.98 120.796 104.124C120.762 104.593 120.858 105.09 120.818 105.557C120.792 105.852 120.831 106.342 120.666 106.615C120.63 106.674 120.39 106.658 120.39 106.707C120.39 106.762 120.552 106.791 120.566 106.817C120.657 106.994 120.821 107.384 120.656 107.551C120.624 107.583 120.435 107.606 120.436 107.625C120.436 107.635 120.565 107.657 120.578 107.687C120.694 107.954 120.619 108.149 120.575 108.411C120.492 108.912 120.731 109.494 120.601 110.02C120.573 110.135 120.201 110.214 120.204 110.23C120.212 110.265 120.462 110.288 120.524 110.36C120.728 110.598 120.46 110.92 120.586 111.146C120.648 111.259 120.966 111.413 121.036 111.523C121.092 111.611 120.968 111.819 121.107 111.858C121.192 111.882 121.462 111.893 121.496 111.921ZM117.28 108.953C117.713 108.969 117.353 108.804 117.121 108.866C117.068 108.88 117.168 108.949 117.28 108.953ZM118.032 101.23C117.908 101.232 117.785 101.233 117.661 101.235C117.712 101.256 117.764 101.278 117.815 101.3C117.89 101.288 117.964 101.275 118.038 101.263C118.036 101.252 118.034 101.241 118.032 101.23ZM51.9963 116.421C52.0263 116.447 51.8642 116.484 51.8556 116.515C51.8181 116.645 51.7057 116.693 51.642 116.81C51.5473 116.984 51.7604 117.5 50.634 117.5C50.634 117.5 50.634 117.5 50.6339 117.5C50.6229 117.5 50.6117 117.5 50.6004 117.5C50.3858 117.498 50.1516 117.454 49.9089 117.448C49.6661 117.441 48.0988 117.446 48.0107 117.384C47.8946 117.293 48.2965 117.077 48.2786 117.028C48.2664 116.995 48.1239 116.955 48.0986 116.913C48.0171 116.777 48.1212 116.706 47.7342 116.583C47.9382 116.534 48.1421 116.485 48.3461 116.437C48.2515 116.373 48.5205 116.276 48.5057 116.237C48.4935 116.205 48.3322 116.187 48.3247 116.153C48.3154 116.116 48.4895 116.059 48.4633 115.991C48.4211 115.88 48.0003 115.861 47.9469 115.794C47.8916 115.725 48.1203 115.618 47.9722 115.529C47.926 115.518 47.8797 115.507 47.8334 115.496C47.7287 115.504 47.624 115.512 47.5194 115.52C47.4706 115.476 47.6852 115.457 47.689 115.416C47.6937 115.368 47.4904 115.343 47.4913 115.311C47.4922 115.285 47.6553 115.249 47.6451 115.215C47.631 115.165 47.3956 115.175 47.3515 115.149C47.3344 115.138 47.2045 114.939 47.2026 114.928C47.1933 114.843 47.5156 114.836 47.5438 114.768C47.6206 114.579 47.3602 114.386 47.2618 114.212C47.2178 114.134 47.2365 114.053 47.288 113.975C48.1129 114.098 48.7548 113.827 47.4641 113.928C47.6477 113.842 47.2993 113.781 47.3582 113.699C47.3967 113.646 47.5756 113.61 47.5709 113.534C47.5615 113.4 47.0528 113.253 47.9722 113.215C47.8102 113.057 48.1437 112.921 47.332 112.864C47.2824 112.824 47.7659 112.72 47.8316 112.674C47.8934 112.631 48.1117 112.301 48.1239 112.247C48.1361 112.193 48.1494 112.098 48.0781 112.053C47.99 111.996 47.1482 111.956 48.1325 111.854C48.0528 111.736 48.081 111.693 48.1953 111.583C48.216 111.563 48.3621 111.561 48.3623 111.55C48.3623 111.526 48.2543 111.485 48.2411 111.442C48.2195 111.372 48.527 111.331 48.0574 111.339C47.9787 111.293 47.8999 111.246 47.8212 111.2C47.9118 111.184 48.0025 111.167 48.0931 111.151C47.9943 111.126 47.8955 111.101 47.7968 111.077C48.4763 111.106 48.0753 110.931 47.6854 110.988C47.826 110.898 47.9666 110.808 48.1071 110.718C48.8795 110.731 48.1963 110.52 47.7763 110.538C47.7769 110.528 47.7775 110.518 47.7782 110.507C47.9834 110.417 47.8155 110.334 47.9533 110.225C48.0911 110.115 48.1663 110.125 48.5216 110.092C48.5012 110.066 48.4809 110.04 48.4605 110.014C47.4866 109.878 49.1728 109.902 48.4257 109.67C49.0378 109.596 48.7163 109.413 48.5307 109.292C48.5092 109.278 48.3904 109.277 48.3537 109.259C48.2656 109.213 48.4183 109.095 48.0351 109.099C48.146 109.059 48.2569 109.018 48.3678 108.978C48.2981 108.944 48.2284 108.911 48.1587 108.878C48.0391 108.878 47.9195 108.878 47.7998 108.879C48.2075 108.812 48.0509 108.707 48.1483 108.655C48.1681 108.645 48.3331 108.642 48.3781 108.61C48.4316 108.573 48.3827 108.503 48.4343 108.459C48.2515 108.441 48.0687 108.424 47.8859 108.407C47.7867 108.327 48.2692 108.299 48.3067 108.252C48.3132 108.243 48.2786 108.09 48.2683 108.081C48.1866 108.013 47.7756 108.033 47.8636 107.836C47.8795 107.801 48.0218 107.773 48.0275 107.741C48.0378 107.686 47.7152 107.517 47.4171 107.504C47.7902 107.437 47.6377 107.255 47.7455 107.202C47.7786 107.186 48.0163 107.182 48.0669 107.133C48.1081 107.093 47.9178 106.989 47.9497 106.938C47.9843 106.884 48.184 106.865 48.1981 106.841C48.2112 106.818 48.0501 106.797 48.051 106.766C48.0566 106.669 48.316 106.58 48.3208 106.504C48.3283 106.392 47.8511 106.294 47.6393 106.201C47.6702 106.178 47.7726 106.155 47.7736 106.131C47.7886 105.832 47.8765 105.494 47.9787 105.193C48.0256 105.054 48.6732 104.707 47.5926 104.8C47.4034 104.751 47.839 104.399 47.8456 104.332C47.8521 104.265 47.6583 104.212 47.6555 104.159C47.647 104 47.7867 103.888 47.6179 103.695C47.5738 103.645 47.3443 103.591 47.3469 103.562C47.3507 103.526 47.5727 103.487 47.5868 103.441C47.6187 103.331 47.5456 103.126 47.5841 103.021C47.5916 103.001 47.7865 102.994 47.8474 102.967C48.0855 102.86 48.0649 102.739 47.4425 102.76C47.7958 102.623 47.4735 102.495 47.4538 102.368C47.4134 102.098 47.5587 101.607 47.2972 101.372C47.1322 101.224 46.8531 101.228 47.094 101.01C47.1474 100.961 47.2194 100.913 47.2832 100.854C47.4331 100.717 47.9488 100.59 47.3274 100.485C47.4886 100.332 47.3743 100.211 47.9057 100.097C47.7783 100.084 47.6508 100.071 47.5233 100.057C47.5202 100.038 47.517 100.02 47.5139 100.001C47.6354 99.9951 47.757 99.9893 47.8786 99.9834C47.9113 99.8492 47.4117 99.6788 47.4153 99.5651C47.4209 99.3746 47.615 98.8838 47.7791 98.7031C47.8662 98.6072 47.6058 98.602 48.141 98.5471C48.1038 98.5256 48.0665 98.5042 48.0293 98.4827C47.9121 98.4693 47.7949 98.4558 47.6778 98.4424C47.6731 98.3193 47.8551 98.1734 47.8532 98.0561C47.8495 97.8425 47.527 97.5216 47.7388 97.3071C47.7922 97.2533 48.0339 97.1861 48.0311 97.1334C48.0274 97.0567 47.6264 97.0381 47.6189 96.9408C47.6067 96.7731 48.0726 96.4608 48.0369 96.3023C48.0266 96.2552 47.8774 96.2332 47.8615 96.2007C47.793 96.0644 47.8052 95.9525 47.5746 95.8218C47.9589 95.6815 48.455 95.6936 48.9555 95.6501C49.3333 95.6172 50.2088 95.5161 50.5397 95.5017C50.7722 95.4917 51.0712 95.5293 51.3271 95.5152C51.5314 95.6833 51.3064 95.7539 50.9465 95.8905C50.9608 96.1426 50.9752 96.3947 50.9895 96.6469C50.8499 96.6698 50.7102 96.6928 50.5705 96.7157C50.5702 96.7157 50.5699 96.7157 50.5696 96.7157C50.4084 96.8125 50.7681 96.8536 50.8498 96.9058C51.6315 97.4057 51.0197 98.3897 50.9315 98.9401C50.9128 99.0587 51.101 99.4445 50.8742 99.5259C50.8151 99.5469 50.5997 99.5528 50.5904 99.5752C50.7184 99.7755 50.8465 99.9758 50.9746 100.176C50.6399 100.588 50.9163 101.014 50.9679 101.429C51.1075 102.551 51.2773 103.663 51.2257 104.767C51.2154 104.981 51.3768 105.251 51.2727 105.46C51.2296 105.548 50.8837 105.584 51.1415 105.698C51.0483 105.7 50.9551 105.701 50.862 105.702C50.9745 105.802 51.1865 105.866 51.208 105.978C51.2258 106.072 51.2397 106.322 51.2041 106.406C51.1863 106.449 51.0121 106.433 51.013 106.473C51.0158 106.542 51.2566 106.69 51.2566 106.785C51.2566 106.871 51.056 107.017 51.085 107.083C51.1882 107.322 51.4855 107.582 51.4058 107.837C51.3832 107.907 51.1575 107.998 51.1638 108.02C51.1769 108.063 51.3962 108.076 51.4244 108.105C51.5669 108.251 51.3063 108.48 51.2959 108.624C51.2622 109.093 51.3579 109.59 51.3176 110.057C51.2923 110.352 51.3309 110.842 51.1659 111.115C51.1303 111.174 50.89 111.158 50.89 111.207C50.8901 111.262 51.0524 111.291 51.0655 111.317C51.1574 111.494 51.3214 111.884 51.1555 112.051C51.1237 112.083 50.9354 112.106 50.9361 112.125C50.9361 112.135 51.0646 112.157 51.0777 112.187C51.194 112.454 51.119 112.649 51.075 112.911C50.9916 113.412 51.2306 113.994 51.1012 114.52C51.0731 114.635 50.7007 114.714 50.7045 114.73C50.712 114.765 50.9625 114.788 51.0243 114.86C51.2277 115.098 50.9604 115.42 51.086 115.646C51.1478 115.759 51.4657 115.913 51.5361 116.023C51.5923 116.111 51.4676 116.319 51.6072 116.358C51.6915 116.382 51.9624 116.393 51.9963 116.421ZM47.78 113.453C48.213 113.469 47.8531 113.304 47.6207 113.366C47.5683 113.38 47.6676 113.449 47.78 113.453ZM48.5319 105.73C48.4082 105.732 48.2845 105.733 48.1608 105.735C48.2123 105.756 48.2638 105.778 48.3153 105.8C48.3896 105.788 48.464 105.775 48.5384 105.763C48.5362 105.752 48.5341 105.741 48.5319 105.73ZM133.496 101.921C133.526 101.947 133.364 101.984 133.356 102.015C133.318 102.145 133.206 102.193 133.142 102.31C133.047 102.484 133.26 103 132.134 103C132.134 103 132.134 103 132.134 103C132.123 103 132.112 103 132.1 103C131.886 102.998 131.652 102.954 131.409 102.948C131.166 102.941 129.599 102.946 129.511 102.884C129.395 102.793 129.796 102.577 129.779 102.528C129.766 102.495 129.624 102.455 129.599 102.413C129.517 102.277 129.621 102.206 129.234 102.083C129.438 102.034 129.642 101.985 129.846 101.937C129.752 101.873 130.021 101.776 130.006 101.737C129.994 101.705 129.832 101.687 129.825 101.653C129.815 101.616 129.99 101.559 129.963 101.491C129.921 101.38 129.5 101.361 129.447 101.294C129.392 101.225 129.62 101.118 129.472 101.029C129.426 101.018 129.38 101.007 129.333 100.996C129.229 101.004 129.124 101.012 129.019 101.02C128.971 100.976 129.185 100.957 129.189 100.916C129.194 100.868 128.99 100.843 128.991 100.811C128.992 100.785 129.155 100.749 129.145 100.715C129.131 100.665 128.896 100.675 128.852 100.649C128.834 100.638 128.704 100.439 128.703 100.428C128.693 100.343 129.016 100.336 129.044 100.268C129.121 100.079 128.86 99.8861 128.762 99.7119C128.718 99.6341 128.736 99.553 128.788 99.4754C129.613 99.5976 130.255 99.3272 128.964 99.4283C129.148 99.342 128.799 99.2808 128.858 99.199C128.897 99.1461 129.076 99.1095 129.071 99.034C129.061 98.8999 128.553 98.7533 129.472 98.7147C129.31 98.5574 129.644 98.421 128.832 98.3643C128.782 98.3238 129.266 98.2198 129.332 98.1742C129.393 98.1312 129.612 97.8009 129.624 97.7469C129.636 97.6929 129.649 97.5983 129.578 97.5528C129.49 97.4956 128.648 97.4557 129.632 97.3539C129.553 97.2356 129.581 97.1934 129.695 97.0833C129.716 97.0634 129.862 97.0612 129.862 97.0495C129.862 97.0255 129.754 96.9847 129.741 96.9419C129.72 96.8715 130.027 96.8313 129.557 96.8392C129.479 96.7928 129.4 96.7464 129.321 96.7C129.412 96.6837 129.502 96.6674 129.593 96.6511C129.494 96.6263 129.396 96.6015 129.297 96.5767C129.976 96.6058 129.575 96.4312 129.185 96.4879C129.326 96.3979 129.467 96.308 129.607 96.218C130.379 96.2305 129.696 96.0205 129.276 96.0381C129.277 96.0279 129.278 96.0176 129.278 96.0073C129.483 95.9171 129.316 95.8344 129.453 95.7245C129.591 95.6147 129.666 95.625 130.022 95.5916C130.001 95.5657 129.981 95.5399 129.961 95.514C128.987 95.3784 130.673 95.4024 129.926 95.1701C130.538 95.0959 130.216 94.913 130.031 94.7917C130.009 94.7776 129.89 94.7774 129.854 94.7586C129.766 94.7126 129.918 94.5953 129.535 94.5994C129.646 94.5588 129.757 94.5182 129.868 94.4776C129.798 94.4444 129.728 94.4112 129.659 94.3781C129.539 94.3782 129.419 94.3784 129.3 94.3786C129.708 94.3117 129.551 94.2068 129.648 94.155C129.668 94.1447 129.833 94.1425 129.878 94.1104C129.932 94.073 129.883 94.0032 129.934 93.9586C129.751 93.9413 129.569 93.9239 129.386 93.9066C129.287 93.8268 129.769 93.7987 129.807 93.7519C129.813 93.7435 129.779 93.5896 129.768 93.5813C129.687 93.5134 129.276 93.5326 129.364 93.3363C129.38 93.3014 129.522 93.2731 129.527 93.2415C129.538 93.1857 129.215 93.0175 128.917 93.0042C129.29 92.9365 129.138 92.7554 129.245 92.702C129.279 92.6859 129.516 92.6823 129.567 92.6328C129.608 92.5927 129.418 92.4893 129.45 92.4384C129.484 92.3844 129.684 92.3651 129.698 92.3409C129.711 92.318 129.55 92.2969 129.551 92.2658C129.557 92.1685 129.816 92.0804 129.821 92.0035C129.828 91.8923 129.351 91.7941 129.139 91.7011C129.17 91.678 129.273 91.6553 129.274 91.6311C129.289 91.3316 129.376 90.9937 129.479 90.6933C129.526 90.5539 130.173 90.2071 129.093 90.2996C128.903 90.2512 129.339 89.8988 129.346 89.8317C129.352 89.7647 129.158 89.7116 129.155 89.659C129.147 89.5 129.287 89.3881 129.118 89.1946C129.074 89.1446 128.844 89.0911 128.847 89.0615C128.851 89.0259 129.073 88.9875 129.087 88.9413C129.119 88.8313 129.046 88.6261 129.084 88.5205C129.092 88.5012 129.286 88.4945 129.347 88.4669C129.586 88.3595 129.565 88.2392 128.942 88.2605C129.296 88.1228 128.973 87.9955 128.954 87.8679C128.913 87.5982 129.059 87.107 128.797 86.872C128.632 86.7239 128.353 86.7277 128.594 86.5096C128.647 86.4611 128.719 86.4129 128.783 86.3542C128.933 86.2166 129.449 86.0903 128.827 85.9854C128.989 85.8325 128.874 85.7107 129.406 85.5973C129.278 85.5839 129.151 85.5706 129.023 85.5572C129.02 85.5384 129.017 85.5197 129.014 85.501C129.135 85.4951 129.257 85.4893 129.379 85.4834C129.411 85.3492 128.912 85.1788 128.915 85.0651C128.921 84.8746 129.115 84.3838 129.279 84.2031C129.366 84.1072 129.106 84.102 129.641 84.0471C129.604 84.0256 129.567 84.0042 129.529 83.9827C129.412 83.9693 129.295 83.9558 129.178 83.9424C129.173 83.8193 129.355 83.6734 129.353 83.5561C129.349 83.3425 129.027 83.0216 129.239 82.8071C129.292 82.7533 129.534 82.6861 129.531 82.6334C129.527 82.5567 129.126 82.5381 129.119 82.4408C129.107 82.2731 129.573 81.9608 129.537 81.8023C129.527 81.7552 129.377 81.7332 129.361 81.7007C129.293 81.5644 129.305 81.4525 129.075 81.3218C129.459 81.1815 129.955 81.1936 130.456 81.1501C130.833 81.1172 131.709 81.0161 132.04 81.0017C132.272 80.9917 132.571 81.0293 132.827 81.0152C133.031 81.1833 132.806 81.2539 132.446 81.3905C132.461 81.6426 132.475 81.8947 132.49 82.1469C132.35 82.1698 132.21 82.1928 132.071 82.2157C132.07 82.2157 132.07 82.2157 132.07 82.2157C131.908 82.3125 132.268 82.3536 132.35 82.4058C133.132 82.9057 132.52 83.8897 132.432 84.4401C132.413 84.5587 132.601 84.9445 132.374 85.0259C132.315 85.0469 132.1 85.0528 132.09 85.0752C132.218 85.2755 132.347 85.4758 132.475 85.676C132.14 86.0879 132.416 86.5136 132.468 86.9286C132.608 88.0513 132.777 89.1628 132.726 90.2671C132.715 90.4806 132.877 90.7514 132.773 90.9604C132.73 91.0476 132.384 91.0839 132.642 91.1984C132.548 91.1996 132.455 91.2009 132.362 91.2021C132.474 91.302 132.686 91.3659 132.708 91.478C132.726 91.5724 132.74 91.8221 132.704 91.9055C132.686 91.9488 132.512 91.9326 132.513 91.973C132.516 92.042 132.757 92.1896 132.757 92.2848C132.757 92.3711 132.556 92.5167 132.585 92.583C132.688 92.822 132.985 93.0823 132.906 93.337C132.883 93.4073 132.657 93.4978 132.664 93.5199C132.677 93.5629 132.896 93.5757 132.924 93.6046C133.067 93.7514 132.806 93.9803 132.796 94.1243C132.762 94.5933 132.858 95.0901 132.818 95.5571C132.792 95.8521 132.831 96.3424 132.666 96.6148C132.63 96.6735 132.39 96.6579 132.39 96.7072C132.39 96.7619 132.552 96.7915 132.566 96.817C132.657 96.9939 132.821 97.3844 132.656 97.5515C132.624 97.5833 132.435 97.6063 132.436 97.6254C132.436 97.635 132.565 97.6568 132.578 97.6871C132.694 97.9543 132.619 98.1491 132.575 98.411C132.492 98.9125 132.731 99.4936 132.601 100.02C132.573 100.135 132.201 100.214 132.204 100.23C132.212 100.265 132.462 100.288 132.524 100.36C132.728 100.598 132.46 100.92 132.586 101.146C132.648 101.259 132.966 101.413 133.036 101.523C133.092 101.611 132.968 101.819 133.107 101.858C133.192 101.882 133.462 101.893 133.496 101.921ZM129.28 98.9535C129.713 98.9692 129.353 98.8042 129.121 98.8661C129.068 98.88 129.168 98.9494 129.28 98.9535ZM130.032 91.2303C129.908 91.2318 129.785 91.2333 129.661 91.2348C129.712 91.2564 129.764 91.2781 129.815 91.2997C129.89 91.2876 129.964 91.2754 130.038 91.2632C130.036 91.2522 130.034 91.2412 130.032 91.2303Z" fill="#DBE2EC"/>
</g>
<defs>
<clipPath id="clip0_1146_9635">
<rect width="172" height="141" fill="white"/>
</clipPath>
</defs>
</svg>
