<svg width="338" height="212" viewBox="0 0 338 212" fill="none" xmlns="http://www.w3.org/2000/svg">
<path opacity="0.2" d="M169 189C236.931 189 292 169.748 292 146C292 122.252 236.931 103 169 103C101.069 103 46 122.252 46 146C46 169.748 101.069 189 169 189Z" fill="#D1D9E0"/>
<path opacity="0.4" d="M168.35 116.404C202.951 116.404 231 125.1 231 135.827C231 146.554 202.951 155.25 168.35 155.25C133.75 155.25 105.7 146.554 105.7 135.827C105.7 125.1 133.75 116.404 168.35 116.404Z" fill="#D2DBE5"/>
<path d="M142.93 117.736C143.12 117.936 143.31 118.136 143.51 118.326C148.66 123.506 157.88 130.776 163.64 135.176C166.67 137.486 170.87 137.486 173.89 135.176C179.65 130.776 188.87 123.516 194.02 118.326C194.22 118.136 194.41 117.936 194.6 117.736C194.7 117.636 194.79 117.516 194.89 117.416C201.84 110.116 205.79 99.9357 204.66 88.8257C202.97 72.1457 189.49 58.5157 172.82 56.6957C151.06 54.3157 132.66 71.2957 132.66 92.5657C132.66 102.206 136.46 110.946 142.62 117.416" fill="url(#paint0_linear_454_8907)"/>
<path d="M151.45 85.9961H186.09V108.286C186.09 109.936 184.75 111.276 183.1 111.276H154.43C152.78 111.276 151.44 109.936 151.44 108.286V85.9961H151.45Z" fill="white"/>
<path d="M168.77 100.445C165.35 100.445 162.57 103.225 162.57 106.645V111.275H174.97V106.645C174.97 103.215 172.19 100.445 168.77 100.445Z" fill="#2C333A"/>
<path d="M188.64 88.0062L186.44 77.0162C186.07 74.8962 184.01 73.3262 181.59 73.3262H155.94C153.52 73.3262 151.46 74.8862 151.09 77.0162L148.89 88.0062C148.62 88.7662 148.51 89.5962 148.62 90.4662C148.98 93.3962 151.83 95.7062 155.15 95.7762C158.94 95.8562 162.04 93.1562 162.04 89.8162C162.04 93.1062 165.05 95.7762 168.77 95.7762C172.49 95.7762 175.5 93.1062 175.5 89.8162C175.5 93.1562 178.6 95.8562 182.39 95.7762C185.71 95.7062 188.56 93.3962 188.92 90.4662C189.03 89.6062 188.92 88.7762 188.65 88.0062H188.64Z" fill="#2C333A"/>
<path d="M219.18 49.6051C220.12 47.1551 223.59 47.1551 224.54 49.6051L225.65 52.4851C226.18 53.8651 226.45 54.5551 226.86 55.1351C227.23 55.6451 227.68 56.0951 228.19 56.4651C228.77 56.8751 229.46 57.1451 230.84 57.6751L233.72 58.7851C236.17 59.7251 236.17 63.1951 233.72 64.1451L230.84 65.2551C229.46 65.7851 228.77 66.0551 228.19 66.4651C227.68 66.8351 227.23 67.2851 226.86 67.7951C226.45 68.3751 226.18 69.0651 225.65 70.4451L224.54 73.3251C223.6 75.7751 220.13 75.7751 219.18 73.3251L218.07 70.4451C217.54 69.0651 217.27 68.3751 216.86 67.7951C216.49 67.2851 216.04 66.8351 215.53 66.4651C214.95 66.0551 214.26 65.7851 212.88 65.2551L210 64.1451C207.55 63.2051 207.55 59.7351 210 58.7851L212.88 57.6751C214.26 57.1451 214.95 56.8751 215.53 56.4651C216.04 56.0951 216.49 55.6451 216.86 55.1351C217.27 54.5551 217.54 53.8651 218.07 52.4851L219.18 49.6051Z" fill="#2C333A"/>
<path d="M118.25 27.445C119.51 24.185 124.12 24.185 125.38 27.445L126.86 31.285C127.57 33.125 127.92 34.045 128.47 34.815C128.96 35.495 129.56 36.095 130.24 36.585C131.01 37.135 131.93 37.485 133.77 38.195L137.61 39.675C140.87 40.935 140.87 45.545 137.61 46.805L133.77 48.285C131.93 48.995 131.01 49.345 130.24 49.895C129.56 50.385 128.96 50.985 128.47 51.665C127.92 52.435 127.57 53.355 126.86 55.195L125.38 59.035C124.12 62.295 119.51 62.295 118.25 59.035L116.77 55.195C116.06 53.355 115.71 52.435 115.16 51.665C114.67 50.985 114.07 50.385 113.39 49.895C112.62 49.345 111.7 48.995 109.86 48.285L106.02 46.805C102.76 45.545 102.76 40.935 106.02 39.675L109.86 38.195C111.7 37.485 112.62 37.135 113.39 36.585C114.07 36.095 114.67 35.495 115.16 34.815C115.71 34.045 116.06 33.125 116.77 31.285L118.25 27.445Z" fill="#2C333A"/>
<defs>
<linearGradient id="paint0_linear_454_8907" x1="168.756" y1="56.4727" x2="168.756" y2="136.908" gradientUnits="userSpaceOnUse">
<stop stop-color="#9EF4FF"/>
<stop offset="1" stop-color="#00E1FF"/>
</linearGradient>
</defs>
</svg>
