<svg width="24" height="24" viewBox="0 0 24 24" fill="none" xmlns="http://www.w3.org/2000/svg">
<path d="M10.7016 19.7554L15.8686 14.5166C16.4628 13.9845 16.0647 13.0428 15.2434 13.0428H12.9463V4.98254C12.9463 4.44079 12.5638 4 12.0938 4H8.05887C7.58702 4 7.20644 4.44079 7.20644 4.98254V13.0428H4.90934C4.08992 13.0428 3.68991 13.9845 4.28409 14.5166L9.45111 19.7554C9.80063 20.0681 10.3501 20.0681 10.7016 19.7554Z" fill="#DEE4EA"/>
<path d="M15.6009 16.2037C18.0599 16.2037 20.0533 14.2103 20.0533 11.7513C20.0533 9.29227 18.0599 7.29883 15.6009 7.29883C13.1419 7.29883 11.1484 9.29227 11.1484 11.7513C11.1484 14.2103 13.1419 16.2037 15.6009 16.2037Z" fill="#B6C2CF"/>
<path d="M14.2499 11.0838C14.6274 11.0838 14.9334 10.7778 14.9334 10.4003C14.9334 10.0228 14.6274 9.7168 14.2499 9.7168C13.8724 9.7168 13.5664 10.0228 13.5664 10.4003C13.5664 10.7778 13.8724 11.0838 14.2499 11.0838Z" fill="#DEE4EA"/>
<path d="M16.9511 13.7869C17.3286 13.7869 17.6346 13.4809 17.6346 13.1034C17.6346 12.7259 17.3286 12.4199 16.9511 12.4199C16.5736 12.4199 16.2676 12.7259 16.2676 13.1034C16.2676 13.4809 16.5736 13.7869 16.9511 13.7869Z" fill="#DEE4EA"/>
<path d="M17.3691 10.7148C17.5708 10.5131 17.5708 10.1861 17.3691 9.98437C17.1674 9.78266 16.8404 9.78266 16.6387 9.98437L13.7718 12.8513C13.5701 13.053 13.5701 13.38 13.7718 13.5817C13.9735 13.7834 14.3005 13.7834 14.5022 13.5817L17.3691 10.7148Z" fill="#DEE4EA"/>
</svg>
