<svg width="24" height="24" viewBox="0 0 24 24" fill="none" xmlns="http://www.w3.org/2000/svg">
<path d="M14.305 10.8867H18.5342C18.9921 10.8867 19.3633 10.5155 19.3633 10.0576V5.82843C19.3633 5.37051 18.9921 4.99929 18.5342 4.99929L14.305 4.99929C13.8471 4.99929 13.4759 5.37051 13.4759 5.82843V10.0576C13.4759 10.5155 13.8471 10.8867 14.305 10.8867Z" fill="#DEE4EA"/>
<path d="M6.10676 18.998H10.3359C10.7938 18.998 11.165 18.6268 11.165 18.1689V13.9398C11.165 13.4819 10.7938 13.1106 10.3359 13.1106H6.10676C5.64884 13.1106 5.27763 13.4819 5.27763 13.9398L5.27763 18.1689C5.27763 18.6268 5.64884 18.998 6.10676 18.998Z" fill="#DEE4EA"/>
<path d="M16.421 19.3714C18.2516 19.3714 19.7356 17.8874 19.7356 16.0568C19.7356 14.2262 18.2516 12.7422 16.421 12.7422C14.5904 12.7422 13.1064 14.2262 13.1064 16.0568C13.1064 17.8874 14.5904 19.3714 16.421 19.3714Z" fill="#B6C2CF"/>
<path d="M7.5043 5.45656L5.11205 9.60029C4.7936 10.1518 5.19166 10.843 5.8305 10.843H10.615C11.2519 10.843 11.6519 10.1518 11.3334 9.60029L8.9412 5.45656C8.62275 4.9051 7.82469 4.9051 7.50624 5.45656H7.5043Z" fill="#B6C2CF"/>
</svg>
