<svg width="24" height="24" viewBox="0 0 24 24" fill="none" xmlns="http://www.w3.org/2000/svg">
<path d="M5.18303 18.5242C6.38814 18.5242 7.36507 17.5473 7.36507 16.3422C7.36507 15.1371 6.38814 14.1602 5.18303 14.1602C3.97791 14.1602 3.00098 15.1371 3.00098 16.3422C3.00098 17.5473 3.97791 18.5242 5.18303 18.5242Z" fill="#B6C2CF"/>
<path d="M7.65861 21.0008C8.86372 21.0008 9.84066 20.0239 9.84066 18.8188C9.84066 17.6137 8.86372 16.6367 7.65861 16.6367C6.4535 16.6367 5.47656 17.6137 5.47656 18.8188C5.47656 20.0239 6.4535 21.0008 7.65861 21.0008Z" fill="#B6C2CF"/>
<path d="M11.0136 14.5254L9.4707 12.9824L5.83313 16.62L7.37608 18.1629L11.0136 14.5254Z" fill="#B6C2CF"/>
<path d="M9.46668 4.98143C12.3207 2.1274 16.2142 2.50994 18.8517 5.14753C21.4893 7.78511 21.8694 11.6786 19.0179 14.5326C16.1638 17.3866 11.7142 17.5628 9.07657 14.9252C6.43899 12.2876 6.61516 7.83798 9.46919 4.98395L9.46668 4.98143Z" fill="#DEE4EA"/>
</svg>
