<svg width="39" height="38" viewBox="0 0 39 38" fill="none" xmlns="http://www.w3.org/2000/svg">
<g clip-path="url(#clip0_454_8030)">
<g filter="url(#filter0_d_454_8030)">
<circle cx="19.9762" cy="17.4762" r="14.4762" fill="white"/>
<path d="M20.8433 33.8654C20.3512 34.4559 19.4443 34.4559 18.9522 33.8654L16.0882 30.4286L23.7073 30.4286L20.8433 33.8654Z" fill="white"/>
</g>
<path d="M15.0787 10.1914H24.4907C25.2917 10.1914 25.94 10.8398 25.94 11.6407V16.9501H13.6294V11.6407C13.6294 10.8398 14.2778 10.1914 15.0787 10.1914Z" fill="#5992FF"/>
<path d="M25.812 16.9512H13.7574C13.1255 16.9512 12.6133 17.4634 12.6133 18.0953V18.1825C12.6133 18.8144 13.1255 19.3267 13.7574 19.3267H25.812C26.4439 19.3267 26.9561 18.8144 26.9561 18.1825V18.0953C26.9561 17.4634 26.4439 16.9512 25.812 16.9512Z" fill="#A5C4FF"/>
<path d="M17.3998 11.5762H15.7353C15.4615 11.5762 15.2395 11.7982 15.2395 12.072V12.1074C15.2395 12.3812 15.4615 12.6032 15.7353 12.6032H17.3998C17.6736 12.6032 17.8956 12.3812 17.8956 12.1074V12.072C17.8956 11.7982 17.6736 11.5762 17.3998 11.5762Z" fill="#A5C4FF"/>
<path d="M22.2925 25.3751H17.28C16.7787 25.3751 16.3701 24.9365 16.3701 24.3971L16.8768 20.6895H22.6957L23.2024 24.3971C23.2024 24.9365 22.7965 25.3751 22.2925 25.3751Z" fill="#5992FF"/>
<path d="M25.9401 19.3262C25.9401 21.6227 23.1832 23.4806 19.7834 23.4806C16.3836 23.4806 13.6267 21.6199 13.6267 19.3262H25.9373H25.9401Z" fill="#A5C4FF"/>
</g>
<defs>
<filter id="filter0_d_454_8030" x="-19.1154" y="-14.2308" width="78.1832" height="80.5394" filterUnits="userSpaceOnUse" color-interpolation-filters="sRGB">
<feFlood flood-opacity="0" result="BackgroundImageFix"/>
<feColorMatrix in="SourceAlpha" type="matrix" values="0 0 0 0 0 0 0 0 0 0 0 0 0 0 0 0 0 0 127 0" result="hardAlpha"/>
<feOffset dy="7.38462"/>
<feGaussianBlur stdDeviation="12.3077"/>
<feComposite in2="hardAlpha" operator="out"/>
<feColorMatrix type="matrix" values="0 0 0 0 0 0 0 0 0 0 0 0 0 0 0 0 0 0 0.03 0"/>
<feBlend mode="normal" in2="BackgroundImageFix" result="effect1_dropShadow_454_8030"/>
<feBlend mode="normal" in="SourceGraphic" in2="effect1_dropShadow_454_8030" result="shape"/>
</filter>
<clipPath id="clip0_454_8030">
<rect width="38" height="38" fill="white" transform="translate(0.5)"/>
</clipPath>
</defs>
</svg>
