<svg width="39" height="38" viewBox="0 0 39 38" fill="none" xmlns="http://www.w3.org/2000/svg">
<g clip-path="url(#clip0_454_8030)">
<g filter="url(#filter0_d_454_8030)">
<mask id="path-1-inside-1_454_8030" fill="white">
<path d="M19.9766 3C27.9714 3.0002 34.4521 9.48171 34.4521 17.4766C34.452 24.5604 29.3637 30.4545 22.6426 31.7061L20.8438 33.8652C20.3517 34.4557 19.4442 34.4557 18.9521 33.8652L17.123 31.6699C10.4947 30.3449 5.50018 24.4946 5.5 17.4766C5.5 9.48158 11.9816 3 19.9766 3Z"/>
</mask>
<path d="M19.9766 3C27.9714 3.0002 34.4521 9.48171 34.4521 17.4766C34.452 24.5604 29.3637 30.4545 22.6426 31.7061L20.8438 33.8652C20.3517 34.4557 19.4442 34.4557 18.9521 33.8652L17.123 31.6699C10.4947 30.3449 5.50018 24.4946 5.5 17.4766C5.5 9.48158 11.9816 3 19.9766 3Z" fill="white"/>
<path d="M19.9766 3L19.9766 2H19.9766V3ZM34.4521 17.4766L35.4521 17.4766V17.4766H34.4521ZM22.6426 31.7061L22.4595 30.723L22.1051 30.789L21.8743 31.066L22.6426 31.7061ZM20.8438 33.8652L21.612 34.5054L21.6121 34.5053L20.8438 33.8652ZM18.9521 33.8652L18.1839 34.5054L18.1839 34.5054L18.9521 33.8652ZM17.123 31.6699L17.8913 31.0298L17.6653 30.7585L17.3191 30.6893L17.123 31.6699ZM5.5 17.4766H4.5V17.4766L5.5 17.4766ZM19.9766 3L19.9765 4C27.419 4.00019 33.4521 10.0339 33.4521 17.4766H34.4521H35.4521C35.4521 8.92949 28.5237 2.00021 19.9766 2L19.9766 3ZM34.4521 17.4766L33.4521 17.4765C33.452 24.0698 28.7158 29.558 22.4595 30.723L22.6426 31.7061L22.8256 32.6892C30.0115 31.3511 35.452 25.051 35.4521 17.4766L34.4521 17.4766ZM22.6426 31.7061L21.8743 31.066L20.0754 33.2252L20.8438 33.8652L21.6121 34.5053L23.4109 32.3461L22.6426 31.7061ZM20.8438 33.8652L20.0755 33.225C19.9833 33.3358 19.8126 33.3358 19.7204 33.225L18.9521 33.8652L18.1839 34.5054C19.0758 35.5756 20.7201 35.5756 21.612 34.5054L20.8438 33.8652ZM18.9521 33.8652L19.7204 33.2251L17.8913 31.0298L17.123 31.6699L16.3548 32.31L18.1839 34.5054L18.9521 33.8652ZM17.123 31.6699L17.3191 30.6893C11.1489 29.4559 6.50016 24.0085 6.5 17.4765L5.5 17.4766L4.5 17.4766C4.50019 24.9807 9.84048 31.2339 16.927 32.6505L17.123 31.6699ZM5.5 17.4766H6.5C6.5 10.0339 12.5339 4 19.9766 4V3V2C11.4293 2 4.5 8.9293 4.5 17.4766H5.5Z" fill="#DEE4EA" mask="url(#path-1-inside-1_454_8030)"/>
</g>
<path d="M15.0787 10.1914H24.4907C25.2917 10.1914 25.94 10.8398 25.94 11.6407V16.9501H13.6294V11.6407C13.6294 10.8398 14.2778 10.1914 15.0787 10.1914Z" fill="#5992FF"/>
<path d="M25.812 16.9512H13.7574C13.1255 16.9512 12.6133 17.4634 12.6133 18.0953V18.1825C12.6133 18.8144 13.1255 19.3267 13.7574 19.3267H25.812C26.4439 19.3267 26.9561 18.8144 26.9561 18.1825V18.0953C26.9561 17.4634 26.4439 16.9512 25.812 16.9512Z" fill="#A5C4FF"/>
<path d="M17.3998 11.5762H15.7353C15.4615 11.5762 15.2395 11.7982 15.2395 12.072V12.1074C15.2395 12.3812 15.4615 12.6032 15.7353 12.6032H17.3998C17.6736 12.6032 17.8956 12.3812 17.8956 12.1074V12.072C17.8956 11.7982 17.6736 11.5762 17.3998 11.5762Z" fill="#A5C4FF"/>
<path d="M22.2925 25.3751H17.28C16.7787 25.3751 16.3701 24.9365 16.3701 24.3971L16.8768 20.6895H22.6957L23.2024 24.3971C23.2024 24.9365 22.7965 25.3751 22.2925 25.3751Z" fill="#5992FF"/>
<path d="M25.9401 19.3262C25.9401 21.6227 23.1832 23.4806 19.7834 23.4806C16.3836 23.4806 13.6267 21.6199 13.6267 19.3262H25.9373H25.9401Z" fill="#A5C4FF"/>
</g>
<defs>
<filter id="filter0_d_454_8030" x="-19.1154" y="-14.2308" width="78.1829" height="80.5394" filterUnits="userSpaceOnUse" color-interpolation-filters="sRGB">
<feFlood flood-opacity="0" result="BackgroundImageFix"/>
<feColorMatrix in="SourceAlpha" type="matrix" values="0 0 0 0 0 0 0 0 0 0 0 0 0 0 0 0 0 0 127 0" result="hardAlpha"/>
<feOffset dy="7.38462"/>
<feGaussianBlur stdDeviation="12.3077"/>
<feComposite in2="hardAlpha" operator="out"/>
<feColorMatrix type="matrix" values="0 0 0 0 0 0 0 0 0 0 0 0 0 0 0 0 0 0 0.03 0"/>
<feBlend mode="normal" in2="BackgroundImageFix" result="effect1_dropShadow_454_8030"/>
<feBlend mode="normal" in="SourceGraphic" in2="effect1_dropShadow_454_8030" result="shape"/>
</filter>
<clipPath id="clip0_454_8030">
<rect width="38" height="38" fill="white" transform="translate(0.5)"/>
</clipPath>
</defs>
</svg>
