<svg width="32" height="44" viewBox="0 0 32 44" fill="none" xmlns="http://www.w3.org/2000/svg">
<path d="M9.48254 18.9484C9.52805 18.994 9.58267 19.0486 9.62818 19.0941C10.9298 20.4048 13.2509 22.2344 14.7073 23.3449C15.4719 23.9275 16.5278 23.9275 17.2924 23.3449C18.7488 22.2344 21.0699 20.4048 22.3715 19.0941C22.417 19.0486 22.4717 18.994 22.5172 18.9484C22.5445 18.9211 22.5627 18.8938 22.59 18.8665C24.3376 17.0278 25.3389 14.461 25.0567 11.6574C24.6289 7.45212 21.2246 4.02052 17.0284 3.5563C11.5397 2.95554 6.89746 7.24276 6.89746 12.6041C6.89746 15.0344 7.85321 17.2372 9.40972 18.8756" fill="#00E1FF"/>
<path d="M15.9998 14.6969C17.156 14.6969 18.0934 13.7596 18.0934 12.6033C18.0934 11.4471 17.156 10.5098 15.9998 10.5098C14.8436 10.5098 13.9062 11.4471 13.9062 12.6033C13.9062 13.7596 14.8436 14.6969 15.9998 14.6969Z" fill="#2C333A"/>
<path d="M15.4141 33.6719V34.3867H11.1133V35.3594H14.1953V37.6094H8.00781V38.6289H14.5117V39.332H7.09375V36.9531H13.293V36.0508H7.07031V35.3594H10.2109V34.3867H5.93359V33.6719H15.4141ZM6.4375 32.4883C8.34766 32.3652 9.97656 31.7148 10.1465 30.6719H6.90625V29.9453H10.2109V28.9727H11.1133V29.9453H14.4531V30.6719H11.1836C11.3477 31.7148 12.9766 32.3652 14.8984 32.4883L14.6172 33.1914C12.877 33.0449 11.3066 32.5059 10.668 31.5156C10.0234 32.5059 8.45312 33.0449 6.70703 33.1914L6.4375 32.4883ZM17.1606 29.4766V30.9766H20.1958V29.4766H21.1098V34.0117H16.2583V29.4766H17.1606ZM17.1606 33.2617H20.1958V31.6914H17.1606V33.2617ZM17.313 35.6523V34.9141H23.9575V37.4336H18.2388V38.582H24.3442V39.332H17.3364V36.7305H23.0434V35.6523H17.313ZM23.0434 34.4219V29.0312H23.9575V31.293H25.5278V32.0664H23.9575V34.4219H23.0434Z" fill="#00DBF8"/>
</svg>
