<svg width="24" height="24" viewBox="0 0 24 24" fill="none" xmlns="http://www.w3.org/2000/svg">
<path d="M12.4951 10.3358C14.2064 10.3358 15.5936 8.94855 15.5936 7.23725C15.5936 5.52595 14.2064 4.13867 12.4951 4.13867C10.7838 4.13867 9.39648 5.52595 9.39648 7.23725C9.39648 8.94855 10.7838 10.3358 12.4951 10.3358Z" stroke="#738496" stroke-width="1.62236" stroke-miterlimit="10"/>
<path d="M17.9938 18.9987H7.00101C5.91548 18.9987 5.06949 18.0661 5.17142 16.9856L5.95625 8.89774C6.04799 7.95491 6.83792 7.23633 7.78584 7.23633H17.2141C18.162 7.23633 18.9519 7.95491 19.0437 8.89774L19.8285 16.9856C19.9304 18.0661 19.0844 18.9987 17.9989 18.9987H17.9938Z" fill="white"/>
</svg>
