<svg width="28" height="28" viewBox="0 0 28 28" fill="none" xmlns="http://www.w3.org/2000/svg">
<path d="M12.3027 2.54492C17.4573 2.54492 21.6365 6.72342 21.6367 11.8779C21.6367 13.7991 21.0547 15.5842 20.0596 17.0684L23.8535 20.8623C24.5622 21.5713 24.5621 22.7207 23.8535 23.4297C23.1445 24.1387 21.9942 24.1387 21.2852 23.4297L17.4912 19.6357C16.0074 20.6301 14.2231 21.2119 12.3027 21.2119C7.14823 21.2117 2.96973 17.0325 2.96973 11.8779C2.9699 6.72353 7.14833 2.5451 12.3027 2.54492Z" fill="url(#paint0_linear_547_10781)"/>
<path d="M12.3025 17.7749C15.5594 17.7749 18.1997 15.1346 18.1997 11.8777C18.1997 8.62074 15.5594 5.98047 12.3025 5.98047C9.04555 5.98047 6.40527 8.62074 6.40527 11.8777C6.40527 15.1346 9.04555 17.7749 12.3025 17.7749Z" fill="#2C333A"/>
<defs>
<linearGradient id="paint0_linear_547_10781" x1="9.5" y1="7" x2="20" y2="24" gradientUnits="userSpaceOnUse">
<stop stop-color="#BCF7FF"/>
<stop offset="1" stop-color="#00E1FF"/>
</linearGradient>
</defs>
</svg>
