<svg width="24" height="24" viewBox="0 0 24 24" fill="none" xmlns="http://www.w3.org/2000/svg">
<g clip-path="url(#clip0_963_10644)">
<path d="M21.1133 11.6604L11.6625 21.1112C11.0412 21.7325 10.0326 21.7325 9.41128 21.1112L3.46889 15.1688C2.84761 14.5475 2.84761 13.5389 3.46889 12.9176L12.9197 3.46678C13.2998 3.0867 13.8407 2.92589 14.3596 3.02822L19.3006 4.02228C19.9292 4.14653 20.4189 4.64356 20.5505 5.27215L21.5446 10.2132C21.6469 10.7394 21.4861 11.2803 21.106 11.6531L21.1133 11.6604Z" fill="#DEE4EA"/>
<path d="M16.5072 9.55738C17.3267 9.55738 17.991 8.89308 17.991 8.07361C17.991 7.25415 17.3267 6.58984 16.5072 6.58984C15.6877 6.58984 15.0234 7.25415 15.0234 8.07361C15.0234 8.89308 15.6877 9.55738 16.5072 9.55738Z" fill="#B6C2CF"/>
</g>
<defs>
<clipPath id="clip0_963_10644">
<rect width="18.58" height="18.58" fill="white" transform="translate(3 3)"/>
</clipPath>
</defs>
</svg>
