<svg width="126" height="90" viewBox="0 0 126 90" fill="none" xmlns="http://www.w3.org/2000/svg">
<path d="M35.699 14.9588C36.9516 13.0975 39.6905 13.0975 40.9431 14.9588L45.3552 21.515C46.0646 22.5692 47.3364 23.096 48.5836 22.8523L56.3393 21.3361C58.5411 20.9057 60.4779 22.8424 60.0474 25.0443L58.5313 32.8C58.2875 34.0471 58.8143 35.3189 59.8685 36.0284L66.4247 40.4404C68.286 41.693 68.286 44.432 66.4247 45.6846L59.8685 50.0966C58.8143 50.8061 58.2875 52.0779 58.5313 53.325L60.0474 61.0807C60.4779 63.2826 58.5411 65.2193 56.3393 64.7889L48.5836 63.2727C47.3364 63.0289 46.0646 63.5558 45.3552 64.61L40.9431 71.1662C39.6905 73.0275 36.9516 73.0275 35.699 71.1662L31.2869 64.61C30.5775 63.5558 29.3056 63.0289 28.0585 63.2727L20.3028 64.7889C18.101 65.2193 16.1642 63.2826 16.5947 61.0807L18.1108 53.325C18.3546 52.0779 17.8278 50.8061 16.7736 50.0966L10.2173 45.6846C8.35606 44.432 8.35606 41.693 10.2173 40.4404L16.7736 36.0284C17.8278 35.3189 18.3546 34.0471 18.1108 32.8L16.5947 25.0443C16.1642 22.8424 18.101 20.9057 20.3028 21.3361L28.0585 22.8523C29.3056 23.096 30.5775 22.5692 31.2869 21.515L35.699 14.9588Z" fill="#E0E8EF"/>
<path d="M111.222 13.6443V70.7977C111.222 76.5609 106.57 81.4197 100.885 81.3142C95.1999 81.2088 89.8333 76.6699 89.8333 71.0527C89.8333 71 89.8333 70.9432 89.8373 70.8905L55.2222 70.8666V13.6443C55.2222 12.2127 56.3663 11.0527 57.7785 11.0527H108.666C110.078 11.0527 111.222 12.2127 111.222 13.6443Z" fill="url(#paint0_linear_505_13663)"/>
<path d="M101.111 81.3144H55.25C50.3992 81.3144 46.3466 77.5338 45.3473 72.6169C45.0866 71.334 46.1723 70.2617 47.4815 70.2617H88.6018C89.9109 70.2617 90.9477 71.334 91.2084 72.6169C92.2077 77.5338 96.2603 81.3144 101.111 81.3144Z" fill="#2C333A"/>
<path d="M33.3948 59.743C32.3946 60.7582 32.3946 62.4043 33.3948 63.4195C34.395 64.4348 36.0166 64.4348 37.0169 63.4195L50.8384 49.3901C51.8386 48.3749 51.8386 46.7288 50.8384 45.7136C49.8382 44.6983 48.2166 44.6983 47.2163 45.7136L33.3948 59.743Z" fill="#2C333A"/>
<path d="M24.0105 69.9517L26.9517 72.9371C27.7553 73.7528 29.0582 73.7528 29.8618 72.9371L38.5328 64.1358C39.3364 63.3201 39.3364 61.9976 38.5328 61.1819L35.5916 58.1965C34.788 57.3808 33.4851 57.3808 32.6815 58.1965L24.0105 66.9979C23.2069 67.8135 23.2069 69.136 24.0105 69.9517Z" fill="#00E1FF"/>
<rect x="65.5803" y="48.1973" width="40.2963" height="3.95062" rx="1.97531" fill="#97F3FF" fill-opacity="0.7"/>
<path d="M56.3888 60.789C67.3424 60.789 76.2221 51.599 76.2221 40.2626C76.2221 28.9263 67.3424 19.7363 56.3888 19.7363C45.4351 19.7363 36.5554 28.9263 36.5554 40.2626C36.5554 51.599 45.4351 60.789 56.3888 60.789Z" fill="#2C333A"/>
<path d="M56.3886 55.2613C64.3354 55.2613 70.7775 48.7223 70.7775 40.656C70.7775 32.5898 64.3354 26.0508 56.3886 26.0508C48.4419 26.0508 41.9998 32.5898 41.9998 40.656C41.9998 48.7223 48.4419 55.2613 56.3886 55.2613Z" fill="#F7F9FC"/>
<rect x="77.4321" y="56.8867" width="28.4444" height="3.95062" rx="1.97531" fill="#97F3FF" fill-opacity="0.7"/>
<rect x="82.9629" y="16.1719" width="22.9136" height="22.9136" rx="1.58025" fill="url(#paint1_linear_505_13663)" fill-opacity="0.7"/>
<path d="M55.3086 56.0977L54.5185 56.0977C46.2274 56.0977 39.5061 49.3764 39.5061 41.0853C39.5061 32.7942 46.2274 26.073 54.5185 26.073L55.3086 26.073L55.3086 56.0977Z" fill="#E0E7EF"/>
<path d="M52.9385 26.0742H57.6792C65.9703 26.0742 72.6916 32.7955 72.6916 41.0866C72.6916 49.3777 65.9703 56.0989 57.6792 56.0989H52.9385V26.0742Z" fill="#72EFFF"/>
<path d="M56.3887 19.7363C67.3423 19.7363 76.2217 28.9263 76.2217 40.2627C76.2216 51.599 67.3423 60.7891 56.3887 60.7891C45.4351 60.789 36.5557 51.599 36.5557 40.2627C36.5557 28.9264 45.4351 19.7364 56.3887 19.7363ZM56.3887 26.0508C48.4419 26.0508 42 32.59 42 40.6562C42.0001 48.7224 48.442 55.2617 56.3887 55.2617C64.3354 55.2617 70.7772 48.7224 70.7773 40.6562C70.7773 32.59 64.3354 26.0508 56.3887 26.0508Z" fill="#2C333A"/>
<defs>
<linearGradient id="paint0_linear_505_13663" x1="55" y1="7.5" x2="85.5005" y2="89.5" gradientUnits="userSpaceOnUse">
<stop stop-color="#89F1FF"/>
<stop offset="1" stop-color="#00E1FF"/>
</linearGradient>
<linearGradient id="paint1_linear_505_13663" x1="94.4197" y1="16.1719" x2="94.4197" y2="39.0855" gradientUnits="userSpaceOnUse">
<stop stop-color="#BCF7FF"/>
<stop offset="1" stop-color="#97F3FF"/>
</linearGradient>
</defs>
</svg>
