<svg width="24" height="24" viewBox="0 0 24 24" fill="none" xmlns="http://www.w3.org/2000/svg">
<path d="M19.3401 19.9999H14.9518C14.4376 19.9999 14.0132 19.6105 13.9683 19.1013L13.0047 8.21789C12.9548 7.63878 13.4091 7.14453 13.9882 7.14453H20.3036C20.8827 7.14453 21.337 7.64377 21.2871 8.21789L20.3236 19.1013C20.2786 19.6105 19.8493 19.9999 19.3401 19.9999Z" fill="#FFAA34"/>
<path d="M9.18569 8.03906C6.05048 8.03906 3.42948 10.0111 2.7605 12.657C2.59076 13.336 3.14991 13.98 3.91874 13.98H14.4477C15.2165 13.98 15.7806 13.331 15.6059 12.657C14.9369 10.0111 12.3159 8.03906 9.1807 8.03906H9.18569Z" fill="#FFCA81"/>
<path d="M14.3478 16.9902H4.01859C3.37891 16.9902 2.86035 17.5088 2.86035 18.1485V18.8424C2.86035 19.4821 3.37891 20.0006 4.01859 20.0006H14.3478C14.9875 20.0006 15.506 19.4821 15.506 18.8424V18.1485C15.506 17.5088 14.9875 16.9902 14.3478 16.9902Z" fill="#FFCA81"/>
<path d="M14.3478 13.9805H4.01859C3.37891 13.9805 2.86035 14.499 2.86035 15.1387V15.8326C2.86035 16.4723 3.37891 16.9909 4.01859 16.9909H14.3478C14.9875 16.9909 15.506 16.4723 15.506 15.8326V15.1387C15.506 14.499 14.9875 13.9805 14.3478 13.9805Z" fill="#FFE2B8"/>
<path d="M17.0088 8.03969L17.4731 4.99434C17.5579 4.45017 18.0222 4.05078 18.5714 4.05078H21.2922" stroke="#FFAA34" stroke-width="1.13826" stroke-linecap="round" stroke-linejoin="round"/>
</svg>
