<svg width="32" height="44" viewBox="0 0 32 44" fill="none" xmlns="http://www.w3.org/2000/svg">
<g clip-path="url(#clip0_1088_10790)">
<path d="M15.7124 37.6895C21.7875 37.6895 26.7124 35.227 26.7124 32.1895C26.7124 29.1519 21.7875 26.6895 15.7124 26.6895C9.63727 26.6895 4.7124 29.1519 4.7124 32.1895C4.7124 35.227 9.63727 37.6895 15.7124 37.6895Z" fill="#DEE4EA"/>
<path d="M15.8261 9H15.1739C14.5256 9 14 9.55796 14 10.2462V30.7538C14 31.442 14.5256 32 15.1739 32H15.8261C16.4744 32 17 31.442 17 30.7538V10.2462C17 9.55796 16.4744 9 15.8261 9Z" fill="#2C333A"/>
<path d="M15.5 21C19.6421 21 23 17.6421 23 13.5C23 9.35786 19.6421 6 15.5 6C11.3579 6 8 9.35786 8 13.5C8 17.6421 11.3579 21 15.5 21Z" fill="#00E1FF"/>
<circle cx="13.2124" cy="11.1895" r="2.5" fill="white" fill-opacity="0.5"/>
</g>
<defs>
<clipPath id="clip0_1088_10790">
<rect width="25.085" height="31.69" fill="white" transform="translate(3 6)"/>
</clipPath>
</defs>
</svg>
