<svg width="28" height="28" viewBox="0 0 28 28" fill="none" xmlns="http://www.w3.org/2000/svg">
<path d="M15.5722 12.5814C14.8632 11.8723 13.7136 11.8723 13.0046 12.5814C12.2955 13.2904 12.2955 14.44 13.0046 15.1491L21.2854 23.4299C21.9944 24.139 23.144 24.139 23.8531 23.4299C24.5621 22.7209 24.5621 21.5713 23.8531 20.8622L15.5722 12.5814Z" fill="#738496"/>
<path d="M12.3031 21.2116C17.4577 21.2116 21.6364 17.0329 21.6364 11.8783C21.6364 6.7236 17.4577 2.54492 12.3031 2.54492C7.1484 2.54492 2.96973 6.7236 2.96973 11.8783C2.96973 17.0329 7.1484 21.2116 12.3031 21.2116Z" fill="#738496"/>
<path d="M12.3025 17.7749C15.5594 17.7749 18.1997 15.1346 18.1997 11.8777C18.1997 8.62074 15.5594 5.98047 12.3025 5.98047C9.04555 5.98047 6.40527 8.62074 6.40527 11.8777C6.40527 15.1346 9.04555 17.7749 12.3025 17.7749Z" fill="#2C333A"/>
</svg>
