<svg width="34" height="33" viewBox="0 0 34 33" fill="none" xmlns="http://www.w3.org/2000/svg">
<path d="M18.8528 14.8267C18.0171 13.9911 16.6622 13.9911 15.8266 14.8267C14.9909 15.6624 14.9909 17.0173 15.8266 17.853L25.5861 27.6125C26.4218 28.4482 27.7767 28.4482 28.6123 27.6125C29.448 26.7768 29.448 25.4219 28.6123 24.5863L18.8528 14.8267Z" fill="#DEE4EA"/>
<path d="M15 25C21.0751 25 26 20.0751 26 14C26 7.92487 21.0751 3 15 3C8.92487 3 4 7.92487 4 14C4 20.0751 8.92487 25 15 25Z" fill="#DEE4EA"/>
<path d="M14.9991 20.9504C18.8377 20.9504 21.9494 17.8386 21.9494 14.0001C21.9494 10.1616 18.8377 7.0498 14.9991 7.0498C11.1606 7.0498 8.04883 10.1616 8.04883 14.0001C8.04883 17.8386 11.1606 20.9504 14.9991 20.9504Z" fill="#F7F9FC"/>
</svg>
