<svg width="338" height="212" viewBox="0 0 338 212" fill="none" xmlns="http://www.w3.org/2000/svg">
<path d="M187.282 142.493L147.182 150.533L146.642 150.633L139.142 152.143L137.382 152.503L94.9925 161.003C88.0725 162.393 81.3425 157.913 79.9525 150.983L59.2525 47.8129C57.8625 40.8929 62.3525 34.1629 69.2725 32.7729L161.562 14.2529C168.472 12.8629 175.212 17.3429 176.602 24.2729L181.672 49.5229L182.072 51.5329L182.722 54.7729L183.022 56.2829L183.052 56.4129L183.552 58.9129L197.312 127.503C198.672 134.413 194.192 141.103 187.292 142.493H187.282Z" fill="#2C333A"/>
<path d="M188.113 146.632L148.013 154.672L145.843 155.102L146.643 150.632L139.143 152.142L156.333 68.8322C158.193 57.6422 163.933 52.3822 173.923 54.1122L183.023 56.2822L183.053 56.4122L183.553 58.9122L197.313 127.502L198.133 131.592C199.523 138.512 195.043 145.242 188.123 146.632H188.113Z" fill="#1C232B"/>
<path d="M87.3724 67.3856C85.9024 67.9856 85.0524 69.5256 85.3224 71.0956L94.0824 121.836C94.4524 123.966 96.6924 125.206 98.7024 124.386L119.562 115.836L109.622 58.2656L87.3724 67.3856Z" fill="white"/>
<path d="M156.332 68.8343C157.352 62.7243 159.532 58.4043 162.912 55.9943L162.462 53.4143C162.092 51.2843 159.852 50.0443 157.842 50.8643L136.982 59.4143L146.682 115.564L156.322 68.8243L156.332 68.8343Z" fill="white"/>
<path d="M136.993 59.4134L109.613 58.2734L119.563 115.843L146.403 116.963L146.693 115.563L136.993 59.4134Z" fill="url(#paint0_linear_454_8809)"/>
<path d="M198.122 131.594L197.302 127.504L183.542 58.9142L183.042 56.4142L183.012 56.2842L173.922 54.1142C169.382 53.3242 165.732 53.9942 162.912 55.9942L171.232 104.154C171.502 105.714 170.652 107.254 169.182 107.864L146.932 116.984L146.402 116.964L139.142 152.144L146.642 150.634L145.842 155.104L148.012 154.674L188.112 146.634C195.032 145.244 199.512 138.514 198.122 131.594Z" fill="#1C232B"/>
<path d="M156.332 68.8341L146.692 115.574L146.932 116.984L169.182 107.864C170.652 107.264 171.502 105.724 171.232 104.154L162.912 55.9941C159.522 58.3941 157.342 62.7241 156.332 68.8341Z" fill="#EBEDED"/>
<path d="M146.692 115.564L146.402 116.964L146.932 116.984L146.692 115.564Z" fill="#00E1FF"/>
<path d="M278.132 83.7626L259.022 190.093C258.032 195.583 252.782 199.233 247.292 198.243L151.452 181.013C145.962 180.023 142.312 174.773 143.302 169.293L145.852 155.103L146.652 150.633L162.412 62.9526C163.392 57.4626 168.652 53.8126 174.132 54.8026L183.052 56.4026L269.982 72.0326C275.462 73.0126 279.122 78.2626 278.132 83.7526V83.7626Z" fill="url(#paint1_linear_454_8809)"/>
<path d="M180.192 167.331C189.018 167.331 196.172 160.177 196.172 151.351C196.172 142.526 189.018 135.371 180.192 135.371C171.367 135.371 164.212 142.526 164.212 151.351C164.212 160.177 171.367 167.331 180.192 167.331Z" stroke="white" stroke-width="3.97" stroke-miterlimit="10"/>
<path d="M231.382 176.292C240.208 176.292 247.362 169.138 247.362 160.312C247.362 151.487 240.208 144.332 231.382 144.332C222.557 144.332 215.402 151.487 215.402 160.312C215.402 169.138 222.557 176.292 231.382 176.292Z" stroke="white" stroke-width="3.97" stroke-miterlimit="10"/>
<path d="M180.192 151.351L193.242 117.441L202.082 118.991" stroke="white" stroke-width="4.66" stroke-linecap="round" stroke-linejoin="round"/>
<path d="M231.382 160.311L224.962 136.341L188.882 130.031" stroke="white" stroke-width="4.66" stroke-linecap="round" stroke-linejoin="round"/>
<path d="M218.492 131.211L227.352 132.761" stroke="white" stroke-width="7.05" stroke-miterlimit="10" stroke-linecap="round"/>
<path d="M263.959 94.4816L256.258 93.1237L252.907 112.13L247.617 111.197L250.969 92.191L243.268 90.8331L244.093 86.1543L264.784 89.8028L263.959 94.4816Z" fill="white"/>
<path d="M226.299 108.037C223.878 107.61 221.784 106.682 220.019 105.252C218.269 103.844 217.008 102.104 216.235 100.03C215.465 97.9365 215.289 95.708 215.706 93.3444C216.123 90.9807 217.049 88.9566 218.484 87.2721C219.924 85.5682 221.706 84.3542 223.831 83.6303C225.979 82.8903 228.264 82.7339 230.686 83.1609C233.108 83.5879 235.191 84.5147 236.938 85.9413C238.706 87.3519 239.976 89.1039 240.745 91.1972C241.518 93.2712 241.696 95.4901 241.279 97.8537C240.863 100.217 239.935 102.251 238.496 103.955C237.06 105.64 235.27 106.842 233.125 107.563C230.996 108.306 228.721 108.464 226.299 108.037ZM227.14 103.271C228.554 103.521 229.891 103.417 231.15 102.959C232.409 102.502 233.461 101.749 234.305 100.699C235.172 99.6335 235.734 98.3741 235.99 96.9211C236.25 95.4487 236.153 94.0731 235.699 92.7946C235.265 91.5194 234.534 90.4517 233.507 89.5914C232.48 88.7311 231.26 88.1763 229.845 87.9269C228.431 87.6775 227.094 87.7814 225.835 88.2386C224.576 88.6958 223.514 89.4475 222.651 90.4938C221.806 91.5435 221.254 92.8045 220.995 94.277C220.739 95.73 220.826 97.1038 221.257 98.3984C221.711 99.677 222.451 100.746 223.478 101.607C224.505 102.467 225.725 103.022 227.14 103.271Z" fill="white"/>
<path d="M197.127 77.875L206.223 79.4789C208.257 79.8376 209.938 80.5035 211.264 81.4765C212.61 82.453 213.557 83.6586 214.103 85.0933C214.649 86.528 214.768 88.1171 214.461 89.8608C214.15 91.6238 213.491 93.0958 212.483 94.2765C211.479 95.438 210.178 96.2473 208.579 96.7045C207 97.1651 205.193 97.2161 203.159 96.8574L199.352 96.1861L198.24 102.492L192.951 101.56L197.127 77.875ZM203.751 92.1376C205.243 92.4006 206.457 92.2551 207.394 91.7011C208.35 91.1506 208.943 90.2263 209.171 88.9282C209.4 87.6301 209.158 86.5686 208.444 85.7436C207.75 84.9221 206.657 84.3798 205.166 84.1167L201.591 83.4864L200.177 91.5073L203.751 92.1376Z" fill="white"/>
<path d="M184.532 75.0535C186.276 75.3609 187.797 75.9687 189.095 76.8768C190.393 77.7849 191.355 78.9033 191.979 80.232C192.627 81.5448 192.858 82.9539 192.672 84.4593L187.209 83.496C187.238 82.4225 186.927 81.5285 186.273 80.814C185.62 80.0996 184.664 79.6313 183.405 79.4093C182.204 79.1975 181.225 79.2546 180.468 79.5806C179.715 79.8873 179.273 80.4087 179.143 81.1449C179.041 81.7261 179.17 82.2384 179.532 82.6816C179.893 83.1249 180.484 83.5687 181.305 84.013C182.148 84.4414 183.382 84.9786 185.006 85.6245C187.526 86.6282 189.236 87.8587 190.138 89.3162C191.062 90.7577 191.359 92.418 191.028 94.2973C190.768 95.7697 190.115 96.983 189.067 97.937C188.04 98.8944 186.748 99.5356 185.192 99.8606C183.633 100.205 181.963 100.22 180.18 99.9058C178.243 99.5641 176.559 98.9176 175.129 97.9663C173.714 97.0377 172.661 95.8731 171.969 94.4726C171.297 93.0756 171.068 91.5371 171.285 89.8573L176.719 90.8155C176.673 91.9859 177.053 93.0018 177.86 93.8633C178.69 94.7087 179.85 95.263 181.342 95.526C182.427 95.7173 183.361 95.6323 184.144 95.2709C184.946 94.913 185.416 94.3465 185.552 93.5716C185.661 92.9516 185.558 92.404 185.243 91.9289C184.946 91.4571 184.407 91.0025 183.625 90.565C182.863 90.1309 181.769 89.6484 180.345 89.1175C177.779 88.1458 175.942 86.9529 174.833 85.5388C173.724 84.1246 173.359 82.3423 173.738 80.1918C173.984 78.7969 174.614 77.6595 175.628 76.7795C176.662 75.903 177.953 75.3216 179.502 75.0354C181.054 74.7297 182.731 74.7358 184.532 75.0535Z" fill="white"/>
<defs>
<linearGradient id="paint0_linear_454_8809" x1="128.153" y1="58.2734" x2="128.153" y2="116.963" gradientUnits="userSpaceOnUse">
<stop stop-color="#99F3FF"/>
<stop offset="1" stop-color="#00E1FF"/>
</linearGradient>
<linearGradient id="paint1_linear_454_8809" x1="155" y1="93" x2="192" y2="163.5" gradientUnits="userSpaceOnUse">
<stop stop-color="#87F1FF"/>
<stop offset="1" stop-color="#00E1FF"/>
</linearGradient>
</defs>
</svg>
