<svg width="60" height="60" viewBox="0 0 60 60" fill="none" xmlns="http://www.w3.org/2000/svg">
<g clip-path="url(#clip0_454_9415)">
<g filter="url(#filter0_d_454_9415)">
<g filter="url(#filter1_d_454_9415)">
<circle cx="30" cy="30" r="15" fill="white" stroke="#00E1FF" stroke-width="2"/>
</g>
</g>
<path d="M36 28.4986V37.8644C36 38.126 35.7885 38.3319 35.5325 38.3319H33.6905C33.429 38.3319 33.2231 38.1204 33.2231 37.8644V28.4986C33.2231 28.1703 32.956 27.9032 32.6276 27.9032H28.0588V30.3518C28.0588 30.9583 27.2352 31.2588 26.7733 30.8136L22.2045 26.9794C21.9318 26.7178 21.9318 26.306 22.2045 26.0501L26.7678 22.2102C27.2297 21.7706 28.0533 22.0656 28.0533 22.6777V25.1207H32.6221C34.4808 25.1207 36 26.6399 36 28.4986Z" fill="#2C333A"/>
</g>
<defs>
<filter id="filter0_d_454_9415" x="-2.84211" y="2.21053" width="65.6842" height="65.6842" filterUnits="userSpaceOnUse" color-interpolation-filters="sRGB">
<feFlood flood-opacity="0" result="BackgroundImageFix"/>
<feColorMatrix in="SourceAlpha" type="matrix" values="0 0 0 0 0 0 0 0 0 0 0 0 0 0 0 0 0 0 127 0" result="hardAlpha"/>
<feOffset dy="5.05263"/>
<feGaussianBlur stdDeviation="8.42105"/>
<feComposite in2="hardAlpha" operator="out"/>
<feColorMatrix type="matrix" values="0 0 0 0 0 0 0 0 0 0 0 0 0 0 0 0 0 0 0.02 0"/>
<feBlend mode="normal" in2="BackgroundImageFix" result="effect1_dropShadow_454_9415"/>
<feBlend mode="normal" in="SourceGraphic" in2="effect1_dropShadow_454_9415" result="shape"/>
</filter>
<filter id="filter1_d_454_9415" x="-2.84211" y="2.21053" width="65.6842" height="65.6842" filterUnits="userSpaceOnUse" color-interpolation-filters="sRGB">
<feFlood flood-opacity="0" result="BackgroundImageFix"/>
<feColorMatrix in="SourceAlpha" type="matrix" values="0 0 0 0 0 0 0 0 0 0 0 0 0 0 0 0 0 0 127 0" result="hardAlpha"/>
<feOffset dy="5.05263"/>
<feGaussianBlur stdDeviation="8.42105"/>
<feComposite in2="hardAlpha" operator="out"/>
<feColorMatrix type="matrix" values="0 0 0 0 0 0 0 0 0 0 0 0 0 0 0 0 0 0 0.02 0"/>
<feBlend mode="normal" in2="BackgroundImageFix" result="effect1_dropShadow_454_9415"/>
<feBlend mode="normal" in="SourceGraphic" in2="effect1_dropShadow_454_9415" result="shape"/>
</filter>
<clipPath id="clip0_454_9415">
<rect width="60" height="60" fill="white"/>
</clipPath>
</defs>
</svg>
