<svg width="338" height="180" viewBox="0 0 338 180" fill="none" xmlns="http://www.w3.org/2000/svg">
<g clip-path="url(#clip0_838_11218)">
<path d="M167.669 26.125H169.494C175.69 26.125 180.722 31.1562 180.722 37.353V157.205C180.722 159.572 178.803 161.49 176.436 161.49H160.727C158.36 161.49 156.441 159.572 156.441 157.205V37.353C156.441 31.1562 161.473 26.125 167.669 26.125Z" fill="#E7EFF6"/>
<path d="M160.771 20H176.393C181.583 20 185.804 24.2204 185.804 29.4109V34.6883C185.804 35.4629 185.174 36.0927 184.399 36.0927H152.764C151.989 36.0927 151.36 35.4629 151.36 34.6883V29.4109C151.36 24.2204 155.573 20 160.771 20Z" fill="#DBE2EC"/>
<path d="M236.992 84.2188H180.722V49.6445H236.992C238.512 49.6445 239.96 50.2237 241.002 51.2516L253.36 63.399C255.379 65.3825 255.379 68.4881 253.36 70.4716L241.002 82.619C239.96 83.6469 238.505 84.2261 236.992 84.2261V84.2188Z" fill="#DBE2EC"/>
<path d="M100.888 71.2441H156.442V105.818H100.888C99.3679 105.818 97.92 105.239 96.8776 104.211L84.5131 92.0712C82.4934 90.0877 82.4934 86.9821 84.5131 84.9986L96.8704 72.8512C97.9128 71.8233 99.3679 71.2441 100.881 71.2441H100.888Z" fill="#DBE2EC"/>
<path d="M204.496 131.921C204.526 131.947 204.364 131.984 204.356 132.015C204.318 132.145 204.206 132.193 204.142 132.31C204.047 132.484 204.26 133 203.134 133C203.134 133 203.134 133 203.134 133C203.123 133 203.112 133 203.1 133C202.886 132.998 202.652 132.954 202.409 132.948C202.166 132.941 200.599 132.946 200.511 132.884C200.395 132.793 200.796 132.577 200.779 132.528C200.766 132.495 200.624 132.455 200.599 132.413C200.517 132.277 200.621 132.206 200.234 132.083C200.438 132.034 200.642 131.985 200.846 131.937C200.752 131.873 201.021 131.776 201.006 131.737C200.994 131.705 200.832 131.687 200.825 131.653C200.815 131.616 200.99 131.559 200.963 131.491C200.921 131.38 200.5 131.361 200.447 131.294C200.392 131.225 200.62 131.118 200.472 131.029C200.426 131.018 200.38 131.007 200.333 130.996C200.229 131.004 200.124 131.012 200.019 131.02C199.971 130.976 200.185 130.957 200.189 130.916C200.194 130.868 199.99 130.843 199.991 130.811C199.992 130.785 200.155 130.749 200.145 130.715C200.131 130.665 199.896 130.675 199.852 130.649C199.834 130.638 199.704 130.439 199.703 130.428C199.693 130.343 200.016 130.336 200.044 130.268C200.121 130.079 199.86 129.886 199.762 129.712C199.718 129.634 199.736 129.553 199.788 129.475C200.613 129.598 201.255 129.327 199.964 129.428C200.148 129.342 199.799 129.281 199.858 129.199C199.897 129.146 200.076 129.11 200.071 129.034C200.061 128.9 199.553 128.753 200.472 128.715C200.31 128.557 200.644 128.421 199.832 128.364C199.782 128.324 200.266 128.22 200.332 128.174C200.393 128.131 200.612 127.801 200.624 127.747C200.636 127.693 200.649 127.598 200.578 127.553C200.49 127.496 199.648 127.456 200.632 127.354C200.553 127.236 200.581 127.193 200.695 127.083C200.716 127.063 200.862 127.061 200.862 127.05C200.862 127.026 200.754 126.985 200.741 126.942C200.72 126.872 201.027 126.831 200.557 126.839C200.479 126.793 200.4 126.746 200.321 126.7C200.412 126.684 200.502 126.667 200.593 126.651C200.494 126.626 200.396 126.601 200.297 126.577C200.976 126.606 200.575 126.431 200.185 126.488C200.326 126.398 200.467 126.308 200.607 126.218C201.379 126.231 200.696 126.02 200.276 126.038C200.277 126.028 200.278 126.018 200.278 126.007C200.483 125.917 200.316 125.834 200.453 125.725C200.591 125.615 200.666 125.625 201.022 125.592C201.001 125.566 200.981 125.54 200.961 125.514C199.987 125.378 201.673 125.402 200.926 125.17C201.538 125.096 201.216 124.913 201.031 124.792C201.009 124.778 200.89 124.777 200.854 124.759C200.766 124.713 200.918 124.595 200.535 124.599C200.646 124.559 200.757 124.518 200.868 124.478C200.798 124.444 200.728 124.411 200.659 124.378C200.539 124.378 200.419 124.378 200.3 124.379C200.708 124.312 200.551 124.207 200.648 124.155C200.668 124.145 200.833 124.142 200.878 124.11C200.932 124.073 200.883 124.003 200.934 123.959C200.751 123.941 200.569 123.924 200.386 123.907C200.287 123.827 200.769 123.799 200.807 123.752C200.813 123.743 200.779 123.59 200.768 123.581C200.687 123.513 200.276 123.533 200.364 123.336C200.38 123.301 200.522 123.273 200.527 123.241C200.538 123.186 200.215 123.017 199.917 123.004C200.29 122.937 200.138 122.755 200.245 122.702C200.279 122.686 200.516 122.682 200.567 122.633C200.608 122.593 200.418 122.489 200.45 122.438C200.484 122.384 200.684 122.365 200.698 122.341C200.711 122.318 200.55 122.297 200.551 122.266C200.557 122.169 200.816 122.08 200.821 122.004C200.821 122.002 200.821 122.001 200.821 122C200.818 121.89 200.349 121.793 200.139 121.701C200.17 121.678 200.273 121.655 200.274 121.631C200.289 121.332 200.376 120.994 200.479 120.693C200.526 120.554 201.173 120.207 200.093 120.3C199.903 120.251 200.339 119.899 200.346 119.832C200.352 119.765 200.158 119.712 200.155 119.659C200.147 119.5 200.287 119.388 200.118 119.195C200.074 119.145 199.844 119.091 199.847 119.062C199.851 119.026 200.073 118.987 200.087 118.941C200.119 118.831 200.046 118.626 200.084 118.521C200.092 118.501 200.286 118.494 200.347 118.467C200.586 118.36 200.565 118.239 199.942 118.26C200.296 118.123 199.973 117.995 199.954 117.868C199.913 117.598 200.059 117.107 199.797 116.872C199.632 116.724 199.353 116.728 199.594 116.51C199.647 116.461 199.719 116.413 199.783 116.354C199.933 116.217 200.449 116.09 199.827 115.985C199.989 115.832 199.874 115.711 200.406 115.597C200.278 115.584 200.151 115.571 200.023 115.557C200.02 115.538 200.017 115.52 200.014 115.501C200.135 115.495 200.257 115.489 200.379 115.483C200.411 115.349 199.912 115.179 199.915 115.065C199.921 114.875 200.115 114.384 200.279 114.203C200.366 114.107 200.106 114.102 200.641 114.047C200.604 114.026 200.567 114.004 200.529 113.983C200.412 113.969 200.295 113.956 200.178 113.942C200.173 113.819 200.355 113.673 200.353 113.556C200.349 113.342 200.027 113.022 200.239 112.807C200.292 112.753 200.534 112.686 200.531 112.633C200.527 112.557 200.126 112.538 200.119 112.441C200.107 112.273 200.573 111.961 200.537 111.802C200.527 111.755 200.377 111.733 200.361 111.701C200.293 111.564 200.305 111.453 200.075 111.322C200.459 111.181 200.955 111.194 201.456 111.15C201.833 111.117 202.709 111.016 203.04 111.002C203.272 110.992 203.571 111.029 203.827 111.015C204.031 111.183 203.806 111.254 203.446 111.39C203.461 111.643 203.475 111.895 203.49 112.147C203.35 112.17 203.21 112.193 203.071 112.216C203.07 112.216 203.07 112.216 203.07 112.216C202.908 112.313 203.268 112.354 203.35 112.406C204.132 112.906 203.52 113.89 203.432 114.44C203.413 114.559 203.601 114.944 203.374 115.026C203.315 115.047 203.1 115.053 203.09 115.075C203.218 115.275 203.347 115.476 203.475 115.676C203.14 116.088 203.416 116.514 203.468 116.929C203.608 118.051 203.777 119.163 203.726 120.267C203.715 120.481 203.877 120.751 203.773 120.96C203.73 121.048 203.384 121.084 203.642 121.198C203.548 121.2 203.455 121.201 203.362 121.202C203.474 121.302 203.686 121.366 203.708 121.478C203.726 121.572 203.74 121.822 203.704 121.906C203.686 121.949 203.512 121.933 203.513 121.973C203.513 121.981 203.517 121.99 203.523 122C203.568 122.076 203.757 122.201 203.757 122.285C203.757 122.371 203.556 122.517 203.585 122.583C203.688 122.822 203.985 123.082 203.906 123.337C203.883 123.407 203.657 123.498 203.664 123.52C203.677 123.563 203.896 123.576 203.924 123.605C204.067 123.751 203.806 123.98 203.796 124.124C203.762 124.593 203.858 125.09 203.818 125.557C203.792 125.852 203.831 126.342 203.666 126.615C203.63 126.674 203.39 126.658 203.39 126.707C203.39 126.762 203.552 126.791 203.566 126.817C203.657 126.994 203.821 127.384 203.656 127.551C203.624 127.583 203.435 127.606 203.436 127.625C203.436 127.635 203.565 127.657 203.578 127.687C203.694 127.954 203.619 128.149 203.575 128.411C203.492 128.912 203.731 129.494 203.601 130.02C203.573 130.135 203.201 130.214 203.204 130.23C203.212 130.265 203.462 130.288 203.524 130.36C203.728 130.598 203.46 130.92 203.586 131.146C203.648 131.259 203.966 131.413 204.036 131.523C204.092 131.611 203.968 131.819 204.107 131.858C204.192 131.882 204.462 131.893 204.496 131.921ZM200.28 128.953C200.713 128.969 200.353 128.804 200.121 128.866C200.068 128.88 200.168 128.949 200.28 128.953ZM201.032 121.23C200.908 121.232 200.785 121.233 200.661 121.235C200.712 121.256 200.764 121.278 200.815 121.3C200.89 121.288 200.964 121.275 201.038 121.263C201.036 121.252 201.034 121.241 201.032 121.23ZM134.996 136.421C135.026 136.447 134.864 136.484 134.856 136.515C134.818 136.645 134.706 136.693 134.642 136.81C134.547 136.984 134.76 137.5 133.634 137.5C133.634 137.5 133.634 137.5 133.634 137.5C133.623 137.5 133.612 137.5 133.6 137.5C133.386 137.498 133.152 137.454 132.909 137.448C132.666 137.441 131.099 137.446 131.011 137.384C130.895 137.293 131.296 137.077 131.279 137.028C131.266 136.995 131.124 136.955 131.099 136.913C131.017 136.777 131.121 136.706 130.734 136.583C130.938 136.534 131.142 136.485 131.346 136.437C131.252 136.373 131.521 136.276 131.506 136.237C131.494 136.205 131.332 136.187 131.325 136.153C131.315 136.116 131.489 136.059 131.463 135.991C131.421 135.88 131 135.861 130.947 135.794C130.892 135.725 131.12 135.618 130.972 135.529C130.926 135.518 130.88 135.507 130.833 135.496C130.729 135.504 130.624 135.512 130.519 135.52C130.471 135.476 130.685 135.457 130.689 135.416C130.694 135.368 130.49 135.343 130.491 135.311C130.492 135.285 130.655 135.249 130.645 135.215C130.631 135.165 130.396 135.175 130.352 135.149C130.334 135.138 130.204 134.939 130.203 134.928C130.193 134.843 130.516 134.836 130.544 134.768C130.621 134.579 130.36 134.386 130.262 134.212C130.218 134.134 130.236 134.053 130.288 133.975C131.113 134.098 131.755 133.827 130.464 133.928C130.648 133.842 130.299 133.781 130.358 133.699C130.397 133.646 130.576 133.61 130.571 133.534C130.561 133.4 130.053 133.253 130.972 133.215C130.81 133.057 131.144 132.921 130.332 132.864C130.282 132.824 130.766 132.72 130.832 132.674C130.893 132.631 131.112 132.301 131.124 132.247C131.136 132.193 131.149 132.098 131.078 132.053C130.99 131.996 130.148 131.956 131.132 131.854C131.053 131.736 131.081 131.693 131.195 131.583C131.216 131.563 131.362 131.561 131.362 131.55C131.362 131.526 131.254 131.485 131.241 131.442C131.22 131.372 131.527 131.331 131.057 131.339C130.979 131.293 130.9 131.246 130.821 131.2C130.912 131.184 131.002 131.167 131.093 131.151C130.994 131.126 130.896 131.101 130.797 131.077C131.476 131.106 131.075 130.931 130.685 130.988C130.826 130.898 130.967 130.808 131.107 130.718C131.879 130.731 131.196 130.52 130.776 130.538C130.777 130.528 130.778 130.518 130.778 130.507C130.983 130.417 130.816 130.334 130.953 130.225C131.091 130.115 131.166 130.125 131.522 130.092C131.501 130.066 131.481 130.04 131.461 130.014C130.487 129.878 132.173 129.902 131.426 129.67C132.038 129.596 131.716 129.413 131.531 129.292C131.509 129.278 131.39 129.277 131.354 129.259C131.266 129.213 131.418 129.095 131.035 129.099C131.146 129.059 131.257 129.018 131.368 128.978C131.298 128.944 131.228 128.911 131.159 128.878C131.039 128.878 130.919 128.878 130.8 128.879C131.208 128.812 131.051 128.707 131.148 128.655C131.168 128.645 131.333 128.642 131.378 128.61C131.432 128.573 131.383 128.503 131.434 128.459C131.251 128.441 131.069 128.424 130.886 128.407C130.787 128.327 131.269 128.299 131.307 128.252C131.313 128.243 131.279 128.09 131.268 128.081C131.187 128.013 130.776 128.033 130.864 127.836C130.88 127.801 131.022 127.773 131.027 127.741C131.038 127.686 130.715 127.517 130.417 127.504C130.79 127.437 130.638 127.255 130.746 127.202C130.779 127.186 131.016 127.182 131.067 127.133C131.108 127.093 130.918 126.989 130.95 126.938C130.984 126.884 131.184 126.865 131.198 126.841C131.211 126.818 131.05 126.797 131.051 126.766C131.057 126.669 131.316 126.58 131.321 126.504C131.328 126.392 130.851 126.294 130.639 126.201C130.67 126.178 130.773 126.155 130.774 126.131C130.789 125.832 130.876 125.494 130.979 125.193C131.026 125.054 131.673 124.707 130.593 124.8C130.403 124.751 130.839 124.399 130.846 124.332C130.852 124.265 130.658 124.212 130.655 124.159C130.647 124 130.787 123.888 130.618 123.695C130.574 123.645 130.344 123.591 130.347 123.562C130.351 123.526 130.573 123.487 130.587 123.441C130.619 123.331 130.546 123.126 130.584 123.021C130.592 123.001 130.787 122.994 130.847 122.967C131.086 122.86 131.065 122.739 130.442 122.76C130.796 122.623 130.473 122.495 130.454 122.368C130.413 122.098 130.559 121.607 130.297 121.372C130.132 121.224 129.853 121.228 130.094 121.01C130.147 120.961 130.219 120.913 130.283 120.854C130.433 120.717 130.949 120.59 130.327 120.485C130.489 120.332 130.374 120.211 130.906 120.097C130.778 120.084 130.651 120.071 130.523 120.057C130.52 120.038 130.517 120.02 130.514 120.001C130.635 119.995 130.757 119.989 130.879 119.983C130.911 119.849 130.412 119.679 130.415 119.565C130.421 119.375 130.615 118.884 130.779 118.703C130.866 118.607 130.606 118.602 131.141 118.547C131.104 118.526 131.067 118.504 131.029 118.483C130.912 118.469 130.795 118.456 130.678 118.442C130.673 118.319 130.855 118.173 130.853 118.056C130.849 117.842 130.527 117.522 130.739 117.307C130.792 117.253 131.034 117.186 131.031 117.133C131.027 117.057 130.626 117.038 130.619 116.941C130.607 116.773 131.073 116.461 131.037 116.302C131.027 116.255 130.877 116.233 130.861 116.201C130.793 116.064 130.805 115.953 130.575 115.822C130.959 115.681 131.455 115.694 131.956 115.65C132.333 115.617 133.209 115.516 133.54 115.502C133.772 115.492 134.071 115.529 134.327 115.515C134.531 115.683 134.306 115.754 133.946 115.89C133.961 116.143 133.975 116.395 133.99 116.647C133.85 116.67 133.71 116.693 133.571 116.716C133.57 116.716 133.57 116.716 133.57 116.716C133.408 116.813 133.768 116.854 133.85 116.906C134.632 117.406 134.02 118.39 133.932 118.94C133.913 119.059 134.101 119.444 133.874 119.526C133.815 119.547 133.6 119.553 133.59 119.575C133.718 119.775 133.847 119.976 133.975 120.176C133.64 120.588 133.916 121.014 133.968 121.429C134.108 122.551 134.277 123.663 134.226 124.767C134.215 124.981 134.377 125.251 134.273 125.46C134.23 125.548 133.884 125.584 134.142 125.698C134.048 125.7 133.955 125.701 133.862 125.702C133.974 125.802 134.186 125.866 134.208 125.978C134.226 126.072 134.24 126.322 134.204 126.406C134.186 126.449 134.012 126.433 134.013 126.473C134.016 126.542 134.257 126.69 134.257 126.785C134.257 126.871 134.056 127.017 134.085 127.083C134.188 127.322 134.485 127.582 134.406 127.837C134.383 127.907 134.157 127.998 134.164 128.02C134.177 128.063 134.396 128.076 134.424 128.105C134.567 128.251 134.306 128.48 134.296 128.624C134.262 129.093 134.358 129.59 134.318 130.057C134.292 130.352 134.331 130.842 134.166 131.115C134.13 131.174 133.89 131.158 133.89 131.207C133.89 131.262 134.052 131.291 134.066 131.317C134.157 131.494 134.321 131.884 134.156 132.051C134.124 132.083 133.935 132.106 133.936 132.125C133.936 132.135 134.065 132.157 134.078 132.187C134.194 132.454 134.119 132.649 134.075 132.911C133.992 133.412 134.231 133.994 134.101 134.52C134.073 134.635 133.701 134.714 133.704 134.73C133.712 134.765 133.962 134.788 134.024 134.86C134.228 135.098 133.96 135.42 134.086 135.646C134.148 135.759 134.466 135.913 134.536 136.023C134.592 136.111 134.468 136.319 134.607 136.358C134.692 136.382 134.962 136.393 134.996 136.421ZM130.78 133.453C131.213 133.469 130.853 133.304 130.621 133.366C130.568 133.38 130.668 133.449 130.78 133.453ZM131.532 125.73C131.408 125.732 131.285 125.733 131.161 125.735C131.212 125.756 131.264 125.778 131.315 125.8C131.39 125.788 131.464 125.775 131.538 125.763C131.536 125.752 131.534 125.741 131.532 125.73ZM216.496 121.921C216.526 121.947 216.364 121.984 216.356 122.015C216.318 122.145 216.206 122.193 216.142 122.31C216.047 122.484 216.26 123 215.134 123C215.134 123 215.134 123 215.134 123C215.123 123 215.112 123 215.1 123C214.886 122.998 214.652 122.954 214.409 122.948C214.166 122.941 212.599 122.946 212.511 122.884C212.395 122.793 212.796 122.577 212.779 122.528C212.766 122.495 212.624 122.455 212.599 122.413C212.517 122.277 212.621 122.206 212.234 122.083C212.438 122.034 212.642 121.985 212.846 121.937C212.752 121.873 213.021 121.776 213.006 121.737C212.994 121.705 212.832 121.687 212.825 121.653C212.815 121.616 212.99 121.559 212.963 121.491C212.921 121.38 212.5 121.361 212.447 121.294C212.392 121.225 212.62 121.118 212.472 121.029C212.426 121.018 212.38 121.007 212.333 120.996C212.229 121.004 212.124 121.012 212.019 121.02C211.971 120.976 212.185 120.957 212.189 120.916C212.194 120.868 211.99 120.843 211.991 120.811C211.992 120.785 212.155 120.749 212.145 120.715C212.131 120.665 211.896 120.675 211.852 120.649C211.834 120.638 211.704 120.439 211.703 120.428C211.693 120.343 212.016 120.336 212.044 120.268C212.121 120.079 211.86 119.886 211.762 119.712C211.718 119.634 211.736 119.553 211.788 119.475C212.613 119.598 213.255 119.327 211.964 119.428C212.148 119.342 211.799 119.281 211.858 119.199C211.897 119.146 212.076 119.11 212.071 119.034C212.061 118.9 211.553 118.753 212.472 118.715C212.31 118.557 212.644 118.421 211.832 118.364C211.782 118.324 212.266 118.22 212.332 118.174C212.393 118.131 212.612 117.801 212.624 117.747C212.636 117.693 212.649 117.598 212.578 117.553C212.49 117.496 211.648 117.456 212.632 117.354C212.553 117.236 212.581 117.193 212.695 117.083C212.716 117.063 212.862 117.061 212.862 117.05C212.862 117.026 212.754 116.985 212.741 116.942C212.72 116.872 213.027 116.831 212.557 116.839C212.479 116.793 212.4 116.746 212.321 116.7C212.412 116.684 212.502 116.667 212.593 116.651C212.494 116.626 212.396 116.601 212.297 116.577C212.976 116.606 212.575 116.431 212.185 116.488C212.326 116.398 212.467 116.308 212.607 116.218C213.379 116.231 212.696 116.02 212.276 116.038C212.277 116.028 212.278 116.018 212.278 116.007C212.483 115.917 212.316 115.834 212.453 115.725C212.591 115.615 212.666 115.625 213.022 115.592C213.001 115.566 212.981 115.54 212.961 115.514C211.987 115.378 213.673 115.402 212.926 115.17C213.538 115.096 213.216 114.913 213.031 114.792C213.009 114.778 212.89 114.777 212.854 114.759C212.766 114.713 212.918 114.595 212.535 114.599C212.646 114.559 212.757 114.518 212.868 114.478C212.798 114.444 212.728 114.411 212.659 114.378C212.539 114.378 212.419 114.378 212.3 114.379C212.708 114.312 212.551 114.207 212.648 114.155C212.668 114.145 212.833 114.142 212.878 114.11C212.932 114.073 212.883 114.003 212.934 113.959C212.751 113.941 212.569 113.924 212.386 113.907C212.287 113.827 212.769 113.799 212.807 113.752C212.813 113.743 212.779 113.59 212.768 113.581C212.687 113.513 212.276 113.533 212.364 113.336C212.38 113.301 212.522 113.273 212.527 113.241C212.538 113.186 212.215 113.017 211.917 113.004C212.29 112.937 212.138 112.755 212.245 112.702C212.279 112.686 212.516 112.682 212.567 112.633C212.608 112.593 212.418 112.489 212.45 112.438C212.484 112.384 212.684 112.365 212.698 112.341C212.711 112.318 212.55 112.297 212.551 112.266C212.557 112.168 212.816 112.08 212.821 112.004C212.828 111.892 212.351 111.794 212.139 111.701C212.17 111.678 212.273 111.655 212.274 111.631C212.289 111.332 212.376 110.994 212.479 110.693C212.526 110.554 213.173 110.207 212.093 110.3C211.903 110.251 212.339 109.899 212.346 109.832C212.352 109.765 212.158 109.712 212.155 109.659C212.147 109.5 212.287 109.388 212.118 109.195C212.074 109.145 211.844 109.091 211.847 109.062C211.851 109.026 212.073 108.987 212.087 108.941C212.119 108.831 212.046 108.626 212.084 108.521C212.092 108.501 212.286 108.494 212.347 108.467C212.586 108.36 212.565 108.239 211.942 108.26C212.296 108.123 211.973 107.995 211.954 107.868C211.913 107.598 212.059 107.107 211.797 106.872C211.632 106.724 211.353 106.728 211.594 106.51C211.647 106.461 211.719 106.413 211.783 106.354C211.933 106.217 212.449 106.09 211.827 105.985C211.989 105.832 211.874 105.711 212.406 105.597C212.278 105.584 212.151 105.571 212.023 105.557C212.02 105.538 212.017 105.52 212.014 105.501C212.135 105.495 212.257 105.489 212.379 105.483C212.411 105.349 211.912 105.179 211.915 105.065C211.921 104.875 212.115 104.384 212.279 104.203C212.366 104.107 212.106 104.102 212.641 104.047C212.604 104.026 212.567 104.004 212.529 103.983C212.412 103.969 212.295 103.956 212.178 103.942C212.173 103.819 212.355 103.673 212.353 103.556C212.349 103.342 212.027 103.022 212.239 102.807C212.292 102.753 212.534 102.686 212.531 102.633C212.527 102.557 212.126 102.538 212.119 102.441C212.107 102.273 212.573 101.961 212.537 101.802C212.527 101.755 212.377 101.733 212.361 101.701C212.293 101.564 212.305 101.453 212.075 101.322C212.459 101.181 212.955 101.194 213.456 101.15C213.833 101.117 214.709 101.016 215.04 101.002C215.272 100.992 215.571 101.029 215.827 101.015C216.031 101.183 215.806 101.254 215.446 101.39C215.461 101.643 215.475 101.895 215.49 102.147C215.35 102.17 215.21 102.193 215.071 102.216C215.07 102.216 215.07 102.216 215.07 102.216C214.908 102.313 215.268 102.354 215.35 102.406C216.132 102.906 215.52 103.89 215.432 104.44C215.413 104.559 215.601 104.944 215.374 105.026C215.315 105.047 215.1 105.053 215.09 105.075C215.218 105.275 215.347 105.476 215.475 105.676C215.14 106.088 215.416 106.514 215.468 106.929C215.608 108.051 215.777 109.163 215.726 110.267C215.715 110.481 215.877 110.751 215.773 110.96C215.73 111.048 215.384 111.084 215.642 111.198C215.548 111.2 215.455 111.201 215.362 111.202C215.474 111.302 215.686 111.366 215.708 111.478C215.726 111.572 215.74 111.822 215.704 111.906C215.686 111.949 215.512 111.933 215.513 111.973C215.516 112.042 215.757 112.19 215.757 112.285C215.757 112.371 215.556 112.517 215.585 112.583C215.688 112.822 215.985 113.082 215.906 113.337C215.883 113.407 215.657 113.498 215.664 113.52C215.677 113.563 215.896 113.576 215.924 113.605C216.067 113.751 215.806 113.98 215.796 114.124C215.762 114.593 215.858 115.09 215.818 115.557C215.792 115.852 215.831 116.342 215.666 116.615C215.63 116.674 215.39 116.658 215.39 116.707C215.39 116.762 215.552 116.791 215.566 116.817C215.657 116.994 215.821 117.384 215.656 117.551C215.624 117.583 215.435 117.606 215.436 117.625C215.436 117.635 215.565 117.657 215.578 117.687C215.694 117.954 215.619 118.149 215.575 118.411C215.492 118.912 215.731 119.494 215.601 120.02C215.573 120.135 215.201 120.214 215.204 120.23C215.212 120.265 215.462 120.288 215.524 120.36C215.728 120.598 215.46 120.92 215.586 121.146C215.648 121.259 215.966 121.413 216.036 121.523C216.092 121.611 215.968 121.819 216.107 121.858C216.192 121.882 216.462 121.893 216.496 121.921ZM212.28 118.953C212.713 118.969 212.353 118.804 212.121 118.866C212.068 118.88 212.168 118.949 212.28 118.953ZM213.032 111.23C212.908 111.232 212.785 111.233 212.661 111.235C212.712 111.256 212.764 111.278 212.815 111.3C212.89 111.288 212.964 111.275 213.038 111.263C213.036 111.252 213.034 111.241 213.032 111.23Z" fill="#DBE2EC"/>
</g>
<defs>
<clipPath id="clip0_838_11218">
<rect width="172" height="141" fill="white" transform="translate(83 20)"/>
</clipPath>
</defs>
</svg>
