<svg width="338" height="212" viewBox="0 0 338 212" fill="none" xmlns="http://www.w3.org/2000/svg">
<path d="M169.228 28.2988H27L102.515 124.13H169.228H235.941L311.461 28.2988H169.228Z" fill="url(#paint0_linear_454_7315)"/>
<path d="M151.009 119.669C151.177 119.843 151.346 120.016 151.519 120.185C156.048 124.739 164.145 131.116 169.205 134.986C171.866 137.018 175.552 137.018 178.213 134.986C183.273 131.116 191.375 124.739 195.899 120.185C196.072 120.016 196.241 119.843 196.409 119.669C196.499 119.58 196.578 119.476 196.667 119.387C202.767 112.97 206.241 104.03 205.255 94.2683C203.773 79.6204 191.925 67.6384 177.287 66.0378C158.174 63.9467 142 78.8622 142 97.5536C142 106.022 145.34 113.698 150.751 119.387" fill="url(#paint1_linear_454_7315)"/>
<path d="M173.709 114.268C182.68 114.268 189.953 106.996 189.953 98.0248C189.953 89.0537 182.68 81.7812 173.709 81.7812C164.738 81.7812 157.466 89.0537 157.466 98.0248C157.466 106.996 164.738 114.268 173.709 114.268Z" fill="white"/>
<path d="M192.192 96.9043C192.192 107.112 183.917 115.388 173.714 115.388C163.511 115.388 155.226 107.117 155.226 96.9043H192.192Z" fill="#2C333A"/>
<path d="M180.077 113.4H167.342V116.428H180.077V113.4Z" fill="#2C333A"/>
<path d="M84.8184 107.202C85.0365 107.306 85.2545 107.415 85.4725 107.514C91.2702 110.274 101.047 113.539 107.117 115.472C110.309 116.488 113.777 115.244 115.596 112.429C119.055 107.078 124.52 98.3414 127.246 92.5239C127.35 92.3058 127.449 92.0829 127.553 91.8648C127.608 91.7508 127.647 91.627 127.697 91.513C131.275 83.416 131.522 73.8275 127.295 64.9723C120.953 51.6822 105.755 44.4127 91.4387 47.8467C72.7423 52.3363 62.5591 71.8305 68.8722 89.4268C71.7314 97.3999 77.4697 103.495 84.4815 107.023" fill="#2C333A"/>
<path d="M107.044 66.3798L84.4511 74.4871C81.5454 75.5298 80.0352 78.7305 81.0778 81.6361L85.5231 94.024C86.5658 96.9297 89.7665 98.4399 92.6721 97.3972L115.265 89.29C118.171 88.2473 119.681 85.0466 118.638 82.141L114.193 69.7531C113.15 66.8474 109.95 65.3372 107.044 66.3798Z" fill="white"/>
<path d="M101.134 63.5333L87.198 68.5343C85.8379 69.0223 85.131 70.5205 85.619 71.8806L87.0082 75.7518C87.4962 77.1119 88.9945 77.8188 90.3545 77.3308L104.291 72.3299C105.651 71.8418 106.358 70.3436 105.87 68.9835L104.481 65.1123C103.993 63.7522 102.494 63.0453 101.134 63.5333Z" fill="white"/>
<path d="M99.8581 87.7073C103.071 87.7073 105.676 85.1027 105.676 81.8898C105.676 78.6769 103.071 76.0723 99.8581 76.0723C96.6451 76.0723 94.0405 78.6769 94.0405 81.8898C94.0405 85.1027 96.6451 87.7073 99.8581 87.7073Z" fill="#00E1FF"/>
<path d="M198.056 81.7797C198.163 81.9972 198.264 82.2191 198.371 82.4366C201.19 88.2081 206.798 96.8603 210.342 102.154C212.204 104.934 215.692 106.127 218.866 105.056C224.907 103.025 234.625 99.6007 240.384 96.751C240.602 96.6443 240.819 96.5376 241.032 96.4256C241.146 96.3652 241.256 96.2996 241.365 96.2437C249.209 92.141 255.377 84.7954 257.593 75.2355C260.917 60.8884 253.564 45.7314 240.223 39.4957C222.806 31.3539 202.686 40.2545 196.66 57.9475C193.928 65.9641 194.614 74.3072 197.905 81.4344" fill="#2C333A"/>
<path d="M221.878 50.9349L220.119 50.3358C219.236 50.0349 218.276 50.5071 217.975 51.3905L208.187 80.1257C207.886 81.0091 208.359 81.9692 209.242 82.27L211.001 82.8692C211.884 83.1701 212.844 82.6978 213.145 81.8145L222.933 53.0793C223.234 52.1959 222.761 51.2358 221.878 50.9349Z" fill="#00E1FF"/>
<path d="M238.318 82.2414L215.628 74.5129L222.462 54.4543L245.153 62.1828L245.196 62.1963C246.98 62.818 247.283 65.2836 245.727 66.4452L240.775 70.1358C239.807 70.8578 239.378 72.1057 239.706 73.2708L241.326 79.0447C241.851 80.9118 240.154 82.8375 238.362 82.2598C238.347 82.2586 238.332 82.2525 238.318 82.2464L238.318 82.2414Z" fill="white"/>
<path d="M102.069 124.129H204.728V192.993H108.699C105.037 192.993 102.069 190.02 102.069 186.363V124.129Z" fill="url(#paint2_linear_454_7315)"/>
<path d="M204.728 124.129H235.877V186.363C235.877 190.025 232.904 192.993 229.247 192.993H204.728V124.129Z" fill="#2C333A"/>
<path d="M246.273 144.467H221.596C219.966 144.467 218.434 143.674 217.498 142.336L204.728 124.125H235.877L247.919 141.295C248.855 142.628 247.899 144.467 246.268 144.467H246.273Z" fill="url(#paint3_linear_454_7315)"/>
<path d="M187.429 144.467H91.2713C89.6261 144.467 88.6747 142.603 89.641 141.27L102.069 124.125H204.728L191.483 142.395C190.541 143.694 189.035 144.462 187.429 144.462V144.467Z" fill="#2C333A"/>
<defs>
<linearGradient id="paint0_linear_454_7315" x1="169.228" y1="15.3159" x2="169.228" y2="160.378" gradientUnits="userSpaceOnUse">
<stop stop-color="white" stop-opacity="0"/>
<stop offset="1" stop-color="#00E1FF" stop-opacity="0.43"/>
</linearGradient>
<linearGradient id="paint1_linear_454_7315" x1="173.71" y1="65.8418" x2="173.71" y2="136.51" gradientUnits="userSpaceOnUse">
<stop stop-color="#00E1FF"/>
<stop offset="1" stop-color="#80F0FF"/>
</linearGradient>
<linearGradient id="paint2_linear_454_7315" x1="141" y1="139.5" x2="149" y2="206.5" gradientUnits="userSpaceOnUse">
<stop stop-color="#B7F7FF"/>
<stop offset="1" stop-color="#00E1FF"/>
</linearGradient>
<linearGradient id="paint3_linear_454_7315" x1="226.508" y1="124.125" x2="226.508" y2="144.467" gradientUnits="userSpaceOnUse">
<stop stop-color="#00E1FF"/>
<stop offset="1" stop-color="#85F1FF"/>
</linearGradient>
</defs>
</svg>
