<svg width="80" height="80" viewBox="0 0 80 80" fill="none" xmlns="http://www.w3.org/2000/svg">
<path d="M24.32 58.9798C30.5719 58.9798 35.64 53.9117 35.64 47.6598C35.64 41.408 30.5719 36.3398 24.32 36.3398C18.0681 36.3398 13 41.408 13 47.6598C13 53.9117 18.0681 58.9798 24.32 58.9798Z" stroke="#2C333A" stroke-width="4.6" stroke-linecap="round" stroke-linejoin="round"/>
<path d="M56.2604 58.9798C62.5123 58.9798 67.5804 53.9117 67.5804 47.6598C67.5804 41.408 62.5123 36.3398 56.2604 36.3398C50.0086 36.3398 44.9404 41.408 44.9404 47.6598C44.9404 53.9117 50.0086 58.9798 56.2604 58.9798Z" stroke="#2C333A" stroke-width="4.6" stroke-linecap="round" stroke-linejoin="round"/>
<path d="M24.3193 47.66L33.7193 25.53C34.8893 22.78 37.5793 21 40.5693 21H47.2893" stroke="#00E1FF" stroke-width="5" stroke-linecap="round" stroke-linejoin="round"/>
</svg>
