<svg width="20" height="21" viewBox="0 0 20 21" fill="none" xmlns="http://www.w3.org/2000/svg">
<path d="M3.48254 15.4484C3.52805 15.494 3.58267 15.5486 3.62818 15.5941C4.92982 16.9048 7.25093 18.7344 8.70731 19.8449C9.47192 20.4275 10.5278 20.4275 11.2924 19.8449C12.7488 18.7344 15.0699 16.9048 16.3715 15.5941C16.417 15.5486 16.4717 15.494 16.5172 15.4484C16.5445 15.4211 16.5627 15.3938 16.59 15.3665C18.3376 13.5278 19.3389 10.961 19.0567 8.15743C18.6289 3.95212 15.2246 0.520518 11.0284 0.0562957C5.53968 -0.544462 0.897461 3.74276 0.897461 9.10407C0.897461 11.5344 1.85321 13.7372 3.40972 15.3756" fill="#2C333A"/>
<path d="M9.9998 11.1969C11.156 11.1969 12.0934 10.2596 12.0934 9.10332C12.0934 7.94708 11.156 7.00977 9.9998 7.00977C8.84356 7.00977 7.90625 7.94708 7.90625 9.10332C7.90625 10.2596 8.84356 11.1969 9.9998 11.1969Z" fill="white"/>
</svg>
