<svg width="24" height="24" viewBox="0 0 24 24" fill="none" xmlns="http://www.w3.org/2000/svg">
<path d="M7.0536 11.9023H4.68931C4.21639 11.9023 3.83301 12.2756 3.83301 12.7361V18.1628C3.83301 18.6233 4.21639 18.9965 4.68931 18.9965H7.0536C7.52653 18.9965 7.90991 18.6233 7.90991 18.1628V12.7361C7.90991 12.2756 7.52653 11.9023 7.0536 11.9023Z" fill="#DEE4EA"/>
<path d="M13.1825 8.91211H10.8182C10.3453 8.91211 9.96191 9.28538 9.96191 9.74583V18.1653C9.96191 18.6258 10.3453 18.999 10.8182 18.999H13.1825C13.6554 18.999 14.0388 18.6258 14.0388 18.1653V9.74583C14.0388 9.28538 13.6554 8.91211 13.1825 8.91211Z" fill="#DEE4EA"/>
<path d="M19.3104 5H16.9461C16.4732 5 16.0898 5.37327 16.0898 5.83372V18.1663C16.0898 18.6267 16.4732 19 16.9461 19H19.3104C19.7834 19 20.1667 18.6267 20.1667 18.1663V5.83372C20.1667 5.37327 19.7834 5 19.3104 5Z" fill="#DEE4EA"/>
</svg>
