<svg width="10" height="12" viewBox="0 0 10 12" fill="none" xmlns="http://www.w3.org/2000/svg">
<path d="M1.58028 8.9338C1.60463 8.95816 1.63386 8.98739 1.65822 9.01175C2.35484 9.71324 3.59707 10.6924 4.3765 11.2867C4.78571 11.5985 5.3508 11.5985 5.76 11.2867C6.53944 10.6924 7.78166 9.71324 8.47828 9.01175C8.50264 8.98739 8.53187 8.95816 8.55623 8.9338C8.57084 8.91919 8.58058 8.90458 8.5952 8.88996C9.53052 7.90592 10.0664 6.53217 9.91537 5.03176C9.68641 2.78113 7.86448 0.944589 5.61873 0.696144C2.68123 0.374627 0.196777 2.66909 0.196777 5.53839C0.196777 6.83907 0.708282 8.01797 1.5413 8.89483" fill="#DEE4EA"/>
<path d="M5.06819 6.65885C5.68699 6.65885 6.18863 6.15721 6.18863 5.53841C6.18863 4.91961 5.68699 4.41797 5.06819 4.41797C4.44939 4.41797 3.94775 4.91961 3.94775 5.53841C3.94775 6.15721 4.44939 6.65885 5.06819 6.65885Z" fill="#F7F9FC"/>
</svg>
