<svg width="24" height="24" viewBox="0 0 24 24" fill="none" xmlns="http://www.w3.org/2000/svg">
<path d="M6.87017 16.4017C6.90671 16.4382 6.95055 16.4821 6.98708 16.5186C8.03202 17.5708 9.89535 19.0396 11.0645 19.9311C11.6783 20.3987 12.5259 20.3987 13.1398 19.9311C14.3089 19.0396 16.1722 17.5708 17.2172 16.5186C17.2537 16.4821 17.2976 16.4382 17.3341 16.4017C17.356 16.3798 17.3706 16.3578 17.3926 16.3359C18.7955 14.8599 19.5993 12.7992 19.3728 10.5486C19.0294 7.17268 16.2965 4.41786 12.9278 4.04519C8.5216 3.56292 4.79492 7.00461 4.79492 11.3086C4.79492 13.2596 5.56218 15.0279 6.81171 16.3432" fill="#DEE4EA"/>
<path d="M12.1025 12.9883C13.0307 12.9883 13.7832 12.2358 13.7832 11.3076C13.7832 10.3794 13.0307 9.62695 12.1025 9.62695C11.1743 9.62695 10.4219 10.3794 10.4219 11.3076C10.4219 12.2358 11.1743 12.9883 12.1025 12.9883Z" fill="#B6C2CF"/>
</svg>
