<svg width="24" height="24" viewBox="0 0 24 24" fill="none" xmlns="http://www.w3.org/2000/svg">
<path d="M12.1098 20.5565C16.4673 20.5565 19.9998 19.0031 19.9998 17.0868C19.9998 15.1706 16.4673 13.6172 12.1098 13.6172C7.75222 13.6172 4.21973 15.1706 4.21973 17.0868C4.21973 19.0031 7.75222 20.5565 12.1098 20.5565Z" fill="#DEE4EA"/>
<path d="M12.7175 8.55918C12.7175 8.2223 12.4449 7.94922 12.1087 7.94922C11.7725 7.94922 11.5 8.2223 11.5 8.55918V16.4961C11.5 16.833 11.7725 17.1061 12.1087 17.1061C12.4449 17.1061 12.7175 16.833 12.7175 16.4961V8.55918Z" fill="#B6C2CF"/>
<path d="M12.1103 9.9199C13.9829 9.9199 15.501 8.40188 15.501 6.52929C15.501 4.6567 13.9829 3.13867 12.1103 3.13867C10.2378 3.13867 8.71973 4.6567 8.71973 6.52929C8.71973 8.40188 10.2378 9.9199 12.1103 9.9199Z" fill="#DEE4EA"/>
</svg>
