<svg width="24" height="24" viewBox="0 0 24 24" fill="none" xmlns="http://www.w3.org/2000/svg">
<g clip-path="url(#clip0_957_11293)">
<path d="M7.00718 17.1121C6.41447 16.5194 5.45332 16.5194 4.8526 17.1121L2.42568 14.6852C1.84899 14.1085 1.84899 13.1634 2.42568 12.5867L12.5899 2.43853C13.1746 1.85382 14.1117 1.85382 14.6884 2.43853L17.1153 4.86544C16.5226 5.45815 16.5226 6.4193 17.1153 7.02002C17.708 7.62075 18.6692 7.61274 19.2699 7.02002L21.5767 9.32679C22.1534 9.90348 22.1534 10.8486 21.5767 11.4253L11.4285 21.5735C10.8438 22.1582 9.90666 22.1582 9.32997 21.5735L7.0232 19.2667C7.61591 18.674 7.61591 17.7129 7.0232 17.1121H7.00718Z" fill="#B6C2CF"/>
<path d="M7.00718 17.1133C6.41447 16.5206 5.45332 16.5206 4.8526 17.1133L2.42568 14.6864C1.84899 14.1097 1.84899 13.1645 2.42568 12.5878L10.9319 4.09766L19.9107 13.0764L11.4205 21.5666C10.8358 22.1513 9.89865 22.1513 9.32196 21.5666L7.01519 19.2599C7.6079 18.6671 7.6079 17.706 7.01519 17.1053L7.00718 17.1133Z" fill="#DEE4EA"/>
<path d="M14.5589 21.4148C16.8681 21.4148 18.74 19.5429 18.74 17.2338C18.74 14.9246 16.8681 13.0527 14.5589 13.0527C12.2498 13.0527 10.3779 14.9246 10.3779 17.2338C10.3779 19.5429 12.2498 21.4148 14.5589 21.4148Z" fill="#B6C2CF"/>
<path d="M14.5596 14.9688V17.0352C14.5596 17.1474 14.6477 17.2355 14.7598 17.2355H16.8583" stroke="#DFE8EF" stroke-width="0.840778" stroke-miterlimit="10" stroke-linecap="round"/>
</g>
<defs>
<clipPath id="clip0_957_11293">
<rect width="20" height="20" fill="white" transform="translate(2 2)"/>
</clipPath>
</defs>
</svg>
