<svg width="9" height="9" viewBox="0 0 9 9" fill="none" xmlns="http://www.w3.org/2000/svg">
<path d="M2.17879 7.60762C1.98389 7.69337 1.88644 7.73625 1.82664 7.71742C1.7748 7.70109 1.73418 7.66052 1.7178 7.6087C1.69889 7.54892 1.74166 7.45142 1.82718 7.25642L4.2543 1.72259C4.33151 1.54656 4.37011 1.45855 4.42407 1.43161C4.47094 1.40821 4.52608 1.40821 4.57295 1.43161C4.62692 1.45855 4.66552 1.54656 4.74272 1.72259L7.16984 7.25642C7.25537 7.45142 7.29813 7.54892 7.27923 7.6087C7.26284 7.66052 7.22222 7.70109 7.17038 7.71742C7.11058 7.73625 7.01313 7.69337 6.81824 7.60762L4.60591 6.63419C4.56635 6.61679 4.54657 6.60808 4.52602 6.60464C4.50781 6.6016 4.48922 6.6016 4.471 6.60464C4.45046 6.60808 4.43068 6.61679 4.39112 6.63419L2.17879 7.60762Z" fill="white" fill-opacity="0.7"/>
</svg>
