<svg width="24" height="24" viewBox="0 0 24 24" fill="none" xmlns="http://www.w3.org/2000/svg">
<path d="M6.37579 3.64844H17.1325C18.0478 3.64844 18.7888 4.38941 18.7888 5.30474V11.3727H4.71948V5.30474C4.71948 4.38941 5.46046 3.64844 6.37579 3.64844Z" fill="#738496"/>
<path d="M18.6423 11.373H4.86572C4.14354 11.373 3.55811 11.9585 3.55811 12.6807V12.7803C3.55811 13.5025 4.14354 14.0879 4.86572 14.0879H18.6423C19.3645 14.0879 19.95 13.5025 19.95 12.7803V12.6807C19.95 11.9585 19.3645 11.373 18.6423 11.373Z" fill="white"/>
<path d="M9.02822 5.23047H7.12596C6.81302 5.23047 6.55933 5.48416 6.55933 5.7971V5.83758C6.55933 6.15052 6.81302 6.4042 7.12596 6.4042H9.02822C9.34116 6.4042 9.59485 6.15052 9.59485 5.83758V5.7971C9.59485 5.48416 9.34116 5.23047 9.02822 5.23047Z" fill="white"/>
<path d="M14.6198 20.9995H8.89118C8.31832 20.9995 7.85132 20.4983 7.85132 19.8818L8.4304 15.6445H15.0805L15.6596 19.8818C15.6596 20.4983 15.1957 20.9995 14.6198 20.9995Z" fill="#738496"/>
<path d="M18.7887 14.0879C18.7887 16.7125 15.638 18.8358 11.7525 18.8358C7.86703 18.8358 4.71631 16.7093 4.71631 14.0879H18.7856H18.7887Z" fill="white"/>
</svg>
