<svg width="32" height="44" viewBox="0 0 32 44" fill="none" xmlns="http://www.w3.org/2000/svg">
<path d="M9.00236 3.5H7.95267C7.42652 3.5 7 3.92652 7 4.45267V21.583C7 22.1091 7.42652 22.5357 7.95267 22.5357H9.00236C9.5285 22.5357 9.95503 22.1091 9.95503 21.583V4.45267C9.95503 3.92652 9.5285 3.5 9.00236 3.5Z" fill="#2C333A"/>
<path d="M23.4776 17.2249H9.95508V5.26367H23.5041C24.5714 5.27249 25.1801 6.53389 24.5626 7.43363L22.5867 10.3004C22.1986 10.865 22.1986 11.606 22.5867 12.1705L24.5009 14.9579C25.1183 15.8577 24.5626 17.1985 23.5041 17.2161C23.5041 17.2161 23.4865 17.2161 23.4776 17.2161V17.2249Z" fill="#00E1FF"/>
<path d="M14.3359 33.918V34.668H11.1133V37.3633H15.4609V38.1367H5.92188V37.3633H10.2109V34.668H7.14062V29.8867H14.2305V30.6367H8.06641V33.918H14.3359ZM19.3638 31.3047C19.3696 32.5996 20.4126 33.7832 21.9536 34.2461L21.5083 34.9727C20.313 34.5977 19.3872 33.8008 18.9302 32.7754C18.4731 33.9004 17.518 34.7617 16.2934 35.1719L15.8247 34.4453C17.3774 33.9648 18.4555 32.7168 18.4614 31.3047V31.0703H16.1059V30.332H18.4614V28.9961H19.3872V30.332H21.7192V31.0703H19.3638V31.3047ZM17.1372 36.6953V35.9336H23.9575V39.4727H23.0434V36.6953H17.1372ZM23.0434 35.3945V29.0312H23.9575V31.8203H25.5278V32.6055H23.9575V35.3945H23.0434Z" fill="#00D7F3"/>
</svg>
