<svg width="24" height="24" viewBox="0 0 24 24" fill="none" xmlns="http://www.w3.org/2000/svg">
<path d="M8.20282 11.0157C9.97169 11.0157 11.4056 9.44518 11.4056 7.50785C11.4056 5.57052 9.97169 4 8.20282 4C6.43395 4 5 5.57052 5 7.50785C5 9.44518 6.43395 11.0157 8.20282 11.0157Z" fill="#DEE4EA"/>
<path d="M9.11471 9.7302C9.11471 9.22661 8.70646 8.81836 8.20286 8.81836C7.69926 8.81836 7.29102 9.22661 7.29102 9.7302V19.9585C7.29102 20.4621 7.69926 20.8703 8.20286 20.8703C8.70646 20.8703 9.11471 20.4621 9.11471 19.9585V9.7302Z" fill="#DEE4EA"/>
<path d="M15.2895 4.91185C15.2895 4.40825 14.8813 4 14.3777 4C13.8741 4 13.4658 4.40825 13.4658 4.91185V19.9589C13.4658 20.4625 13.8741 20.8708 14.3777 20.8708C14.8813 20.8708 15.2895 20.4625 15.2895 19.9589V4.91185Z" fill="#DEE4EA"/>
<path d="M18.0317 4.91185C18.0317 4.40825 17.6235 4 17.1199 4C16.6163 4 16.208 4.40825 16.208 4.91185V19.9589C16.208 20.4625 16.6163 20.8708 17.1199 20.8708C17.6235 20.8708 18.0317 20.4625 18.0317 19.9589V4.91185Z" fill="#DEE4EA"/>
</svg>
