<svg width="24" height="24" viewBox="0 0 24 24" fill="none" xmlns="http://www.w3.org/2000/svg">
<path d="M5.48254 17.4484C5.52805 17.494 5.58267 17.5486 5.62818 17.5941C6.92982 18.9048 9.25093 20.7344 10.7073 21.8449C11.4719 22.4275 12.5278 22.4275 13.2924 21.8449C14.7488 20.7344 17.0699 18.9048 18.3715 17.5941C18.417 17.5486 18.4717 17.494 18.5172 17.4484C18.5445 17.4211 18.5627 17.3938 18.59 17.3665C20.3376 15.5278 21.3389 12.961 21.0567 10.1574C20.6289 5.95212 17.2246 2.52052 13.0284 2.0563C7.53968 1.45554 2.89746 5.74276 2.89746 11.1041C2.89746 13.5344 3.85321 15.7372 5.40972 17.3756" fill="#00E1FF"/>
<path d="M11.9998 13.1969C13.156 13.1969 14.0934 12.2596 14.0934 11.1033C14.0934 9.94708 13.156 9.00977 11.9998 9.00977C10.8436 9.00977 9.90625 9.94708 9.90625 11.1033C9.90625 12.2596 10.8436 13.1969 11.9998 13.1969Z" fill="#2C333A"/>
</svg>
