<svg width="24" height="24" viewBox="0 0 24 24" fill="none" xmlns="http://www.w3.org/2000/svg">
<path d="M17.6995 6.08203H7.30048C6.02996 6.08203 5 7.0936 5 8.34142V16.7422C5 17.99 6.02996 19.0016 7.30048 19.0016H17.6995C18.97 19.0016 20 17.99 20 16.7422V8.34142C20 7.0936 18.97 6.08203 17.6995 6.08203Z" fill="#DEE4EA"/>
<path d="M7.19503 6.08203H17.805C19.0158 6.08203 20 7.0487 20 8.23786V10.6181H5V8.23786C5 7.0487 5.98425 6.08203 7.19503 6.08203Z" fill="#B6C2CF"/>
<path d="M7.82422 5.21036V6.95573C7.82422 7.62307 8.37461 8.16406 9.05355 8.16406C9.73249 8.16406 10.2829 7.62307 10.2829 6.95573V5.21036C10.2829 4.54301 9.73249 4.00202 9.05355 4.00202C8.37461 4.00202 7.82422 4.54301 7.82422 5.21036Z" fill="#B6C2CF"/>
<path d="M14.7139 5.21036V6.95573C14.7139 7.62307 15.2643 8.16406 15.9432 8.16406C16.6221 8.16406 17.1725 7.62307 17.1725 6.95573V5.21036C17.1725 4.54301 16.6221 4.00202 15.9432 4.00202C15.2643 4.00202 14.7139 4.54301 14.7139 5.21036Z" fill="#B6C2CF"/>
</svg>
