<svg width="24" height="24" viewBox="0 0 24 24" fill="none" xmlns="http://www.w3.org/2000/svg">
<path d="M17.0561 10.7279C16.4039 10.7279 15.8751 10.2218 15.8751 9.59754V7.26076H8.13065V9.59754C8.13065 10.2218 7.60183 10.7279 6.9496 10.7279C6.29738 10.7279 5.76855 10.2218 5.76855 9.59754V6.13038C5.76855 5.50617 6.29738 5 6.9496 5H17.0541C17.7064 5 18.2352 5.50617 18.2352 6.13038V9.59754C18.2352 10.2218 17.7064 10.7279 17.0541 10.7279H17.0561Z" fill="#DEE4EA"/>
<path d="M17.0562 8.60352H6.94969C6.46003 8.60352 6.00759 8.87361 5.76668 9.30975L4.17432 12.2047C4.06072 12.4128 4 12.6449 4 12.883V18.6149C4 19.3791 4.60717 19.9993 5.35537 19.9993H18.6446C19.3928 19.9993 20 19.3791 20 18.6149V12.883C20 12.6449 19.9393 12.4108 19.8257 12.2047L18.2333 9.30975C17.9924 8.87361 17.5419 8.60352 17.0503 8.60352H17.0562Z" fill="#DEE4EA"/>
<path d="M9.80719 15.9153C10.8748 15.9153 11.7403 14.947 11.7403 13.7526C11.7403 12.5581 10.8748 11.5898 9.80719 11.5898C8.73953 11.5898 7.87402 12.5581 7.87402 13.7526C7.87402 14.947 8.73953 15.9153 9.80719 15.9153Z" fill="#B6C2CF"/>
<path d="M10.3576 15.1188C10.3576 14.8083 10.1112 14.5566 9.80721 14.5566C9.50325 14.5566 9.25684 14.8083 9.25684 15.1188V17.5777C9.25684 17.8881 9.50325 18.1398 9.80721 18.1398C10.1112 18.1398 10.3576 17.8881 10.3576 17.5777V15.1188Z" fill="#B6C2CF"/>
<path d="M14.0871 12.152C14.0871 11.8415 13.8407 11.5898 13.5367 11.5898C13.2327 11.5898 12.9863 11.8415 12.9863 12.152V17.5819C12.9863 17.8923 13.2327 18.144 13.5367 18.144C13.8407 18.144 14.0871 17.8923 14.0871 17.5819V12.152Z" fill="#B6C2CF"/>
<path d="M15.7423 12.152C15.7423 11.8415 15.4959 11.5898 15.192 11.5898C14.888 11.5898 14.6416 11.8415 14.6416 12.152V17.5819C14.6416 17.8923 14.888 18.144 15.192 18.144C15.4959 18.144 15.7423 17.8923 15.7423 17.5819V12.152Z" fill="#B6C2CF"/>
</svg>
