<svg width="123" height="204" viewBox="0 0 123 204" fill="none" xmlns="http://www.w3.org/2000/svg">
<g clip-path="url(#clip0_1558_11895)">
<rect width="123" height="204" rx="10" fill="#F7F9FC"/>
<g filter="url(#filter0_d_1558_11895)">
<rect x="12" y="12" width="55" height="28" rx="8" fill="white" shape-rendering="crispEdges"/>
<path d="M32.5048 32.0009H29.2136C28.8279 32.0009 28.5097 31.7089 28.476 31.3269L27.7533 23.1644C27.7159 22.7301 28.0566 22.3594 28.4909 22.3594H33.2275C33.6618 22.3594 34.0025 22.7338 33.9651 23.1644L33.2424 31.3269C33.2087 31.7089 32.8867 32.0009 32.5048 32.0009Z" fill="#FFAA34"/>
<path d="M24.8891 23.0293C22.5377 23.0293 20.572 24.5083 20.0703 26.4928C19.9429 27.002 20.3623 27.485 20.9389 27.485H28.8356C29.4122 27.485 29.8354 26.9982 29.7043 26.4928C29.2026 24.5083 27.2368 23.0293 24.8854 23.0293H24.8891Z" fill="#FFC470"/>
<path d="M28.7606 29.7422H21.0137C20.5339 29.7422 20.145 30.1311 20.145 30.6109V31.1313C20.145 31.6111 20.5339 32 21.0137 32H28.7606C29.2404 32 29.6293 31.6111 29.6293 31.1313V30.6109C29.6293 30.1311 29.2404 29.7422 28.7606 29.7422Z" fill="#FFC470"/>
<path d="M28.7606 27.4863H21.0137C20.5339 27.4863 20.145 27.8752 20.145 28.355V28.8755C20.145 29.3552 20.5339 29.7441 21.0137 29.7441H28.7606C29.2404 29.7441 29.6293 29.3552 29.6293 28.8755V28.355C29.6293 27.8752 29.2404 27.4863 28.7606 27.4863Z" fill="#FFE2B8"/>
<path d="M30.7563 23.0307L31.1046 20.7467C31.1682 20.3386 31.5164 20.0391 31.9283 20.0391H33.9689" stroke="#FFAA34" stroke-width="1.13826" stroke-linecap="round" stroke-linejoin="round"/>
<path d="M43.168 21.2656C45.4297 21.2656 46.8477 21.9922 46.8477 23.2461C46.8477 24.4766 45.4297 25.1914 43.168 25.1914C40.9062 25.1914 39.4766 24.4766 39.4766 23.2461C39.4766 21.9922 40.9062 21.2656 43.168 21.2656ZM43.168 22.0039C41.4805 22.0039 40.4141 22.4727 40.4258 23.2461C40.4141 24.0078 41.4805 24.4531 43.168 24.4648C44.832 24.4531 45.9102 24.0078 45.9102 23.2461C45.9102 22.4727 44.832 22.0039 43.168 22.0039ZM46.7539 27.8867V31.3086H39.582V27.8867H46.7539ZM40.4961 28.625V30.5586H45.8516V28.625H40.4961ZM47.9141 26.0938V26.8555H38.4219V26.0938H47.9141ZM52.0044 22.543C51.9927 24.0664 53.0942 25.4141 54.6411 25.9531L54.1723 26.6797C52.9653 26.2402 52.0102 25.3379 51.5473 24.1836C51.0845 25.4199 50.1177 26.3926 48.8989 26.8672L48.4184 26.1406C49.977 25.5664 51.0669 24.1133 51.0669 22.543V21.5469H52.0044V22.543ZM56.9145 27.8281V31.4492H56.0005V28.5898H49.9067V27.8281H56.9145ZM56.9145 21.0312V27.3125H56.0005V21.0312H56.9145Z" fill="#2C333A"/>
</g>
<g clip-path="url(#clip1_1558_11895)">
<rect x="-40" width="204" height="204" rx="10" fill="#F0F5FA"/>
<g filter="url(#filter1_d_1558_11895)">
<rect x="-28" y="12" width="55" height="28" rx="8" fill="white" shape-rendering="crispEdges"/>
<path d="M3.16797 21.2656C5.42969 21.2656 6.84766 21.9922 6.84766 23.2461C6.84766 24.4766 5.42969 25.1914 3.16797 25.1914C0.90625 25.1914 -0.523438 24.4766 -0.523438 23.2461C-0.523438 21.9922 0.90625 21.2656 3.16797 21.2656ZM3.16797 22.0039C1.48047 22.0039 0.414062 22.4727 0.425781 23.2461C0.414062 24.0078 1.48047 24.4531 3.16797 24.4648C4.83203 24.4531 5.91016 24.0078 5.91016 23.2461C5.91016 22.4727 4.83203 22.0039 3.16797 22.0039ZM6.75391 27.8867V31.3086H-0.417969V27.8867H6.75391ZM0.496094 28.625V30.5586H5.85156V28.625H0.496094ZM7.91406 26.0938V26.8555H-1.57812V26.0938H7.91406ZM12.0044 22.543C11.9927 24.0664 13.0942 25.4141 14.6411 25.9531L14.1723 26.6797C12.9653 26.2402 12.0102 25.3379 11.5473 24.1836C11.0845 25.4199 10.1177 26.3926 8.89891 26.8672L8.41844 26.1406C9.97703 25.5664 11.0669 24.1133 11.0669 22.543V21.5469H12.0044V22.543ZM16.9145 27.8281V31.4492H16.0005V28.5898H9.90672V27.8281H16.9145ZM16.9145 21.0312V27.3125H16.0005V21.0312H16.9145Z" fill="#2C333A"/>
</g>
<rect x="-40" width="204" height="204" rx="10" fill="#DEE4EA"/>
</g>
<g clip-path="url(#clip2_1558_11895)">
<path d="M107.667 24.6412C107.569 23.6394 106.677 22.907 105.675 23.0054C104.673 23.1038 103.941 23.9957 104.04 24.9975C104.138 25.9993 105.03 26.7317 106.032 26.6333C107.033 26.5348 107.766 25.643 107.667 24.6412Z" fill="#8598A2"/>
<path d="M119.529 37.5898L130.482 36.5139C131.534 36.4106 132.467 37.1771 132.571 38.2287C132.674 39.2802 131.908 40.2137 130.856 40.317L119.902 41.3929L119.529 37.5898Z" fill="#8598A2"/>
<path d="M123.61 44.6818L123.8 46.6321C124.28 51.5057 122.549 56.0843 119.437 59.3862C118.248 60.6498 116.857 61.724 115.312 62.5561C113.471 63.5422 111.411 64.1894 109.201 64.4095C109.042 64.4271 108.888 64.4403 108.734 64.4491C106.529 64.5988 104.389 64.3039 102.408 63.6391C96.5349 61.6491 92.0751 56.3837 91.428 49.8151L91.2387 47.8648C91.1726 47.1824 91.1506 46.5 91.1638 45.8308C91.3311 39.3459 95.3594 33.6667 101.197 31.2453C102.637 30.6465 104.191 30.2503 105.829 30.0918C106.309 30.0434 106.793 30.0126 107.273 30.0126C111.2 29.9729 114.871 31.3509 117.737 33.7063C118.054 33.966 118.358 34.239 118.653 34.5207C120.599 36.383 122.092 38.7208 122.928 41.3887C123.06 41.8069 123.175 42.2296 123.276 42.6698C123.426 43.3258 123.536 44.0038 123.602 44.6906L123.61 44.6818Z" fill="#CAD6E0"/>
<path d="M98.4564 47.9628L98.474 48.1345C98.5312 48.7288 98.2186 49.2748 97.7255 49.5389C97.5627 49.627 97.3822 49.6842 97.1884 49.7018C97.1752 49.7018 97.162 49.7018 97.1488 49.7018C96.9551 49.715 96.7658 49.6886 96.5897 49.6314C96.0702 49.4553 95.6784 48.993 95.6211 48.4119L95.6035 48.2402C95.5991 48.1785 95.5947 48.1213 95.5947 48.0597C95.6079 47.4873 95.9645 46.9854 96.4796 46.7741C96.6073 46.7213 96.7438 46.6861 96.8891 46.6729C96.9331 46.6729 96.9727 46.6641 97.0167 46.6641C97.3645 46.6641 97.6859 46.7829 97.9413 46.9899C98.1526 47.1615 98.3155 47.3949 98.3991 47.6678C98.4123 47.7031 98.4212 47.7427 98.43 47.7823C98.4432 47.8395 98.452 47.9012 98.4608 47.9584L98.4564 47.9628Z" fill="#8598A2"/>
<path d="M91.4364 49.8125L90.3886 49.9138C89.5697 49.993 89.0238 50.7811 89.2219 51.5779C90.2125 55.5578 95.5219 65.7497 109.205 64.4069L91.4364 49.8125Z" fill="#CAD6E0"/>
<path d="M118.782 71.1613H105.878L101.59 57.8965H114.494L118.782 71.1613Z" fill="#CAD6E0"/>
<path d="M115.891 100.495L67.8291 108.65L71.5734 130.717L119.636 122.562L115.891 100.495Z" fill="#8598A2"/>
<path d="M123.387 75.318L133.716 121.17L110.012 118.516L86.8022 108.496L101.978 73.3457" fill="#8598A2"/>
<path d="M48.3001 220.001C29.695 220.001 14.5547 204.865 14.5547 186.255C14.5547 167.646 29.6906 152.51 48.3001 152.51C66.9096 152.51 82.0455 167.646 82.0455 186.255C82.0455 204.865 66.9096 220.001 48.3001 220.001ZM48.3001 158.237C32.8516 158.237 20.278 170.807 20.278 186.26C20.278 201.712 32.8472 214.282 48.3001 214.282C63.753 214.282 76.3222 201.712 76.3222 186.26C76.3222 170.807 63.753 158.237 48.3001 158.237Z" fill="#8598A2"/>
<path d="M156.323 220.001C137.718 220.001 122.578 204.865 122.578 186.255C122.578 167.646 137.714 152.51 156.323 152.51C174.933 152.51 190.068 167.646 190.068 186.255C190.068 204.865 174.933 220.001 156.323 220.001ZM156.323 158.237C140.875 158.237 128.301 170.807 128.301 186.26C128.301 201.712 140.87 214.282 156.323 214.282C171.776 214.282 184.345 201.712 184.345 186.26C184.345 170.807 171.776 158.237 156.323 158.237Z" fill="#8598A2"/>
<path d="M47.9092 186.259L59.4966 131.307" stroke="#ACBDC6" stroke-width="5.28304" stroke-miterlimit="10" stroke-linecap="round"/>
<path d="M56.9102 143.564H138.92L156.324 186.256" stroke="#ACBDC6" stroke-width="5.28304" stroke-linecap="round" stroke-linejoin="round"/>
<path d="M122.799 82.3328C125.245 76.6649 122.567 70.0578 116.817 67.5753C111.066 65.0928 104.421 67.6751 101.974 73.3429C99.5275 79.0108 102.206 85.6179 107.956 88.1004C113.706 90.5829 120.352 88.0006 122.799 82.3328Z" fill="#8598A2"/>
<path d="M132.117 116.382C128.832 110.918 121.74 109.153 116.276 112.437L97.6053 123.663L87.8361 129.536C82.3065 132.86 80.5147 140.041 83.843 145.575L89.716 155.344L103.571 178.387L123.356 166.491L109.501 143.448L128.172 132.222C133.636 128.938 135.401 121.845 132.117 116.382Z" fill="#F1F7FD"/>
<path d="M103.577 178.382C103.247 182.278 100.306 186.866 97.858 189.912L96.5284 191.572C95.146 193.293 94.9831 195.693 96.119 197.581C97.6159 200.073 100.852 200.879 103.348 199.382L112.791 193.707L129.499 183.661C131.198 182.639 131.749 180.434 130.727 178.734L123.366 166.486L103.581 178.382H103.577Z" fill="#ACBDC6"/>
<path d="M129.004 183.94L112.09 194.111C111.419 194.515 111.203 195.386 111.606 196.057L112.945 198.283C113.348 198.954 114.219 199.17 114.89 198.767L131.804 188.596C132.475 188.193 132.692 187.322 132.288 186.651L130.95 184.425C130.546 183.754 129.675 183.537 129.004 183.94Z" fill="#7B8E9B"/>
<path d="M61.4138 110.158H57.5748C55.7658 110.158 54.2993 111.625 54.2993 113.434V129.661C54.2993 131.47 55.7658 132.937 57.5748 132.937H61.4138C63.2228 132.937 64.6893 131.47 64.6893 129.661V113.434C64.6893 111.625 63.2228 110.158 61.4138 110.158Z" fill="#8598A2"/>
<path d="M124.933 44.4607L125.122 46.411C125.602 51.2846 123.397 55.9117 119.531 59.284L107.151 38.0462L119.117 34.3789C121.451 36.2016 123.221 38.5129 124.18 41.1676C124.334 41.5814 124.462 42.0085 124.577 42.4443C124.744 43.1003 124.863 43.7739 124.933 44.4607Z" fill="#8598A2"/>
<path d="M71.5699 130.706C77.745 129.659 81.9138 123.875 80.8811 117.789C79.8483 111.702 74.0052 107.618 67.83 108.665C61.6549 109.713 57.4861 115.497 58.5188 121.583C59.5516 127.669 65.3947 131.754 71.5699 130.706Z" fill="#CAD6E0"/>
<path d="M125.038 40.8889L89.4699 44.3801C89.3818 43.4864 89.3642 42.6059 89.4038 41.7386C89.4611 40.5675 89.6328 39.4141 89.9101 38.3046C91.6888 31.1813 97.7819 25.6077 105.508 24.8505C115.326 23.8863 124.069 31.0625 125.038 40.8845V40.8889Z" fill="#A5B7C2"/>
<path d="M95.8701 39.4194C95.9142 39.8773 95.7689 40.3175 95.4915 40.6521C95.223 40.9867 94.8223 41.2156 94.3557 41.2597L89.4072 41.7439C89.4645 40.5729 89.6362 39.4194 89.9135 38.31L94.0255 37.9049C94.95 37.8125 95.7777 38.4905 95.8657 39.415L95.8701 39.4194Z" fill="#CAD6E0"/>
<path d="M114.34 54.2922C117.037 54.2922 119.223 52.1062 119.223 49.4097C119.223 46.7133 117.037 44.5273 114.34 44.5273C111.644 44.5273 109.458 46.7133 109.458 49.4097C109.458 52.1062 111.644 54.2922 114.34 54.2922Z" fill="#CAD6E0"/>
</g>
</g>
<defs>
<filter id="filter0_d_1558_11895" x="-8" y="-2" width="95" height="68" filterUnits="userSpaceOnUse" color-interpolation-filters="sRGB">
<feFlood flood-opacity="0" result="BackgroundImageFix"/>
<feColorMatrix in="SourceAlpha" type="matrix" values="0 0 0 0 0 0 0 0 0 0 0 0 0 0 0 0 0 0 127 0" result="hardAlpha"/>
<feOffset dy="6"/>
<feGaussianBlur stdDeviation="10"/>
<feComposite in2="hardAlpha" operator="out"/>
<feColorMatrix type="matrix" values="0 0 0 0 0 0 0 0 0 0 0 0 0 0 0 0 0 0 0.02 0"/>
<feBlend mode="normal" in2="BackgroundImageFix" result="effect1_dropShadow_1558_11895"/>
<feBlend mode="normal" in="SourceGraphic" in2="effect1_dropShadow_1558_11895" result="shape"/>
</filter>
<filter id="filter1_d_1558_11895" x="-48" y="-2" width="95" height="68" filterUnits="userSpaceOnUse" color-interpolation-filters="sRGB">
<feFlood flood-opacity="0" result="BackgroundImageFix"/>
<feColorMatrix in="SourceAlpha" type="matrix" values="0 0 0 0 0 0 0 0 0 0 0 0 0 0 0 0 0 0 127 0" result="hardAlpha"/>
<feOffset dy="6"/>
<feGaussianBlur stdDeviation="10"/>
<feComposite in2="hardAlpha" operator="out"/>
<feColorMatrix type="matrix" values="0 0 0 0 0 0 0 0 0 0 0 0 0 0 0 0 0 0 0.02 0"/>
<feBlend mode="normal" in2="BackgroundImageFix" result="effect1_dropShadow_1558_11895"/>
<feBlend mode="normal" in="SourceGraphic" in2="effect1_dropShadow_1558_11895" result="shape"/>
</filter>
<clipPath id="clip0_1558_11895">
<rect width="123" height="204" rx="10" fill="white"/>
</clipPath>
<clipPath id="clip1_1558_11895">
<rect x="-40" width="204" height="204" rx="10" fill="white"/>
</clipPath>
<clipPath id="clip2_1558_11895">
<rect width="175.516" height="197" fill="white" transform="translate(14.5547 23)"/>
</clipPath>
</defs>
</svg>
