<svg width="338" height="212" viewBox="0 0 338 212" fill="none" xmlns="http://www.w3.org/2000/svg">
<path opacity="0.4" d="M235.648 34.3702V178.34C235.648 185.174 230.112 190.72 223.278 190.72H117.707C110.873 190.72 105.337 185.174 105.337 178.34V34.3702C105.337 27.5362 110.882 22 117.707 22H223.278C230.112 22 235.648 27.5456 235.648 34.3702Z" fill="#B6C2CF"/>
<path d="M135.557 22L135.035 46.451L134.792 57.5234L133.503 117.535L133.27 128.608L131.935 190.72H120.825L122.16 128.43L122.403 117.358L123.691 57.3461L123.925 46.2642L124.448 22H135.557Z" fill="#F7F9FC"/>
<path d="M217.695 190.72L217.154 168.155L216.883 157.073L214.53 58.8211L214.269 47.7393L213.653 22H202.543L203.159 47.5619L203.421 58.6438L204.868 118.693L205.129 129.775L205.773 156.896L206.044 167.978L206.585 190.72H217.695Z" fill="#F7F9FC"/>
<path d="M185.598 190.72H174.498L169.82 129.196L168.971 118.114L164.406 58.0089L163.556 46.9084L161.67 22H172.771L174.685 47.0951L175.525 58.1863L180.09 118.291L180.94 129.383L183.003 156.522L183.843 167.613L185.598 190.72Z" fill="#F7F9FC"/>
<path d="M105.337 57.0467L123.691 57.3454L134.792 57.5228L164.405 58.0083L175.525 58.1857L203.421 58.6431L214.53 58.8205L235.648 59.1659V48.0841L214.269 47.7387L203.159 47.5613L174.684 47.0945L163.556 46.9078L135.035 46.4503L123.925 46.2636L105.337 45.9648V57.0467Z" fill="#F7F9FC"/>
<path d="M213.335 118.833L212.318 129.896L205.129 129.775L180.94 129.383L169.82 129.196L133.27 128.608L122.16 128.431L105.337 128.151V117.078L122.403 117.358L133.503 117.536L168.971 118.114L180.09 118.292L204.868 118.693L213.335 118.833Z" fill="#F7F9FC"/>
<path d="M235.648 157.382V168.455L217.154 168.156L206.044 167.979L183.843 167.615L181.882 167.587L182.9 156.523H183.003L205.773 156.897L216.883 157.074L235.648 157.382Z" fill="#F7F9FC"/>
<path d="M208.77 62.031C213.998 62.031 218.237 57.7927 218.237 52.5644C218.237 47.336 213.998 43.0977 208.77 43.0977C203.542 43.0977 199.303 47.336 199.303 52.5644C199.303 57.7927 203.542 62.031 208.77 62.031Z" fill="#00E1FF"/>
<path d="M208.77 56.3097C210.838 56.3097 212.514 54.6336 212.514 52.566C212.514 50.4984 210.838 48.8223 208.77 48.8223C206.703 48.8223 205.026 50.4984 205.026 52.566C205.026 54.6336 206.703 56.3097 208.77 56.3097Z" fill="white"/>
<path d="M128.191 127.617C130.816 127.617 132.943 125.49 132.943 122.865C132.943 120.241 130.816 118.113 128.191 118.113C125.567 118.113 123.439 120.241 123.439 122.865C123.439 125.49 125.567 127.617 128.191 127.617Z" fill="#00E1FF"/>
<path d="M209.041 61.4082L211.44 123.978L128.191 122.867" stroke="#00E1FF" stroke-width="3.7344" stroke-linecap="round" stroke-linejoin="round"/>
<path d="M216.958 136.918L214.876 130.541C214.092 128.133 216.724 125.939 219.049 127.059L230.374 132.548L216.958 136.918Z" fill="#2C333A"/>
<path d="M233.959 170.349C245.802 170.349 255.403 160.747 255.403 148.904C255.403 137.06 245.802 127.459 233.959 127.459C222.115 127.459 212.514 137.06 212.514 148.904C212.514 160.747 222.115 170.349 233.959 170.349Z" fill="#2C333A"/>
<path d="M226.985 154.578C227.041 154.634 227.087 154.681 227.143 154.737C228.534 156.138 231.018 158.098 232.577 159.284C233.389 159.909 234.528 159.909 235.34 159.284C236.89 158.098 239.383 156.138 240.774 154.737C240.83 154.681 240.877 154.634 240.933 154.578C240.961 154.55 240.989 154.522 241.007 154.494C242.884 152.525 243.948 149.78 243.64 146.783C243.183 142.283 239.551 138.605 235.051 138.119C229.179 137.475 224.221 142.059 224.221 147.791C224.221 150.396 225.248 152.749 226.91 154.494" fill="url(#paint0_linear_454_8867)"/>
<path d="M233.959 150.022C235.243 150.022 236.283 148.982 236.283 147.698C236.283 146.414 235.243 145.373 233.959 145.373C232.675 145.373 231.634 146.414 231.634 147.698C231.634 148.982 232.675 150.022 233.959 150.022Z" fill="white"/>
<defs>
<linearGradient id="paint0_linear_454_8867" x1="233.957" y1="138.059" x2="233.957" y2="159.753" gradientUnits="userSpaceOnUse">
<stop stop-color="#A1F4FF"/>
<stop offset="1" stop-color="#00E1FF"/>
</linearGradient>
</defs>
</svg>
