<svg width="32" height="32" viewBox="0 0 32 32" fill="none" xmlns="http://www.w3.org/2000/svg">
<path d="M15.0488 10.701C13.6136 12.269 11.0929 14.651 7.60726 16.5868C7.01627 16.9124 6.6665 17.5456 6.6665 18.221V24.1309C6.6665 25.1742 7.51077 26.0184 8.55404 26.0184H24.3358C25.379 26.0184 26.2233 25.1742 26.2233 24.1309V18.221C26.2233 17.5456 25.8675 16.9124 25.2825 16.5868C21.803 14.651 19.2822 12.269 17.847 10.701C17.0932 9.8809 15.8027 9.8809 15.0488 10.701Z" fill="#BEB6A1"/>
<path d="M15.2488 7.89286V5.13694C15.2488 4.34092 16.0448 3.79215 16.7926 4.07558L20.3928 5.45053C21.3637 5.82442 21.3637 7.19936 20.3928 7.57325L16.7926 8.9482C16.0508 9.23163 15.2488 8.68286 15.2488 7.88683V7.89286Z" fill="#8A8372"/>
<path d="M20.2358 26.0174H12.6555L15.2727 20.5478C15.7431 19.5648 17.1422 19.5648 17.6126 20.5478L20.2298 26.0174H20.2358Z" fill="#8A8372"/>
</svg>
