<svg width="20" height="20" viewBox="0 0 20 20" fill="none" xmlns="http://www.w3.org/2000/svg">
<path d="M4.26562 12.8799V6.30691C4.26562 4.50397 5.60495 3.04102 7.25679 3.04102C8.90862 3.04102 10.2479 4.50397 10.2479 6.30691V12.8799C10.2479 14.6828 11.5873 16.1458 13.2391 16.1458C14.8909 16.1458 16.2303 14.6828 16.2303 12.8799V7.10499" stroke="#2C333A" stroke-width="2.1954" stroke-linecap="round" stroke-linejoin="round"/>
<path d="M4.26735 17.2984C5.84156 17.2984 7.11771 16.0222 7.11771 14.448C7.11771 12.8738 5.84156 11.5977 4.26735 11.5977C2.69314 11.5977 1.41699 12.8738 1.41699 14.448C1.41699 16.0222 2.69314 17.2984 4.26735 17.2984Z" fill="#00E1FF"/>
<path d="M15.6098 3.3945L13.5527 6.95917C13.278 7.43308 13.6214 8.02719 14.1709 8.02719H18.285C18.8345 8.02719 19.1779 7.43308 18.9032 6.95917L16.8461 3.3945C16.5714 2.92058 15.888 2.92058 15.6132 3.3945H15.6098Z" fill="#00E1FF"/>
</svg>
