<svg width="338" height="213" viewBox="0 0 338 213" fill="none" xmlns="http://www.w3.org/2000/svg">
<path d="M233.73 148.727H80.1521L66.6846 44.9375H216.748C218.759 44.9375 220.456 46.4293 220.715 48.4228L233.73 148.727Z" fill="#F7F9FC"/>
<path d="M75.5796 151.816H85.519L71.96 47.2726C71.7945 45.9881 70.6127 44.9434 69.3282 44.9434H64.0473C62.7628 44.9434 61.8494 45.9881 62.0206 47.2726L75.5853 151.816H75.5796Z" fill="#DAE1E9"/>
<path d="M225.511 133.418C225.728 135.091 224.425 136.574 222.738 136.574H92.2348C90.8295 136.574 89.6425 135.531 89.4617 134.137L79.1004 54.2772C78.8833 52.604 80.1863 51.1211 81.8735 51.1211H212.377C213.782 51.1211 214.969 52.164 215.15 53.5576L225.511 133.418Z" fill="#E6EBF1"/>
<path d="M266.255 158.308H76.2931L75.1855 148.729H266.255C268.898 148.729 271.045 150.875 271.045 153.518C271.045 156.162 268.898 158.308 266.255 158.308Z" fill="#E8EDF3"/>
<path d="M157.138 158.308H76.2931L75.1855 148.729H157.138C159.782 148.729 161.928 150.875 161.928 153.518C161.928 156.162 159.782 158.308 157.138 158.308Z" fill="#DAE1E9"/>
<path d="M193.105 121.967H119.105C117.175 121.967 115.543 120.534 115.291 118.616L113.116 101.849L109.565 74.4568C109.337 72.727 110.559 71.334 112.283 71.334H189.669L193.008 97.0988L193.825 103.402L195.829 118.844C196.057 120.569 194.835 121.967 193.105 121.967Z" fill="white"/>
<path d="M193.105 121.968H159.131V112.748L160.872 110.967L163.116 108.66L180.888 90.4257C182.338 88.9356 184.724 88.9128 186.203 90.3743L193.008 97.0995L193.825 103.402L195.828 118.845C196.057 120.569 194.835 121.968 193.105 121.968Z" fill="#F2F5F9"/>
<path d="M155.98 121.968H119.099C117.17 121.968 115.537 120.535 115.286 118.617L113.111 101.849L126.407 86.1097C127.834 84.4198 130.535 84.3913 132.424 86.0526L158.235 108.66L173.426 121.968H155.974H155.98Z" fill="#F2F5F9"/>
<path d="M242.423 78.9733C241.351 77.9014 239.018 78.4965 237.212 80.3024C235.406 82.1083 234.811 84.4412 235.883 85.5131L250.688 100.318C251.76 101.39 254.093 100.795 255.899 98.9891C257.705 97.1832 258.3 94.8503 257.228 93.7784L242.423 78.9733Z" fill="#DAE1E9"/>
<path d="M251.923 89.72L246.623 95.0204C245.171 96.4718 245.171 98.825 246.623 100.276L262.27 115.923C263.721 117.375 266.074 117.375 267.526 115.923L272.826 110.623C274.278 109.172 274.278 106.818 272.826 105.367L257.179 89.72C255.728 88.2686 253.375 88.2686 251.923 89.72Z" fill="#EBF0F5"/>
<path d="M214.394 21C234.535 21 250.864 37.3276 250.864 57.4688C250.864 77.6101 234.535 93.9385 214.394 93.9385C194.253 93.9384 177.925 77.6101 177.925 57.4688C177.926 37.3276 194.253 21 214.394 21ZM214.394 29.9717C199.208 29.9717 186.897 42.2826 186.897 57.4688C186.897 72.6551 199.208 84.9668 214.394 84.9668C229.58 84.9668 241.891 72.6551 241.891 57.4688C241.891 42.2826 229.58 29.9717 214.394 29.9717Z" fill="#DAE1E9"/>
<path d="M85.2641 191.762V203.697H83.5942V202.186H80.4302V201.008H83.5942V191.762H85.2641ZM72.0981 198.951C75.0073 198.925 78.936 198.898 82.2934 198.477L82.3989 199.672C81.0542 199.9 79.6391 200.041 78.2505 200.138V203.205H76.5805V200.226C75.0512 200.287 73.5835 200.287 72.3091 200.287L72.0981 198.951ZM73.3286 195.137C73.3198 193.467 74.9106 192.359 77.2485 192.359C79.5512 192.359 81.1509 193.467 81.1509 195.137C81.1509 196.815 79.5512 197.879 77.2485 197.879C74.9194 197.879 73.3198 196.815 73.3286 195.137ZM74.2778 207.16V202.537H75.9302V205.807H85.6509V207.16H74.2778ZM74.9106 195.137C74.9018 196.068 75.8511 196.648 77.2485 196.648C78.5932 196.648 79.56 196.068 79.5688 195.137C79.56 194.196 78.5932 193.59 77.2485 193.607C75.8511 193.59 74.9018 194.196 74.9106 195.137ZM99.6346 191.744V198.125H102.166V199.514H99.6346V207.494H97.9823V191.744H99.6346ZM87.2772 195.576V194.205H91.1619V191.955H92.8319V194.205H96.6112V195.576H87.2772ZM88.0858 200.393C88.0858 198.248 89.7381 196.736 92.0057 196.736C94.2645 196.736 95.9168 198.248 95.9256 200.393C95.9168 202.555 94.2645 204.058 92.0057 204.066C89.7381 204.058 88.0858 202.555 88.0858 200.393ZM89.6854 200.393C89.6766 201.764 90.661 202.678 92.0057 202.66C93.3416 202.678 94.3172 201.764 94.326 200.393C94.3172 199.048 93.3416 198.116 92.0057 198.107C90.661 198.116 89.6766 199.048 89.6854 200.393ZM115.306 196.35V197.686H104.46V192.307H106.112V196.35H115.306ZM102.544 201.008V199.672H116.958V201.008H102.544ZM104.337 207.125V202.502H106.007V205.754H115.411V207.125H104.337ZM129.791 193.977C129.791 196.543 132.524 198.969 135.557 199.514L134.783 200.902C132.261 200.357 129.949 198.705 128.93 196.49C127.893 198.696 125.581 200.34 123.059 200.902L122.32 199.514C125.309 198.951 128.024 196.543 128.033 193.977V192.781H129.791V193.977ZM121.793 205.42V204.031H136.207V205.42H121.793ZM145.937 193.062V194.434H144.443V198.793C145.19 198.731 145.919 198.652 146.622 198.547L146.728 199.795C143.511 200.366 139.82 200.445 137.183 200.445L136.99 199.039C137.587 199.039 138.238 199.039 138.923 199.03V194.434H137.429V193.062H145.937ZM138.466 206.105C141.419 205.648 143.66 203.979 143.669 201.887V201.553H145.322V201.887C145.304 203.979 147.563 205.648 150.542 206.105L149.874 207.424C147.475 207.011 145.453 205.851 144.504 204.163C143.537 205.851 141.516 207.011 139.116 207.424L138.466 206.105ZM140.54 199.004C141.279 198.978 142.043 198.951 142.808 198.907V194.434H140.54V199.004ZM147.695 202.344V191.744H149.365V196.016H151.65V197.404H149.365V202.344H147.695ZM159.358 192.008C162.909 191.999 164.974 192.957 164.983 194.715C164.974 196.481 162.909 197.439 159.358 197.439C155.807 197.439 153.724 196.481 153.733 194.715C153.724 192.957 155.807 191.999 159.358 192.008ZM152.186 199.742V198.406H166.547V199.742H152.186ZM153.909 202.203V200.955H164.737V204.646H155.561V206.053H165.176V207.336H153.926V203.434H163.085V202.203H153.909ZM155.473 194.715C155.464 195.69 156.853 196.191 159.358 196.191C161.88 196.191 163.269 195.69 163.26 194.715C163.269 193.783 161.88 193.238 159.358 193.238C156.853 193.238 155.464 193.783 155.473 194.715ZM179.415 192.676V194.064H173.773V195.787H179.117V197.123H173.773V198.951C176.664 198.942 178.387 198.89 180.4 198.512L180.576 199.848C178.422 200.226 176.568 200.287 173.333 200.27H172.103V192.676H179.415ZM173.738 207.301V201.764H183.792V207.301H173.738ZM175.372 205.947H182.14V203.082H175.372V205.947ZM182.122 200.99V191.744H183.792V195.576H186.077V196.965H183.792V200.99H182.122ZM191.43 194.715C191.43 196.49 192.52 198.257 194.559 199.057L193.663 200.34C192.221 199.76 191.193 198.67 190.631 197.343C190.051 198.819 188.978 200.085 187.458 200.744L186.544 199.461C188.671 198.529 189.813 196.499 189.813 194.715V192.693H191.43V194.715ZM189.339 203.451V202.098H200.044V207.494H198.391V203.451H189.339ZM195.069 201.184V192.025H196.616V195.77H198.462V191.762H200.044V201.271H198.462V197.158H196.616V201.184H195.069ZM209.598 194.346V195.699H201.775V194.346H204.869V192.201H206.522V194.346H209.598ZM202.285 200.27C202.276 198.151 203.718 196.648 205.695 196.648C207.69 196.648 209.114 198.151 209.123 200.27C209.114 202.423 207.69 203.935 205.695 203.926C203.718 203.935 202.276 202.423 202.285 200.27ZM203.762 200.27C203.753 201.605 204.562 202.502 205.695 202.502C206.829 202.502 207.647 201.605 207.647 200.27C207.647 198.96 206.829 198.046 205.695 198.037C204.562 198.046 203.753 198.96 203.762 200.27ZM210.318 206.756V192.096H211.9V198.301H213.711V191.744H215.293V207.494H213.711V199.672H211.9V206.756H210.318ZM235.456 204.154V205.543H221.042V204.154H227.387V200.92H222.694V192.816H224.364V195.523H232.098V192.816H233.751V200.92H229.04V204.154H235.456ZM224.364 199.566H232.098V196.877H224.364V199.566ZM241.037 196.051C241.037 198.564 242.092 201.245 244.201 202.537L243.27 203.82C241.793 202.933 240.8 201.359 240.255 199.54C239.684 201.535 238.594 203.24 237.065 204.172L236.027 202.924C238.251 201.588 239.429 198.802 239.42 196.121V193.186H241.037V196.051ZM242.496 198.67V197.281H244.94V192.043H246.522V206.721H244.94V198.67H242.496ZM248.192 207.494V191.744H249.791V207.494H248.192ZM265.849 204.137V205.525H251.435V204.137H254.88V200.023C253.588 199.312 252.797 198.187 252.806 196.771C252.797 194.293 255.232 192.667 258.607 192.658C261.991 192.667 264.425 194.293 264.425 196.771C264.425 198.16 263.669 199.276 262.404 199.988V204.137H265.849ZM254.423 196.771C254.423 198.459 256.137 199.558 258.607 199.566C261.059 199.558 262.799 198.459 262.808 196.771C262.799 195.075 261.059 193.994 258.607 193.994C256.137 193.994 254.423 195.075 254.423 196.771ZM256.533 204.137H260.716V200.639C260.075 200.788 259.363 200.867 258.607 200.867C257.869 200.867 257.166 200.788 256.533 200.639V204.137Z" fill="#B6C2CF"/>
</svg>
