<svg width="24" height="24" viewBox="0 0 24 24" fill="none" xmlns="http://www.w3.org/2000/svg">
<path d="M8.29487 15.8083C8.29487 15.8083 14.159 23.46 18.5262 19.943L19.3183 19.3035C19.8923 18.8421 19.9832 17.9992 19.5217 17.4251C18.9876 16.7638 18.3009 15.9064 17.7705 15.2415C17.3091 14.6638 16.4661 14.5693 15.8884 15.0344L15.2272 15.5649C15.2272 15.5649 13.8538 16.9346 11.1179 13.5338C8.37844 10.1367 10.0098 9.0867 10.0098 9.0867L10.671 8.55624C11.2487 8.09118 11.3359 7.24826 10.8709 6.6742C10.3331 6.01294 9.64282 5.16275 9.10873 4.49786C8.6473 3.9238 7.80438 3.83296 7.23032 4.29439L6.43826 4.93385C2.07105 8.45087 8.2985 15.8083 8.2985 15.8083H8.29487Z" fill="#DEE4EA"/>
</svg>
