<svg width="94" height="100" viewBox="0 0 94 100" fill="none" xmlns="http://www.w3.org/2000/svg">
<path d="M48.0324 91.829L13.4368 67.6719V44.9147L45.7128 20.9817C47.0971 19.954 48.9676 19.954 50.3519 20.9817L82.6156 44.9104V70.5689L48.0324 91.8248V91.829Z" fill="#00E1FF"/>
<path d="M59.7774 39.0675C59.8557 39.1521 59.9339 39.2367 60.0163 39.317C62.1381 41.5077 65.9368 44.5824 68.3099 46.4432C69.5582 47.4201 71.2886 47.4201 72.5329 46.4432C74.906 44.5824 78.7046 41.512 80.8264 39.317C80.9088 39.2367 80.9871 39.1521 81.0654 39.0675C81.1066 39.0252 81.1437 38.9745 81.1849 38.9322C84.0483 35.8449 85.6757 31.5395 85.2101 26.8409C84.5138 19.7866 78.9601 14.0223 72.092 13.2525C63.1269 12.246 55.5461 19.4271 55.5461 28.4226C55.5461 32.4996 57.1117 36.1959 59.6497 38.9322" fill="#2C333A"/>
<path d="M70.4238 36.4716C74.631 36.4716 78.0416 32.9706 78.0416 28.6518C78.0416 24.3331 74.631 20.832 70.4238 20.832C66.2165 20.832 62.8059 24.3331 62.8059 28.6518C62.8059 32.9706 66.2165 36.4716 70.4238 36.4716Z" fill="white"/>
<path d="M79.0926 28.1113C79.0926 33.0256 75.2115 37.0095 70.4241 37.0095C65.6367 37.0095 61.7556 33.0299 61.7556 28.1113H79.0926Z" fill="#00E1FF"/>
<path d="M73.411 36.0527H67.437V37.5118H73.411V36.0527Z" fill="#00E1FF"/>
<path d="M12.2317 35.9093C12.31 35.9939 12.3883 36.0784 12.4707 36.1588C14.5925 38.3495 18.3911 41.4242 20.7642 43.285C22.0126 44.2619 23.743 44.2619 24.9872 43.285C27.3603 41.4242 31.159 38.3538 33.2808 36.1588C33.3632 36.0784 33.4415 35.9939 33.5197 35.9093C33.5609 35.867 33.598 35.8162 33.6392 35.774C36.5026 32.6867 38.13 28.3813 37.6644 23.6827C36.9682 16.6284 31.4144 10.8641 24.5464 10.0943C15.5813 9.08779 8.00049 16.2689 8.00049 25.2644C8.00049 29.3414 9.56609 33.0377 12.104 35.774" fill="#2C333A"/>
<path d="M28.5097 21.0234H17.2497C15.8026 21.0234 14.6294 22.2277 14.6294 23.7132V30.0485C14.6294 31.534 15.8026 32.7383 17.2497 32.7383H28.5097C29.9568 32.7383 31.13 31.534 31.13 30.0485V23.7132C31.13 22.2277 29.9568 21.0234 28.5097 21.0234Z" fill="white"/>
<path d="M26.3511 18.7734H19.4089C18.7308 18.7734 18.1812 19.3377 18.1812 20.0337V22.013C18.1812 22.709 18.7308 23.2733 19.4089 23.2733H26.3511C27.0292 23.2733 27.5789 22.709 27.5789 22.013V20.0337C27.5789 19.3377 27.0292 18.7734 26.3511 18.7734Z" fill="white"/>
<path d="M22.8781 29.6834C24.3844 29.6834 25.6055 28.4299 25.6055 26.8837C25.6055 25.3375 24.3844 24.084 22.8781 24.084C21.3717 24.084 20.1506 25.3375 20.1506 26.8837C20.1506 28.4299 21.3717 29.6834 22.8781 29.6834Z" fill="#2C333A"/>
<path d="M29.6941 64.9229C29.7724 65.0075 29.8507 65.0921 29.9331 65.1724C32.0549 67.3632 35.8535 70.4378 38.2266 72.2986C39.475 73.2756 41.2054 73.2756 42.4496 72.2986C44.8227 70.4378 48.6214 67.3674 50.7432 65.1724C50.8256 65.0921 50.9039 65.0075 50.9821 64.9229C51.0233 64.8806 51.0604 64.8299 51.1016 64.7876C53.965 61.7003 55.5924 57.395 55.1269 52.6964C54.4306 45.6421 48.8768 39.8777 42.0088 39.108C33.0437 38.1015 25.4629 45.2826 25.4629 54.2781C25.4629 58.355 27.0285 62.0513 29.5664 64.7876" fill="#2C333A"/>
<path d="M35.5981 47.1738H34.7329C34.2937 47.1738 33.9377 47.5393 33.9377 47.9901V62.5977C33.9377 63.0485 34.2937 63.4139 34.7329 63.4139H35.5981C36.0373 63.4139 36.3933 63.0485 36.3933 62.5977V47.9901C36.3933 47.5393 36.0373 47.1738 35.5981 47.1738Z" fill="#00E1FF"/>
<path d="M47.6368 58.8844H36.3933V48.6836H47.6574C48.5432 48.6921 49.0499 49.7663 48.5349 50.5402L46.8952 52.9889C46.5738 53.471 46.5738 54.1012 46.8952 54.5833L48.4896 56.9601C49.0046 57.7298 48.5432 58.8717 47.6615 58.8844C47.6533 58.8844 47.6491 58.8844 47.6409 58.8844H47.6368Z" fill="white"/>
<path d="M41.9554 66.0727L14.99 90.4243C14.03 89.4939 13.4368 88.1786 13.4368 86.7195V44.9141L41.9554 66.0727Z" fill="url(#paint0_linear_563_13304)"/>
<path d="M76.6659 91.8294H48.032V70.582L76.6659 91.8294Z" fill="url(#paint1_linear_563_13304)"/>
<path d="M82.6152 44.9141V86.7195C82.6152 89.5404 80.3862 91.8284 77.6341 91.8284H48.0319V70.581H48.0237L48.0319 70.5725L82.6152 44.9141Z" fill="url(#paint2_linear_563_13304)"/>
<path d="M54.1009 66.0742H41.9551L14.9897 90.4259C15.8797 91.2971 17.0827 91.83 18.4135 91.83H77.6425C78.9733 91.83 80.1763 91.2971 81.0662 90.4259L54.1009 66.0742Z" fill="#80F0FF"/>
<path d="M48.032 70.5742V70.5825L48.0237 70.5784L48.032 70.5742Z" fill="#E2E4EF"/>
<defs>
<linearGradient id="paint0_linear_563_13304" x1="27.6961" y1="44.9141" x2="27.6961" y2="90.4243" gradientUnits="userSpaceOnUse">
<stop stop-color="#ACF5FF"/>
<stop offset="1" stop-color="#00E1FF"/>
</linearGradient>
<linearGradient id="paint1_linear_563_13304" x1="62.349" y1="70.582" x2="62.349" y2="91.8294" gradientUnits="userSpaceOnUse">
<stop stop-color="#ACF5FF"/>
<stop offset="1" stop-color="#00E1FF"/>
</linearGradient>
<linearGradient id="paint2_linear_563_13304" x1="65.3194" y1="44.9141" x2="65.3194" y2="91.8284" gradientUnits="userSpaceOnUse">
<stop stop-color="#ACF5FF"/>
<stop offset="1" stop-color="#00E1FF"/>
</linearGradient>
</defs>
</svg>
