<svg width="20" height="19" viewBox="0 0 20 19" fill="none" xmlns="http://www.w3.org/2000/svg">
<path d="M1.61762 9.66693C1.6461 9.69541 1.68028 9.72958 1.70876 9.75806C2.52327 10.5783 3.97571 11.7231 4.88705 12.418C5.3655 12.7826 6.02622 12.7826 6.50468 12.418C7.41601 11.7231 8.86846 10.5783 9.68297 9.75806C9.71145 9.72958 9.74562 9.69541 9.7741 9.66693C9.79119 9.64984 9.80258 9.63276 9.81967 9.61567C10.9133 8.4651 11.5398 6.85887 11.3632 5.10455C11.0955 2.47306 8.96529 0.325716 6.3395 0.0352273C2.90489 -0.3407 0 2.34205 0 5.69692C0 7.21771 0.598066 8.59611 1.57206 9.62136" fill="#00E1FF"/>
<path d="M5.69579 7.00682C6.41931 7.00682 7.00584 6.42029 7.00584 5.69677C7.00584 4.97325 6.41931 4.38672 5.69579 4.38672C4.97227 4.38672 4.38574 4.97325 4.38574 5.69677C4.38574 6.42029 4.97227 7.00682 5.69579 7.00682Z" fill="#2C333A"/>
<path d="M11.5 11.7803L15.8002 11.7803C17.5146 11.7803 18.9101 13.1701 18.9101 14.8902C18.9101 16.6047 17.5203 18.0002 15.8002 18.0002H1.16748" stroke="#2C333A" stroke-width="2" stroke-miterlimit="10" stroke-linecap="round"/>
</svg>
