<svg width="102" height="80" viewBox="0 0 102 80" fill="none" xmlns="http://www.w3.org/2000/svg">
<g clip-path="url(#clip0_454_7799)">
<path d="M22.7299 52.1752C32.4188 52.1752 40.2732 60.0444 40.2732 69.7517C40.2732 79.4589 32.4188 87.3281 22.7299 87.3281C13.041 87.3281 5.18652 79.4589 5.18652 69.7517C5.18652 60.0444 13.041 52.1752 22.7299 52.1752Z" stroke="#00E1FF" stroke-width="4.6" stroke-miterlimit="10"/>
<path d="M79.7802 87.3287C89.4691 87.3287 97.3235 79.4595 97.3235 69.7522C97.3235 60.045 89.4691 52.1758 79.7802 52.1758C70.0912 52.1758 62.2368 60.045 62.2368 69.7522C62.2368 79.4595 70.0912 87.3287 79.7802 87.3287Z" stroke="#00E1FF" stroke-width="4.6" stroke-miterlimit="10"/>
<path d="M22.73 69.7517L30.4215 30.5449H40.2733" stroke="white" stroke-width="5" stroke-linecap="round" stroke-linejoin="round"/>
<path d="M79.7803 69.752L68.2981 45.0059H28.0918" stroke="white" stroke-width="5" stroke-linecap="round" stroke-linejoin="round"/>
<path d="M60.332 41.6738H70.2054" stroke="#00E1FF" stroke-width="7" stroke-miterlimit="10" stroke-linecap="round"/>
<path d="M75.5862 24.4657C79.7354 17.2793 77.2846 8.09811 70.1116 3.95681C62.9387 -0.184492 53.7621 2.28362 49.613 9.47009C45.9592 15.7986 47.4268 23.6748 52.7286 28.2931L53.2762 30.9247C53.4322 31.6729 54.2396 32.139 54.9656 31.9L57.4517 31.0786C64.1678 33.5332 71.8817 30.8821 75.5862 24.4657Z" fill="#F7F9FC"/>
<path d="M57.9752 11.0176H57.2187C56.8388 11.0176 56.5308 11.3262 56.5308 11.7069V24.093C56.5308 24.4737 56.8388 24.7823 57.2187 24.7823H57.9752C58.3552 24.7823 58.6632 24.4737 58.6632 24.093V11.7069C58.6632 11.3262 58.3552 11.0176 57.9752 11.0176Z" fill="#2C333A"/>
<path d="M68.423 20.9423H58.6602V12.2949H68.4408C69.2092 12.3009 69.653 13.214 69.2033 13.8674L67.7797 15.9442C67.4997 16.35 67.4997 16.8871 67.7797 17.2959L69.1616 19.3131C69.6083 19.9665 69.2062 20.9333 68.4408 20.9452C68.4349 20.9452 68.4289 20.9452 68.423 20.9452V20.9423Z" fill="#00E1FF"/>
</g>
<defs>
<clipPath id="clip0_454_7799">
<rect width="102" height="80" fill="white"/>
</clipPath>
</defs>
</svg>
