<svg width="36" height="25" viewBox="0 0 36 25" fill="none" xmlns="http://www.w3.org/2000/svg">
<g clip-path="url(#clip0_781_10860)">
<path d="M28.4521 10.3986C27.9405 10.3986 27.4431 10.4554 26.9626 10.5602L26.7956 10.0566C26.3702 8.56796 24.9952 7.52876 23.4453 7.52876H10.7377L11.1685 5.61466C11.4438 5.56759 11.7111 5.46811 11.9545 5.31534L13.4245 4.38893C13.6057 4.27435 13.8286 4.2406 14.0365 4.29478L16.6674 4.98403C17.0333 5.07996 17.4072 4.86146 17.5032 4.49552C17.5991 4.12957 17.3797 3.75564 17.0147 3.65971L14.3838 2.97046C13.8109 2.82035 13.1953 2.91539 12.6944 3.23071L11.2244 4.15711C11.0068 4.29389 10.7368 4.31521 10.5005 4.21307C10.274 4.11536 10.1062 3.91285 10.0511 3.67215L9.79172 2.53701C9.63185 1.83888 9.13711 1.26865 8.46918 1.01107L6.25487 0.161051C5.90225 0.0251545 5.50611 0.201908 5.37021 0.554528C5.23432 0.907147 5.41107 1.30329 5.76369 1.43919L7.97711 2.29009C8.21959 2.38335 8.39901 2.59031 8.45674 2.84256L8.7161 3.97769C8.85555 4.58967 9.26146 5.11016 9.81304 5.39972L8.67347 10.4652C8.41944 10.4368 8.16097 10.4217 7.89984 10.4217C4.04767 10.4208 0.914062 13.5544 0.914062 17.4065C0.914062 21.2587 4.04767 24.3923 7.89984 24.3923C11.752 24.3923 14.8856 21.2587 14.8856 17.4065C14.8856 14.2916 12.8356 11.6465 10.0138 10.7485L10.4303 8.89749H23.4453C24.3895 8.89749 25.227 9.53256 25.482 10.4412C25.4846 10.4519 25.4882 10.4616 25.4917 10.4723L25.6614 10.9821C23.1957 12.0622 21.4681 14.5243 21.4681 17.3835C21.4681 21.2356 24.6017 24.3692 28.4539 24.3692C32.3061 24.3692 35.4397 21.2356 35.4397 17.3835C35.4397 13.5313 32.3061 10.3977 28.4539 10.3977L28.4521 10.3986ZM13.3748 17.4065C13.3748 20.4256 10.9189 22.8824 7.89895 22.8824C4.87903 22.8824 2.42313 20.4265 2.42313 17.4065C2.42313 14.3866 4.87903 11.9307 7.89895 11.9307C8.04728 11.9307 8.19383 11.9387 8.33861 11.9503L7.104 17.4394C7.0214 17.808 7.25322 18.1748 7.62183 18.2575C7.67245 18.269 7.72308 18.2743 7.77282 18.2743C8.08636 18.2743 8.36881 18.0585 8.43987 17.7396L9.67892 12.2292C11.8266 12.9699 13.3739 15.0102 13.3739 17.4057L13.3748 17.4065ZM28.4521 22.8593C25.4331 22.8593 22.9763 20.4034 22.9763 17.3835C22.9763 15.1905 24.2722 13.2959 26.1383 12.4228L27.8633 17.6162C27.9583 17.9031 28.2256 18.0851 28.5125 18.0851C28.5845 18.0851 28.6564 18.0736 28.7284 18.0505C29.0872 17.9315 29.2817 17.5433 29.1627 17.1845L27.4414 12.0027C27.7691 11.9414 28.1066 11.9076 28.4512 11.9076C31.4703 11.9076 33.9271 14.3635 33.9271 17.3835C33.9271 20.4034 31.4712 22.8593 28.4512 22.8593H28.4521Z" fill="#B6C2CF"/>
</g>
<defs>
<clipPath id="clip0_781_10860">
<rect width="34.523" height="24.2766" fill="white" transform="translate(0.914307 0.115234)"/>
</clipPath>
</defs>
</svg>
