<svg width="24" height="25" viewBox="0 0 24 25" fill="none" xmlns="http://www.w3.org/2000/svg">
<path d="M5.00212 2.5H3.95242C3.42628 2.5 2.99976 2.92652 2.99976 3.45267V20.583C2.99976 21.1091 3.42628 21.5357 3.95242 21.5357H5.00212C5.52826 21.5357 5.95478 21.1091 5.95478 20.583V3.45267C5.95478 2.92652 5.52826 2.5 5.00212 2.5Z" fill="#2C333A"/>
<path d="M19.4774 16.2249H5.95483V4.26367H19.5039C20.5712 4.27249 21.1798 5.53389 20.5624 6.43363L18.5865 9.30045C18.1983 9.86499 18.1983 10.606 18.5865 11.1705L20.5006 13.9579C21.1181 14.8577 20.5624 16.1985 19.5039 16.2161C19.5039 16.2161 19.4862 16.2161 19.4774 16.2161V16.2249Z" fill="#00E1FF"/>
</svg>
