<svg width="21" height="20" viewBox="0 0 21 20" fill="none" xmlns="http://www.w3.org/2000/svg">
<path d="M4.76562 12.8799V6.30691C4.76562 4.50397 6.10495 3.04102 7.75679 3.04102C9.40862 3.04102 10.7479 4.50397 10.7479 6.30691V12.8799C10.7479 14.6828 12.0873 16.1458 13.7391 16.1458C15.3909 16.1458 16.7303 14.6828 16.7303 12.8799V7.10499" stroke="#2C333A" stroke-width="2.1954" stroke-linecap="round" stroke-linejoin="round"/>
<path d="M4.76711 17.2984C6.34132 17.2984 7.61747 16.0222 7.61747 14.448C7.61747 12.8738 6.34132 11.5977 4.76711 11.5977C3.1929 11.5977 1.91675 12.8738 1.91675 14.448C1.91675 16.0222 3.1929 17.2984 4.76711 17.2984Z" fill="#00E1FF"/>
<path d="M16.1101 3.3945L14.053 6.95917C13.7783 7.43308 14.1217 8.02719 14.6711 8.02719H18.7853C19.3347 8.02719 19.6782 7.43308 19.4034 6.95917L17.3464 3.3945C17.0716 2.92058 16.3882 2.92058 16.1135 3.3945H16.1101Z" fill="#00E1FF"/>
</svg>
