<svg width="21" height="20" viewBox="0 0 21 20" fill="none" xmlns="http://www.w3.org/2000/svg">
<path d="M11.7152 3.17969H9.33716V5.44146H11.7152V3.17969Z" fill="#2C333A"/>
<path d="M7.91783 3.28906L13.1389 3.28906C13.4327 3.28906 13.6709 3.05089 13.6709 2.75709V1.95737C13.6709 1.66356 13.4327 1.42539 13.1389 1.42539L7.91783 1.42539C7.62402 1.42539 7.38585 1.66356 7.38585 1.95737V2.75709C7.38585 3.05089 7.62402 3.28906 7.91783 3.28906Z" fill="#2C333A"/>
<path d="M10.5286 18.9995C14.5854 18.9995 17.8741 15.7109 17.8741 11.6541C17.8741 7.59728 14.5854 4.30859 10.5286 4.30859C6.47179 4.30859 3.18311 7.59728 3.18311 11.6541C3.18311 15.7109 6.47179 18.9995 10.5286 18.9995Z" fill="#2C333A"/>
<path d="M10.5281 17.8706C13.9603 17.8706 16.7427 15.0882 16.7427 11.656C16.7427 8.22377 13.9603 5.44141 10.5281 5.44141C7.09584 5.44141 4.31348 8.22377 4.31348 11.656C4.31348 15.0882 7.09584 17.8706 10.5281 17.8706Z" fill="#2C333A"/>
<path d="M14.8719 12.0257C14.6781 14.3086 12.7264 16.0948 10.373 16.0138C8.01963 15.9327 6.2687 14.0867 6.17357 11.8425C6.07493 9.47859 7.8611 7.50571 10.1546 7.31194C10.3519 7.29433 10.5245 7.44582 10.5245 7.64663V11.6558H14.5372C14.7345 11.6558 14.886 11.8284 14.8719 12.0257Z" fill="#00E1FF"/>
</svg>
