<svg width="24" height="24" viewBox="0 0 24 24" fill="none" xmlns="http://www.w3.org/2000/svg">
<path d="M6.37506 3.64844H17.1317C18.0471 3.64844 18.788 4.38941 18.788 5.30474V11.3727H4.71875V5.30474C4.71875 4.38941 5.45973 3.64844 6.37506 3.64844Z" fill="#B6C2CF"/>
<path d="M18.6419 11.373H4.86523C4.14305 11.373 3.55762 11.9585 3.55762 12.6807V12.7803C3.55762 13.5025 4.14305 14.0879 4.86523 14.0879H18.6419C19.364 14.0879 19.9495 13.5025 19.9495 12.7803V12.6807C19.9495 11.9585 19.364 11.373 18.6419 11.373Z" fill="#DEE4EA"/>
<path d="M9.02749 5.23047H7.12523C6.81228 5.23047 6.55859 5.48416 6.55859 5.7971V5.83758C6.55859 6.15052 6.81228 6.4042 7.12523 6.4042H9.02749C9.34043 6.4042 9.59412 6.15052 9.59412 5.83758V5.7971C9.59412 5.48416 9.34043 5.23047 9.02749 5.23047Z" fill="#DEE4EA"/>
<path d="M14.619 20.9995H8.89045C8.31759 20.9995 7.85059 20.4983 7.85059 19.8818L8.42967 15.6445H15.0798L15.6589 19.8818C15.6589 20.4983 15.195 20.9995 14.619 20.9995Z" fill="#DEE4EA"/>
<path d="M18.7882 14.0879C18.7882 16.7125 15.6375 18.8358 11.752 18.8358C7.86654 18.8358 4.71582 16.7093 4.71582 14.0879H18.7851H18.7882Z" fill="#DEE4EA"/>
</svg>
