<svg width="24" height="24" viewBox="0 0 24 24" fill="none" xmlns="http://www.w3.org/2000/svg">
<path d="M6.37555 3.64844H17.1322C18.0475 3.64844 18.7885 4.38941 18.7885 5.30474V11.3727H4.71924V5.30474C4.71924 4.38941 5.46022 3.64844 6.37555 3.64844Z" fill="#5992FF"/>
<path d="M18.6423 11.373H4.86572C4.14354 11.373 3.55811 11.9585 3.55811 12.6807V12.7803C3.55811 13.5025 4.14354 14.0879 4.86572 14.0879H18.6423C19.3645 14.0879 19.95 13.5025 19.95 12.7803V12.6807C19.95 11.9585 19.3645 11.373 18.6423 11.373Z" fill="#A5C4FF"/>
<path d="M9.02847 5.23047H7.1262C6.81326 5.23047 6.55957 5.48416 6.55957 5.7971V5.83758C6.55957 6.15052 6.81326 6.4042 7.1262 6.4042H9.02847C9.34141 6.4042 9.5951 6.15052 9.5951 5.83758V5.7971C9.5951 5.48416 9.34141 5.23047 9.02847 5.23047Z" fill="#A5C4FF"/>
<path d="M14.62 20.9995H8.89143C8.31857 20.9995 7.85156 20.4983 7.85156 19.8818L8.43065 15.6445H15.0808L15.6599 19.8818C15.6599 20.4983 15.196 20.9995 14.62 20.9995Z" fill="#5992FF"/>
<path d="M18.7887 14.0879C18.7887 16.7125 15.638 18.8358 11.7525 18.8358C7.86703 18.8358 4.71631 16.7093 4.71631 14.0879H18.7856H18.7887Z" fill="#A5C4FF"/>
</svg>
