<svg width="24" height="24" viewBox="0 0 24 24" fill="none" xmlns="http://www.w3.org/2000/svg">
<path d="M4.58439 11.1973H19.0975C19.934 11.1973 20.6098 11.8778 20.6098 12.7095V16.6745H3.06738V12.7095C3.06738 11.8731 3.74791 11.1973 4.57966 11.1973H4.58439Z" fill="white"/>
<path d="M6.95232 5.51367H16.7254C17.543 5.51367 18.2046 6.17529 18.2046 6.99286V11.1989H5.47314V6.99286C5.47314 6.17529 6.13475 5.51367 6.95232 5.51367Z" fill="white"/>
<path d="M3.06738 16.6797H5.14204V18.3054C5.14204 18.6882 4.83013 19.0001 4.44734 19.0001H3.76681C3.38402 19.0001 3.07211 18.6882 3.07211 18.3054V16.6797H3.06738Z" fill="#738496"/>
<path d="M18.5352 16.6797H20.6098V18.3054C20.6098 18.6882 20.2979 19.0001 19.9151 19.0001H19.2346C18.8518 19.0001 18.5399 18.6882 18.5399 18.3054V16.6797H18.5352Z" fill="#738496"/>
<path d="M8.21403 8.7207H10.1563C10.8132 8.7207 11.3473 9.25472 11.3473 9.91162V11.197H7.02783V9.91162C7.02783 9.25472 7.56186 8.7207 8.21876 8.7207H8.21403Z" fill="#738496"/>
<path d="M13.5212 8.7207H15.4635C16.1204 8.7207 16.6544 9.25472 16.6544 9.91162V11.197H12.335V9.91162C12.335 9.25472 12.869 8.7207 13.5259 8.7207H13.5212Z" fill="#738496"/>
</svg>
