<svg width="338" height="240" viewBox="0 0 338 240" fill="none" xmlns="http://www.w3.org/2000/svg">
<path d="M210.461 97.2749C210.461 129.708 184.166 155.999 151.737 155.999C119.308 155.999 93.0088 129.708 93.0088 97.2749C93.0088 94.7617 93.1682 92.2861 93.4703 89.8568C96.8228 63.2891 117.923 42.2473 144.52 38.9871C146.887 38.7018 149.295 38.5508 151.737 38.5508C154.179 38.5508 156.587 38.7018 158.95 38.9871C185.547 42.2473 206.652 63.2891 210 89.861C210.302 92.2903 210.461 94.7659 210.461 97.2749Z" fill="#F7F9FC"/>
<path d="M112.36 108.751C112.36 119.186 103.901 127.644 93.4663 127.644C83.0314 127.644 74.5769 119.181 74.5769 108.751C74.5769 107.941 74.6273 107.144 74.7238 106.363C75.8021 97.8165 82.5908 91.0487 91.146 89.9998C91.9055 89.9075 92.6817 89.8613 93.4663 89.8613C94.2509 89.8613 95.0271 89.9117 95.7866 89.9998C104.342 91.0487 111.131 97.8165 112.209 106.368C112.305 107.148 112.356 107.945 112.356 108.751H112.36Z" fill="#F7F9FC"/>
<path d="M191.11 108.751C191.11 119.186 199.569 127.644 210.004 127.644C220.439 127.644 228.898 119.186 228.898 108.751C228.898 107.941 228.847 107.144 228.751 106.363C227.672 97.8165 220.884 91.0487 212.328 89.9998C211.569 89.9075 210.793 89.8613 210.008 89.8613C209.224 89.8613 208.447 89.9117 207.688 89.9998C199.133 91.0487 192.344 97.8165 191.266 106.368C191.169 107.148 191.119 107.945 191.119 108.751H191.11Z" fill="#F7F9FC"/>
<path d="M159.16 43.5312C159.16 53.0766 156.441 61.98 151.733 69.5198C143.056 83.4414 127.603 92.7057 109.989 92.7057C104.195 92.7057 98.6313 91.7029 93.4705 89.8568C96.8229 63.2891 117.923 42.2473 144.521 38.9871C146.887 38.7018 149.295 38.5508 151.737 38.5508C154.179 38.5508 156.588 38.7018 158.95 38.9871C159.088 40.4808 159.16 41.9997 159.16 43.5312Z" fill="#DEE4EA"/>
<path d="M210 89.861C204.839 91.7029 199.276 92.7057 193.481 92.7057C175.867 92.7057 160.414 83.4414 151.733 69.5198C147.03 61.98 144.311 53.0766 144.311 43.5312C144.311 41.9997 144.382 40.4808 144.521 38.9871C146.887 38.7018 149.295 38.5508 151.737 38.5508C154.179 38.5508 156.588 38.7018 158.95 38.9871C185.547 42.2473 206.652 63.2891 210 89.861Z" fill="#DEE4EA"/>
<path d="M137.325 106.829C139.939 106.829 142.057 104.71 142.057 102.096C142.057 99.4822 139.939 97.3633 137.325 97.3633C134.711 97.3633 132.592 99.4822 132.592 102.096C132.592 104.71 134.711 106.829 137.325 106.829Z" fill="#DEE4EA"/>
<path d="M166.145 106.829C168.759 106.829 170.878 104.71 170.878 102.096C170.878 99.4822 168.759 97.3633 166.145 97.3633C163.532 97.3633 161.413 99.4822 161.413 102.096C161.413 104.71 163.532 106.829 166.145 106.829Z" fill="#DEE4EA"/>
<path d="M140.472 126.922C140.472 120.703 145.515 115.66 151.733 115.66C157.951 115.66 162.999 120.703 162.999 126.922" fill="#DEE4EA"/>
<path d="M150.004 103.884L148.406 107.077C147.802 108.281 148.679 109.699 150.025 109.699H153.353C154.725 109.699 155.602 108.231 154.947 107.022L153.218 103.829C152.522 102.541 150.659 102.571 150.004 103.884Z" fill="#DEE4EA"/>
<path d="M247.437 92.3518C246.155 91.0696 243.364 91.7814 241.204 93.9418C239.043 96.1022 238.331 98.893 239.614 100.175L257.325 117.886C258.607 119.169 261.398 118.457 263.558 116.296C265.719 114.136 266.431 111.345 265.148 110.063L247.437 92.3518Z" fill="#B6C2CF"/>
<path d="M258.803 105.209L252.462 111.55C250.725 113.286 250.725 116.101 252.462 117.837L271.18 136.555C272.916 138.292 275.731 138.292 277.468 136.555L283.808 130.215C285.545 128.478 285.545 125.663 283.808 123.927L265.09 105.209C263.354 103.472 260.539 103.472 258.803 105.209Z" fill="#B6C2CF"/>
<path d="M213.907 23C238.002 23 257.535 42.5331 257.535 66.6279C257.534 90.7226 238.001 110.255 213.907 110.255C189.812 110.255 170.279 90.7226 170.279 66.6279C170.279 42.5331 189.812 23 213.907 23ZM213.907 33.7324C195.739 33.7324 181.012 48.4607 181.012 66.6279C181.012 84.795 195.74 99.5225 213.907 99.5225C232.074 99.5224 246.801 84.795 246.801 66.6279C246.801 48.4607 232.074 33.7325 213.907 33.7324Z" fill="#B6C2CF"/>
<circle cx="213.944" cy="66.6644" r="34.0941" fill="#F7F9FC"/>
<path d="M80.4963 80.9213C80.5263 80.9475 80.3642 80.9845 80.3556 81.0154C80.3181 81.145 80.2057 81.193 80.142 81.3103C80.0473 81.4841 80.2604 82 79.134 82C79.134 82 79.134 82 79.1339 82C79.1229 82 79.1117 82 79.1004 81.9999C78.8858 81.998 78.6516 81.9542 78.4089 81.9477C78.1661 81.9411 76.5988 81.946 76.5107 81.8837C76.3946 81.7933 76.7965 81.5766 76.7786 81.5284C76.7664 81.4954 76.6239 81.4549 76.5986 81.4127C76.5171 81.2769 76.6212 81.2058 76.2342 81.0834C76.4382 81.0345 76.6421 80.9855 76.8461 80.9365C76.7515 80.8727 77.0205 80.7759 77.0057 80.7371C76.9935 80.7052 76.8322 80.6866 76.8247 80.6534C76.8154 80.6162 76.9895 80.559 76.9633 80.4913C76.9211 80.3804 76.5003 80.3606 76.4469 80.294C76.3916 80.225 76.6203 80.1176 76.4722 80.0295C76.426 80.0184 76.3797 80.0074 76.3334 79.9963C76.2287 80.0043 76.124 80.0122 76.0194 80.0201C75.9706 79.9757 76.1852 79.9566 76.189 79.9159C76.1937 79.8679 75.9904 79.8434 75.9913 79.8111C75.9922 79.7847 76.1553 79.7488 76.1451 79.7145C76.131 79.6645 75.8956 79.6755 75.8515 79.6486C75.8344 79.6378 75.7045 79.4394 75.7026 79.4282C75.6933 79.343 76.0156 79.3356 76.0438 79.2677C76.1206 79.0794 75.8602 78.8861 75.7618 78.7119C75.7178 78.6341 75.7365 78.553 75.788 78.4754C76.6129 78.5976 77.2548 78.3272 75.9641 78.4283C76.1477 78.342 75.7993 78.2808 75.8582 78.199C75.8967 78.1461 76.0756 78.1095 76.0709 78.034C76.0615 77.8999 75.5528 77.7533 76.4722 77.7147C76.3102 77.5574 76.6437 77.4211 75.832 77.3643C75.7824 77.3238 76.2659 77.2198 76.3316 77.1742C76.3934 77.1312 76.6117 76.8009 76.6239 76.7469C76.6361 76.6929 76.6494 76.5983 76.5781 76.5528C76.49 76.4956 75.6482 76.4557 76.6325 76.3539C76.5528 76.2356 76.581 76.1934 76.6953 76.0833C76.716 76.0634 76.8621 76.0611 76.8623 76.0495C76.8623 76.0255 76.7543 75.9847 76.7411 75.9419C76.7195 75.8715 77.027 75.8313 76.5574 75.8392C76.4787 75.7928 76.3999 75.7464 76.3212 75.7C76.4118 75.6837 76.5025 75.6674 76.5931 75.6511C76.4943 75.6263 76.3955 75.6015 76.2968 75.5767C76.9763 75.6058 76.5753 75.4312 76.1854 75.4879C76.326 75.3979 76.4666 75.308 76.6071 75.218C77.3795 75.2305 76.6963 75.0205 76.2763 75.0381C76.2769 75.0278 76.2775 75.0176 76.2782 75.0073C76.4834 74.9171 76.3155 74.8344 76.4533 74.7245C76.5911 74.6147 76.6663 74.625 77.0216 74.5916C77.0012 74.5657 76.9809 74.5399 76.9605 74.514C75.9866 74.3784 77.6728 74.4024 76.9257 74.1701C77.5378 74.0959 77.2163 73.913 77.0307 73.7917C77.0092 73.7776 76.8904 73.7774 76.8537 73.7586C76.7656 73.7126 76.9183 73.5954 76.5351 73.5994C76.646 73.5588 76.7569 73.5182 76.8678 73.4776C76.7981 73.4444 76.7284 73.4112 76.6587 73.3781C76.5391 73.3782 76.4195 73.3784 76.2998 73.3786C76.7075 73.3117 76.5509 73.2068 76.6483 73.155C76.6681 73.1447 76.8331 73.1425 76.8781 73.1104C76.9316 73.073 76.8827 73.0032 76.9343 72.9586C76.7515 72.9413 76.5687 72.9239 76.3859 72.9066C76.2867 72.8268 76.7692 72.7987 76.8067 72.7519C76.8132 72.7435 76.7786 72.5896 76.7683 72.5813C76.6866 72.5134 76.2756 72.5326 76.3636 72.3363C76.3795 72.3013 76.5218 72.2731 76.5275 72.2415C76.5378 72.1857 76.2152 72.0175 75.9171 72.0042C76.2902 71.9365 76.1377 71.7554 76.2455 71.702C76.2786 71.6859 76.5163 71.6823 76.5669 71.6328C76.6081 71.5927 76.4178 71.4893 76.4497 71.4384C76.4843 71.3844 76.684 71.3651 76.6981 71.3409C76.7112 71.318 76.5501 71.2969 76.551 71.2658C76.5566 71.1685 76.816 71.0804 76.8208 71.0035C76.8208 71.0023 76.8209 71.0012 76.8208 71C76.8182 70.8902 76.3489 70.7931 76.1393 70.7011C76.1702 70.678 76.2726 70.6553 76.2736 70.6311C76.2886 70.3316 76.3765 69.9937 76.4787 69.6933C76.5256 69.5539 77.1732 69.2071 76.0926 69.2996C75.9034 69.2512 76.339 68.8988 76.3456 68.8318C76.3521 68.7647 76.1583 68.7116 76.1555 68.659C76.147 68.5 76.2867 68.3881 76.1179 68.1946C76.0738 68.1446 75.8443 68.0911 75.8469 68.0615C75.8507 68.0259 76.0727 67.9875 76.0868 67.9413C76.1187 67.8313 76.0456 67.6261 76.0841 67.5205C76.0916 67.5012 76.2865 67.4945 76.3474 67.4669C76.5855 67.3595 76.5649 67.2392 75.9425 67.2605C76.2958 67.1228 75.9735 66.9955 75.9538 66.8679C75.9134 66.5982 76.0587 66.107 75.7972 65.872C75.6322 65.7239 75.3531 65.7277 75.594 65.5096C75.6474 65.4611 75.7194 65.4129 75.7832 65.3542C75.9331 65.2166 76.4488 65.0903 75.8274 64.9854C75.9886 64.8325 75.8743 64.7107 76.4057 64.5973C76.2783 64.5839 76.1508 64.5706 76.0233 64.5572C76.0202 64.5384 76.017 64.5197 76.0139 64.501C76.1354 64.4951 76.257 64.4893 76.3786 64.4834C76.4113 64.3492 75.9117 64.1788 75.9153 64.0651C75.9209 63.8746 76.115 63.3838 76.2791 63.2031C76.3662 63.1072 76.1058 63.102 76.641 63.0471C76.6038 63.0256 76.5665 63.0042 76.5293 62.9827C76.4121 62.9693 76.2949 62.9558 76.1778 62.9424C76.1731 62.8193 76.3551 62.6734 76.3532 62.5561C76.3495 62.3425 76.027 62.0216 76.2388 61.8071C76.2922 61.7533 76.5339 61.6861 76.5311 61.6334C76.5274 61.5567 76.1264 61.5381 76.1189 61.4408C76.1067 61.2731 76.5726 60.9608 76.5369 60.8023C76.5266 60.7552 76.3774 60.7332 76.3615 60.7007C76.293 60.5644 76.3052 60.4525 76.0746 60.3218C76.4589 60.1815 76.955 60.1936 77.4555 60.1501C77.8333 60.1172 78.7088 60.0161 79.0397 60.0017C79.2722 59.9917 79.5712 60.0293 79.8271 60.0152C80.0314 60.1833 79.8064 60.2539 79.4465 60.3905C79.4608 60.6426 79.4752 60.8947 79.4895 61.1469C79.3499 61.1698 79.2102 61.1928 79.0705 61.2157C79.0702 61.2157 79.0699 61.2157 79.0696 61.2157C78.9084 61.3125 79.2681 61.3536 79.3498 61.4058C80.1315 61.9057 79.5197 62.8897 79.4315 63.4401C79.4128 63.5587 79.601 63.9445 79.3742 64.0259C79.3151 64.0469 79.0997 64.0528 79.0904 64.0752C79.2184 64.2755 79.3465 64.4758 79.4746 64.676C79.1399 65.0879 79.4163 65.5136 79.4679 65.9286C79.6075 67.0513 79.7773 68.1628 79.7257 69.2671C79.7154 69.4806 79.8768 69.7514 79.7727 69.9604C79.7296 70.0476 79.3837 70.0839 79.6415 70.1984C79.5483 70.1996 79.4551 70.2008 79.362 70.2021C79.4745 70.302 79.6865 70.3659 79.708 70.478C79.7258 70.5724 79.7397 70.8221 79.7041 70.9055C79.6863 70.9488 79.5121 70.9326 79.513 70.973C79.5134 70.981 79.5169 70.9901 79.5229 71C79.5685 71.0756 79.7566 71.2006 79.7566 71.2848C79.7566 71.3711 79.556 71.5167 79.585 71.583C79.6882 71.822 79.9855 72.0823 79.9058 72.337C79.8832 72.4073 79.6575 72.4978 79.6638 72.5199C79.6769 72.5629 79.8962 72.5757 79.9244 72.6046C80.0669 72.7514 79.8063 72.9803 79.7959 73.1243C79.7622 73.5933 79.8579 74.0901 79.8176 74.5571C79.7923 74.8521 79.8309 75.3424 79.6659 75.6148C79.6303 75.6735 79.39 75.6579 79.39 75.7072C79.3901 75.7619 79.5524 75.7915 79.5655 75.817C79.6574 75.9939 79.8214 76.3844 79.6555 76.5515C79.6237 76.5833 79.4354 76.6063 79.4361 76.6254C79.4361 76.635 79.5646 76.6568 79.5777 76.6871C79.694 76.9543 79.619 77.1491 79.575 77.411C79.4916 77.9125 79.7306 78.4936 79.6012 79.0204C79.5731 79.1352 79.2007 79.2139 79.2045 79.23C79.212 79.2655 79.4625 79.2881 79.5243 79.3599C79.7277 79.5984 79.4604 79.9196 79.586 80.1465C79.6478 80.2586 79.9657 80.4126 80.0361 80.5229C80.0923 80.611 79.9676 80.819 80.1072 80.8581C80.1915 80.8818 80.4624 80.8928 80.4963 80.9213ZM76.28 77.9535C76.713 77.9692 76.3531 77.8042 76.1207 77.8661C76.0683 77.88 76.1676 77.9494 76.28 77.9535ZM77.0319 70.2303C76.9082 70.2318 76.7845 70.2333 76.6608 70.2348C76.7123 70.2564 76.7638 70.2781 76.8153 70.2997C76.8896 70.2876 76.964 70.2754 77.0384 70.2632C77.0362 70.2522 77.0341 70.2412 77.0319 70.2303ZM92.4963 70.9213C92.5263 70.9475 92.3642 70.9845 92.3556 71.0154C92.3181 71.145 92.2057 71.193 92.142 71.3103C92.0473 71.4841 92.2604 72 91.134 72C91.134 72 91.134 72 91.1339 72C91.1229 72 91.1117 72 91.1004 71.9998C90.8858 71.998 90.6516 71.9542 90.4089 71.9476C90.1661 71.9411 88.5988 71.946 88.5107 71.8837C88.3946 71.7933 88.7965 71.5766 88.7786 71.5284C88.7664 71.4954 88.6239 71.4549 88.5986 71.4127C88.5171 71.2769 88.6212 71.2058 88.2342 71.0834C88.4382 71.0345 88.6421 70.9855 88.8461 70.9365C88.7515 70.8727 89.0205 70.7759 89.0057 70.7371C88.9935 70.7052 88.8322 70.6866 88.8247 70.6534C88.8154 70.6162 88.9895 70.559 88.9633 70.4913C88.9211 70.3804 88.5003 70.3606 88.4469 70.294C88.3916 70.225 88.6203 70.1176 88.4722 70.0295C88.426 70.0184 88.3797 70.0074 88.3334 69.9963C88.2287 70.0043 88.124 70.0122 88.0194 70.0201C87.9706 69.9757 88.1852 69.9566 88.189 69.9159C88.1937 69.8679 87.9904 69.8434 87.9913 69.8111C87.9922 69.7847 88.1553 69.7488 88.1451 69.7145C88.131 69.6645 87.8956 69.6755 87.8515 69.6486C87.8344 69.6378 87.7045 69.4394 87.7026 69.4282C87.6933 69.343 88.0156 69.3356 88.0438 69.2677C88.1206 69.0794 87.8602 68.8861 87.7618 68.7119C87.7178 68.6341 87.7365 68.553 87.788 68.4754C88.6129 68.5976 89.2548 68.3272 87.9641 68.4283C88.1477 68.342 87.7993 68.2808 87.8582 68.199C87.8967 68.1461 88.0756 68.1095 88.0709 68.034C88.0615 67.8999 87.5528 67.7533 88.4722 67.7147C88.3102 67.5574 88.6437 67.421 87.832 67.3643C87.7824 67.3238 88.2659 67.2198 88.3316 67.1742C88.3934 67.1312 88.6117 66.8009 88.6239 66.7469C88.6361 66.6929 88.6494 66.5983 88.5781 66.5528C88.49 66.4956 87.6482 66.4557 88.6325 66.3539C88.5528 66.2356 88.581 66.1934 88.6953 66.0833C88.716 66.0634 88.8621 66.0612 88.8623 66.0495C88.8623 66.0255 88.7543 65.9847 88.7411 65.9419C88.7195 65.8715 89.027 65.8313 88.5574 65.8392C88.4787 65.7928 88.3999 65.7464 88.3212 65.7C88.4118 65.6837 88.5025 65.6674 88.5931 65.6511C88.4943 65.6263 88.3955 65.6015 88.2968 65.5767C88.9763 65.6058 88.5753 65.4312 88.1854 65.4879C88.326 65.3979 88.4666 65.308 88.6071 65.218C89.3795 65.2305 88.6963 65.0205 88.2763 65.0381C88.2769 65.0279 88.2775 65.0176 88.2782 65.0073C88.4834 64.9171 88.3155 64.8344 88.4533 64.7245C88.5911 64.6147 88.6663 64.625 89.0216 64.5916C89.0012 64.5657 88.9809 64.5399 88.9605 64.514C87.9866 64.3784 89.6728 64.4024 88.9257 64.1701C89.5378 64.0959 89.2163 63.913 89.0307 63.7917C89.0092 63.7776 88.8904 63.7774 88.8537 63.7586C88.7656 63.7126 88.9183 63.5953 88.5351 63.5994C88.646 63.5588 88.7569 63.5182 88.8678 63.4776C88.7981 63.4444 88.7284 63.4112 88.6587 63.3781C88.5391 63.3782 88.4195 63.3784 88.2998 63.3786C88.7075 63.3117 88.5509 63.2068 88.6483 63.155C88.6681 63.1447 88.8331 63.1425 88.8781 63.1104C88.9316 63.073 88.8827 63.0032 88.9343 62.9586C88.7515 62.9413 88.5687 62.9239 88.3859 62.9066C88.2867 62.8268 88.7692 62.7987 88.8067 62.7519C88.8132 62.7435 88.7786 62.5896 88.7683 62.5813C88.6866 62.5134 88.2756 62.5326 88.3636 62.3363C88.3795 62.3014 88.5218 62.2731 88.5275 62.2415C88.5378 62.1857 88.2152 62.0175 87.9171 62.0042C88.2902 61.9365 88.1377 61.7554 88.2455 61.702C88.2786 61.6859 88.5163 61.6823 88.5669 61.6328C88.6081 61.5927 88.4178 61.4893 88.4497 61.4384C88.4843 61.3844 88.684 61.3651 88.6981 61.3409C88.7112 61.318 88.5501 61.2969 88.551 61.2658C88.5566 61.1685 88.816 61.0804 88.8208 61.0035C88.8283 60.8923 88.3511 60.7941 88.1393 60.7011C88.1702 60.678 88.2726 60.6553 88.2736 60.6311C88.2886 60.3316 88.3765 59.9937 88.4787 59.6933C88.5256 59.5539 89.1732 59.2071 88.0926 59.2996C87.9034 59.2512 88.339 58.8988 88.3456 58.8317C88.3521 58.7647 88.1583 58.7116 88.1555 58.659C88.147 58.5 88.2867 58.3881 88.1179 58.1946C88.0738 58.1446 87.8443 58.0911 87.8469 58.0615C87.8507 58.0259 88.0727 57.9875 88.0868 57.9413C88.1187 57.8313 88.0456 57.6261 88.0841 57.5205C88.0916 57.5012 88.2865 57.4945 88.3474 57.4669C88.5855 57.3595 88.5649 57.2392 87.9425 57.2605C88.2958 57.1228 87.9735 56.9955 87.9538 56.8679C87.9134 56.5982 88.0587 56.107 87.7972 55.872C87.6322 55.7239 87.3531 55.7277 87.594 55.5096C87.6474 55.4611 87.7194 55.4129 87.7832 55.3542C87.9331 55.2166 88.4488 55.0903 87.8274 54.9854C87.9886 54.8325 87.8743 54.7107 88.4057 54.5973C88.2783 54.5839 88.1508 54.5706 88.0233 54.5572C88.0202 54.5384 88.017 54.5197 88.0139 54.501C88.1354 54.4951 88.257 54.4893 88.3786 54.4834C88.4113 54.3492 87.9117 54.1788 87.9153 54.0651C87.9209 53.8746 88.115 53.3838 88.2791 53.2031C88.3662 53.1072 88.1058 53.102 88.641 53.0471C88.6038 53.0256 88.5665 53.0042 88.5293 52.9827C88.4121 52.9693 88.2949 52.9558 88.1778 52.9424C88.1731 52.8193 88.3551 52.6734 88.3532 52.5561C88.3495 52.3425 88.027 52.0216 88.2388 51.8071C88.2922 51.7533 88.5339 51.6861 88.5311 51.6334C88.5274 51.5567 88.1264 51.5381 88.1189 51.4408C88.1067 51.2731 88.5726 50.9608 88.5369 50.8023C88.5266 50.7552 88.3774 50.7332 88.3615 50.7007C88.293 50.5644 88.3052 50.4525 88.0746 50.3218C88.4589 50.1815 88.955 50.1936 89.4555 50.1501C89.8333 50.1172 90.7088 50.0161 91.0397 50.0017C91.2722 49.9917 91.5712 50.0293 91.8271 50.0152C92.0314 50.1833 91.8064 50.2539 91.4465 50.3905C91.4608 50.6426 91.4752 50.8947 91.4895 51.1469C91.3499 51.1698 91.2102 51.1928 91.0705 51.2157C91.0702 51.2157 91.0699 51.2157 91.0696 51.2157C90.9084 51.3125 91.2681 51.3536 91.3498 51.4058C92.1315 51.9057 91.5197 52.8897 91.4315 53.4401C91.4128 53.5587 91.601 53.9445 91.3742 54.0259C91.3151 54.0469 91.0997 54.0528 91.0904 54.0752C91.2184 54.2755 91.3465 54.4758 91.4746 54.676C91.1399 55.0879 91.4163 55.5136 91.4679 55.9286C91.6075 57.0513 91.7773 58.1628 91.7257 59.2671C91.7154 59.4806 91.8768 59.7514 91.7727 59.9604C91.7296 60.0476 91.3837 60.0839 91.6415 60.1984C91.5483 60.1996 91.4551 60.2009 91.362 60.2021C91.4745 60.302 91.6865 60.3659 91.708 60.478C91.7258 60.5724 91.7397 60.8221 91.7041 60.9055C91.6863 60.9488 91.5121 60.9326 91.513 60.973C91.5158 61.042 91.7566 61.1896 91.7566 61.2848C91.7566 61.3711 91.556 61.5167 91.585 61.583C91.6882 61.822 91.9855 62.0823 91.9058 62.337C91.8832 62.4073 91.6575 62.4978 91.6638 62.5199C91.6769 62.5629 91.8962 62.5757 91.9244 62.6046C92.0669 62.7514 91.8063 62.9803 91.7959 63.1243C91.7622 63.5933 91.8579 64.0901 91.8176 64.5571C91.7923 64.8521 91.8309 65.3424 91.6659 65.6148C91.6303 65.6735 91.39 65.6579 91.39 65.7072C91.3901 65.7619 91.5524 65.7915 91.5655 65.817C91.6574 65.9939 91.8214 66.3844 91.6555 66.5515C91.6237 66.5833 91.4354 66.6063 91.4361 66.6254C91.4361 66.635 91.5646 66.6568 91.5777 66.6871C91.694 66.9543 91.619 67.1491 91.575 67.411C91.4916 67.9125 91.7306 68.4936 91.6012 69.0204C91.5731 69.1352 91.2007 69.2139 91.2045 69.23C91.212 69.2655 91.4625 69.2881 91.5243 69.3599C91.7277 69.5984 91.4604 69.9196 91.586 70.1465C91.6478 70.2586 91.9657 70.4126 92.0361 70.5229C92.0923 70.611 91.9676 70.819 92.1072 70.8581C92.1915 70.8818 92.4624 70.8928 92.4963 70.9213ZM88.28 67.9535C88.713 67.9692 88.3531 67.8042 88.1207 67.8661C88.0683 67.88 88.1676 67.9494 88.28 67.9535ZM89.0319 60.2303C88.9082 60.2318 88.7845 60.2333 88.6608 60.2348C88.7123 60.2564 88.7638 60.2781 88.8153 60.2997C88.8896 60.2876 88.964 60.2754 89.0384 60.2632C89.0362 60.2522 89.0341 60.2412 89.0319 60.2303Z" fill="#DEE4EA"/>
<path d="M102.935 191.744V195.928H105.22V197.334H102.935V202.186H101.265V191.744H102.935ZM90.8058 196.578C90.7882 194.346 92.5812 192.808 94.9894 192.799C97.4064 192.808 99.173 194.346 99.1906 196.578C99.173 198.819 97.4064 200.366 94.9894 200.357C92.5812 200.366 90.7882 198.819 90.8058 196.578ZM92.0363 206.105C94.9894 205.648 97.2306 203.979 97.2394 201.887V201.43H98.8918V201.887C98.8742 203.979 101.133 205.648 104.112 206.105L103.444 207.424C101.045 207.011 99.0236 205.851 98.0744 204.163C97.1076 205.851 95.0861 207.011 92.6867 207.424L92.0363 206.105ZM92.4406 196.578C92.423 197.993 93.5128 198.942 94.9894 198.934C96.466 198.942 97.547 197.993 97.5558 196.578C97.547 195.172 96.466 194.223 94.9894 194.223C93.5128 194.223 92.423 195.172 92.4406 196.578ZM108.586 204.787L107.18 209.639H105.686L106.618 204.787H108.586ZM122.175 192.729C122.175 196.736 119.424 199.575 114.863 200.867L114.177 199.566C117.816 198.547 120.066 196.587 120.391 194.1H115.003V192.729H122.175ZM116.866 207.283V201.324H127.167V207.283H116.866ZM118.501 205.947H125.515V202.66H118.501V205.947ZM122.245 197.088V195.699H125.497V191.762H127.167V200.674H125.497V197.088H122.245ZM134.049 194.715C134.049 196.49 135.139 198.257 137.178 199.057L136.282 200.34C134.84 199.76 133.812 198.67 133.25 197.343C132.67 198.819 131.597 200.085 130.077 200.744L129.163 199.461C131.29 198.529 132.432 196.499 132.432 194.715V192.693H134.049V194.715ZM131.958 203.451V202.098H142.663V207.494H141.01V203.451H131.958ZM137.688 201.184V192.025H139.235V195.77H141.081V191.762H142.663V201.271H141.081V197.158H139.235V201.184H137.688ZM161.595 191.744V199.76H159.925V198.248H155.935V196.947H159.925V195.242H156.128C155.153 197.686 152.771 199.303 149.29 200.111L148.71 198.74C152.49 197.905 154.529 196.147 154.801 193.836H149.536V192.465H156.638C156.638 192.975 156.594 193.458 156.506 193.924H159.925V191.744H161.595ZM151.294 201.746V200.428H161.595V204.418H152.982V206H162.07V207.336H151.329V203.152H159.925V201.746H151.294ZM172.432 193.432V194.398C172.424 195.726 172.424 197.756 171.975 200.568L170.323 200.445C170.727 197.932 170.771 196.095 170.78 194.785H164.382V193.432H172.432ZM163.503 202.748C164.487 202.739 165.586 202.73 166.737 202.704V197.932H168.389V202.651C170.059 202.581 171.773 202.476 173.346 202.273L173.434 203.521C170.156 204.049 166.491 204.119 163.696 204.102L163.503 202.748ZM174.243 207.494V191.744H175.93V198.248H178.339V199.672H175.93V207.494H174.243ZM191.127 191.744V198.02H193.57V199.408H191.127V207.477H189.457V191.744H191.127ZM178.875 203.275C182.821 201.307 184.966 198.459 185.309 194.785H179.666V193.396H187.014C186.996 197.949 184.992 202.019 179.807 204.576L178.875 203.275ZM201.446 200.973V202.801H203.907V200.973H205.454V207.301H199.882V200.973H201.446ZM198.317 196.051C198.308 193.897 200.04 192.412 202.448 192.412C204.522 192.412 206.131 193.581 206.473 195.348H209.55V191.744H211.219V200.094H209.55V196.719H206.482C206.157 198.521 204.54 199.716 202.448 199.707C200.04 199.716 198.308 198.222 198.317 196.051ZM199.917 196.051C199.908 197.413 200.963 198.345 202.448 198.354C203.907 198.345 204.944 197.413 204.944 196.051C204.944 194.706 203.907 193.792 202.448 193.801C200.963 193.792 199.908 194.706 199.917 196.051ZM201.446 206H203.907V204.066H201.446V206ZM205.542 206.158C207.44 205.376 208.372 203.724 208.372 202.15V200.867H210.024V202.15C210.015 203.803 210.947 205.473 212.889 206.158L212.028 207.424C210.604 206.879 209.681 205.851 209.18 204.603C208.662 205.815 207.739 206.861 206.385 207.424L205.542 206.158ZM217.557 192.922C219.701 192.931 221.257 194.741 221.512 197.65H224.764V191.744H226.416V207.529H224.764V199.004H221.529C221.345 202.08 219.754 203.987 217.557 203.979C215.21 203.987 213.549 201.843 213.567 198.441C213.549 195.075 215.21 192.931 217.557 192.922ZM215.149 198.441C215.157 200.946 216.133 202.484 217.557 202.484C218.981 202.484 219.956 200.946 219.965 198.441C219.956 195.972 218.981 194.425 217.557 194.416C216.133 194.425 215.157 195.972 215.149 198.441ZM242.896 204.137V205.525H228.482V204.137H231.927V200.023C230.635 199.312 229.844 198.187 229.853 196.771C229.844 194.293 232.279 192.667 235.654 192.658C239.038 192.667 241.472 194.293 241.472 196.771C241.472 198.16 240.716 199.276 239.451 199.988V204.137H242.896ZM231.47 196.771C231.47 198.459 233.184 199.558 235.654 199.566C238.106 199.558 239.846 198.459 239.855 196.771C239.846 195.075 238.106 193.994 235.654 193.994C233.184 193.994 231.47 195.075 231.47 196.771ZM233.58 204.137H237.763V200.639C237.122 200.788 236.41 200.867 235.654 200.867C234.915 200.867 234.212 200.788 233.58 200.639V204.137ZM246.579 193.273L246.421 202.326H244.681L244.522 193.273H246.579ZM244.311 204.875C244.303 204.189 244.874 203.627 245.559 203.627C246.236 203.627 246.799 204.189 246.807 204.875C246.799 205.561 246.236 206.114 245.559 206.123C244.874 206.114 244.303 205.561 244.311 204.875ZM118.866 218.744V224.844H121.397V226.215H118.866V234.529H117.196V218.744H118.866ZM107.264 230.609V220.256H114.629V221.609H108.934V229.221C111.58 229.212 113.557 229.098 115.807 228.693L116.018 230.1C113.548 230.539 111.457 230.618 108.53 230.609H107.264ZM127.576 222.752C127.559 225.626 129.299 228.526 131.742 229.607L130.74 230.926C128.93 230.064 127.497 228.298 126.759 226.145C126.029 228.456 124.579 230.354 122.689 231.277L121.67 229.871C124.148 228.772 125.889 225.758 125.889 222.752V220.062H127.576V222.752ZM133.166 234.529V218.744H134.836V234.529H133.166ZM146.807 222.752C146.79 225.626 148.53 228.526 150.973 229.607L149.971 230.926C148.161 230.064 146.728 228.298 145.99 226.145C145.26 228.456 143.81 230.354 141.921 231.277L140.901 229.871C143.38 228.772 145.12 225.758 145.12 222.752V220.062H146.807V222.752ZM152.397 234.529V218.744H154.067V234.529H152.397ZM168.982 226.004V227.34H164.219V231.189H170.635V232.561H156.221V231.189H162.566V227.34H158.014V219.957H168.842V221.311H159.684V226.004H168.982ZM179.204 221.346V222.699H171.382V221.346H174.476V219.201H176.128V221.346H179.204ZM171.892 227.27C171.883 225.151 173.325 223.648 175.302 223.648C177.297 223.648 178.721 225.151 178.73 227.27C178.721 229.423 177.297 230.935 175.302 230.926C173.325 230.935 171.883 229.423 171.892 227.27ZM173.369 227.27C173.36 228.605 174.168 229.502 175.302 229.502C176.436 229.502 177.253 228.605 177.253 227.27C177.253 225.96 176.436 225.046 175.302 225.037C174.168 225.046 173.36 225.96 173.369 227.27ZM179.925 233.756V219.096H181.507V225.301H183.318V218.744H184.9V234.494H183.318V226.672H181.507V233.756H179.925ZM200.975 227.621V228.975H194.577V234.477H192.942V228.975H186.614V227.621H200.975ZM187.423 225.107C190.358 224.703 192.801 222.954 192.854 221.012H187.95V219.676H199.622V221.012H194.753C194.779 222.954 197.205 224.703 200.184 225.107L199.569 226.426C196.985 226.021 194.753 224.747 193.795 222.954C192.828 224.747 190.604 226.021 188.055 226.426L187.423 225.107ZM206.609 223.051C206.609 225.564 207.664 228.245 209.774 229.537L208.842 230.82C207.365 229.933 206.372 228.359 205.827 226.54C205.256 228.535 204.166 230.24 202.637 231.172L201.6 229.924C203.823 228.588 205.001 225.802 204.992 223.121V220.186H206.609V223.051ZM208.068 225.67V224.281H210.512V219.043H212.094V233.721H210.512V225.67H208.068ZM213.764 234.494V218.744H215.363V234.494H213.764ZM231.421 231.137V232.525H217.007V231.137H220.453V227.023C219.161 226.312 218.37 225.187 218.378 223.771C218.37 221.293 220.804 219.667 224.179 219.658C227.563 219.667 229.997 221.293 229.997 223.771C229.997 225.16 229.242 226.276 227.976 226.988V231.137H231.421ZM219.996 223.771C219.996 225.459 221.709 226.558 224.179 226.566C226.631 226.558 228.372 225.459 228.38 223.771C228.372 222.075 226.631 220.994 224.179 220.994C221.709 220.994 219.996 222.075 219.996 223.771ZM222.105 231.137H226.289V227.639C225.647 227.788 224.935 227.867 224.179 227.867C223.441 227.867 222.738 227.788 222.105 227.639V231.137Z" fill="#B6C2CF"/>
</svg>
