<svg width="24" height="24" viewBox="0 0 24 24" fill="none" xmlns="http://www.w3.org/2000/svg">
<path d="M6 19C7.65685 19 9 17.6569 9 16C9 14.3431 7.65685 13 6 13C4.34315 13 3 14.3431 3 16C3 17.6569 4.34315 19 6 19Z" fill="#DEE4EA"/>
<path d="M17.5332 5.36048L15.4272 8.93572C15.1458 9.41115 15.4976 10.0078 16.058 10.0078H20.2699C20.8304 10.0078 21.1822 9.41115 20.9007 8.93572L18.7948 5.36048C18.5133 4.88505 17.8122 4.88505 17.5307 5.36048H17.5332Z" fill="#DEE4EA"/>
<path d="M5.91895 10.5055V8.27569C5.91895 6.46668 7.28975 5 8.98081 5C10.6719 5 12.0427 6.46668 12.0427 8.27569V14.8699C12.0427 16.6789 13.4135 18.1456 15.1045 18.1456C16.7956 18.1456 18.1664 16.6789 18.1664 14.8699V12.6401" stroke="#B6C2CF" stroke-width="1.28842" stroke-linecap="round" stroke-linejoin="round"/>
</svg>
