<svg width="170" height="170" viewBox="0 0 170 170" fill="none" xmlns="http://www.w3.org/2000/svg">
<g clip-path="url(#clip0_1864_30712)">
<rect width="170" height="170" rx="10" fill="#F0F5FA"/>
<g filter="url(#filter0_d_1864_30712)">
<rect x="12" y="12" width="55" height="28" rx="8" fill="white" shape-rendering="crispEdges"/>
<path d="M32.5048 32.0009H29.2136C28.8279 32.0009 28.5097 31.7089 28.476 31.3269L27.7533 23.1644C27.7159 22.7301 28.0566 22.3594 28.4909 22.3594H33.2275C33.6618 22.3594 34.0025 22.7338 33.9651 23.1644L33.2424 31.3269C33.2087 31.7089 32.8867 32.0009 32.5048 32.0009Z" fill="#FFAA34"/>
<path d="M24.8891 23.0293C22.5377 23.0293 20.572 24.5083 20.0703 26.4928C19.9429 27.002 20.3623 27.485 20.9389 27.485H28.8356C29.4122 27.485 29.8354 26.9982 29.7043 26.4928C29.2026 24.5083 27.2368 23.0293 24.8854 23.0293H24.8891Z" fill="#FFC470"/>
<path d="M28.7606 29.7422H21.0137C20.5339 29.7422 20.145 30.1311 20.145 30.6109V31.1313C20.145 31.6111 20.5339 32 21.0137 32H28.7606C29.2404 32 29.6293 31.6111 29.6293 31.1313V30.6109C29.6293 30.1311 29.2404 29.7422 28.7606 29.7422Z" fill="#FFC470"/>
<path d="M28.7606 27.4863H21.0137C20.5339 27.4863 20.145 27.8752 20.145 28.355V28.8755C20.145 29.3552 20.5339 29.7441 21.0137 29.7441H28.7606C29.2404 29.7441 29.6293 29.3552 29.6293 28.8755V28.355C29.6293 27.8752 29.2404 27.4863 28.7606 27.4863Z" fill="#FFE2B8"/>
<path d="M30.7563 23.0307L31.1046 20.7467C31.1682 20.3386 31.5164 20.0391 31.9283 20.0391H33.9689" stroke="#FFAA34" stroke-width="1.13826" stroke-linecap="round" stroke-linejoin="round"/>
<path d="M43.168 21.2656C45.4355 21.2656 46.8418 21.998 46.8477 23.2461C46.8418 24.4766 45.4355 25.1973 43.168 25.1914C40.9004 25.1973 39.4766 24.4766 39.4766 23.2461C39.4766 21.998 40.9004 21.2656 43.168 21.2656ZM38.4219 26.8555V26.0938H47.9141V26.8555H38.4219ZM39.582 31.3086V27.8867H46.7539V31.3086H39.582ZM40.4258 23.2461C40.4199 24.002 41.4805 24.459 43.168 24.4648C44.8379 24.459 45.9043 24.002 45.9102 23.2461C45.9043 22.4668 44.8379 22.0039 43.168 22.0039C41.4805 22.0039 40.4199 22.4668 40.4258 23.2461ZM40.4961 30.5586H45.8516V28.625H40.4961V30.5586ZM52.0044 22.543C51.9927 24.0605 53.0942 25.4141 54.6411 25.9531L54.1723 26.6797C52.9653 26.2344 52.0102 25.3379 51.5415 24.1836C51.0845 25.4199 50.1235 26.3926 48.8989 26.8672L48.4184 26.1406C49.977 25.5605 51.0669 24.1191 51.0669 22.543V21.5469H52.0044V22.543ZM49.9067 28.5898V27.8281H56.9145V31.4492H56.0005V28.5898H49.9067ZM56.0005 27.3125V21.0312H56.9145V27.3125H56.0005Z" fill="#2C333A"/>
</g>
<g clip-path="url(#clip1_1864_30712)">
<rect width="170" height="170" rx="10" fill="#DEE4EA"/>
<g filter="url(#filter1_d_1864_30712)">
<rect x="12" y="12" width="55" height="28" rx="8" fill="white" shape-rendering="crispEdges"/>
<path d="M32.5048 32.0009H29.2136C28.8279 32.0009 28.5097 31.7089 28.476 31.3269L27.7533 23.1644C27.7159 22.7301 28.0566 22.3594 28.4909 22.3594H33.2275C33.6618 22.3594 34.0025 22.7338 33.9651 23.1644L33.2424 31.3269C33.2087 31.7089 32.8867 32.0009 32.5048 32.0009Z" fill="#FFAA34"/>
<path d="M24.8891 23.0293C22.5377 23.0293 20.572 24.5083 20.0703 26.4928C19.9429 27.002 20.3623 27.485 20.9389 27.485H28.8356C29.4122 27.485 29.8354 26.9982 29.7043 26.4928C29.2026 24.5083 27.2368 23.0293 24.8854 23.0293H24.8891Z" fill="#FFC470"/>
<path d="M28.7606 29.7422H21.0137C20.5339 29.7422 20.145 30.1311 20.145 30.6109V31.1313C20.145 31.6111 20.5339 32 21.0137 32H28.7606C29.2404 32 29.6293 31.6111 29.6293 31.1313V30.6109C29.6293 30.1311 29.2404 29.7422 28.7606 29.7422Z" fill="#FFC470"/>
<path d="M28.7606 27.4863H21.0137C20.5339 27.4863 20.145 27.8752 20.145 28.355V28.8755C20.145 29.3552 20.5339 29.7441 21.0137 29.7441H28.7606C29.2404 29.7441 29.6293 29.3552 29.6293 28.8755V28.355C29.6293 27.8752 29.2404 27.4863 28.7606 27.4863Z" fill="#FFE2B8"/>
<path d="M30.7563 23.0307L31.1046 20.7467C31.1682 20.3386 31.5164 20.0391 31.9283 20.0391H33.9689" stroke="#FFAA34" stroke-width="1.13826" stroke-linecap="round" stroke-linejoin="round"/>
<path d="M43.168 21.2656C45.4355 21.2656 46.8418 21.998 46.8477 23.2461C46.8418 24.4766 45.4355 25.1973 43.168 25.1914C40.9004 25.1973 39.4766 24.4766 39.4766 23.2461C39.4766 21.998 40.9004 21.2656 43.168 21.2656ZM38.4219 26.8555V26.0938H47.9141V26.8555H38.4219ZM39.582 31.3086V27.8867H46.7539V31.3086H39.582ZM40.4258 23.2461C40.4199 24.002 41.4805 24.459 43.168 24.4648C44.8379 24.459 45.9043 24.002 45.9102 23.2461C45.9043 22.4668 44.8379 22.0039 43.168 22.0039C41.4805 22.0039 40.4199 22.4668 40.4258 23.2461ZM40.4961 30.5586H45.8516V28.625H40.4961V30.5586ZM52.0044 22.543C51.9927 24.0605 53.0942 25.4141 54.6411 25.9531L54.1723 26.6797C52.9653 26.2344 52.0102 25.3379 51.5415 24.1836C51.0845 25.4199 50.1235 26.3926 48.8989 26.8672L48.4184 26.1406C49.977 25.5605 51.0669 24.1191 51.0669 22.543V21.5469H52.0044V22.543ZM49.9067 28.5898V27.8281H56.9145V31.4492H56.0005V28.5898H49.9067ZM56.0005 27.3125V21.0312H56.9145V27.3125H56.0005Z" fill="#2C333A"/>
</g>
<g clip-path="url(#clip2_1864_30712)">
<path d="M116.024 154.427L98.8405 128.443C97.9812 127.141 96.2305 126.784 94.9302 127.647L52.2307 155.885L46.8778 159.423C32.882 168.68 29.0404 187.526 38.297 201.521L41.8347 206.874L51.6012 221.639C53.6026 224.668 57.6801 225.499 60.7085 223.497L80.4387 210.452C83.4672 208.45 84.2978 204.373 82.2964 201.344L74.0871 188.932C73.2278 187.63 73.5851 185.879 74.883 185.022L115.229 158.341C116.531 157.482 116.889 155.731 116.025 154.431L116.024 154.427Z" fill="#A7B6C5"/>
<path d="M120.849 121.558C110.252 121.901 101.971 131.736 102.352 143.526C102.734 155.316 111.634 164.595 122.231 164.252L128.111 164.062C138.708 163.719 146.989 153.883 146.608 142.094C146.226 130.304 137.326 121.025 126.729 121.367L120.849 121.558Z" fill="#B3C1CF"/>
<path d="M161.715 220.448C160.238 220.448 158.862 219.511 158.373 218.034L146.159 181.256C146.141 181.201 146.127 181.151 146.109 181.096C144.796 176.414 140.484 173.149 135.624 173.149H53.8097C51.8617 173.149 50.2842 171.571 50.2842 169.623C50.2842 167.675 51.8617 166.098 53.8097 166.098H135.624C143.603 166.098 150.681 171.443 152.872 179.111L165.062 215.812C165.675 217.659 164.674 219.653 162.826 220.27C162.456 220.393 162.081 220.448 161.715 220.448Z" fill="#75879B"/>
<path d="M138.567 155.816L116.537 133.088C115.435 131.951 113.623 131.935 112.495 133.051L75.4232 169.715L70.7753 174.311C58.6257 186.328 58.397 205.996 70.2623 218.237L74.8005 222.92L87.3179 235.838C89.8866 238.485 94.0971 238.525 96.725 235.924L113.851 218.982C116.479 216.381 116.529 212.128 113.961 209.48L103.438 198.625C102.336 197.488 102.357 195.662 103.485 194.542L138.511 159.898C139.639 158.782 139.659 156.952 138.558 155.815L138.567 155.816Z" fill="#B3C1CF"/>
<path d="M120.663 83.7109H80.3322C62.629 83.7109 48.2778 98.0622 48.2778 115.765C48.2778 133.468 62.629 147.82 80.3322 147.82H120.663C138.366 147.82 152.717 133.468 152.717 115.765C152.717 98.0622 138.366 83.7109 120.663 83.7109Z" fill="#8FA0B2"/>
<path d="M42.4936 221.429C42.2375 221.429 41.9768 221.402 41.7162 221.342C39.8186 220.917 38.6251 219.028 39.0503 217.131L53.564 152.601C53.9892 150.704 55.8777 149.51 57.7754 149.936C59.673 150.361 60.8665 152.249 60.4412 154.147L45.9276 218.676C45.5572 220.313 44.1031 221.429 42.4936 221.429Z" fill="#75879B"/>
<path d="M59.8148 157C58.0876 157 56.3498 156.65 54.7182 155.945C50.9768 154.335 48.2026 151.007 47.2939 147.043L45.742 140.271C45.3966 138.761 44.3231 137.531 42.8722 136.975L29.6285 131.899C27.5186 131.088 26.461 128.724 27.2741 126.621C28.0873 124.517 30.4575 123.463 32.5674 124.273L45.8111 129.35C49.8129 130.881 52.7731 134.288 53.7244 138.453L55.2762 145.226C55.6057 146.662 56.6102 147.865 57.9654 148.453C59.3737 149.062 60.9946 148.935 62.2967 148.119L71.0922 142.592C74.0896 140.711 77.7725 140.144 81.2004 141.039L96.9419 145.151C99.1315 145.724 100.439 147.955 99.8649 150.138C99.2909 152.321 97.0535 153.63 94.8639 153.052L79.1224 148.94C77.8841 148.617 76.5449 148.818 75.4607 149.502L66.6652 155.029C64.5819 156.338 62.2063 157 59.8148 157Z" fill="#75879B"/>
<path d="M100.943 68.3832L85.6611 72.1113L89.5085 87.8817L104.79 84.1536L100.943 68.3832Z" fill="#F2F9FF"/>
<path d="M118.326 57.973V60.7395C118.326 73.4286 108.042 83.7125 95.3527 83.7125C82.6636 83.7125 72.3843 73.4286 72.3843 60.7395V57.973C72.3843 57.0036 72.4437 56.0434 72.5626 55.1014C73.6921 46.0155 80.1349 38.5804 88.6766 35.9831C90.7892 35.3429 93.0298 35 95.3527 35C96.0386 35 96.72 35.032 97.3967 35.0915C102.925 35.5762 107.891 38.018 111.599 41.7264C114.695 44.8221 116.904 48.7957 117.836 53.2358C118.157 54.763 118.326 56.3497 118.326 57.973Z" fill="#F2F9FF"/>
<path d="M90.4461 61.8074L89.4447 63.545C89.0652 64.1989 89.6139 64.9716 90.4598 64.9716H92.545C93.4046 64.9716 93.9533 64.1714 93.5418 63.5175L92.4581 61.7799C92.0191 61.0803 90.8576 61.094 90.4461 61.8074Z" fill="#B0C2D1"/>
<path d="M86.6586 60.9149C87.7446 60.9149 88.6249 60.0346 88.6249 58.9487C88.6249 57.8627 87.7446 56.9824 86.6586 56.9824C85.5727 56.9824 84.6924 57.8627 84.6924 58.9487C84.6924 60.0346 85.5727 60.9149 86.6586 60.9149Z" fill="#738591"/>
<path d="M96.3442 60.9149C97.4301 60.9149 98.3104 60.0346 98.3104 58.9487C98.3104 57.8627 97.4301 56.9824 96.3442 56.9824C95.2582 56.9824 94.3779 57.8627 94.3779 58.9487C94.3779 60.0346 95.2582 60.9149 96.3442 60.9149Z" fill="#738591"/>
<path d="M111.605 41.7264C107.896 38.018 102.93 35.5762 97.402 35.0915C96.7298 35.032 96.0485 35 95.358 35C93.0351 35 90.7945 35.3475 88.6819 35.9831C80.1402 38.5758 73.6973 46.011 72.5679 55.1014C73.4504 55.17 74.3421 55.1883 75.2474 55.1517C82.71 54.8773 88.0143 52.6459 92.0474 47.0169C96.4874 52.5407 104.595 54.4201 112.217 54.1366C114.17 54.068 116.049 53.7525 117.842 53.2358C116.909 48.7911 114.7 44.8221 111.605 41.7264Z" fill="#75879B"/>
<path d="M72.1734 68.2258C75.8025 68.2258 78.7444 65.2839 78.7444 61.6549C78.7444 58.0259 75.8025 55.084 72.1734 55.084C68.5444 55.084 65.6025 58.0259 65.6025 61.6549C65.6025 65.2839 68.5444 68.2258 72.1734 68.2258Z" fill="#F2F9FF"/>
<path d="M119.705 65.925C123.334 65.925 126.276 62.9831 126.276 59.3541C126.276 55.7251 123.334 52.7832 119.705 52.7832C116.076 52.7832 113.134 55.7251 113.134 59.3541C113.134 62.9831 116.076 65.925 119.705 65.925Z" fill="#F2F9FF"/>
<path d="M86.5399 111H49.0898V136.813H86.5399V111Z" fill="#8FA0B2"/>
<path d="M97.1482 93.853C101.492 93.853 105.013 90.3317 105.013 85.988C105.013 81.6443 101.492 78.123 97.1482 78.123C92.8045 78.123 89.2832 81.6443 89.2832 85.988C89.2832 90.3317 92.8045 93.853 97.1482 93.853Z" fill="#F2F9FF"/>
<path d="M49.0915 136.812C56.3218 136.812 62.183 131.035 62.183 123.908C62.183 116.781 56.3218 111.004 49.0915 111.004C41.8613 111.004 36 116.781 36 123.908C36 131.035 41.8613 136.812 49.0915 136.812Z" fill="#F2F9FF"/>
<path d="M80.2815 146.974C87.5117 146.974 93.373 141.197 93.373 134.07C93.373 126.943 87.5117 121.166 80.2815 121.166C73.0512 121.166 67.1899 126.943 67.1899 134.07C67.1899 141.197 73.0512 146.974 80.2815 146.974Z" fill="#F2F9FF"/>
<rect x="135" y="66" width="28.4241" height="3.66763" rx="1.83381" fill="#CAD6E0"/>
<rect x="135" y="75.168" width="17.4212" height="3.66763" rx="1.83381" fill="#CAD6E0"/>
</g>
<g clip-path="url(#clip3_1864_30712)">
<rect width="170" height="170" rx="8.33333" fill="#F7F9FC"/>
<g filter="url(#filter2_d_1864_30712)">
<rect x="10" y="10" width="45.3333" height="23.3333" rx="6.66667" fill="white" shape-rendering="crispEdges"/>
<path d="M27.0884 26.6674H24.3457C24.0243 26.6674 23.7591 26.424 23.731 26.1058L23.1288 19.3037C23.0976 18.9417 23.3816 18.6328 23.7435 18.6328H27.6906C28.0526 18.6328 28.3365 18.9448 28.3053 19.3037L27.7031 26.1058C27.675 26.424 27.4067 26.6674 27.0884 26.6674Z" fill="#FFAA34"/>
<path d="M20.7418 19.1914C18.7823 19.1914 17.1442 20.4239 16.7261 22.0776C16.62 22.502 16.9695 22.9045 17.45 22.9045H24.0306C24.5111 22.9045 24.8637 22.4989 24.7545 22.0776C24.3364 20.4239 22.6982 19.1914 20.7387 19.1914H20.7418Z" fill="#FFC470"/>
<path d="M23.9682 24.7852H17.5125C17.1127 24.7852 16.7886 25.1093 16.7886 25.5091V25.9428C16.7886 26.3426 17.1127 26.6667 17.5125 26.6667H23.9682C24.368 26.6667 24.6921 26.3426 24.6921 25.9428V25.5091C24.6921 25.1093 24.368 24.7852 23.9682 24.7852Z" fill="#FFC470"/>
<path d="M23.9682 22.9043H17.5125C17.1127 22.9043 16.7886 23.2284 16.7886 23.6282V24.0619C16.7886 24.4617 17.1127 24.7858 17.5125 24.7858H23.9682C24.368 24.7858 24.6921 24.4617 24.6921 24.0619V23.6282C24.6921 23.2284 24.368 22.9043 23.9682 22.9043Z" fill="#FFE2B8"/>
<path d="M25.6313 19.1923L25.9215 17.2889C25.9746 16.9488 26.2648 16.6992 26.608 16.6992H28.3085" stroke="#FFAA34" stroke-width="0.948552" stroke-linecap="round" stroke-linejoin="round"/>
<path d="M35.9731 17.4707C37.8628 17.4707 39.0347 18.0811 39.0396 19.1211C39.0347 20.1465 37.8628 20.7471 35.9731 20.7422C34.0835 20.7471 32.897 20.1465 32.897 19.1211C32.897 18.0811 34.0835 17.4707 35.9731 17.4707ZM32.0181 22.1289V21.4941H39.9282V22.1289H32.0181ZM32.9849 25.8398V22.9883H38.9614V25.8398H32.9849ZM33.688 19.1211C33.6831 19.751 34.5669 20.1318 35.9731 20.1367C37.3647 20.1318 38.2534 19.751 38.2583 19.1211C38.2534 18.4717 37.3647 18.0859 35.9731 18.0859C34.5669 18.0859 33.6831 18.4717 33.688 19.1211ZM33.7466 25.2148H38.2095V23.6035H33.7466V25.2148ZM43.3368 18.5352C43.3271 19.7998 44.245 20.9277 45.5341 21.377L45.1435 21.9824C44.1376 21.6113 43.3417 20.8643 42.9511 19.9023C42.5702 20.9326 41.7694 21.7432 40.7489 22.1387L40.3485 21.5332C41.6474 21.0498 42.5556 19.8486 42.5556 18.5352V17.7051H43.3368V18.5352ZM41.5888 23.5742V22.9395H47.4286V25.957H46.6669V23.5742H41.5888ZM46.6669 22.5098V17.2754H47.4286V22.5098H46.6669Z" fill="#2C333A"/>
</g>
<g clip-path="url(#clip4_1864_30712)">
<rect width="170" height="170" rx="8.33333" fill="#F0F5FA"/>
<g filter="url(#filter3_d_1864_30712)">
<rect x="10" y="10" width="45.3333" height="23.3333" rx="6.66667" fill="white" shape-rendering="crispEdges"/>
<path d="M27.0884 26.6674H24.3457C24.0243 26.6674 23.7591 26.424 23.731 26.1058L23.1288 19.3037C23.0976 18.9417 23.3816 18.6328 23.7435 18.6328H27.6906C28.0526 18.6328 28.3365 18.9448 28.3053 19.3037L27.7031 26.1058C27.675 26.424 27.4067 26.6674 27.0884 26.6674Z" fill="#FFAA34"/>
<path d="M20.7418 19.1914C18.7823 19.1914 17.1442 20.4239 16.7261 22.0776C16.62 22.502 16.9695 22.9045 17.45 22.9045H24.0306C24.5111 22.9045 24.8637 22.4989 24.7545 22.0776C24.3364 20.4239 22.6982 19.1914 20.7387 19.1914H20.7418Z" fill="#FFC470"/>
<path d="M23.9682 24.7852H17.5125C17.1127 24.7852 16.7886 25.1093 16.7886 25.5091V25.9428C16.7886 26.3426 17.1127 26.6667 17.5125 26.6667H23.9682C24.368 26.6667 24.6921 26.3426 24.6921 25.9428V25.5091C24.6921 25.1093 24.368 24.7852 23.9682 24.7852Z" fill="#FFC470"/>
<path d="M23.9682 22.9043H17.5125C17.1127 22.9043 16.7886 23.2284 16.7886 23.6282V24.0619C16.7886 24.4617 17.1127 24.7858 17.5125 24.7858H23.9682C24.368 24.7858 24.6921 24.4617 24.6921 24.0619V23.6282C24.6921 23.2284 24.368 22.9043 23.9682 22.9043Z" fill="#FFE2B8"/>
<path d="M25.6313 19.1923L25.9215 17.2889C25.9746 16.9488 26.2648 16.6992 26.608 16.6992H28.3085" stroke="#FFAA34" stroke-width="0.948552" stroke-linecap="round" stroke-linejoin="round"/>
<path d="M35.9731 17.4707C37.8628 17.4707 39.0347 18.0811 39.0396 19.1211C39.0347 20.1465 37.8628 20.7471 35.9731 20.7422C34.0835 20.7471 32.897 20.1465 32.897 19.1211C32.897 18.0811 34.0835 17.4707 35.9731 17.4707ZM32.0181 22.1289V21.4941H39.9282V22.1289H32.0181ZM32.9849 25.8398V22.9883H38.9614V25.8398H32.9849ZM33.688 19.1211C33.6831 19.751 34.5669 20.1318 35.9731 20.1367C37.3647 20.1318 38.2534 19.751 38.2583 19.1211C38.2534 18.4717 37.3647 18.0859 35.9731 18.0859C34.5669 18.0859 33.6831 18.4717 33.688 19.1211ZM33.7466 25.2148H38.2095V23.6035H33.7466V25.2148ZM43.3368 18.5352C43.3271 19.7998 44.245 20.9277 45.5341 21.377L45.1435 21.9824C44.1376 21.6113 43.3417 20.8643 42.9511 19.9023C42.5702 20.9326 41.7694 21.7432 40.7489 22.1387L40.3485 21.5332C41.6474 21.0498 42.5556 19.8486 42.5556 18.5352V17.7051H43.3368V18.5352ZM41.5888 23.5742V22.9395H47.4286V25.957H46.6669V23.5742H41.5888ZM46.6669 22.5098V17.2754H47.4286V22.5098H46.6669Z" fill="#2C333A"/>
</g>
<rect width="170" height="170" rx="8.33333" fill="#DEE4EA"/>
</g>
<g clip-path="url(#clip5_1864_30712)">
<path d="M87.8496 28.827C87.7901 28.221 87.2506 27.778 86.6446 27.8375C86.0386 27.8971 85.5956 28.4366 85.6551 29.0426C85.7147 29.6485 86.2542 30.0915 86.8602 30.032C87.4662 29.9725 87.9092 29.433 87.8496 28.827Z" fill="#8598A2"/>
<path d="M95.0244 36.6602L101.65 36.0093C102.286 35.9468 102.851 36.4105 102.914 37.0466C102.976 37.6827 102.512 38.2473 101.876 38.3098L95.2504 38.9607L95.0244 36.6602Z" fill="#8598A2"/>
<path d="M97.4931 40.9501L97.6076 42.1299C97.8979 45.078 96.8513 47.8476 94.9685 49.8449C94.2494 50.6092 93.4079 51.259 92.4731 51.7624C91.3599 52.3589 90.1136 52.7504 88.7767 52.8835C88.6809 52.8942 88.5876 52.9022 88.4944 52.9075C87.1602 52.998 85.866 52.8196 84.6676 52.4175C81.115 51.2138 78.4172 48.0287 78.0258 44.0553L77.9113 42.8756C77.8713 42.4628 77.858 42.05 77.866 41.6452C77.9672 37.7225 80.4039 34.2871 83.9352 32.8223C84.806 32.4602 85.7461 32.2205 86.7368 32.1246C87.0271 32.0953 87.32 32.0767 87.6103 32.0767C89.9858 32.0527 92.2068 32.8863 93.9405 34.311C94.1322 34.4681 94.316 34.6333 94.4944 34.8037C95.6715 35.9302 96.5743 37.3443 97.0803 38.9581C97.1602 39.2111 97.2294 39.4668 97.2907 39.7331C97.3812 40.1299 97.4478 40.54 97.4878 40.9555L97.4931 40.9501Z" fill="#CAD6E0"/>
<path d="M82.2774 42.9341L82.2881 43.0379C82.3227 43.3974 82.1336 43.7277 81.8353 43.8874C81.7368 43.9407 81.6276 43.9753 81.5104 43.986C81.5024 43.986 81.4945 43.986 81.4865 43.986C81.3693 43.994 81.2548 43.978 81.1482 43.9434C80.834 43.8368 80.597 43.5572 80.5624 43.2057L80.5517 43.1018C80.5491 43.0645 80.5464 43.0299 80.5464 42.9926C80.5544 42.6464 80.7701 42.3428 81.0817 42.215C81.1589 42.1831 81.2415 42.1618 81.3293 42.1538C81.356 42.1538 81.3799 42.1484 81.4066 42.1484C81.617 42.1484 81.8114 42.2203 81.9658 42.3455C82.0937 42.4494 82.1922 42.5905 82.2428 42.7556C82.2508 42.7769 82.2561 42.8009 82.2614 42.8249C82.2694 42.8595 82.2747 42.8968 82.2801 42.9314L82.2774 42.9341Z" fill="#8598A2"/>
<path d="M78.0312 44.0527L77.3974 44.114C76.902 44.1619 76.5718 44.6386 76.6916 45.1206C77.2908 47.5281 80.5025 53.6932 88.7795 52.8809L78.0312 44.0527Z" fill="#CAD6E0"/>
<path d="M94.5728 56.9673H86.7672L84.1733 48.9434H91.9789L94.5728 56.9673Z" fill="#CAD6E0"/>
<path d="M92.824 74.7115L63.751 79.6445L66.0159 92.993L95.0889 88.06L92.824 74.7115Z" fill="#8598A2"/>
<path d="M97.3579 59.4802L103.606 87.2164L89.2674 85.6106L75.2275 79.5493L84.4073 58.2871" fill="#8598A2"/>
<path d="M51.9376 147.001C40.6833 147.001 31.5249 137.845 31.5249 126.588C31.5249 115.332 40.6807 106.176 51.9376 106.176C63.1946 106.176 72.3503 115.332 72.3503 126.588C72.3503 137.845 63.1946 147.001 51.9376 147.001ZM51.9376 109.64C42.5928 109.64 34.9869 117.244 34.9869 126.591C34.9869 135.939 42.5901 143.542 51.9376 143.542C61.2851 143.542 68.8883 135.939 68.8883 126.591C68.8883 117.244 61.2851 109.64 51.9376 109.64Z" fill="#8598A2"/>
<path d="M117.281 147.001C106.027 147.001 96.8682 137.845 96.8682 126.588C96.8682 115.332 106.024 106.176 117.281 106.176C128.538 106.176 137.694 115.332 137.694 126.588C137.694 137.845 128.538 147.001 117.281 147.001ZM117.281 109.64C107.936 109.64 100.33 117.244 100.33 126.591C100.33 135.939 107.933 143.542 117.281 143.542C126.628 143.542 134.232 135.939 134.232 126.591C134.232 117.244 126.628 109.64 117.281 109.64Z" fill="#8598A2"/>
<path d="M51.7017 126.59L58.711 93.3496" stroke="#ACBDC6" stroke-width="3.19573" stroke-miterlimit="10" stroke-linecap="round"/>
<path d="M57.146 100.764H106.754L117.282 126.588" stroke="#ACBDC6" stroke-width="3.19573" stroke-linecap="round" stroke-linejoin="round"/>
<path d="M97.0022 63.7243C98.4823 60.2958 96.8623 56.2991 93.3838 54.7974C89.9053 53.2958 85.8856 54.8578 84.4055 58.2863C82.9254 61.7148 84.5454 65.7115 88.0239 67.2131C91.5024 68.7148 95.5221 67.1528 97.0022 63.7243Z" fill="#8598A2"/>
<path d="M102.639 84.3209C100.652 81.016 96.3616 79.9481 93.0567 81.9348L81.7625 88.7257L75.8531 92.2783C72.5082 94.2889 71.4243 98.6324 73.4376 101.98L76.9902 107.889L85.371 121.828L97.339 114.632L88.9582 100.694L100.252 93.9028C103.557 91.9161 104.625 87.6258 102.639 84.3209Z" fill="#F1F7FD"/>
<path d="M85.3748 121.825C85.175 124.181 83.3961 126.956 81.9154 128.799L81.1111 129.803C80.2749 130.845 80.1764 132.296 80.8635 133.438C81.7689 134.946 83.7263 135.433 85.2363 134.528L90.9486 131.095L101.055 125.018C102.083 124.4 102.416 123.066 101.798 122.038L97.3454 114.629L85.3774 121.825H85.3748Z" fill="#ACBDC6"/>
<path d="M100.756 125.189L90.5244 131.341C90.1186 131.585 89.9874 132.112 90.2315 132.518L91.0412 133.865C91.2852 134.27 91.8121 134.402 92.218 134.158L102.449 128.005C102.855 127.761 102.986 127.234 102.742 126.828L101.933 125.482C101.688 125.076 101.162 124.945 100.756 125.189Z" fill="#7B8E9B"/>
<path d="M59.8705 80.5566H57.5482C56.454 80.5566 55.5669 81.4437 55.5669 82.538V92.3542C55.5669 93.4485 56.454 94.3356 57.5482 94.3356H59.8705C60.9647 94.3356 61.8518 93.4485 61.8518 92.3542V82.538C61.8518 81.4437 60.9647 80.5566 59.8705 80.5566Z" fill="#8598A2"/>
<path d="M98.2934 40.8153L98.4079 41.9951C98.6982 44.9431 97.364 47.742 95.0258 49.782L87.5371 36.9352L94.7754 34.7168C96.1869 35.8193 97.2574 37.2175 97.838 38.8233C97.9312 39.0736 98.0084 39.332 98.0777 39.5956C98.1789 39.9924 98.2508 40.3999 98.2934 40.8153Z" fill="#8598A2"/>
<path d="M66.0145 92.9859C69.7499 92.3521 72.2716 88.8536 71.6469 85.1719C71.0222 81.4902 67.4876 79.0194 63.7523 79.6532C60.0169 80.287 57.4952 83.7854 58.1199 87.4671C58.7446 91.1488 62.2791 93.6197 66.0145 92.9859Z" fill="#CAD6E0"/>
<path d="M98.3569 38.6566L76.8416 40.7684C76.7884 40.2278 76.7777 39.6952 76.8017 39.1705C76.8363 38.4622 76.9402 37.7644 77.1079 37.0933C78.1838 32.7844 81.8696 29.4129 86.5433 28.9549C92.4821 28.3716 97.771 32.7125 98.3569 38.6539V38.6566Z" fill="#A5B7C2"/>
<path d="M80.7127 37.7669C80.7393 38.0439 80.6514 38.3102 80.4836 38.5126C80.3212 38.715 80.0788 38.8535 79.7966 38.8801L76.8032 39.173C76.8378 38.4646 76.9417 37.7669 77.1095 37.0958L79.5968 36.8508C80.1561 36.7949 80.6567 37.205 80.71 37.7643L80.7127 37.7669Z" fill="#CAD6E0"/>
<path d="M91.8855 46.7622C93.5166 46.7622 94.8389 45.44 94.8389 43.8089C94.8389 42.1777 93.5166 40.8555 91.8855 40.8555C90.2544 40.8555 88.9321 42.1777 88.9321 43.8089C88.9321 45.44 90.2544 46.7622 91.8855 46.7622Z" fill="#CAD6E0"/>
<rect x="105.592" y="58.0801" width="13.3079" height="2.41961" rx="1.20981" fill="#CAD6E0"/>
<rect x="105.592" y="63.5254" width="19.3569" height="2.41961" rx="1.20981" fill="#CAD6E0"/>
</g>
</g>
</g>
</g>
<defs>
<filter id="filter0_d_1864_30712" x="-8" y="-2" width="95" height="68" filterUnits="userSpaceOnUse" color-interpolation-filters="sRGB">
<feFlood flood-opacity="0" result="BackgroundImageFix"/>
<feColorMatrix in="SourceAlpha" type="matrix" values="0 0 0 0 0 0 0 0 0 0 0 0 0 0 0 0 0 0 127 0" result="hardAlpha"/>
<feOffset dy="6"/>
<feGaussianBlur stdDeviation="10"/>
<feComposite in2="hardAlpha" operator="out"/>
<feColorMatrix type="matrix" values="0 0 0 0 0 0 0 0 0 0 0 0 0 0 0 0 0 0 0.02 0"/>
<feBlend mode="normal" in2="BackgroundImageFix" result="effect1_dropShadow_1864_30712"/>
<feBlend mode="normal" in="SourceGraphic" in2="effect1_dropShadow_1864_30712" result="shape"/>
</filter>
<filter id="filter1_d_1864_30712" x="-8" y="-2" width="95" height="68" filterUnits="userSpaceOnUse" color-interpolation-filters="sRGB">
<feFlood flood-opacity="0" result="BackgroundImageFix"/>
<feColorMatrix in="SourceAlpha" type="matrix" values="0 0 0 0 0 0 0 0 0 0 0 0 0 0 0 0 0 0 127 0" result="hardAlpha"/>
<feOffset dy="6"/>
<feGaussianBlur stdDeviation="10"/>
<feComposite in2="hardAlpha" operator="out"/>
<feColorMatrix type="matrix" values="0 0 0 0 0 0 0 0 0 0 0 0 0 0 0 0 0 0 0.02 0"/>
<feBlend mode="normal" in2="BackgroundImageFix" result="effect1_dropShadow_1864_30712"/>
<feBlend mode="normal" in="SourceGraphic" in2="effect1_dropShadow_1864_30712" result="shape"/>
</filter>
<filter id="filter2_d_1864_30712" x="-10" y="-4" width="85.3335" height="63.334" filterUnits="userSpaceOnUse" color-interpolation-filters="sRGB">
<feFlood flood-opacity="0" result="BackgroundImageFix"/>
<feColorMatrix in="SourceAlpha" type="matrix" values="0 0 0 0 0 0 0 0 0 0 0 0 0 0 0 0 0 0 127 0" result="hardAlpha"/>
<feOffset dy="6"/>
<feGaussianBlur stdDeviation="10"/>
<feComposite in2="hardAlpha" operator="out"/>
<feColorMatrix type="matrix" values="0 0 0 0 0 0 0 0 0 0 0 0 0 0 0 0 0 0 0.02 0"/>
<feBlend mode="normal" in2="BackgroundImageFix" result="effect1_dropShadow_1864_30712"/>
<feBlend mode="normal" in="SourceGraphic" in2="effect1_dropShadow_1864_30712" result="shape"/>
</filter>
<filter id="filter3_d_1864_30712" x="-10" y="-4" width="85.3335" height="63.334" filterUnits="userSpaceOnUse" color-interpolation-filters="sRGB">
<feFlood flood-opacity="0" result="BackgroundImageFix"/>
<feColorMatrix in="SourceAlpha" type="matrix" values="0 0 0 0 0 0 0 0 0 0 0 0 0 0 0 0 0 0 127 0" result="hardAlpha"/>
<feOffset dy="6"/>
<feGaussianBlur stdDeviation="10"/>
<feComposite in2="hardAlpha" operator="out"/>
<feColorMatrix type="matrix" values="0 0 0 0 0 0 0 0 0 0 0 0 0 0 0 0 0 0 0.02 0"/>
<feBlend mode="normal" in2="BackgroundImageFix" result="effect1_dropShadow_1864_30712"/>
<feBlend mode="normal" in="SourceGraphic" in2="effect1_dropShadow_1864_30712" result="shape"/>
</filter>
<clipPath id="clip0_1864_30712">
<rect width="170" height="170" rx="10" fill="white"/>
</clipPath>
<clipPath id="clip1_1864_30712">
<rect width="170" height="170" rx="10" fill="white"/>
</clipPath>
<clipPath id="clip2_1864_30712">
<rect width="190.643" height="217" fill="white" transform="translate(7 35)"/>
</clipPath>
<clipPath id="clip3_1864_30712">
<rect width="170" height="170" rx="8.33333" fill="white"/>
</clipPath>
<clipPath id="clip4_1864_30712">
<rect width="170" height="170" rx="8.33333" fill="white"/>
</clipPath>
<clipPath id="clip5_1864_30712">
<rect width="106.17" height="119.166" fill="white" transform="translate(31.5249 27.834)"/>
</clipPath>
</defs>
</svg>
