<svg width="204" height="204" viewBox="0 0 204 204" fill="none" xmlns="http://www.w3.org/2000/svg">
<g clip-path="url(#clip0_781_10052)">
<rect width="204" height="204" rx="10" fill="#F7F9FC"/>
<g filter="url(#filter0_d_781_10052)">
<rect x="12" y="12" width="55" height="28" rx="8" fill="white" shape-rendering="crispEdges"/>
<path d="M32.5048 32.0009H29.2136C28.8279 32.0009 28.5097 31.7089 28.476 31.3269L27.7533 23.1644C27.7159 22.7301 28.0566 22.3594 28.4909 22.3594H33.2275C33.6618 22.3594 34.0025 22.7338 33.9651 23.1644L33.2424 31.3269C33.2087 31.7089 32.8867 32.0009 32.5048 32.0009Z" fill="#FFAA34"/>
<path d="M24.8891 23.0293C22.5377 23.0293 20.572 24.5083 20.0703 26.4928C19.9429 27.002 20.3623 27.485 20.9389 27.485H28.8356C29.4122 27.485 29.8354 26.9982 29.7043 26.4928C29.2026 24.5083 27.2368 23.0293 24.8854 23.0293H24.8891Z" fill="#FFC470"/>
<path d="M28.7606 29.7422H21.0137C20.5339 29.7422 20.145 30.1311 20.145 30.6109V31.1313C20.145 31.6111 20.5339 32 21.0137 32H28.7606C29.2404 32 29.6293 31.6111 29.6293 31.1313V30.6109C29.6293 30.1311 29.2404 29.7422 28.7606 29.7422Z" fill="#FFC470"/>
<path d="M28.7606 27.4863H21.0137C20.5339 27.4863 20.145 27.8752 20.145 28.355V28.8755C20.145 29.3552 20.5339 29.7441 21.0137 29.7441H28.7606C29.2404 29.7441 29.6293 29.3552 29.6293 28.8755V28.355C29.6293 27.8752 29.2404 27.4863 28.7606 27.4863Z" fill="#FFE2B8"/>
<path d="M30.7563 23.0307L31.1046 20.7467C31.1682 20.3386 31.5164 20.0391 31.9283 20.0391H33.9689" stroke="#FFAA34" stroke-width="1.13826" stroke-linecap="round" stroke-linejoin="round"/>
<path d="M43.168 21.2656C45.4355 21.2656 46.8418 21.998 46.8477 23.2461C46.8418 24.4766 45.4355 25.1973 43.168 25.1914C40.9004 25.1973 39.4766 24.4766 39.4766 23.2461C39.4766 21.998 40.9004 21.2656 43.168 21.2656ZM38.4219 26.8555V26.0938H47.9141V26.8555H38.4219ZM39.582 31.3086V27.8867H46.7539V31.3086H39.582ZM40.4258 23.2461C40.4199 24.002 41.4805 24.459 43.168 24.4648C44.8379 24.459 45.9043 24.002 45.9102 23.2461C45.9043 22.4668 44.8379 22.0039 43.168 22.0039C41.4805 22.0039 40.4199 22.4668 40.4258 23.2461ZM40.4961 30.5586H45.8516V28.625H40.4961V30.5586ZM52.0044 22.543C51.9927 24.0605 53.0942 25.4141 54.6411 25.9531L54.1723 26.6797C52.9653 26.2344 52.0102 25.3379 51.5415 24.1836C51.0845 25.4199 50.1235 26.3926 48.8989 26.8672L48.4184 26.1406C49.977 25.5605 51.0669 24.1191 51.0669 22.543V21.5469H52.0044V22.543ZM49.9067 28.5898V27.8281H56.9145V31.4492H56.0005V28.5898H49.9067ZM56.0005 27.3125V21.0312H56.9145V27.3125H56.0005Z" fill="#2C333A"/>
</g>
<g clip-path="url(#clip1_781_10052)">
<rect width="204" height="204" rx="10" fill="#F0F5FA"/>
<g filter="url(#filter1_d_781_10052)">
<rect x="12" y="12" width="55" height="28" rx="8" fill="white" shape-rendering="crispEdges"/>
<path d="M32.5048 32.0009H29.2136C28.8279 32.0009 28.5097 31.7089 28.476 31.3269L27.7533 23.1644C27.7159 22.7301 28.0566 22.3594 28.4909 22.3594H33.2275C33.6618 22.3594 34.0025 22.7338 33.9651 23.1644L33.2424 31.3269C33.2087 31.7089 32.8867 32.0009 32.5048 32.0009Z" fill="#FFAA34"/>
<path d="M24.8891 23.0293C22.5377 23.0293 20.572 24.5083 20.0703 26.4928C19.9429 27.002 20.3623 27.485 20.9389 27.485H28.8356C29.4122 27.485 29.8354 26.9982 29.7043 26.4928C29.2026 24.5083 27.2368 23.0293 24.8854 23.0293H24.8891Z" fill="#FFC470"/>
<path d="M28.7606 29.7422H21.0137C20.5339 29.7422 20.145 30.1311 20.145 30.6109V31.1313C20.145 31.6111 20.5339 32 21.0137 32H28.7606C29.2404 32 29.6293 31.6111 29.6293 31.1313V30.6109C29.6293 30.1311 29.2404 29.7422 28.7606 29.7422Z" fill="#FFC470"/>
<path d="M28.7606 27.4863H21.0137C20.5339 27.4863 20.145 27.8752 20.145 28.355V28.8755C20.145 29.3552 20.5339 29.7441 21.0137 29.7441H28.7606C29.2404 29.7441 29.6293 29.3552 29.6293 28.8755V28.355C29.6293 27.8752 29.2404 27.4863 28.7606 27.4863Z" fill="#FFE2B8"/>
<path d="M30.7563 23.0307L31.1046 20.7467C31.1682 20.3386 31.5164 20.0391 31.9283 20.0391H33.9689" stroke="#FFAA34" stroke-width="1.13826" stroke-linecap="round" stroke-linejoin="round"/>
<path d="M43.168 21.2656C45.4355 21.2656 46.8418 21.998 46.8477 23.2461C46.8418 24.4766 45.4355 25.1973 43.168 25.1914C40.9004 25.1973 39.4766 24.4766 39.4766 23.2461C39.4766 21.998 40.9004 21.2656 43.168 21.2656ZM38.4219 26.8555V26.0938H47.9141V26.8555H38.4219ZM39.582 31.3086V27.8867H46.7539V31.3086H39.582ZM40.4258 23.2461C40.4199 24.002 41.4805 24.459 43.168 24.4648C44.8379 24.459 45.9043 24.002 45.9102 23.2461C45.9043 22.4668 44.8379 22.0039 43.168 22.0039C41.4805 22.0039 40.4199 22.4668 40.4258 23.2461ZM40.4961 30.5586H45.8516V28.625H40.4961V30.5586ZM52.0044 22.543C51.9927 24.0605 53.0942 25.4141 54.6411 25.9531L54.1723 26.6797C52.9653 26.2344 52.0102 25.3379 51.5415 24.1836C51.0845 25.4199 50.1235 26.3926 48.8989 26.8672L48.4184 26.1406C49.977 25.5605 51.0669 24.1191 51.0669 22.543V21.5469H52.0044V22.543ZM49.9067 28.5898V27.8281H56.9145V31.4492H56.0005V28.5898H49.9067ZM56.0005 27.3125V21.0312H56.9145V27.3125H56.0005Z" fill="#2C333A"/>
</g>
<g clip-path="url(#clip2_781_10052)">
<rect width="204" height="204" rx="10" fill="#DEE4EA"/>
<g filter="url(#filter2_d_781_10052)">
<rect x="12" y="12" width="55" height="28" rx="8" fill="white" shape-rendering="crispEdges"/>
<path d="M32.5048 32.0009H29.2136C28.8279 32.0009 28.5097 31.7089 28.476 31.3269L27.7533 23.1644C27.7159 22.7301 28.0566 22.3594 28.4909 22.3594H33.2275C33.6618 22.3594 34.0025 22.7338 33.9651 23.1644L33.2424 31.3269C33.2087 31.7089 32.8867 32.0009 32.5048 32.0009Z" fill="#FFAA34"/>
<path d="M24.8891 23.0293C22.5377 23.0293 20.572 24.5083 20.0703 26.4928C19.9429 27.002 20.3623 27.485 20.9389 27.485H28.8356C29.4122 27.485 29.8354 26.9982 29.7043 26.4928C29.2026 24.5083 27.2368 23.0293 24.8854 23.0293H24.8891Z" fill="#FFC470"/>
<path d="M28.7606 29.7422H21.0137C20.5339 29.7422 20.145 30.1311 20.145 30.6109V31.1313C20.145 31.6111 20.5339 32 21.0137 32H28.7606C29.2404 32 29.6293 31.6111 29.6293 31.1313V30.6109C29.6293 30.1311 29.2404 29.7422 28.7606 29.7422Z" fill="#FFC470"/>
<path d="M28.7606 27.4863H21.0137C20.5339 27.4863 20.145 27.8752 20.145 28.355V28.8755C20.145 29.3552 20.5339 29.7441 21.0137 29.7441H28.7606C29.2404 29.7441 29.6293 29.3552 29.6293 28.8755V28.355C29.6293 27.8752 29.2404 27.4863 28.7606 27.4863Z" fill="#FFE2B8"/>
<path d="M30.7563 23.0307L31.1046 20.7467C31.1682 20.3386 31.5164 20.0391 31.9283 20.0391H33.9689" stroke="#FFAA34" stroke-width="1.13826" stroke-linecap="round" stroke-linejoin="round"/>
<path d="M43.168 21.2656C45.4355 21.2656 46.8418 21.998 46.8477 23.2461C46.8418 24.4766 45.4355 25.1973 43.168 25.1914C40.9004 25.1973 39.4766 24.4766 39.4766 23.2461C39.4766 21.998 40.9004 21.2656 43.168 21.2656ZM38.4219 26.8555V26.0938H47.9141V26.8555H38.4219ZM39.582 31.3086V27.8867H46.7539V31.3086H39.582ZM40.4258 23.2461C40.4199 24.002 41.4805 24.459 43.168 24.4648C44.8379 24.459 45.9043 24.002 45.9102 23.2461C45.9043 22.4668 44.8379 22.0039 43.168 22.0039C41.4805 22.0039 40.4199 22.4668 40.4258 23.2461ZM40.4961 30.5586H45.8516V28.625H40.4961V30.5586ZM52.0044 22.543C51.9927 24.0605 53.0942 25.4141 54.6411 25.9531L54.1723 26.6797C52.9653 26.2344 52.0102 25.3379 51.5415 24.1836C51.0845 25.4199 50.1235 26.3926 48.8989 26.8672L48.4184 26.1406C49.977 25.5605 51.0669 24.1191 51.0669 22.543V21.5469H52.0044V22.543ZM49.9067 28.5898V27.8281H56.9145V31.4492H56.0005V28.5898H49.9067ZM56.0005 27.3125V21.0312H56.9145V27.3125H56.0005Z" fill="#2C333A"/>
</g>
<g clip-path="url(#clip3_781_10052)">
<path d="M44.7033 210.252L37.922 221.24C37.7803 221.469 37.6523 221.711 37.5654 221.972C36.6143 224.976 38.9463 228.433 41.7082 227.866L72.9486 221.501C74.828 221.117 75.9711 218.95 75.5047 216.654L73.5659 207.143C73.0995 204.847 71.1973 203.297 69.3179 203.681L47.0079 208.227C45.9974 208.432 45.1514 209.173 44.6987 210.252H44.7033Z" fill="#8598A2"/>
<path d="M116.024 154.427L98.8405 128.443C97.9812 127.141 96.2305 126.784 94.9302 127.647L52.2307 155.885L46.8778 159.423C32.882 168.68 29.0404 187.526 38.297 201.521L41.8347 206.874L51.6012 221.639C53.6026 224.668 57.6801 225.499 60.7085 223.497L80.4387 210.452C83.4672 208.45 84.2978 204.373 82.2964 201.344L74.0871 188.932C73.2278 187.63 73.5851 185.879 74.883 185.022L115.229 158.341C116.531 157.482 116.889 155.731 116.025 154.431L116.024 154.427Z" fill="#A7B6C5"/>
<path d="M120.849 121.558C110.252 121.901 101.971 131.736 102.352 143.526C102.734 155.316 111.634 164.595 122.231 164.252L128.111 164.062C138.708 163.719 146.989 153.883 146.608 142.094C146.226 130.304 137.326 121.025 126.729 121.367L120.849 121.558Z" fill="#B3C1CF"/>
<path d="M43.1412 251.999C23.8172 251.999 8.0918 236.278 8.0918 216.95C8.0918 197.621 23.8126 181.9 43.1412 181.9C62.4698 181.9 78.1906 197.621 78.1906 216.95C78.1906 236.278 62.4698 251.999 43.1412 251.999ZM43.1412 187.849C27.0958 187.849 14.0363 200.904 14.0363 216.954C14.0363 233.004 27.0912 246.059 43.1412 246.059C59.1912 246.059 72.2462 233.004 72.2462 216.954C72.2462 200.904 59.1912 187.849 43.1412 187.849Z" fill="#ACBDC6"/>
<path d="M161.502 251.999C142.178 251.999 126.453 236.278 126.453 216.95C126.453 197.621 142.173 181.9 161.502 181.9C180.831 181.9 196.551 197.621 196.551 216.95C196.551 236.278 180.831 251.999 161.502 251.999ZM161.502 187.849C145.457 187.849 132.397 200.904 132.397 216.954C132.397 233.004 145.452 246.059 161.502 246.059C177.552 246.059 190.607 233.004 190.607 216.954C190.607 200.904 177.552 187.849 161.502 187.849Z" fill="#ACBDC6"/>
<path d="M161.716 220.448C160.239 220.448 158.862 219.511 158.373 218.034L146.16 181.256C146.141 181.201 146.128 181.151 146.109 181.096C144.797 176.414 140.485 173.149 135.624 173.149H53.8102C51.8622 173.149 50.2847 171.571 50.2847 169.623C50.2847 167.675 51.8622 166.098 53.8102 166.098H135.624C143.603 166.098 150.682 171.443 152.872 179.111L165.063 215.812C165.676 217.659 164.674 219.653 162.827 220.27C162.457 220.393 162.082 220.448 161.716 220.448Z" fill="#75879B"/>
<path d="M161.496 180.58C142.867 180.58 127.462 194.664 125.372 212.735C125.212 214.111 126.273 215.323 127.654 215.323H131.678C132.825 215.323 133.804 214.477 133.955 213.343C135.729 199.726 147.403 189.172 161.496 189.172C175.589 189.172 187.267 199.726 189.042 213.343C189.188 214.482 190.171 215.323 191.319 215.323H195.343C196.728 215.323 197.785 214.107 197.625 212.735C195.53 194.664 180.125 180.58 161.496 180.58Z" fill="#75879B"/>
<path d="M43.1419 180.58C24.5129 180.58 9.10766 194.664 7.01795 212.735C6.85791 214.111 7.91876 215.323 9.29971 215.323H13.3236C14.4714 215.323 15.4499 214.477 15.6008 213.343C17.375 199.726 29.049 189.172 43.1419 189.172C57.2349 189.172 68.9134 199.726 70.6876 213.343C70.8339 214.482 71.8171 215.323 72.9648 215.323H76.9887C78.3743 215.323 79.4305 214.107 79.2705 212.735C77.1762 194.664 61.7709 180.58 43.1419 180.58Z" fill="#75879B"/>
<path d="M138.567 155.816L116.537 133.088C115.435 131.951 113.623 131.935 112.495 133.051L75.4232 169.715L70.7753 174.311C58.6257 186.328 58.397 205.996 70.2623 218.237L74.8005 222.92L87.3179 235.838C89.8866 238.485 94.0971 238.525 96.725 235.924L113.851 218.982C116.479 216.381 116.529 212.128 113.961 209.48L103.438 198.625C102.336 197.488 102.357 195.662 103.485 194.542L138.511 159.898C139.639 158.782 139.659 156.952 138.558 155.815L138.567 155.816Z" fill="#B3C1CF"/>
<path d="M120.663 83.7109H80.3322C62.629 83.7109 48.2778 98.0622 48.2778 115.765C48.2778 133.468 62.629 147.82 80.3322 147.82H120.663C138.366 147.82 152.717 133.468 152.717 115.765C152.717 98.0622 138.366 83.7109 120.663 83.7109Z" fill="#8FA0B2"/>
<path d="M42.4936 221.429C42.2375 221.429 41.9768 221.402 41.7162 221.342C39.8186 220.917 38.6251 219.028 39.0503 217.131L53.564 152.601C53.9892 150.704 55.8777 149.51 57.7754 149.936C59.673 150.361 60.8665 152.249 60.4412 154.147L45.9276 218.676C45.5572 220.313 44.1031 221.429 42.4936 221.429Z" fill="#75879B"/>
<path d="M59.8148 157C58.0876 157 56.3498 156.65 54.7182 155.945C50.9768 154.335 48.2026 151.007 47.2939 147.043L45.742 140.271C45.3966 138.761 44.3231 137.531 42.8722 136.975L29.6285 131.899C27.5186 131.088 26.461 128.724 27.2741 126.621C28.0873 124.517 30.4575 123.463 32.5674 124.273L45.8111 129.35C49.8129 130.881 52.7731 134.288 53.7244 138.453L55.2762 145.226C55.6057 146.662 56.6102 147.865 57.9654 148.453C59.3737 149.062 60.9946 148.935 62.2967 148.119L71.0922 142.592C74.0896 140.711 77.7725 140.144 81.2004 141.039L96.9419 145.151C99.1315 145.724 100.439 147.955 99.8649 150.138C99.2909 152.321 97.0535 153.63 94.8639 153.052L79.1224 148.94C77.8841 148.617 76.5449 148.818 75.4607 149.502L66.6652 155.029C64.5819 156.338 62.2063 157 59.8148 157Z" fill="#75879B"/>
<path d="M100.943 68.3832L85.6611 72.1113L89.5085 87.8817L104.79 84.1536L100.943 68.3832Z" fill="#F2F9FF"/>
<path d="M118.326 57.973V60.7395C118.326 73.4286 108.042 83.7125 95.3527 83.7125C82.6636 83.7125 72.3843 73.4286 72.3843 60.7395V57.973C72.3843 57.0036 72.4437 56.0434 72.5626 55.1014C73.6921 46.0155 80.1349 38.5804 88.6766 35.9831C90.7892 35.3429 93.0298 35 95.3527 35C96.0386 35 96.72 35.032 97.3967 35.0915C102.925 35.5762 107.891 38.018 111.599 41.7264C114.695 44.8221 116.904 48.7957 117.836 53.2358C118.157 54.763 118.326 56.3497 118.326 57.973Z" fill="#F2F9FF"/>
<path d="M90.4461 61.8074L89.4447 63.545C89.0652 64.1989 89.6139 64.9716 90.4598 64.9716H92.545C93.4046 64.9716 93.9533 64.1714 93.5418 63.5175L92.4581 61.7799C92.0191 61.0803 90.8576 61.094 90.4461 61.8074Z" fill="#B0C2D1"/>
<path d="M86.6586 60.9149C87.7446 60.9149 88.6249 60.0346 88.6249 58.9487C88.6249 57.8627 87.7446 56.9824 86.6586 56.9824C85.5727 56.9824 84.6924 57.8627 84.6924 58.9487C84.6924 60.0346 85.5727 60.9149 86.6586 60.9149Z" fill="#738591"/>
<path d="M96.3442 60.9149C97.4301 60.9149 98.3104 60.0346 98.3104 58.9487C98.3104 57.8627 97.4301 56.9824 96.3442 56.9824C95.2582 56.9824 94.3779 57.8627 94.3779 58.9487C94.3779 60.0346 95.2582 60.9149 96.3442 60.9149Z" fill="#738591"/>
<path d="M111.605 41.7264C107.896 38.018 102.93 35.5762 97.402 35.0915C96.7298 35.032 96.0485 35 95.358 35C93.0351 35 90.7945 35.3475 88.6819 35.9831C80.1402 38.5758 73.6973 46.011 72.5679 55.1014C73.4504 55.17 74.3421 55.1883 75.2474 55.1517C82.71 54.8773 88.0143 52.6459 92.0474 47.0169C96.4874 52.5407 104.595 54.4201 112.217 54.1366C114.17 54.068 116.049 53.7525 117.842 53.2358C116.909 48.7911 114.7 44.8221 111.605 41.7264Z" fill="#75879B"/>
<path d="M72.1739 68.2258C75.8029 68.2258 78.7448 65.2839 78.7448 61.6549C78.7448 58.0259 75.8029 55.084 72.1739 55.084C68.5449 55.084 65.603 58.0259 65.603 61.6549C65.603 65.2839 68.5449 68.2258 72.1739 68.2258Z" fill="#F2F9FF"/>
<path d="M119.705 65.925C123.334 65.925 126.276 62.9831 126.276 59.3541C126.276 55.7251 123.334 52.7832 119.705 52.7832C116.076 52.7832 113.134 55.7251 113.134 59.3541C113.134 62.9831 116.076 65.925 119.705 65.925Z" fill="#F2F9FF"/>
<path d="M86.5399 111H49.0898V136.813H86.5399V111Z" fill="#8FA0B2"/>
<path d="M97.1482 93.853C101.492 93.853 105.013 90.3317 105.013 85.988C105.013 81.6443 101.492 78.123 97.1482 78.123C92.8045 78.123 89.2832 81.6443 89.2832 85.988C89.2832 90.3317 92.8045 93.853 97.1482 93.853Z" fill="#F2F9FF"/>
<path d="M49.0915 136.812C56.3218 136.812 62.183 131.035 62.183 123.908C62.183 116.781 56.3218 111.004 49.0915 111.004C41.8613 111.004 36 116.781 36 123.908C36 131.035 41.8613 136.812 49.0915 136.812Z" fill="#F2F9FF"/>
<path d="M80.2815 146.974C87.5117 146.974 93.373 141.197 93.373 134.07C93.373 126.943 87.5117 121.166 80.2815 121.166C73.0512 121.166 67.1899 126.943 67.1899 134.07C67.1899 141.197 73.0512 146.974 80.2815 146.974Z" fill="#F2F9FF"/>
<rect x="135" y="66" width="28.4241" height="3.66763" rx="1.83381" fill="#CAD6E0"/>
<rect x="135" y="75.168" width="17.4212" height="3.66763" rx="1.83381" fill="#CAD6E0"/>
</g>
<g clip-path="url(#clip4_781_10052)">
<rect width="204" height="204" rx="10" fill="#F7F9FC"/>
<g filter="url(#filter3_d_781_10052)">
<rect x="12" y="12" width="55" height="28" rx="8" fill="white" shape-rendering="crispEdges"/>
<path d="M32.5048 32.0009H29.2136C28.8279 32.0009 28.5097 31.7089 28.476 31.3269L27.7533 23.1644C27.7159 22.7301 28.0566 22.3594 28.4909 22.3594H33.2275C33.6618 22.3594 34.0025 22.7338 33.9651 23.1644L33.2424 31.3269C33.2087 31.7089 32.8867 32.0009 32.5048 32.0009Z" fill="#FFAA34"/>
<path d="M24.8891 23.0293C22.5377 23.0293 20.572 24.5083 20.0703 26.4928C19.9429 27.002 20.3623 27.485 20.9389 27.485H28.8356C29.4122 27.485 29.8354 26.9982 29.7043 26.4928C29.2026 24.5083 27.2368 23.0293 24.8854 23.0293H24.8891Z" fill="#FFC470"/>
<path d="M28.7606 29.7422H21.0137C20.5339 29.7422 20.145 30.1311 20.145 30.6109V31.1313C20.145 31.6111 20.5339 32 21.0137 32H28.7606C29.2404 32 29.6293 31.6111 29.6293 31.1313V30.6109C29.6293 30.1311 29.2404 29.7422 28.7606 29.7422Z" fill="#FFC470"/>
<path d="M28.7606 27.4863H21.0137C20.5339 27.4863 20.145 27.8752 20.145 28.355V28.8755C20.145 29.3552 20.5339 29.7441 21.0137 29.7441H28.7606C29.2404 29.7441 29.6293 29.3552 29.6293 28.8755V28.355C29.6293 27.8752 29.2404 27.4863 28.7606 27.4863Z" fill="#FFE2B8"/>
<path d="M30.7563 23.0307L31.1046 20.7467C31.1682 20.3386 31.5164 20.0391 31.9283 20.0391H33.9689" stroke="#FFAA34" stroke-width="1.13826" stroke-linecap="round" stroke-linejoin="round"/>
<path d="M43.168 21.2656C45.4355 21.2656 46.8418 21.998 46.8477 23.2461C46.8418 24.4766 45.4355 25.1973 43.168 25.1914C40.9004 25.1973 39.4766 24.4766 39.4766 23.2461C39.4766 21.998 40.9004 21.2656 43.168 21.2656ZM38.4219 26.8555V26.0938H47.9141V26.8555H38.4219ZM39.582 31.3086V27.8867H46.7539V31.3086H39.582ZM40.4258 23.2461C40.4199 24.002 41.4805 24.459 43.168 24.4648C44.8379 24.459 45.9043 24.002 45.9102 23.2461C45.9043 22.4668 44.8379 22.0039 43.168 22.0039C41.4805 22.0039 40.4199 22.4668 40.4258 23.2461ZM40.4961 30.5586H45.8516V28.625H40.4961V30.5586ZM52.0044 22.543C51.9927 24.0605 53.0942 25.4141 54.6411 25.9531L54.1723 26.6797C52.9653 26.2344 52.0102 25.3379 51.5415 24.1836C51.0845 25.4199 50.1235 26.3926 48.8989 26.8672L48.4184 26.1406C49.977 25.5605 51.0669 24.1191 51.0669 22.543V21.5469H52.0044V22.543ZM49.9067 28.5898V27.8281H56.9145V31.4492H56.0005V28.5898H49.9067ZM56.0005 27.3125V21.0312H56.9145V27.3125H56.0005Z" fill="#2C333A"/>
</g>
<g clip-path="url(#clip5_781_10052)">
<rect width="204" height="204" rx="10" fill="#F0F5FA"/>
<g filter="url(#filter4_d_781_10052)">
<rect x="12" y="12" width="55" height="28" rx="8" fill="white" shape-rendering="crispEdges"/>
<path d="M32.5048 32.0009H29.2136C28.8279 32.0009 28.5097 31.7089 28.476 31.3269L27.7533 23.1644C27.7159 22.7301 28.0566 22.3594 28.4909 22.3594H33.2275C33.6618 22.3594 34.0025 22.7338 33.9651 23.1644L33.2424 31.3269C33.2087 31.7089 32.8867 32.0009 32.5048 32.0009Z" fill="#FFAA34"/>
<path d="M24.8891 23.0293C22.5377 23.0293 20.572 24.5083 20.0703 26.4928C19.9429 27.002 20.3623 27.485 20.9389 27.485H28.8356C29.4122 27.485 29.8354 26.9982 29.7043 26.4928C29.2026 24.5083 27.2368 23.0293 24.8854 23.0293H24.8891Z" fill="#FFC470"/>
<path d="M28.7606 29.7422H21.0137C20.5339 29.7422 20.145 30.1311 20.145 30.6109V31.1313C20.145 31.6111 20.5339 32 21.0137 32H28.7606C29.2404 32 29.6293 31.6111 29.6293 31.1313V30.6109C29.6293 30.1311 29.2404 29.7422 28.7606 29.7422Z" fill="#FFC470"/>
<path d="M28.7606 27.4863H21.0137C20.5339 27.4863 20.145 27.8752 20.145 28.355V28.8755C20.145 29.3552 20.5339 29.7441 21.0137 29.7441H28.7606C29.2404 29.7441 29.6293 29.3552 29.6293 28.8755V28.355C29.6293 27.8752 29.2404 27.4863 28.7606 27.4863Z" fill="#FFE2B8"/>
<path d="M30.7563 23.0307L31.1046 20.7467C31.1682 20.3386 31.5164 20.0391 31.9283 20.0391H33.9689" stroke="#FFAA34" stroke-width="1.13826" stroke-linecap="round" stroke-linejoin="round"/>
<path d="M43.168 21.2656C45.4355 21.2656 46.8418 21.998 46.8477 23.2461C46.8418 24.4766 45.4355 25.1973 43.168 25.1914C40.9004 25.1973 39.4766 24.4766 39.4766 23.2461C39.4766 21.998 40.9004 21.2656 43.168 21.2656ZM38.4219 26.8555V26.0938H47.9141V26.8555H38.4219ZM39.582 31.3086V27.8867H46.7539V31.3086H39.582ZM40.4258 23.2461C40.4199 24.002 41.4805 24.459 43.168 24.4648C44.8379 24.459 45.9043 24.002 45.9102 23.2461C45.9043 22.4668 44.8379 22.0039 43.168 22.0039C41.4805 22.0039 40.4199 22.4668 40.4258 23.2461ZM40.4961 30.5586H45.8516V28.625H40.4961V30.5586ZM52.0044 22.543C51.9927 24.0605 53.0942 25.4141 54.6411 25.9531L54.1723 26.6797C52.9653 26.2344 52.0102 25.3379 51.5415 24.1836C51.0845 25.4199 50.1235 26.3926 48.8989 26.8672L48.4184 26.1406C49.977 25.5605 51.0669 24.1191 51.0669 22.543V21.5469H52.0044V22.543ZM49.9067 28.5898V27.8281H56.9145V31.4492H56.0005V28.5898H49.9067ZM56.0005 27.3125V21.0312H56.9145V27.3125H56.0005Z" fill="#2C333A"/>
</g>
<rect width="204" height="204" rx="10" fill="#DEE4EA"/>
</g>
<g clip-path="url(#clip6_781_10052)">
<path d="M107.667 24.6412C107.569 23.6394 106.677 22.907 105.675 23.0054C104.673 23.1038 103.941 23.9957 104.04 24.9975C104.138 25.9993 105.03 26.7317 106.032 26.6333C107.033 26.5348 107.766 25.643 107.667 24.6412Z" fill="#8598A2"/>
<path d="M119.529 37.5898L130.482 36.5139C131.534 36.4106 132.467 37.1771 132.571 38.2287C132.674 39.2802 131.908 40.2137 130.856 40.317L119.902 41.3929L119.529 37.5898Z" fill="#8598A2"/>
<path d="M123.61 44.6818L123.8 46.6321C124.28 51.5057 122.549 56.0843 119.437 59.3862C118.248 60.6498 116.857 61.724 115.312 62.5561C113.471 63.5422 111.411 64.1894 109.201 64.4095C109.042 64.4271 108.888 64.4403 108.734 64.4491C106.529 64.5988 104.389 64.3039 102.408 63.6391C96.5349 61.6491 92.0751 56.3837 91.428 49.8151L91.2387 47.8648C91.1726 47.1824 91.1506 46.5 91.1638 45.8308C91.3311 39.3459 95.3594 33.6667 101.197 31.2453C102.637 30.6465 104.191 30.2503 105.829 30.0918C106.309 30.0434 106.793 30.0126 107.273 30.0126C111.2 29.9729 114.871 31.3509 117.737 33.7063C118.054 33.966 118.358 34.239 118.653 34.5207C120.599 36.383 122.092 38.7208 122.928 41.3887C123.06 41.8069 123.175 42.2296 123.276 42.6698C123.426 43.3258 123.536 44.0038 123.602 44.6906L123.61 44.6818Z" fill="#CAD6E0"/>
<path d="M98.4564 47.9628L98.474 48.1345C98.5312 48.7288 98.2186 49.2748 97.7255 49.5389C97.5627 49.627 97.3822 49.6842 97.1884 49.7018C97.1752 49.7018 97.162 49.7018 97.1488 49.7018C96.9551 49.715 96.7658 49.6886 96.5897 49.6314C96.0702 49.4553 95.6784 48.993 95.6211 48.4119L95.6035 48.2402C95.5991 48.1785 95.5947 48.1213 95.5947 48.0597C95.6079 47.4873 95.9645 46.9854 96.4796 46.7741C96.6073 46.7213 96.7438 46.6861 96.8891 46.6729C96.9331 46.6729 96.9727 46.6641 97.0167 46.6641C97.3645 46.6641 97.6859 46.7829 97.9413 46.9899C98.1526 47.1615 98.3155 47.3949 98.3991 47.6678C98.4123 47.7031 98.4212 47.7427 98.43 47.7823C98.4432 47.8395 98.452 47.9012 98.4608 47.9584L98.4564 47.9628Z" fill="#8598A2"/>
<path d="M91.4364 49.8125L90.3886 49.9138C89.5697 49.993 89.0238 50.7811 89.2219 51.5779C90.2125 55.5578 95.5219 65.7497 109.205 64.4069L91.4364 49.8125Z" fill="#CAD6E0"/>
<path d="M118.782 71.1613H105.878L101.59 57.8965H114.494L118.782 71.1613Z" fill="#CAD6E0"/>
<path d="M115.891 100.495L67.8291 108.65L71.5734 130.717L119.636 122.562L115.891 100.495Z" fill="#8598A2"/>
<path d="M123.387 75.318L133.716 121.17L110.012 118.516L86.8022 108.496L101.978 73.3457" fill="#8598A2"/>
<path d="M48.3001 220.001C29.695 220.001 14.5547 204.865 14.5547 186.255C14.5547 167.646 29.6906 152.51 48.3001 152.51C66.9096 152.51 82.0455 167.646 82.0455 186.255C82.0455 204.865 66.9096 220.001 48.3001 220.001ZM48.3001 158.237C32.8516 158.237 20.278 170.807 20.278 186.26C20.278 201.712 32.8472 214.282 48.3001 214.282C63.753 214.282 76.3222 201.712 76.3222 186.26C76.3222 170.807 63.753 158.237 48.3001 158.237Z" fill="#8598A2"/>
<path d="M156.323 220.001C137.718 220.001 122.578 204.865 122.578 186.255C122.578 167.646 137.714 152.51 156.323 152.51C174.933 152.51 190.068 167.646 190.068 186.255C190.068 204.865 174.933 220.001 156.323 220.001ZM156.323 158.237C140.875 158.237 128.301 170.807 128.301 186.26C128.301 201.712 140.87 214.282 156.323 214.282C171.776 214.282 184.345 201.712 184.345 186.26C184.345 170.807 171.776 158.237 156.323 158.237Z" fill="#8598A2"/>
<path d="M47.9092 186.259L59.4966 131.307" stroke="#ACBDC6" stroke-width="5.28304" stroke-miterlimit="10" stroke-linecap="round"/>
<path d="M56.9102 143.564H138.92L156.324 186.256" stroke="#ACBDC6" stroke-width="5.28304" stroke-linecap="round" stroke-linejoin="round"/>
<path d="M122.799 82.3328C125.245 76.6649 122.567 70.0578 116.817 67.5753C111.066 65.0928 104.421 67.6751 101.974 73.3429C99.5275 79.0108 102.206 85.6179 107.956 88.1004C113.706 90.5829 120.352 88.0006 122.799 82.3328Z" fill="#8598A2"/>
<path d="M132.117 116.382C128.832 110.918 121.74 109.153 116.276 112.437L97.6053 123.663L87.8361 129.536C82.3065 132.86 80.5147 140.041 83.843 145.575L89.716 155.344L103.571 178.387L123.356 166.491L109.501 143.448L128.172 132.222C133.636 128.938 135.401 121.845 132.117 116.382Z" fill="#F1F7FD"/>
<path d="M103.577 178.382C103.247 182.278 100.306 186.866 97.858 189.912L96.5284 191.572C95.146 193.293 94.9831 195.693 96.119 197.581C97.6159 200.073 100.852 200.879 103.348 199.382L112.791 193.707L129.499 183.661C131.198 182.639 131.749 180.434 130.727 178.734L123.366 166.486L103.581 178.382H103.577Z" fill="#ACBDC6"/>
<path d="M129.004 183.94L112.09 194.111C111.419 194.515 111.203 195.386 111.606 196.057L112.945 198.283C113.348 198.954 114.219 199.17 114.89 198.767L131.804 188.596C132.475 188.193 132.692 187.322 132.288 186.651L130.95 184.425C130.546 183.754 129.675 183.537 129.004 183.94Z" fill="#7B8E9B"/>
<path d="M61.4138 110.158H57.5748C55.7658 110.158 54.2993 111.625 54.2993 113.434V129.661C54.2993 131.47 55.7658 132.937 57.5748 132.937H61.4138C63.2228 132.937 64.6893 131.47 64.6893 129.661V113.434C64.6893 111.625 63.2228 110.158 61.4138 110.158Z" fill="#8598A2"/>
<path d="M124.933 44.4607L125.122 46.411C125.602 51.2846 123.397 55.9117 119.531 59.284L107.151 38.0462L119.117 34.3789C121.451 36.2016 123.221 38.5129 124.18 41.1676C124.334 41.5814 124.462 42.0085 124.577 42.4443C124.744 43.1003 124.863 43.7739 124.933 44.4607Z" fill="#8598A2"/>
<path d="M71.5699 130.706C77.745 129.659 81.9138 123.875 80.8811 117.789C79.8483 111.702 74.0052 107.618 67.83 108.665C61.6549 109.713 57.4861 115.497 58.5188 121.583C59.5516 127.669 65.3947 131.754 71.5699 130.706Z" fill="#CAD6E0"/>
<path d="M125.038 40.8889L89.4699 44.3801C89.3818 43.4864 89.3642 42.6059 89.4038 41.7386C89.4611 40.5675 89.6328 39.4141 89.9101 38.3046C91.6888 31.1813 97.7819 25.6077 105.508 24.8505C115.326 23.8863 124.069 31.0625 125.038 40.8845V40.8889Z" fill="#A5B7C2"/>
<path d="M95.8701 39.4194C95.9142 39.8773 95.7689 40.3175 95.4915 40.6521C95.223 40.9867 94.8223 41.2156 94.3557 41.2597L89.4072 41.7439C89.4645 40.5729 89.6362 39.4194 89.9135 38.31L94.0255 37.9049C94.95 37.8125 95.7777 38.4905 95.8657 39.415L95.8701 39.4194Z" fill="#CAD6E0"/>
<path d="M114.34 54.2922C117.037 54.2922 119.223 52.1062 119.223 49.4097C119.223 46.7133 117.037 44.5273 114.34 44.5273C111.644 44.5273 109.458 46.7133 109.458 49.4097C109.458 52.1062 111.644 54.2922 114.34 54.2922Z" fill="#CAD6E0"/>
<rect x="137" y="73" width="22" height="4" rx="2" fill="#CAD6E0"/>
<rect x="137" y="82" width="32" height="4" rx="2" fill="#CAD6E0"/>
</g>
</g>
</g>
</g>
</g>
<defs>
<filter id="filter0_d_781_10052" x="-8" y="-2" width="95" height="68" filterUnits="userSpaceOnUse" color-interpolation-filters="sRGB">
<feFlood flood-opacity="0" result="BackgroundImageFix"/>
<feColorMatrix in="SourceAlpha" type="matrix" values="0 0 0 0 0 0 0 0 0 0 0 0 0 0 0 0 0 0 127 0" result="hardAlpha"/>
<feOffset dy="6"/>
<feGaussianBlur stdDeviation="10"/>
<feComposite in2="hardAlpha" operator="out"/>
<feColorMatrix type="matrix" values="0 0 0 0 0 0 0 0 0 0 0 0 0 0 0 0 0 0 0.02 0"/>
<feBlend mode="normal" in2="BackgroundImageFix" result="effect1_dropShadow_781_10052"/>
<feBlend mode="normal" in="SourceGraphic" in2="effect1_dropShadow_781_10052" result="shape"/>
</filter>
<filter id="filter1_d_781_10052" x="-8" y="-2" width="95" height="68" filterUnits="userSpaceOnUse" color-interpolation-filters="sRGB">
<feFlood flood-opacity="0" result="BackgroundImageFix"/>
<feColorMatrix in="SourceAlpha" type="matrix" values="0 0 0 0 0 0 0 0 0 0 0 0 0 0 0 0 0 0 127 0" result="hardAlpha"/>
<feOffset dy="6"/>
<feGaussianBlur stdDeviation="10"/>
<feComposite in2="hardAlpha" operator="out"/>
<feColorMatrix type="matrix" values="0 0 0 0 0 0 0 0 0 0 0 0 0 0 0 0 0 0 0.02 0"/>
<feBlend mode="normal" in2="BackgroundImageFix" result="effect1_dropShadow_781_10052"/>
<feBlend mode="normal" in="SourceGraphic" in2="effect1_dropShadow_781_10052" result="shape"/>
</filter>
<filter id="filter2_d_781_10052" x="-8" y="-2" width="95" height="68" filterUnits="userSpaceOnUse" color-interpolation-filters="sRGB">
<feFlood flood-opacity="0" result="BackgroundImageFix"/>
<feColorMatrix in="SourceAlpha" type="matrix" values="0 0 0 0 0 0 0 0 0 0 0 0 0 0 0 0 0 0 127 0" result="hardAlpha"/>
<feOffset dy="6"/>
<feGaussianBlur stdDeviation="10"/>
<feComposite in2="hardAlpha" operator="out"/>
<feColorMatrix type="matrix" values="0 0 0 0 0 0 0 0 0 0 0 0 0 0 0 0 0 0 0.02 0"/>
<feBlend mode="normal" in2="BackgroundImageFix" result="effect1_dropShadow_781_10052"/>
<feBlend mode="normal" in="SourceGraphic" in2="effect1_dropShadow_781_10052" result="shape"/>
</filter>
<filter id="filter3_d_781_10052" x="-8" y="-2" width="95" height="68" filterUnits="userSpaceOnUse" color-interpolation-filters="sRGB">
<feFlood flood-opacity="0" result="BackgroundImageFix"/>
<feColorMatrix in="SourceAlpha" type="matrix" values="0 0 0 0 0 0 0 0 0 0 0 0 0 0 0 0 0 0 127 0" result="hardAlpha"/>
<feOffset dy="6"/>
<feGaussianBlur stdDeviation="10"/>
<feComposite in2="hardAlpha" operator="out"/>
<feColorMatrix type="matrix" values="0 0 0 0 0 0 0 0 0 0 0 0 0 0 0 0 0 0 0.02 0"/>
<feBlend mode="normal" in2="BackgroundImageFix" result="effect1_dropShadow_781_10052"/>
<feBlend mode="normal" in="SourceGraphic" in2="effect1_dropShadow_781_10052" result="shape"/>
</filter>
<filter id="filter4_d_781_10052" x="-8" y="-2" width="95" height="68" filterUnits="userSpaceOnUse" color-interpolation-filters="sRGB">
<feFlood flood-opacity="0" result="BackgroundImageFix"/>
<feColorMatrix in="SourceAlpha" type="matrix" values="0 0 0 0 0 0 0 0 0 0 0 0 0 0 0 0 0 0 127 0" result="hardAlpha"/>
<feOffset dy="6"/>
<feGaussianBlur stdDeviation="10"/>
<feComposite in2="hardAlpha" operator="out"/>
<feColorMatrix type="matrix" values="0 0 0 0 0 0 0 0 0 0 0 0 0 0 0 0 0 0 0.02 0"/>
<feBlend mode="normal" in2="BackgroundImageFix" result="effect1_dropShadow_781_10052"/>
<feBlend mode="normal" in="SourceGraphic" in2="effect1_dropShadow_781_10052" result="shape"/>
</filter>
<clipPath id="clip0_781_10052">
<rect width="204" height="204" rx="10" fill="white"/>
</clipPath>
<clipPath id="clip1_781_10052">
<rect width="204" height="204" rx="10" fill="white"/>
</clipPath>
<clipPath id="clip2_781_10052">
<rect width="204" height="204" rx="10" fill="white"/>
</clipPath>
<clipPath id="clip3_781_10052">
<rect width="190.643" height="217" fill="white" transform="translate(7 35)"/>
</clipPath>
<clipPath id="clip4_781_10052">
<rect width="204" height="204" rx="10" fill="white"/>
</clipPath>
<clipPath id="clip5_781_10052">
<rect width="204" height="204" rx="10" fill="white"/>
</clipPath>
<clipPath id="clip6_781_10052">
<rect width="175.516" height="197" fill="white" transform="translate(14.5547 23)"/>
</clipPath>
</defs>
</svg>
