<svg width="39" height="38" viewBox="0 0 39 38" fill="none" xmlns="http://www.w3.org/2000/svg">
<g clip-path="url(#clip0_454_8129)">
<g filter="url(#filter0_d_454_8129)">
<circle cx="19.9762" cy="17.4762" r="14.4762" fill="white"/>
<path d="M20.8433 33.8654C20.3512 34.4559 19.4443 34.4559 18.9522 33.8654L16.0882 30.4286L23.7073 30.4286L20.8433 33.8654Z" fill="white"/>
</g>
<path d="M13.9888 14.8828H25.9719V22.5926C25.9719 23.1622 25.5086 23.6255 24.939 23.6255H15.0217C14.4521 23.6255 13.9888 23.1622 13.9888 22.5926V14.8828Z" fill="#FFCA81"/>
<path d="M19.982 19.877C18.7965 19.877 17.8372 20.8363 17.8372 22.0218V23.6215H22.1268V22.0218C22.1268 20.8363 21.1675 19.877 19.982 19.877Z" fill="#FFAA34"/>
<path d="M26.8549 15.5772L26.0946 11.7754C25.9665 11.0423 25.2552 10.5 24.4185 10.5H15.545C14.7083 10.5 13.9943 11.0423 13.869 11.7754L13.1086 15.5772C13.0132 15.8416 12.9778 16.1277 13.0132 16.4275C13.1359 17.4386 14.1224 18.2398 15.2725 18.2643C16.5833 18.2916 17.6544 17.3568 17.6544 16.2013C17.6544 17.3405 18.6954 18.2643 19.9818 18.2643C21.2681 18.2643 22.3092 17.3405 22.3092 16.2013C22.3092 17.3568 23.3802 18.2916 24.6911 18.2643C25.8384 18.2398 26.825 17.4413 26.9503 16.4275C26.9858 16.1277 26.9503 15.8416 26.8549 15.5772Z" fill="#FFAA34"/>
</g>
<defs>
<filter id="filter0_d_454_8129" x="-19.1154" y="-14.2308" width="78.1832" height="80.5394" filterUnits="userSpaceOnUse" color-interpolation-filters="sRGB">
<feFlood flood-opacity="0" result="BackgroundImageFix"/>
<feColorMatrix in="SourceAlpha" type="matrix" values="0 0 0 0 0 0 0 0 0 0 0 0 0 0 0 0 0 0 127 0" result="hardAlpha"/>
<feOffset dy="7.38462"/>
<feGaussianBlur stdDeviation="12.3077"/>
<feComposite in2="hardAlpha" operator="out"/>
<feColorMatrix type="matrix" values="0 0 0 0 0 0 0 0 0 0 0 0 0 0 0 0 0 0 0.03 0"/>
<feBlend mode="normal" in2="BackgroundImageFix" result="effect1_dropShadow_454_8129"/>
<feBlend mode="normal" in="SourceGraphic" in2="effect1_dropShadow_454_8129" result="shape"/>
</filter>
<clipPath id="clip0_454_8129">
<rect width="38" height="38" fill="white" transform="translate(0.5)"/>
</clipPath>
</defs>
</svg>
