<svg width="39" height="38" viewBox="0 0 39 38" fill="none" xmlns="http://www.w3.org/2000/svg">
<mask id="path-1-inside-1_454_8129" fill="white">
<path d="M19.9766 3C27.9714 3.0002 34.4521 9.48171 34.4521 17.4766C34.452 24.5604 29.3637 30.4545 22.6426 31.7061L20.8438 33.8652C20.3517 34.4557 19.4442 34.4557 18.9521 33.8652L17.123 31.6699C10.4947 30.3449 5.50018 24.4946 5.5 17.4766C5.5 9.48158 11.9816 3 19.9766 3Z"/>
</mask>
<path d="M19.9766 3C27.9714 3.0002 34.4521 9.48171 34.4521 17.4766C34.452 24.5604 29.3637 30.4545 22.6426 31.7061L20.8438 33.8652C20.3517 34.4557 19.4442 34.4557 18.9521 33.8652L17.123 31.6699C10.4947 30.3449 5.50018 24.4946 5.5 17.4766C5.5 9.48158 11.9816 3 19.9766 3Z" fill="white"/>
<path d="M19.9766 3L19.9766 2H19.9766V3ZM34.4521 17.4766L35.4521 17.4766V17.4766H34.4521ZM22.6426 31.7061L22.4595 30.723L22.1051 30.789L21.8743 31.066L22.6426 31.7061ZM20.8438 33.8652L21.612 34.5054L21.6121 34.5053L20.8438 33.8652ZM18.9521 33.8652L18.1839 34.5054L18.1839 34.5054L18.9521 33.8652ZM17.123 31.6699L17.8913 31.0298L17.6653 30.7585L17.3191 30.6893L17.123 31.6699ZM5.5 17.4766H4.5V17.4766L5.5 17.4766ZM19.9766 3L19.9765 4C27.419 4.00019 33.4521 10.0339 33.4521 17.4766H34.4521H35.4521C35.4521 8.92949 28.5237 2.00021 19.9766 2L19.9766 3ZM34.4521 17.4766L33.4521 17.4765C33.452 24.0698 28.7158 29.558 22.4595 30.723L22.6426 31.7061L22.8256 32.6892C30.0115 31.3511 35.452 25.051 35.4521 17.4766L34.4521 17.4766ZM22.6426 31.7061L21.8743 31.066L20.0754 33.2252L20.8438 33.8652L21.6121 34.5053L23.4109 32.3461L22.6426 31.7061ZM20.8438 33.8652L20.0755 33.225C19.9833 33.3358 19.8126 33.3358 19.7204 33.225L18.9521 33.8652L18.1839 34.5054C19.0758 35.5756 20.7201 35.5756 21.612 34.5054L20.8438 33.8652ZM18.9521 33.8652L19.7204 33.2251L17.8913 31.0298L17.123 31.6699L16.3548 32.31L18.1839 34.5054L18.9521 33.8652ZM17.123 31.6699L17.3191 30.6893C11.1489 29.4559 6.50016 24.0085 6.5 17.4765L5.5 17.4766L4.5 17.4766C4.50019 24.9807 9.84048 31.2339 16.927 32.6505L17.123 31.6699ZM5.5 17.4766H6.5C6.5 10.0339 12.5339 4 19.9766 4V3V2C11.4293 2 4.5 8.9293 4.5 17.4766H5.5Z" fill="#DEE4EA" mask="url(#path-1-inside-1_454_8129)"/>
<path d="M13.9888 14.8828H25.9719V22.5926C25.9719 23.1622 25.5086 23.6255 24.939 23.6255H15.0217C14.4521 23.6255 13.9888 23.1622 13.9888 22.5926V14.8828Z" fill="#FFCA81"/>
<path d="M19.982 19.877C18.7965 19.877 17.8372 20.8363 17.8372 22.0218V23.6215H22.1268V22.0218C22.1268 20.8363 21.1675 19.877 19.982 19.877Z" fill="#FFAA34"/>
<path d="M26.8549 15.5772L26.0946 11.7754C25.9665 11.0423 25.2552 10.5 24.4185 10.5H15.545C14.7083 10.5 13.9943 11.0423 13.869 11.7754L13.1086 15.5772C13.0132 15.8416 12.9778 16.1277 13.0132 16.4275C13.1359 17.4386 14.1224 18.2398 15.2725 18.2643C16.5833 18.2916 17.6544 17.3568 17.6544 16.2013C17.6544 17.3405 18.6954 18.2643 19.9818 18.2643C21.2681 18.2643 22.3092 17.3405 22.3092 16.2013C22.3092 17.3568 23.3802 18.2916 24.6911 18.2643C25.8384 18.2398 26.825 17.4413 26.9503 16.4275C26.9858 16.1277 26.9503 15.8416 26.8549 15.5772Z" fill="#FFAA34"/>
</svg>
