<svg width="20" height="20" viewBox="0 0 20 20" fill="none" xmlns="http://www.w3.org/2000/svg">
<path d="M17.0838 10.0901C17.0838 14.0269 13.8924 17.2184 9.95554 17.2184M17.0838 10.0901C17.0838 6.15321 13.8924 2.96176 9.95554 2.96176M17.0838 10.0901H18.8659M9.95554 17.2184C6.01869 17.2184 2.82724 14.0269 2.82724 10.0901M9.95554 17.2184V19.0004M2.82724 10.0901C2.82724 6.15321 6.01869 2.96176 9.95554 2.96176M2.82724 10.0901H1.04517M9.95554 2.96176V1.17969M12.6287 10.0901C12.6287 11.5664 11.4319 12.7632 9.95554 12.7632C8.47922 12.7632 7.28243 11.5664 7.28243 10.0901C7.28243 8.61374 8.47922 7.41695 9.95554 7.41695C11.4319 7.41695 12.6287 8.61374 12.6287 10.0901Z" stroke="#00D7F3" stroke-width="1.42566" stroke-linecap="round" stroke-linejoin="round"/>
</svg>
