<svg width="24" height="24" viewBox="0 0 24 24" fill="none" xmlns="http://www.w3.org/2000/svg">
<path d="M5.13013 9.00781H18.8251V17.8191C18.8251 18.47 18.2956 18.9995 17.6446 18.9995H6.31057C5.65961 18.9995 5.13013 18.47 5.13013 17.8191V9.00781Z" fill="#FFCA81"/>
<path d="M11.9795 14.7168C10.6247 14.7168 9.52832 15.8131 9.52832 17.168V18.9963H14.4307V17.168C14.4307 15.8131 13.3344 14.7168 11.9795 14.7168Z" fill="#FFAA34"/>
<path d="M19.8343 9.80252L18.9653 5.45764C18.8189 4.61981 18.006 4 17.0498 4H6.90862C5.95243 4 5.1364 4.61981 4.99313 5.45764L4.12415 9.80252C4.01514 10.1046 3.97465 10.4317 4.01514 10.7743C4.1553 11.9298 5.28279 12.8455 6.59715 12.8735C8.09528 12.9047 9.31933 11.8364 9.31933 10.5158C9.31933 11.8177 10.5091 12.8735 11.9792 12.8735C13.4493 12.8735 14.6391 11.8177 14.6391 10.5158C14.6391 11.8364 15.8631 12.9047 17.3613 12.8735C18.6725 12.8455 19.8 11.9329 19.9433 10.7743C19.9838 10.4317 19.9433 10.1046 19.8343 9.80252Z" fill="#FFAA34"/>
</svg>
