<svg width="24" height="24" viewBox="0 0 24 24" fill="none" xmlns="http://www.w3.org/2000/svg">
<path d="M6.7573 18.6865C8.8324 18.6865 10.5146 17.0043 10.5146 14.9292C10.5146 12.8541 8.8324 11.1719 6.7573 11.1719C4.6822 11.1719 3 12.8541 3 14.9292C3 17.0043 4.6822 18.6865 6.7573 18.6865Z" fill="#DEE4EA"/>
<path d="M18.2212 18.6865C20.2963 18.6865 21.9785 17.0043 21.9785 14.9292C21.9785 12.8541 20.2963 11.1719 18.2212 11.1719C16.1461 11.1719 14.4639 12.8541 14.4639 14.9292C14.4639 17.0043 16.1461 18.6865 18.2212 18.6865Z" fill="#DEE4EA"/>
<path d="M6.75823 15.4777C6.72328 15.4777 6.68833 15.4738 6.65143 15.468C6.35434 15.4098 6.16211 15.1224 6.22036 14.8253L7.86892 6.44271C7.9194 6.1864 8.14464 6 8.40678 6H10.5175C10.8204 6 11.065 6.24466 11.065 6.54758C11.065 6.85049 10.8204 7.09515 10.5175 7.09515H8.85727L7.2961 15.0369C7.24561 15.2971 7.01648 15.4797 6.76017 15.4797L6.75823 15.4777Z" fill="#B6C2CF"/>
<path d="M18.2002 15.4782C17.9944 15.4782 17.7963 15.3617 17.7031 15.1617L15.3905 10.187H7.905C7.60208 10.187 7.35742 9.94229 7.35742 9.63937C7.35742 9.33646 7.60208 9.0918 7.905 9.0918H15.74C15.9536 9.0918 16.1458 9.21607 16.2371 9.4083L18.6973 14.6996C18.8254 14.9734 18.7051 15.2996 18.4313 15.4278C18.3575 15.4627 18.2779 15.4782 18.2002 15.4782Z" fill="#B6C2CF"/>
</svg>
