<svg width="60" height="60" viewBox="0 0 60 60" fill="none" xmlns="http://www.w3.org/2000/svg">
<g clip-path="url(#clip0_454_9414)">
<g filter="url(#filter0_d_454_9414)">
<g filter="url(#filter1_d_454_9414)">
<circle cx="30" cy="30" r="15" fill="white" stroke="#00E1FF" stroke-width="2"/>
</g>
</g>
<path d="M37.7899 26.9794L33.2211 30.8136C32.7592 31.2533 31.9356 30.9583 31.9356 30.3518V27.9032H27.3668C27.0385 27.9032 26.7769 28.1647 26.7769 28.4931V37.8644C26.7769 38.126 26.5654 38.3319 26.3095 38.3319H24.4675C24.2059 38.3319 24 38.1204 24 37.8644V28.4986C24 26.6399 25.5192 25.1207 27.3779 25.1207H31.9412V22.6777C31.9412 22.0656 32.7648 21.7706 33.2267 22.2102L37.7955 26.0501C38.0682 26.306 38.0682 26.7178 37.7955 26.9794H37.7899Z" fill="#2C333A"/>
</g>
<defs>
<filter id="filter0_d_454_9414" x="-2.84211" y="2.21053" width="65.6842" height="65.6842" filterUnits="userSpaceOnUse" color-interpolation-filters="sRGB">
<feFlood flood-opacity="0" result="BackgroundImageFix"/>
<feColorMatrix in="SourceAlpha" type="matrix" values="0 0 0 0 0 0 0 0 0 0 0 0 0 0 0 0 0 0 127 0" result="hardAlpha"/>
<feOffset dy="5.05263"/>
<feGaussianBlur stdDeviation="8.42105"/>
<feComposite in2="hardAlpha" operator="out"/>
<feColorMatrix type="matrix" values="0 0 0 0 0 0 0 0 0 0 0 0 0 0 0 0 0 0 0.02 0"/>
<feBlend mode="normal" in2="BackgroundImageFix" result="effect1_dropShadow_454_9414"/>
<feBlend mode="normal" in="SourceGraphic" in2="effect1_dropShadow_454_9414" result="shape"/>
</filter>
<filter id="filter1_d_454_9414" x="-2.84211" y="2.21053" width="65.6842" height="65.6842" filterUnits="userSpaceOnUse" color-interpolation-filters="sRGB">
<feFlood flood-opacity="0" result="BackgroundImageFix"/>
<feColorMatrix in="SourceAlpha" type="matrix" values="0 0 0 0 0 0 0 0 0 0 0 0 0 0 0 0 0 0 127 0" result="hardAlpha"/>
<feOffset dy="5.05263"/>
<feGaussianBlur stdDeviation="8.42105"/>
<feComposite in2="hardAlpha" operator="out"/>
<feColorMatrix type="matrix" values="0 0 0 0 0 0 0 0 0 0 0 0 0 0 0 0 0 0 0.02 0"/>
<feBlend mode="normal" in2="BackgroundImageFix" result="effect1_dropShadow_454_9414"/>
<feBlend mode="normal" in="SourceGraphic" in2="effect1_dropShadow_454_9414" result="shape"/>
</filter>
<clipPath id="clip0_454_9414">
<rect width="60" height="60" fill="white"/>
</clipPath>
</defs>
</svg>
