<svg width="24" height="24" viewBox="0 0 24 24" fill="none" xmlns="http://www.w3.org/2000/svg">
<path d="M17.6273 6.10547H7.28739C6.0241 6.10547 5 7.12957 5 8.39287V16.8978C5 18.1611 6.0241 19.1852 7.28739 19.1852H17.6273C18.8905 19.1852 19.9146 18.1611 19.9146 16.8978V8.39287C19.9146 7.12957 18.8905 6.10547 17.6273 6.10547Z" fill="#DEE4EA"/>
<path d="M7.18254 6.10547H17.7321C18.936 6.10547 19.9146 7.08411 19.9146 8.288V10.6977H5V8.288C5 7.08411 5.97865 6.10547 7.18254 6.10547Z" fill="#B6C2CF"/>
<path d="M7.80664 5.22258V6.98958C7.80664 7.6652 8.35388 8.21289 9.02896 8.21289C9.70404 8.21289 10.2513 7.6652 10.2513 6.98958V5.22258C10.2513 4.54697 9.70404 3.99928 9.02896 3.99928C8.35388 3.99928 7.80664 4.54697 7.80664 5.22258Z" fill="#B6C2CF"/>
<path d="M14.6582 5.22258V6.98958C14.6582 7.6652 15.2054 8.21289 15.8805 8.21289C16.5556 8.21289 17.1029 7.6652 17.1029 6.98958V5.22258C17.1029 4.54697 16.5556 3.99928 15.8805 3.99928C15.2054 3.99928 14.6582 4.54697 14.6582 5.22258Z" fill="#B6C2CF"/>
<path d="M10.7139 14.4049L11.908 15.5097L14.6207 12.5039" stroke="#B6C2CF" stroke-width="1.00971" stroke-linecap="round" stroke-linejoin="round"/>
</svg>
