<svg width="24" height="24" viewBox="0 0 24 24" fill="none" xmlns="http://www.w3.org/2000/svg">
<path d="M5.00212 2H3.95242C3.42628 2 2.99976 2.42652 2.99976 2.95267V20.083C2.99976 20.6091 3.42628 21.0357 3.95242 21.0357H5.00212C5.52826 21.0357 5.95478 20.6091 5.95478 20.083V2.95267C5.95478 2.42652 5.52826 2 5.00212 2Z" fill="#2C333A"/>
<path d="M19.4774 15.7249H5.95483V3.76367H19.5039C20.5712 3.77249 21.1798 5.03389 20.5624 5.93363L18.5865 8.80045C18.1983 9.36499 18.1983 10.106 18.5865 10.6705L20.5006 13.4579C21.1181 14.3577 20.5624 15.6985 19.5039 15.7161C19.5039 15.7161 19.4862 15.7161 19.4774 15.7161V15.7249Z" fill="#00E1FF"/>
</svg>
