<svg width="32" height="44" viewBox="0 0 32 44" fill="none" xmlns="http://www.w3.org/2000/svg">
<path d="M17.5098 5.66992C17.8908 5.66992 18.2001 6.1058 18.2002 6.64355V14.2002C20.69 15.0187 22.6382 17.0259 23.377 19.5508H28.0439C28.4808 19.551 28.8348 19.8906 28.835 20.3096V24.292C28.8348 24.711 28.4808 25.0506 28.0439 25.0508H23.0098C22.0975 27.0996 20.351 28.6933 18.2002 29.4004V36.6963C18.2001 37.234 17.8908 37.6699 17.5098 37.6699H13.8906C13.5096 37.6699 13.2003 37.234 13.2002 36.6963V29.4004C11.0494 28.6933 9.30293 27.0996 8.39062 25.0508H3.62598C3.18915 25.0506 2.83508 24.711 2.83496 24.292V20.3096C2.83508 19.8906 3.18915 19.551 3.62598 19.5508H8.02344C8.76223 17.0259 10.7104 15.0187 13.2002 14.2002V6.64355C13.2003 6.1058 13.5096 5.66992 13.8906 5.66992H17.5098ZM15.7002 18.8008C14.0433 18.8008 12.7002 20.1439 12.7002 21.8008C12.7002 23.4576 14.0433 24.8008 15.7002 24.8008C17.357 24.8008 18.7002 23.4576 18.7002 21.8008C18.7002 20.1439 17.357 18.8008 15.7002 18.8008Z" fill="#2C333A"/>
</svg>
