<svg width="32" height="32" viewBox="0 0 32 32" fill="none" xmlns="http://www.w3.org/2000/svg">
<path d="M11.6204 8.88002L10.2117 9.30078L12.8932 18.2785L14.3019 17.8577L11.6204 8.88002Z" fill="#53E285"/>
<path d="M6.78839 12.3515L16.17 9.54965C16.4291 9.47132 16.5436 9.2062 16.4412 8.95915C16.3387 8.71211 16.2182 8.46507 16.0796 8.2361C14.8625 6.16334 12.3499 5.10889 9.94573 5.82592C7.54158 6.54295 6.02316 8.80852 6.13764 11.2067C6.1497 11.4718 6.17982 11.7429 6.23405 12.008C6.28828 12.2732 6.5293 12.4298 6.78839 12.3515Z" fill="#53E285"/>
<path d="M18.7544 19.3983L20.1643 10.1251C20.2668 9.46836 20.8272 8.98633 21.49 8.98633H24.7738" stroke="#53E285" stroke-width="1.95" stroke-linecap="round" stroke-linejoin="round"/>
<path d="M23.6592 19.7654C21.7974 19.7654 21.7974 18.4277 19.9415 18.4277C18.0857 18.4277 18.0857 19.7654 16.2238 19.7654C14.362 19.7654 14.368 18.4277 12.5121 18.4277C10.6563 18.4277 10.6563 19.7654 8.79443 19.7654C7.23986 19.7654 6.98076 18.8314 5.854 18.5241C7.00487 23.1939 11.2106 26.6585 16.2298 26.6585C21.249 26.6585 25.4548 23.1939 26.6057 18.5241C25.4729 18.8314 25.2138 19.7654 23.6592 19.7654Z" fill="#53E285"/>
<path d="M12.5066 18.4333C14.3625 18.4333 14.3625 19.771 16.2183 19.771C18.0742 19.771 18.0742 18.4333 19.936 18.4333C21.7979 18.4333 21.7979 19.771 23.6537 19.771C25.2083 19.771 25.4674 18.837 26.6002 18.5297C26.6845 18.1803 26.7568 17.8187 26.8111 17.4572C26.9256 16.6739 26.329 15.9629 25.5337 15.9629H6.90899C6.11363 15.9629 5.51109 16.6739 5.6316 17.4572C5.68583 17.8187 5.75813 18.1803 5.84249 18.5297C6.97527 18.837 7.22834 19.771 8.78291 19.771C10.6387 19.771 10.6388 18.4333 12.5006 18.4333H12.5066Z" fill="#9BF7BC"/>
</svg>
