<svg width="18" height="18" viewBox="0 0 18 18" fill="none" xmlns="http://www.w3.org/2000/svg">
<path d="M15.2091 8.73654C15.2091 12.311 12.3114 15.2086 8.73703 15.2086M15.2091 8.73654C15.2091 5.16213 12.3114 2.2645 8.73703 2.2645M15.2091 8.73654H16.8271M8.73703 15.2086C5.16262 15.2086 2.26498 12.311 2.26498 8.73654M8.73703 15.2086V16.8266M2.26498 8.73654C2.26498 5.16213 5.16262 2.2645 8.73703 2.2645M2.26498 8.73654H0.646973M8.73703 2.2645V0.646484M11.1641 8.73654C11.1641 10.0769 10.0774 11.1636 8.73703 11.1636C7.39663 11.1636 6.31001 10.0769 6.31001 8.73654C6.31001 7.39614 7.39663 6.30953 8.73703 6.30953C10.0774 6.30953 11.1641 7.39614 11.1641 8.73654Z" stroke="white" stroke-width="1.29441" stroke-linecap="round" stroke-linejoin="round"/>
</svg>
