<svg width="18" height="18" viewBox="0 0 18 18" fill="none" xmlns="http://www.w3.org/2000/svg">
<path d="M15 9C15 12.3137 12.3137 15 9 15M15 9C15 5.68629 12.3137 3 9 3M15 9H16.5M9 15C5.68629 15 3 12.3137 3 9M9 15V16.5M3 9C3 5.68629 5.68629 3 9 3M3 9H1.5M9 3V1.5M11.25 9C11.25 10.2426 10.2426 11.25 9 11.25C7.75736 11.25 6.75 10.2426 6.75 9C6.75 7.75736 7.75736 6.75 9 6.75C10.2426 6.75 11.25 7.75736 11.25 9Z" stroke="#738496" stroke-width="1.2" stroke-linecap="round" stroke-linejoin="round"/>
</svg>
