<svg width="24" height="24" viewBox="0 0 24 24" fill="none" xmlns="http://www.w3.org/2000/svg">
<path d="M18.0053 9.03906H5.96978C4.54211 9.03906 3.38477 10.181 3.38477 11.5896V14.5839C3.38477 15.9925 4.54211 17.1345 5.96978 17.1345H18.0053C19.433 17.1345 20.5903 15.9925 20.5903 14.5839V11.5896C20.5903 10.181 19.433 9.03906 18.0053 9.03906Z" fill="#DEE4EA"/>
<path d="M5.51805 11.3457H4.70215C3.97458 11.3457 3.38477 11.9277 3.38477 12.6455V17.6995C3.38477 18.4174 3.97458 18.9993 4.70215 18.9993H5.51805C6.24562 18.9993 6.83543 18.4174 6.83543 17.6995V12.6455C6.83543 11.9277 6.24562 11.3457 5.51805 11.3457Z" fill="#DEE4EA"/>
<path d="M19.2983 11.3457H18.4824C17.7548 11.3457 17.165 11.9277 17.165 12.6455V17.6995C17.165 18.4174 17.7548 18.9993 18.4824 18.9993H19.2983C20.0259 18.9993 20.6157 18.4174 20.6157 17.6995V12.6455C20.6157 11.9277 20.0259 11.3457 19.2983 11.3457Z" fill="#DEE4EA"/>
<path d="M17.8445 6.69644C17.6574 5.71274 16.7818 5 15.761 5H8.21289C7.19202 5 6.3184 5.71274 6.12935 6.69644L5.68359 9.03886H18.2903L17.8445 6.69644Z" fill="#DEE4EA"/>
<path d="M7.69216 13.6148C8.28693 13.6148 8.76909 13.1326 8.76909 12.5379C8.76909 11.9431 8.28693 11.4609 7.69216 11.4609C7.09739 11.4609 6.61523 11.9431 6.61523 12.5379C6.61523 13.1326 7.09739 13.6148 7.69216 13.6148Z" fill="#B6C2CF"/>
<path d="M16.3074 13.6148C16.9022 13.6148 17.3843 13.1326 17.3843 12.5379C17.3843 11.9431 16.9022 11.4609 16.3074 11.4609C15.7126 11.4609 15.2305 11.9431 15.2305 12.5379C15.2305 13.1326 15.7126 13.6148 16.3074 13.6148Z" fill="#B6C2CF"/>
<path d="M16.1813 9.04201H7.81934L8.086 7.42019C8.16162 6.96466 8.55962 6.62891 9.02926 6.62891H14.9714C15.4391 6.62891 15.839 6.96466 15.9147 7.42019L16.1813 9.04201Z" fill="#B6C2CF"/>
</svg>
