<svg width="140" height="35" viewBox="0 0 140 35" fill="none" xmlns="http://www.w3.org/2000/svg">
<path d="M10.5068 25.1215C13.1696 25.1215 15.3283 22.9628 15.3283 20.3C15.3283 17.6372 13.1696 15.4785 10.5068 15.4785C7.84396 15.4785 5.6853 17.6372 5.6853 20.3C5.6853 22.9628 7.84396 25.1215 10.5068 25.1215Z" stroke="#2C333A" stroke-width="1.95926" stroke-linecap="round" stroke-linejoin="round"/>
<path d="M24.111 25.1215C26.7739 25.1215 28.9325 22.9628 28.9325 20.3C28.9325 17.6372 26.7739 15.4785 24.111 15.4785C21.4482 15.4785 19.2896 17.6372 19.2896 20.3C19.2896 22.9628 21.4482 25.1215 24.111 25.1215Z" stroke="#2C333A" stroke-width="1.95926" stroke-linecap="round" stroke-linejoin="round"/>
<path d="M10.5063 20.2995L14.51 10.8738C15.0084 9.70249 16.1541 8.94434 17.4276 8.94434H20.2899" stroke="#00E1FF" stroke-width="2.12963" stroke-linecap="round" stroke-linejoin="round"/>
<path d="M51.0991 9.87624V7.45344C51.0991 7.13584 50.8782 6.91504 50.5603 6.91504H36.4399C36.1281 6.91504 35.9253 7.12677 35.9253 7.45344V9.87624C35.9253 10.2029 36.1281 10.4146 36.4399 10.4146H41.6643V24.4402C41.6643 24.7578 41.8852 24.9787 42.2031 24.9787H44.8213C45.1392 24.9787 45.3601 24.7578 45.3601 24.4402V10.4146H50.5603C50.8782 10.4146 51.0991 10.1938 51.0991 9.87624Z" fill="#00E1FF"/>
<path d="M55.4733 11.8574C51.4657 11.8574 48.6658 14.6039 48.6658 18.539C48.6658 22.4742 51.4657 25.2206 55.4733 25.2206C59.4809 25.2206 62.2807 22.4742 62.2807 18.539C62.2807 14.6039 59.4809 11.8574 55.4733 11.8574ZM55.4733 21.9328C53.5996 21.9328 52.3374 20.5686 52.3374 18.536C52.3374 16.5034 53.5966 15.1392 55.4733 15.1392C57.3499 15.1392 58.6091 16.5034 58.6091 18.536C58.6091 20.5686 57.3499 21.9328 55.4733 21.9328Z" fill="#00E1FF"/>
<path d="M76.0679 12.0959H73.5707C73.2529 12.0959 73.0319 12.3167 73.0319 12.6343V18.6565C73.0319 20.919 71.6637 21.9323 70.3047 21.9323C68.8185 21.9323 68.1556 21.0702 68.1556 19.1344V12.6313C68.1556 12.3137 67.9346 12.0929 67.6168 12.0929H65.1196C64.8018 12.0929 64.5808 12.3137 64.5808 12.6313V20.4048C64.5808 23.4174 66.3637 25.2141 69.3451 25.2141C70.8798 25.2141 72.2812 24.6303 73.2075 23.6261L73.2498 24.4337C73.2498 24.7574 73.4769 24.9721 73.8128 24.9721H76.0709C76.3887 24.9721 76.6097 24.7513 76.6097 24.4337V12.6282C76.6097 12.3106 76.3887 12.0898 76.0709 12.0898L76.0679 12.0959Z" fill="#00E1FF"/>
<path d="M87.3135 12.0083H87.3044C87.032 11.9509 86.7777 11.9297 86.4205 11.9297C84.9979 11.9297 83.6963 12.5225 82.8246 13.5449L82.7822 12.6375C82.7822 12.3138 82.5552 12.0991 82.2192 12.0991H79.9612C79.6433 12.0991 79.4224 12.3199 79.4224 12.6375V24.4429C79.4224 24.7605 79.6433 24.9813 79.9612 24.9813H82.4583C82.7762 24.9813 82.9971 24.7605 82.9971 24.4429V18.3239C82.9971 16.4244 84.5257 15.4323 86.0361 15.4323C86.3449 15.4323 86.6082 15.4656 86.8383 15.4928C86.9563 15.5079 87.0653 15.52 87.1652 15.5291C87.3528 15.5503 87.5011 15.514 87.6041 15.4202C87.7039 15.3325 87.7524 15.2055 87.7524 15.0391V12.5679C87.7524 12.2806 87.598 12.0809 87.3165 12.0114L87.3135 12.0083Z" fill="#00E1FF"/>
<path d="M101.512 6.52841H99.0152C98.6974 6.52841 98.4764 6.74922 98.4764 7.06682V13.2584C97.5229 12.351 96.2335 11.8549 94.7896 11.8549C91.1786 11.8549 88.751 14.5409 88.751 18.5365C88.751 22.5322 91.1786 25.2181 94.7896 25.2181C96.3515 25.2181 97.6985 24.6646 98.652 23.6423L98.6943 24.4378C98.6943 24.7614 98.9214 24.9762 99.2573 24.9762H101.515C101.833 24.9762 102.054 24.7554 102.054 24.4378V7.06379C102.054 6.74619 101.833 6.52539 101.515 6.52539L101.512 6.52841ZM95.5585 21.9333C93.6848 21.9333 92.4226 20.5692 92.4226 18.5365C92.4226 16.5039 93.6818 15.1398 95.5585 15.1398C97.4351 15.1398 98.6943 16.5039 98.6943 18.5365C98.6943 20.5692 97.4351 21.9333 95.5585 21.9333Z" fill="#00E1FF"/>
<path d="M106.349 6.43457C105.159 6.43457 104.297 7.25729 104.297 8.38854C104.297 9.51978 105.159 10.3425 106.349 10.3425C107.538 10.3425 108.401 9.51978 108.401 8.38854C108.401 7.25729 107.538 6.43457 106.349 6.43457Z" fill="#00E1FF"/>
<path d="M107.599 12.0967H105.102C104.804 12.0967 104.563 12.3377 104.563 12.6351V24.4405C104.563 24.7379 104.804 24.979 105.102 24.979H107.599C107.897 24.979 108.138 24.7379 108.138 24.4405V12.6351C108.138 12.3377 107.897 12.0967 107.599 12.0967Z" fill="#00E1FF"/>
<path d="M118.514 11.8574C116.98 11.8574 115.581 12.4412 114.652 13.4454L114.61 12.6348C114.61 12.3111 114.383 12.0964 114.047 12.0964H111.789C111.471 12.0964 111.25 12.3172 111.25 12.6348V24.4402C111.25 24.7578 111.471 24.9786 111.789 24.9786H114.286C114.604 24.9786 114.825 24.7578 114.825 24.4402V18.418C114.825 16.1555 116.193 15.1423 117.552 15.1423C119.038 15.1423 119.701 16.0043 119.701 17.9401V24.4433C119.701 24.7609 119.922 24.9817 120.24 24.9817H122.737C123.055 24.9817 123.276 24.7609 123.276 24.4433V16.6697C123.276 13.6571 121.493 11.8604 118.511 11.8604L118.514 11.8574Z" fill="#00E1FF"/>
<path d="M138.038 12.0965H135.78C135.444 12.0965 135.217 12.3142 135.217 12.6228L135.174 13.4304C134.221 12.411 132.874 11.8545 131.312 11.8545C127.701 11.8545 125.273 14.5404 125.273 18.5361C125.273 22.5317 127.701 25.2177 131.312 25.2177C132.756 25.2177 134.045 24.7247 134.999 23.8142V24.3647C134.999 26.7966 132.913 27.1626 131.672 27.1626C130.225 27.1626 129.26 26.6575 128.627 25.5746C128.467 25.2963 128.203 25.1965 127.943 25.3054L125.924 26.0495C125.758 26.113 125.646 26.2098 125.594 26.3368C125.546 26.4608 125.558 26.6 125.625 26.73C126.566 29.0561 128.86 30.4474 131.766 30.4474C135.964 30.4474 138.574 27.9974 138.574 24.0532V12.6318C138.574 12.3142 138.353 12.0934 138.035 12.0934L138.038 12.0965ZM132.084 21.9328C130.21 21.9328 128.948 20.5687 128.948 18.5361C128.948 16.5035 130.207 15.1393 132.084 15.1393C133.961 15.1393 135.22 16.5035 135.22 18.5361C135.22 20.5687 133.961 21.9328 132.084 21.9328Z" fill="#00E1FF"/>
</svg>
