<svg width="24" height="25" viewBox="0 0 24 25" fill="none" xmlns="http://www.w3.org/2000/svg">
<path d="M5.48254 17.9484C5.52805 17.994 5.58267 18.0486 5.62818 18.0941C6.92982 19.4048 9.25093 21.2344 10.7073 22.3449C11.4719 22.9275 12.5278 22.9275 13.2924 22.3449C14.7488 21.2344 17.0699 19.4048 18.3715 18.0941C18.417 18.0486 18.4717 17.994 18.5172 17.9484C18.5445 17.9211 18.5627 17.8938 18.59 17.8665C20.3376 16.0278 21.3389 13.461 21.0567 10.6574C20.6289 6.45212 17.2246 3.02052 13.0284 2.5563C7.53968 1.95554 2.89746 6.24276 2.89746 11.6041C2.89746 14.0344 3.85321 16.2372 5.40972 17.8756" fill="#00E1FF"/>
<path d="M11.9998 13.6969C13.156 13.6969 14.0934 12.7596 14.0934 11.6033C14.0934 10.4471 13.156 9.50977 11.9998 9.50977C10.8436 9.50977 9.90625 10.4471 9.90625 11.6033C9.90625 12.7596 10.8436 13.6969 11.9998 13.6969Z" fill="#2C333A"/>
</svg>
