<svg width="176" height="197" viewBox="0 0 176 197" fill="none" xmlns="http://www.w3.org/2000/svg">
<g clip-path="url(#clip0_791_11417)">
<path d="M93.1127 1.64116C93.0142 0.639361 92.1224 -0.0929858 91.1206 0.00541796C90.1188 0.103822 89.3864 0.995712 89.4848 1.99751C89.5832 2.99931 90.4751 3.73166 91.4769 3.63325C92.4787 3.53485 93.2111 2.64296 93.1127 1.64116Z" fill="#8598A2"/>
<path d="M104.974 14.5898L115.928 13.5139C116.979 13.4106 117.913 14.1771 118.016 15.2287C118.119 16.2802 117.353 17.2137 116.301 17.317L105.348 18.3929L104.974 14.5898Z" fill="#8598A2"/>
<path d="M109.056 21.6818L109.245 23.6321C109.725 28.5057 107.995 33.0843 104.882 36.3862C103.693 37.6498 102.302 38.724 100.757 39.5561C98.9167 40.5422 96.8564 41.1894 94.6463 41.4095C94.4878 41.4271 94.3337 41.4403 94.1796 41.4491C91.974 41.5988 89.8343 41.3039 87.8532 40.6391C81.9802 38.6491 77.5205 33.3837 76.8733 26.8151L76.684 24.8648C76.6179 24.1824 76.5959 23.5 76.6091 22.8308C76.7764 16.3459 80.8047 10.6667 86.6425 8.24526C88.0821 7.64651 89.6362 7.25029 91.274 7.0918C91.7538 7.04337 92.2381 7.01255 92.718 7.01255C96.645 6.97293 100.317 8.35092 103.183 10.7063C103.5 10.966 103.804 11.239 104.099 11.5207C106.044 13.383 107.537 15.7208 108.373 18.3887C108.505 18.8069 108.62 19.2296 108.721 19.6698C108.871 20.3258 108.981 21.0038 109.047 21.6906L109.056 21.6818Z" fill="#CAD6E0"/>
<path d="M83.9017 24.9628L83.9193 25.1345C83.9765 25.7288 83.6639 26.2748 83.1709 26.5389C83.008 26.627 82.8275 26.6842 82.6338 26.7018C82.6205 26.7018 82.6073 26.7018 82.5941 26.7018C82.4004 26.715 82.2111 26.6886 82.035 26.6314C81.5155 26.4553 81.1237 25.993 81.0665 25.4119L81.0488 25.2402C81.0444 25.1785 81.04 25.1213 81.04 25.0597C81.0532 24.4873 81.4098 23.9854 81.9249 23.7741C82.0526 23.7213 82.1891 23.6861 82.3344 23.6729C82.3784 23.6729 82.418 23.6641 82.4621 23.6641C82.8099 23.6641 83.1312 23.7829 83.3866 23.9899C83.5979 24.1615 83.7608 24.3949 83.8444 24.6678C83.8577 24.7031 83.8665 24.7427 83.8753 24.7823C83.8885 24.8395 83.8973 24.9012 83.9061 24.9584L83.9017 24.9628Z" fill="#8598A2"/>
<path d="M76.8817 26.8125L75.8339 26.9138C75.015 26.993 74.4691 27.7811 74.6672 28.5779C75.6578 32.5578 80.9672 42.7497 94.6503 41.4069L76.8817 26.8125Z" fill="#CAD6E0"/>
<path d="M104.227 48.1613H91.3232L87.0352 34.8965H99.939L104.227 48.1613Z" fill="#CAD6E0"/>
<path d="M101.337 77.4954L53.2744 85.6504L57.0187 107.717L105.081 99.5624L101.337 77.4954Z" fill="#8598A2"/>
<path d="M108.833 52.318L119.161 98.1704L95.4577 95.5157L72.2476 85.4955L87.4231 50.3457" fill="#8598A2"/>
<path d="M33.7454 197.001C15.1403 197.001 0 181.865 0 163.255C0 144.646 15.1359 129.51 33.7454 129.51C52.3549 129.51 67.4908 144.646 67.4908 163.255C67.4908 181.865 52.3549 197.001 33.7454 197.001ZM33.7454 135.237C18.2969 135.237 5.72329 147.807 5.72329 163.26C5.72329 178.712 18.2925 191.282 33.7454 191.282C49.1983 191.282 61.7675 178.712 61.7675 163.26C61.7675 147.807 49.1983 135.237 33.7454 135.237Z" fill="#8598A2"/>
<path d="M141.768 197.001C123.163 197.001 108.023 181.865 108.023 163.255C108.023 144.646 123.159 129.51 141.768 129.51C160.378 129.51 175.514 144.646 175.514 163.255C175.514 181.865 160.378 197.001 141.768 197.001ZM141.768 135.237C126.32 135.237 113.746 147.807 113.746 163.26C113.746 178.712 126.315 191.282 141.768 191.282C157.221 191.282 169.79 178.712 169.79 163.26C169.79 147.807 157.221 135.237 141.768 135.237Z" fill="#8598A2"/>
<path d="M33.3545 163.259L44.942 108.307" stroke="#ACBDC6" stroke-width="5.28304" stroke-miterlimit="10" stroke-linecap="round"/>
<path d="M42.3555 120.564H124.366L141.769 163.256" stroke="#ACBDC6" stroke-width="5.28304" stroke-linecap="round" stroke-linejoin="round"/>
<path d="M108.244 59.3328C110.691 53.6649 108.013 47.0578 102.262 44.5753C96.5117 42.0928 89.8665 44.6751 87.4196 50.3429C84.9728 56.0108 87.6509 62.6179 93.4014 65.1004C99.1518 67.5829 105.797 65.0006 108.244 59.3328Z" fill="#8598A2"/>
<path d="M117.562 93.3817C114.278 87.9182 107.185 86.1527 101.722 89.437L83.0506 100.663L73.2814 106.536C67.7518 109.86 65.96 117.041 69.2883 122.575L75.1613 132.344L89.016 155.387L108.801 143.491L94.9462 120.448L113.617 109.222C119.081 105.938 120.846 98.8452 117.562 93.3817Z" fill="#F1F7FD"/>
<path d="M89.0222 155.382C88.692 159.278 85.7511 163.866 83.3033 166.912L81.9737 168.572C80.5913 170.293 80.4285 172.693 81.5643 174.581C83.0612 177.073 86.297 177.879 88.7933 176.382L98.2367 170.707L114.944 160.661C116.644 159.639 117.194 157.434 116.173 155.734L108.812 143.486L89.0266 155.382H89.0222Z" fill="#ACBDC6"/>
<path d="M114.45 160.94L97.5357 171.111C96.8647 171.515 96.6479 172.386 97.0514 173.057L98.3899 175.283C98.7934 175.954 99.6644 176.17 100.335 175.767L117.249 165.596C117.92 165.193 118.137 164.322 117.734 163.651L116.395 161.425C115.992 160.754 115.121 160.537 114.45 160.94Z" fill="#7B8E9B"/>
<path d="M46.8591 87.1582H43.0201C41.2111 87.1582 39.7446 88.6247 39.7446 90.4337V106.661C39.7446 108.47 41.2111 109.937 43.0201 109.937H46.8591C48.6681 109.937 50.1346 108.47 50.1346 106.661V90.4337C50.1346 88.6247 48.6681 87.1582 46.8591 87.1582Z" fill="#8598A2"/>
<path d="M110.378 21.4607L110.568 23.411C111.048 28.2846 108.842 32.9117 104.977 36.284L92.5967 15.0462L104.563 11.3789C106.896 13.2016 108.666 15.5129 109.626 18.1676C109.78 18.5814 109.907 19.0085 110.022 19.4443C110.189 20.1003 110.308 20.7739 110.378 21.4607Z" fill="#8598A2"/>
<path d="M57.0152 107.706C63.1903 106.659 67.3591 100.875 66.3264 94.7887C65.2936 88.7022 59.4505 84.6176 53.2753 85.6653C47.1002 86.7131 42.9314 92.4965 43.9642 98.583C44.9969 104.669 50.84 108.754 57.0152 107.706Z" fill="#CAD6E0"/>
<path d="M110.483 17.8889L74.9152 21.3801C74.8271 20.4864 74.8095 19.6059 74.8492 18.7386C74.9064 17.5675 75.0781 16.4141 75.3554 15.3046C77.1341 8.18133 83.2272 2.60773 90.9536 1.8505C100.771 0.886342 109.515 8.06247 110.483 17.8845V17.8889Z" fill="#A5B7C2"/>
<path d="M81.3154 16.4194C81.3595 16.8773 81.2142 17.3175 80.9368 17.6521C80.6683 17.9867 80.2676 18.2156 79.801 18.2597L74.8525 18.7439C74.9098 17.5729 75.0815 16.4194 75.3588 15.31L79.4708 14.9049C80.3953 14.8125 81.223 15.4905 81.311 16.415L81.3154 16.4194Z" fill="#CAD6E0"/>
<path d="M99.7857 31.2922C102.482 31.2922 104.668 29.1062 104.668 26.4097C104.668 23.7133 102.482 21.5273 99.7857 21.5273C97.0892 21.5273 94.9033 23.7133 94.9033 26.4097C94.9033 29.1062 97.0892 31.2922 99.7857 31.2922Z" fill="#CAD6E0"/>
<rect x="122.445" y="50" width="22" height="4" rx="2" fill="#CAD6E0"/>
<rect x="122.445" y="59" width="32" height="4" rx="2" fill="#CAD6E0"/>
</g>
<defs>
<clipPath id="clip0_791_11417">
<rect width="175.516" height="197" fill="white"/>
</clipPath>
</defs>
</svg>
