<svg width="24" height="24" viewBox="0 0 24 24" fill="none" xmlns="http://www.w3.org/2000/svg">
<path d="M18.2398 9.06445H6.59717V17.4468H18.2398V9.06445Z" fill="white"/>
<path d="M19.4558 17.4473H5.38072C5.11463 17.4473 4.89893 17.663 4.89893 17.9291V18.5184C4.89893 18.7845 5.11463 19.0002 5.38072 19.0002H19.4558C19.7219 19.0002 19.9376 18.7845 19.9376 18.5184V17.9291C19.9376 17.663 19.7219 17.4473 19.4558 17.4473Z" fill="white"/>
<path d="M12.4205 12.8613C13.6834 12.8613 14.7078 13.8857 14.7078 15.1487V17.3799C14.7078 17.4127 14.6798 17.4407 14.647 17.4407H10.1892C10.1565 17.4407 10.1284 17.4127 10.1284 17.3799V15.1487C10.1284 13.8857 11.1528 12.8613 12.4158 12.8613H12.4205Z" fill="#738496"/>
<path d="M21.3317 9.06427H18.5251C18.1228 9.06427 17.9217 8.76022 17.7954 8.37198L17.3042 5.64959C17.3042 4.92455 16.6868 4.33984 15.9243 4.33984H8.9172C8.15475 4.33984 7.5373 4.92923 7.5373 5.64959L7.04614 8.37198C6.93388 8.74151 6.71871 9.06427 6.31643 9.06427H3.50984C2.89707 9.06427 2.59302 9.56945 3.0374 9.85479C4.06648 10.5143 6.52692 11.347 12.4254 11.347C18.3239 11.347 20.7844 10.5143 21.8135 9.85479C22.2579 9.56945 21.9491 9.06427 21.341 9.06427H21.3317Z" fill="#738496"/>
</svg>
