<svg width="24" height="24" viewBox="0 0 24 24" fill="none" xmlns="http://www.w3.org/2000/svg">
<path d="M6.16125 5.82617H16.951V7.82374C16.951 10.5528 14.7359 12.7679 12.0068 12.7679H11.1034C8.37432 12.7679 6.15918 10.5528 6.15918 7.82374V5.82617H6.16125Z" fill="#DEE4EA"/>
<path d="M16.953 18.0645H6.16326V16.0669C6.16326 13.3378 8.3784 11.1227 11.1074 11.1227H12.0109C14.7399 11.1227 16.9551 13.3378 16.9551 16.0669V18.0645H16.953Z" fill="#DEE4EA"/>
<path d="M17.8342 4H5.46754C4.96284 4 4.55371 4.40867 4.55371 4.91279C4.55371 5.41691 4.96284 5.82559 5.46754 5.82559H17.8342C18.3389 5.82559 18.748 5.41691 18.748 4.91279C18.748 4.40867 18.3389 4 17.8342 4Z" fill="#B6C2CF"/>
<path d="M17.8342 18.0645H5.46754C4.96284 18.0645 4.55371 18.4731 4.55371 18.9772C4.55371 19.4814 4.96284 19.89 5.46754 19.89H17.8342C18.3389 19.89 18.748 19.4814 18.748 18.9772C18.748 18.4731 18.3389 18.0645 17.8342 18.0645Z" fill="#B6C2CF"/>
</svg>
