<svg width="24" height="24" viewBox="0 0 24 24" fill="none" xmlns="http://www.w3.org/2000/svg">
<path d="M7.75868 3H16.2387C17.1665 3 17.92 3.75255 17.92 4.67928V17.9152C17.92 18.2881 17.6159 18.5918 17.2426 18.5918H6.75261C6.37925 18.5918 6.0752 18.2881 6.0752 17.9152V4.67928C6.0752 3.75255 6.82863 3 7.75645 3H7.75868Z" fill="#DEE4EA"/>
<path d="M8.74165 12.3617C9.32815 12.3617 9.80361 11.8868 9.80361 11.301C9.80361 10.7151 9.32815 10.2402 8.74165 10.2402C8.15514 10.2402 7.67969 10.7151 7.67969 11.301C7.67969 11.8868 8.15514 12.3617 8.74165 12.3617Z" fill="#B6C2CF"/>
<path d="M18.4388 17.625H5.56116C5.25124 17.625 5 17.8759 5 18.1855V19.7464C5 20.056 5.25124 20.3069 5.56116 20.3069H18.4388C18.7488 20.3069 19 20.056 19 19.7464V18.1855C19 17.8759 18.7488 17.625 18.4388 17.625Z" fill="#B6C2CF"/>
</svg>
