<svg width="248" height="80" viewBox="0 0 248 80" fill="none" xmlns="http://www.w3.org/2000/svg">
<path d="M39.6255 23.1868V17.4984C39.6255 16.7528 39.1067 16.2344 38.3605 16.2344H5.20812C4.47614 16.2344 4 16.7315 4 17.4984V23.1868C4 23.9537 4.47614 24.4508 5.20812 24.4508H17.4742V57.3805C17.4742 58.1262 17.9929 58.6446 18.7391 58.6446H24.8864C25.6326 58.6446 26.1513 58.1262 26.1513 57.3805V24.4508H38.3605C39.1067 24.4508 39.6255 23.9324 39.6255 23.1868Z" fill="#00E1FF"/>
<path d="M49.8949 27.8379C40.4857 27.8379 33.9121 34.2861 33.9121 43.5251C33.9121 52.7642 40.4857 59.2124 49.8949 59.2124C59.3041 59.2124 65.8777 52.7642 65.8777 43.5251C65.8777 34.2861 59.3041 27.8379 49.8949 27.8379ZM49.8949 51.493C45.4959 51.493 42.5324 48.2902 42.5324 43.518C42.5324 38.7458 45.4888 35.543 49.8949 35.543C54.301 35.543 57.2574 38.7458 57.2574 43.518C57.2574 48.2902 54.301 51.493 49.8949 51.493Z" fill="#00E1FF"/>
<path d="M98.2475 28.399H92.3845C91.6383 28.399 91.1195 28.9174 91.1195 29.663V43.8021C91.1195 49.1141 87.9073 51.4931 84.7164 51.4931C81.2271 51.4931 79.6708 49.4691 79.6708 44.9242V29.6559C79.6708 28.9103 79.152 28.3919 78.4058 28.3919H72.5428C71.7966 28.3919 71.2778 28.9103 71.2778 29.6559V47.9068C71.2778 54.9799 75.4636 59.1982 82.4637 59.1982C86.0667 59.1982 89.3571 57.8276 91.5317 55.4699L91.6312 57.366C91.6312 58.1259 92.1642 58.6301 92.953 58.6301H98.2546C99.0008 58.6301 99.5196 58.1117 99.5196 57.366V29.6488C99.5196 28.9032 99.0008 28.3848 98.2546 28.3848L98.2475 28.399Z" fill="#00E1FF"/>
<path d="M124.65 28.1924H124.629C123.989 28.0575 123.392 28.0078 122.554 28.0078C119.213 28.0078 116.158 29.3997 114.111 31.8L114.011 29.6696C114.011 28.9097 113.478 28.4055 112.69 28.4055H107.388C106.642 28.4055 106.123 28.9239 106.123 29.6696V57.3868C106.123 58.1324 106.642 58.6508 107.388 58.6508H113.251C113.997 58.6508 114.516 58.1324 114.516 57.3868V43.0204C114.516 38.5607 118.105 36.2314 121.651 36.2314C122.376 36.2314 122.994 36.3095 123.534 36.3734C123.811 36.4089 124.067 36.4373 124.302 36.4586C124.742 36.5083 125.091 36.4231 125.332 36.203C125.567 35.997 125.68 35.6987 125.68 35.3082V29.5062C125.68 28.8316 125.318 28.3629 124.657 28.1996L124.65 28.1924Z" fill="#00E1FF"/>
<path d="M157.987 15.3255H152.124C151.378 15.3255 150.859 15.8439 150.859 16.5895V31.1263C148.62 28.9959 145.593 27.8312 142.203 27.8312C133.725 27.8312 128.025 34.1374 128.025 43.5185C128.025 52.8995 133.725 59.2057 142.203 59.2057C145.87 59.2057 149.032 57.9061 151.271 55.5058L151.37 57.3735C151.37 58.1334 151.903 58.6376 152.692 58.6376H157.994C158.74 58.6376 159.259 58.1192 159.259 57.3735V16.5824C159.259 15.8368 158.74 15.3184 157.994 15.3184L157.987 15.3255ZM144.008 51.4935C139.609 51.4935 136.645 48.2907 136.645 43.5185C136.645 38.7462 139.602 35.5435 144.008 35.5435C148.414 35.5435 151.37 38.7462 151.37 43.5185C151.37 48.2907 148.414 51.4935 144.008 51.4935Z" fill="#00E1FF"/>
<path d="M169.343 15.1055C166.55 15.1055 164.524 17.0371 164.524 19.693C164.524 22.349 166.55 24.2806 169.343 24.2806C172.136 24.2806 174.161 22.349 174.161 19.693C174.161 17.0371 172.136 15.1055 169.343 15.1055Z" fill="#00E1FF"/>
<path d="M172.278 28.4004H166.415C165.716 28.4004 165.15 28.9663 165.15 29.6645V57.3816C165.15 58.0798 165.716 58.6457 166.415 58.6457H172.278C172.976 58.6457 173.543 58.0798 173.543 57.3816V29.6645C173.543 28.9663 172.976 28.4004 172.278 28.4004Z" fill="#00E1FF"/>
<path d="M197.904 27.8379C194.301 27.8379 191.018 29.2085 188.836 31.5662L188.737 29.663C188.737 28.9031 188.204 28.3989 187.415 28.3989H182.113C181.367 28.3989 180.848 28.9173 180.848 29.663V57.3802C180.848 58.1258 181.367 58.6442 182.113 58.6442H187.976C188.723 58.6442 189.241 58.1258 189.241 57.3802V43.2411C189.241 37.9291 192.453 35.5501 195.644 35.5501C199.134 35.5501 200.69 37.5741 200.69 42.119V57.3873C200.69 58.1329 201.209 58.6513 201.955 58.6513H207.818C208.564 58.6513 209.083 58.1329 209.083 57.3873V39.1364C209.083 32.0633 204.897 27.845 197.897 27.845L197.904 27.8379Z" fill="#00E1FF"/>
<path d="M243.742 28.4001H238.441C237.652 28.4001 237.119 28.9115 237.119 29.6358L237.019 31.5319C234.781 29.1387 231.618 27.832 227.951 27.832C219.473 27.832 213.773 34.1382 213.773 43.5193C213.773 52.9004 219.473 59.2065 227.951 59.2065C231.341 59.2065 234.368 58.0489 236.607 55.9114V57.2039C236.607 62.9135 231.711 63.7728 228.797 63.7728C225.4 63.7728 223.133 62.5868 221.648 60.0445C221.271 59.3911 220.653 59.1568 220.041 59.4124L215.301 61.1594C214.91 61.3085 214.648 61.5358 214.527 61.8341C214.413 62.1252 214.441 62.4519 214.598 62.7572C216.808 68.2183 222.195 71.485 229.017 71.485C238.874 71.485 245 65.7328 245 56.4724V29.6571C245 28.9115 244.481 28.393 243.735 28.393L243.742 28.4001ZM229.763 51.4943C225.364 51.4943 222.401 48.2915 222.401 43.5193C222.401 38.747 225.357 35.5443 229.763 35.5443C234.169 35.5443 237.126 38.747 237.126 43.5193C237.126 48.2915 234.169 51.4943 229.763 51.4943Z" fill="#00E1FF"/>
</svg>
